<svg width="84" height="84" viewBox="0 0 84 84" fill="none" xmlns="http://www.w3.org/2000/svg">
<g clip-path="url(#clip0_2639_6761)" filter="url(#filter0_d_2639_6761)">
<rect width="32" height="32" transform="translate(12 40)" fill="black" fill-opacity="0.022"/>
<path d="M40 54V65.3333C40 66.0406 39.719 66.7189 39.219 67.219C38.7189 67.719 38.0406 68 37.3333 68H18.6667C17.9594 68 17.2811 67.719 16.781 67.219C16.281 66.7189 16 66.0406 16 65.3333V46.6667C16 45.9594 16.281 45.2811 16.781 44.781C17.2811 44.281 17.9594 44 18.6667 44H35.3333" stroke="white" stroke-width="2.66667" stroke-linecap="round" stroke-linejoin="round"/>
<path d="M24 54.6666L28 58.6666L41.3333 45.3333" stroke="white" stroke-width="2.66667" stroke-linecap="round" stroke-linejoin="round"/>
</g>
<defs>
<filter id="filter0_d_2639_6761" x="-28" y="0" width="112" height="112" filterUnits="userSpaceOnUse" color-interpolation-filters="sRGB">
<feFlood flood-opacity="0" result="BackgroundImageFix"/>
<feColorMatrix in="SourceAlpha" type="matrix" values="0 0 0 0 0 0 0 0 0 0 0 0 0 0 0 0 0 0 127 0" result="hardAlpha"/>
<feOffset/>
<feGaussianBlur stdDeviation="20"/>
<feComposite in2="hardAlpha" operator="out"/>
<feColorMatrix type="matrix" values="0 0 0 0 0.211765 0 0 0 0 0.827451 0 0 0 0 0.6 0 0 0 0.3 0"/>
<feBlend mode="normal" in2="BackgroundImageFix" result="effect1_dropShadow_2639_6761"/>
<feBlend mode="normal" in="SourceGraphic" in2="effect1_dropShadow_2639_6761" result="shape"/>
</filter>
<clipPath id="clip0_2639_6761">
<rect width="32" height="32" fill="white" transform="translate(12 40)"/>
</clipPath>
</defs>
</svg>
