<svg width="64" height="64" viewBox="0 0 64 64" fill="none" xmlns="http://www.w3.org/2000/svg">
<path d="M0 10C0 4.47715 4.47715 0 10 0H54C59.5228 0 64 4.47715 64 10V54C64 59.5228 59.5228 64 54 64H10C4.47715 64 0 59.5228 0 54V10Z" fill="url(#paint0_linear_2639_6449)"/>
<path d="M32.0004 22.6666C32.002 22.1333 31.8969 21.6051 31.6914 21.113C31.4858 20.6209 31.1839 20.1749 30.8035 19.8012C30.423 19.4275 29.9717 19.1336 29.476 18.9369C28.9803 18.7402 28.4503 18.6445 27.9171 18.6557C27.3839 18.6668 26.8583 18.7844 26.3713 19.0016C25.8842 19.2188 25.4455 19.5312 25.081 19.9204C24.7164 20.3097 24.4334 20.7679 24.2485 21.2681C24.0636 21.7683 23.9806 22.3005 24.0044 22.8332C23.2207 23.0348 22.4931 23.412 21.8767 23.9363C21.2604 24.4607 20.7714 25.1184 20.4469 25.8597C20.1224 26.601 19.9708 27.4064 20.0036 28.215C20.0364 29.0235 20.2529 29.814 20.6364 30.5266C19.962 31.0745 19.4317 31.7789 19.0915 32.5785C18.7514 33.3781 18.6118 34.2487 18.6849 35.1146C18.758 35.9804 19.0415 36.8153 19.5108 37.5466C19.9802 38.2779 20.621 38.8834 21.3778 39.3106C21.2843 40.0336 21.3401 40.768 21.5416 41.4686C21.7431 42.1692 22.0862 42.821 22.5495 43.3838C23.0128 43.9467 23.5866 44.4085 24.2354 44.7409C24.8842 45.0733 25.5943 45.2691 26.3217 45.3164C27.0492 45.3636 27.7786 45.2611 28.4649 45.0154C29.1513 44.7696 29.7799 44.3858 30.3121 43.8876C30.8443 43.3894 31.2687 42.7873 31.559 42.1187C31.8494 41.45 31.9996 40.7289 32.0004 39.9999V22.6666Z" stroke="white" stroke-width="2.66667" stroke-linecap="round" stroke-linejoin="round"/>
<path d="M32 22.6666C31.9984 22.1333 32.1035 21.6051 32.3091 21.113C32.5147 20.6209 32.8165 20.1749 33.197 19.8012C33.5774 19.4275 34.0288 19.1336 34.5245 18.9369C35.0202 18.7402 35.5502 18.6445 36.0834 18.6557C36.6165 18.6668 37.1421 18.7844 37.6292 19.0016C38.1162 19.2188 38.5549 19.5312 38.9195 19.9204C39.284 20.3097 39.5671 20.7679 39.752 21.2681C39.9368 21.7683 40.0198 22.3005 39.996 22.8332C40.7797 23.0348 41.5073 23.412 42.1237 23.9363C42.7401 24.4607 43.229 25.1184 43.5536 25.8597C43.8781 26.601 44.0297 27.4064 43.9968 28.215C43.964 29.0235 43.7476 29.814 43.364 30.5266C44.0384 31.0745 44.5688 31.7789 44.9089 32.5785C45.249 33.3781 45.3886 34.2487 45.3155 35.1146C45.2425 35.9804 44.9589 36.8153 44.4896 37.5466C44.0203 38.2779 43.3794 38.8834 42.6227 39.3106C42.7161 40.0336 42.6604 40.768 42.4588 41.4686C42.2573 42.1692 41.9143 42.821 41.451 43.3838C40.9877 43.9467 40.4139 44.4085 39.7651 44.7409C39.1162 45.0733 38.4062 45.2691 37.6787 45.3164C36.9512 45.3636 36.2218 45.2611 35.5355 45.0154C34.8492 44.7696 34.2205 44.3858 33.6883 43.8876C33.1562 43.3894 32.7318 42.7873 32.4414 42.1187C32.151 41.45 32.0008 40.7289 32 39.9999V22.6666Z" stroke="white" stroke-width="2.66667" stroke-linecap="round" stroke-linejoin="round"/>
<path d="M36 33.3333C34.8806 32.9395 33.9031 32.2227 33.1911 31.2733C32.4791 30.324 32.0646 29.1849 32 28C31.9354 29.1849 31.5209 30.324 30.8089 31.2733C30.0969 32.2227 29.1194 32.9395 28 33.3333" stroke="white" stroke-width="2.66667" stroke-linecap="round" stroke-linejoin="round"/>
<path d="M39.4648 24.6666C39.7875 24.1074 39.9701 23.4783 39.9968 22.8333" stroke="white" stroke-width="2.66667" stroke-linecap="round" stroke-linejoin="round"/>
<path d="M24.0039 22.8333C24.0303 23.4782 24.2123 24.1072 24.5346 24.6666" stroke="white" stroke-width="2.66667" stroke-linecap="round" stroke-linejoin="round"/>
<path d="M20.6367 30.528C20.8806 30.3293 21.1417 30.1527 21.4167 30" stroke="white" stroke-width="2.66667" stroke-linecap="round" stroke-linejoin="round"/>
<path d="M42.584 30C42.859 30.1527 43.1201 30.3293 43.364 30.528" stroke="white" stroke-width="2.66667" stroke-linecap="round" stroke-linejoin="round"/>
<path d="M23.9996 40C23.0807 40.0004 22.1773 39.7634 21.377 39.312" stroke="white" stroke-width="2.66667" stroke-linecap="round" stroke-linejoin="round"/>
<path d="M42.6227 39.312C41.8223 39.7634 40.9189 40.0004 40 40" stroke="white" stroke-width="2.66667" stroke-linecap="round" stroke-linejoin="round"/>
<defs>
<linearGradient id="paint0_linear_2639_6449" x1="9.76961" y1="-25.0889" x2="86.9831" y2="4.97803" gradientUnits="userSpaceOnUse">
<stop stop-color="#799B4B"/>
<stop offset="1" stop-color="#4A6F3E"/>
</linearGradient>
</defs>
</svg>
