<svg width="77" height="77" viewBox="0 0 77 77" fill="none" xmlns="http://www.w3.org/2000/svg">
<rect x="0.203125" width="76.8" height="76.8" rx="19.2" fill="#6BA35A"/>
<path d="M48.2027 22.4014H29.0027C27.2354 22.4014 25.8027 23.8341 25.8027 25.6014V51.2014C25.8027 52.9687 27.2354 54.4014 29.0027 54.4014H48.2027C49.97 54.4014 51.4027 52.9687 51.4027 51.2014V25.6014C51.4027 23.8341 49.97 22.4014 48.2027 22.4014Z" stroke="#111417" stroke-width="3.2" stroke-linecap="round" stroke-linejoin="round"/>
<path d="M32.2012 28.8008H45.0012" stroke="#111417" stroke-width="3.2" stroke-linecap="round" stroke-linejoin="round"/>
<path d="M45.002 41.6008V48.0008" stroke="#111417" stroke-width="3.2" stroke-linecap="round" stroke-linejoin="round"/>
<path d="M45.002 35.2002H45.0178" stroke="#111417" stroke-width="3.2" stroke-linecap="round" stroke-linejoin="round"/>
<path d="M38.6016 35.2002H38.6174" stroke="#111417" stroke-width="3.2" stroke-linecap="round" stroke-linejoin="round"/>
<path d="M32.2012 35.2002H32.217" stroke="#111417" stroke-width="3.2" stroke-linecap="round" stroke-linejoin="round"/>
<path d="M38.6016 41.6008H38.6174" stroke="#111417" stroke-width="3.2" stroke-linecap="round" stroke-linejoin="round"/>
<path d="M32.2012 41.6008H32.217" stroke="#111417" stroke-width="3.2" stroke-linecap="round" stroke-linejoin="round"/>
<path d="M38.6016 48H38.6174" stroke="#111417" stroke-width="3.2" stroke-linecap="round" stroke-linejoin="round"/>
<path d="M32.2012 48H32.217" stroke="#111417" stroke-width="3.2" stroke-linecap="round" stroke-linejoin="round"/>
</svg>
