<svg width="16" height="16" viewBox="0 0 16 16" fill="none" xmlns="http://www.w3.org/2000/svg">
<path d="M7.9987 14.6666C11.6806 14.6666 14.6654 11.6818 14.6654 7.99992C14.6654 4.31802 11.6806 1.33325 7.9987 1.33325C4.3168 1.33325 1.33203 4.31802 1.33203 7.99992C1.33203 11.6818 4.3168 14.6666 7.9987 14.6666Z" stroke="#7F1D1D" stroke-width="1.33333" stroke-linecap="round" stroke-linejoin="round"/>
<path d="M8 12C10.2091 12 12 10.2091 12 8C12 5.79086 10.2091 4 8 4C5.79086 4 4 5.79086 4 8C4 10.2091 5.79086 12 8 12Z" stroke="#7F1D1D" stroke-width="1.33333" stroke-linecap="round" stroke-linejoin="round"/>
<path d="M8.0013 9.33341C8.73768 9.33341 9.33464 8.73646 9.33464 8.00008C9.33464 7.2637 8.73768 6.66675 8.0013 6.66675C7.26492 6.66675 6.66797 7.2637 6.66797 8.00008C6.66797 8.73646 7.26492 9.33341 8.0013 9.33341Z" stroke="#7F1D1D" stroke-width="1.33333" stroke-linecap="round" stroke-linejoin="round"/>
</svg>
