<svg width="24" height="30" viewBox="0 0 24 30" fill="none" xmlns="http://www.w3.org/2000/svg">
<path d="M22.6654 16.3333C22.6654 22.9999 17.9987 26.3333 12.452 28.2666C12.1616 28.365 11.8461 28.3603 11.5587 28.2533C5.9987 26.3333 1.33203 22.9999 1.33203 16.3333V6.99995C1.33203 6.64633 1.47251 6.30719 1.72256 6.05714C1.9726 5.80709 2.31174 5.66662 2.66536 5.66662C5.33203 5.66662 8.66536 4.06662 10.9854 2.03995C11.2678 1.79861 11.6272 1.66602 11.9987 1.66602C12.3702 1.66602 12.7296 1.79861 13.012 2.03995C15.3454 4.07995 18.6654 5.66662 21.332 5.66662C21.6857 5.66662 22.0248 5.80709 22.2748 6.05714C22.5249 6.30719 22.6654 6.64633 22.6654 6.99995V16.3333Z" stroke="white" stroke-width="2.66667" stroke-linecap="round" stroke-linejoin="round"/>
</svg>
