<svg width="32" height="32" viewBox="0 0 32 32" fill="none" xmlns="http://www.w3.org/2000/svg">
<rect width="32" height="32" rx="12" fill="#22262A"/>
<path d="M16 7.66675V24.3334" stroke="#94A3B8" stroke-width="1.66667" stroke-linecap="round" stroke-linejoin="round"/>
<path d="M20.1667 10.1667H13.9167C13.1431 10.1667 12.4013 10.474 11.8543 11.021C11.3073 11.568 11 12.3099 11 13.0834C11 13.857 11.3073 14.5988 11.8543 15.1458C12.4013 15.6928 13.1431 16.0001 13.9167 16.0001H18.0833C18.8569 16.0001 19.5987 16.3074 20.1457 16.8544C20.6927 17.4013 21 18.1432 21 18.9167C21 19.6903 20.6927 20.4322 20.1457 20.9791C19.5987 21.5261 18.8569 21.8334 18.0833 21.8334H11" stroke="#94A3B8" stroke-width="1.66667" stroke-linecap="round" stroke-linejoin="round"/>
</svg>
