<svg width="36" height="45" viewBox="0 0 36 45" fill="none" xmlns="http://www.w3.org/2000/svg">
<path d="M34 24.3999C34 34.3999 27 39.3999 18.68 42.2999C18.2443 42.4476 17.7711 42.4405 17.34 42.2799C9 39.3999 2 34.3999 2 24.3999V10.3999C2 9.86951 2.21071 9.36081 2.58579 8.98573C2.96086 8.61066 3.46957 8.39995 4 8.39995C8 8.39995 13 5.99995 16.48 2.95995C16.9037 2.59794 17.4427 2.39905 18 2.39905C18.5573 2.39905 19.0963 2.59794 19.52 2.95995C23.02 6.01995 28 8.39995 32 8.39995C32.5304 8.39995 33.0391 8.61066 33.4142 8.98573C33.7893 9.36081 34 9.86951 34 10.3999V24.3999Z" stroke="#A2C043" stroke-width="4" stroke-linecap="round" stroke-linejoin="round"/>
</svg>
