<svg width="17" height="16" viewBox="0 0 17 16" fill="none" xmlns="http://www.w3.org/2000/svg">
<path d="M14.89 10.6665H12.2233C11.8551 10.6665 11.5566 10.965 11.5566 11.3332V13.9998C11.5566 14.368 11.8551 14.6665 12.2233 14.6665H14.89C15.2582 14.6665 15.5566 14.368 15.5566 13.9998V11.3332C15.5566 10.965 15.2582 10.6665 14.89 10.6665Z" stroke="#A2C043" stroke-width="1.33333" stroke-linecap="round" stroke-linejoin="round"/>
<path d="M5.55794 10.6665H2.89128C2.52309 10.6665 2.22461 10.965 2.22461 11.3332V13.9998C2.22461 14.368 2.52309 14.6665 2.89128 14.6665H5.55794C5.92613 14.6665 6.22461 14.368 6.22461 13.9998V11.3332C6.22461 10.965 5.92613 10.6665 5.55794 10.6665Z" stroke="#A2C043" stroke-width="1.33333" stroke-linecap="round" stroke-linejoin="round"/>
<path d="M10.224 1.3335H7.55729C7.1891 1.3335 6.89062 1.63197 6.89062 2.00016V4.66683C6.89062 5.03502 7.1891 5.3335 7.55729 5.3335H10.224C10.5921 5.3335 10.8906 5.03502 10.8906 4.66683V2.00016C10.8906 1.63197 10.5921 1.3335 10.224 1.3335Z" stroke="#A2C043" stroke-width="1.33333" stroke-linecap="round" stroke-linejoin="round"/>
<path d="M4.22461 10.6667V8.66667C4.22461 8.48986 4.29485 8.32029 4.41987 8.19526C4.5449 8.07024 4.71447 8 4.89128 8H12.8913C13.0681 8 13.2377 8.07024 13.3627 8.19526C13.4877 8.32029 13.5579 8.48986 13.5579 8.66667V10.6667" stroke="#A2C043" stroke-width="1.33333" stroke-linecap="round" stroke-linejoin="round"/>
<path d="M8.89062 8.00016V5.3335" stroke="#A2C043" stroke-width="1.33333" stroke-linecap="round" stroke-linejoin="round"/>
</svg>
