<svg width="1440" height="491" viewBox="0 0 1440 491" fill="none" xmlns="http://www.w3.org/2000/svg">
<path d="M-184.867 46.2686C-126.31 70.3384 -74.4301 104.039 -32.4621 145.268C29.3913 206.79 26.0269 244.48 85.4362 279.625C143.178 313.757 222.428 323.162 286.726 310.268C374.459 292.66 378.428 244.74 490.891 168.84C557.029 124.243 681.052 40.5171 827.333 48.6257C901.235 52.7271 974.705 79.9285 1043 105.197C1126.71 136.17 1138.73 152.081 1183.9 159.411C1237.56 168.133 1320.52 161.933 1439.83 83.9828" stroke="#3A4A35" stroke-opacity="0.2" stroke-width="2" stroke-miterlimit="10"/>
<path d="M-186.506 55.0845C-133.74 76.2302 -86.1724 105.155 -46.1782 140.413C-42.3537 143.831 -38.5292 147.343 -34.6759 150.949C27.8102 210.538 25.3372 246.531 83.9987 280.804C109.569 295.801 138.522 306.482 169.173 312.225C191.128 316.322 213.645 318.034 236.145 317.316C252.97 316.772 269.668 314.677 285.921 311.07C304.032 307.254 321.25 301.01 336.876 292.59C365.632 277.033 385.761 256.031 416.731 229.678C440.059 209.845 465.44 191.706 492.588 175.464C506.966 166.742 523.759 156.229 543.169 145.457C595.102 116.559 661.556 85.1616 741.296 74.3187C768.353 70.5343 795.846 69.2691 823.25 70.5473C827.448 70.7359 831.617 71.0187 835.729 71.3487C876.448 74.578 915.239 83.1344 954.864 94.4958C984.511 102.887 1012.55 113.353 1040.35 123.182C1052 127.378 1062.41 131.197 1071.81 134.779C1128.61 156.489 1143.36 168.133 1182.15 173.224C1211.62 177.09 1249.75 176.406 1298.15 162.641C1337.83 151.374 1384.82 131.079 1439.83 97.513" stroke="#3A4A35" stroke-opacity="0.2" stroke-width="2" stroke-miterlimit="10"/>
<path d="M-188.029 63.9473C-135.81 84.2939 -88.5352 112.248 -48.5068 146.447C-44.6727 149.747 -40.8386 153.126 -37.0045 156.583C26.2579 214.262 24.7339 248.511 82.5903 281.983C108.222 297.176 137.267 308.063 168.052 314.016C190.137 318.14 212.801 319.789 235.427 318.919C252.277 318.215 268.962 315.841 285.116 311.848C303.138 307.578 320.262 301.084 335.899 292.59C365.805 276.561 387.027 256.243 417.651 231.634C441.089 212.956 466.764 196.262 494.285 181.804C508.663 174.073 525.083 164.597 544.291 155.216C595.476 130.206 657.876 103.972 736.811 95.4151C764.081 92.3351 791.641 91.3251 819.138 92.3979C823.394 92.5865 827.592 92.8222 831.733 93.1287C873.141 96.0987 910.955 103.429 951.385 113.541C981.838 121.179 1009.62 131.456 1037.65 141.144C1049.3 145.151 1059.82 148.804 1069.46 152.222C1126.42 172.517 1141.69 183.219 1180.34 186.99C1209.78 189.866 1247.63 188.286 1296.28 174.356C1336.02 162.947 1383.61 143.029 1439.83 111.09" stroke="#3A4A35" stroke-opacity="0.2" stroke-width="2" stroke-miterlimit="10"/>
<path d="M-189.84 72.6685C-138.048 92.2446 -90.9656 119.286 -50.8349 152.505C-47.0104 155.71 -43.1571 158.963 -39.3326 162.287C24.7638 218.033 24.0448 250.585 81.1249 283.161C108.155 298.577 134.783 309.679 166.846 315.831C189.078 319.989 211.911 321.575 234.68 320.545C251.563 319.675 268.237 317.013 284.284 312.625C302.225 307.905 319.277 301.162 334.951 292.59C365.95 276.09 388.235 256.502 418.544 233.661C442.113 216.129 468.102 200.916 495.983 188.333C510.505 181.592 526.435 173.153 545.414 165.163C596.11 143.807 654.197 122.899 732.326 116.582C759.811 114.216 787.469 113.467 815.085 114.343C819.369 114.508 823.711 114.72 827.737 115.003C868.365 117.73 908.579 123.658 947.821 132.705C979.078 139.564 1006.63 149.747 1035.01 159.175C1046.65 163.041 1057.27 166.506 1067.16 169.759C1124.27 188.616 1140.08 198.328 1178.56 200.85C1208 202.783 1245.64 200.237 1294.47 186.141C1334.3 174.733 1382.41 154.956 1439.83 124.526" stroke="#3A4A35" stroke-opacity="0.2" stroke-width="2" stroke-miterlimit="10"/>
<path d="M-191.51 81.4609C-140.218 100.276 -93.3843 126.37 -53.1662 158.539C-49.3417 161.651 -45.4597 164.762 -41.664 167.968C23.1226 221.876 23.4101 252.519 79.685 284.364C107.319 299.944 133.055 311.353 165.693 317.646C188.053 321.845 211.039 323.361 233.93 322.148C250.89 321.14 267.595 318.197 283.563 313.403C301.383 308.272 318.347 301.327 334.058 292.731C366.149 275.736 389.642 256.95 419.52 235.665C440.597 220.674 465.529 207.568 497.764 194.839C512.4 189.041 527.986 181.616 546.648 175.039C597.143 157.243 650.629 141.804 727.809 137.726C755.47 136.054 783.218 135.558 810.942 136.241C815.284 136.382 819.568 136.571 823.68 136.807C864.383 138.994 904.786 144.009 944.454 151.798C976.574 157.879 1003.72 167.992 1032.39 177.09C1043.89 180.814 1054.79 184.162 1064.91 187.202C1122.14 204.739 1138.5 213.343 1176.86 214.592C1206.3 215.559 1243.69 212.094 1292.71 197.856C1332.54 186.283 1381.22 166.86 1439.83 137.985" stroke="#3A4A35" stroke-opacity="0.2" stroke-width="2" stroke-miterlimit="10"/>
<path d="M-193.148 90.2529C-142.369 108.32 -95.7952 133.466 -55.495 164.574C-51.6705 167.567 -47.7885 170.537 -43.9928 173.601C21.5701 225.458 22.7491 254.569 78.1901 285.518C106.428 301.288 131.273 313.003 164.457 319.438C186.966 323.672 210.122 325.118 233.154 323.728C250.118 322.574 266.778 319.356 282.585 314.181C300.3 308.616 317.19 301.428 332.937 292.755C366.149 275.312 390.879 257.398 420.268 237.668C441.978 223.148 467.456 211.74 499.317 201.321C514.126 196.466 529.367 190.101 547.626 184.821C598.323 170.443 646.891 160.614 723.266 158.728C749.808 158.068 779.167 157.243 806.801 158.021C811.201 158.139 815.428 158.304 819.626 158.492C860.34 160.138 900.851 164.235 940.832 170.749C973.757 176.053 1000.7 186.094 1029.69 195.004C1041.33 198.587 1052.17 201.675 1062.55 204.598C1119.89 220.933 1136.89 228.947 1174.99 228.452C1204.43 228.075 1241.59 224.044 1290.79 209.595C1330.64 197.809 1379.93 178.787 1439.71 151.491" stroke="#3A4A35" stroke-opacity="0.2" stroke-width="2" stroke-miterlimit="10"/>
<path d="M-194.816 99.0215C-144.54 116.358 -98.2183 140.564 -57.8244 170.608C-53.9999 173.484 -50.0891 176.336 -46.3221 179.259C20.046 229.23 22.1164 256.549 76.7234 286.697C105.479 302.608 129.49 314.653 163.278 321.253C185.893 325.497 209.168 326.872 232.292 325.33C249.311 324.016 265.972 320.516 281.665 314.959C299.235 308.936 316.041 301.515 331.844 292.802C366.149 274.864 392.231 257.728 420.986 239.648C443.358 225.506 469.411 215.936 500.841 207.803C515.88 203.891 532.242 201.628 548.575 194.816C601.572 193.001 643.268 175.959 718.579 179.966C745.178 181.404 774.997 179.4 802.516 179.966C806.974 180.084 811.287 180.201 815.428 180.366C859.769 182.087 893.701 184.091 937.179 189.795C970.91 194.297 997.566 204.291 1026.87 212.918C1038.37 216.36 1049.44 219.283 1060.08 222.041C1117.45 236.938 1135.05 243.255 1173.09 242.076C1202.57 241.11 1239.49 235.783 1288.86 221.216C1328.77 209.43 1378.58 190.573 1439.6 164.856" stroke="#3A4A35" stroke-opacity="0.2" stroke-width="2" stroke-miterlimit="10"/>
<path d="M-196.482 107.813C-146.715 124.419 -100.647 147.669 -60.1518 176.618C-56.2985 179.4 -52.3877 182.111 -48.6495 184.892C18.6675 232.93 21.6006 258.505 75.3737 287.875C104.848 303.951 127.853 316.302 162.187 323.067C184.998 327.365 208.497 328.662 231.805 326.91C250.755 325.613 266.311 320.946 281.092 315.713C298.531 309.244 315.277 301.588 331.155 292.825C366.554 274.416 394.102 258.175 422.196 241.628C445.2 228.028 471.943 220.178 502.712 214.262C518.067 211.315 534.055 210.632 549.9 204.692C602.897 208.039 639.704 198.681 714.267 201.062C741.01 201.934 771.175 201.415 798.608 201.91C803.094 201.91 807.464 202.075 811.576 202.193C856.665 203.584 889.619 204.291 933.874 209.029C968.381 212.753 994.779 222.677 1024.4 231.045C1035.9 234.345 1047.06 237.079 1057.96 239.672C1115.47 253.296 1133.61 258.529 1171.51 256.007C1200.99 254.098 1237.65 247.851 1287.22 233.119C1327.17 221.333 1377.55 202.665 1439.77 178.528" stroke="#3A4A35" stroke-opacity="0.2" stroke-width="2" stroke-miterlimit="10"/>
<path d="M-198.123 116.582C-148.887 132.482 -103.089 154.766 -62.4825 182.582C-58.6293 185.269 -54.6897 187.862 -50.8077 190.478C17.1994 236.584 21.0814 260.391 73.9344 288.96C104.013 305.2 126.126 317.882 161.035 324.765C183.955 329.11 207.588 330.352 230.998 328.442C250.207 327.004 265.505 321.96 280.199 316.42C298.344 309.585 313.268 301.57 330.09 292.849C366.61 273.992 399.65 262.654 423.028 243.608C449.512 234.345 474.271 216.666 504.436 220.744C520.136 222.865 535.779 219.613 551.077 214.568C604.103 223.054 636.223 217.703 709.837 222.182C736.695 223.808 767.349 223.431 794.552 223.785C799.124 223.785 803.495 223.785 807.635 223.997C853.414 225.058 885.419 224.398 930.422 228.122C965.82 231.021 991.873 240.898 1021.78 249.006C1033.28 252.165 1044.55 254.734 1055.68 257.138C1113.19 269.513 1132.06 273.497 1169.81 269.796C1199.32 266.897 1235.75 259.731 1285.47 244.834C1325.47 232.907 1376.28 214.568 1439.83 192.011" stroke="#3A4A35" stroke-opacity="0.2" stroke-width="2" stroke-miterlimit="10"/>
<path d="M-199.791 125.351C-151.058 140.578 -105.518 161.938 -64.8119 188.663C-60.9586 191.233 -57.0191 193.59 -53.1083 196.159C15.9053 240.332 20.4199 262.371 72.4964 290.162C103.208 306.544 124.4 319.555 159.856 326.603C182.921 330.968 206.714 332.139 230.25 330.068C249.718 328.489 264.757 322.997 279.394 317.222C297.193 310.15 311.945 301.759 329.112 292.873C366.724 273.497 401.49 263.503 424.006 245.565C451.41 237.315 477.721 220.768 506.218 227.203C521.804 230.715 537.533 228.617 552.227 224.445C605.282 238.069 632.743 236.773 705.38 243.302C732.353 245.659 763.236 245.47 790.497 245.659H803.638C850.165 246.366 881.278 244.41 926.971 247.073C963.203 249.171 988.94 259.024 1019.16 266.85C1030.66 269.867 1042.02 272.248 1053.41 274.463C1110.92 285.636 1130.48 288.394 1168.09 283.468C1197.59 279.578 1233.79 271.493 1283.69 256.455C1323.71 244.41 1375.21 226.378 1439.86 205.375" stroke="#3A4A35" stroke-opacity="0.2" stroke-width="2" stroke-miterlimit="10"/>
<path d="M-201.459 134.096C-153.288 148.676 -108.052 169.087 -67.2563 194.651C-63.3743 197.008 -59.4347 199.365 -55.5239 201.722C14.2373 243.938 19.7296 264.21 71.001 291.293C102.345 307.793 122.761 321.158 158.648 328.348C181.842 332.769 205.792 333.877 229.445 331.624C249.2 329.903 263.952 324.105 278.502 317.953C295.957 310.504 310.564 301.9 328.077 292.873C366.811 273.026 403.273 264.328 424.753 247.521C453.106 240.261 479.389 237.668 507.771 233.638C524.047 236.183 539.057 237.574 553.262 234.298C606.317 253.155 629.062 255.842 700.779 264.351C727.867 267.581 759.153 267.746 786.298 267.486C790.957 267.486 795.414 267.486 799.526 267.486C846.8 266.991 876.879 264.54 923.377 266.19C960.471 267.486 985.863 277.292 1016.43 284.858C1027.93 287.711 1039.43 289.95 1050.94 291.93C1108.45 301.901 1128.58 303.386 1166.13 297.233C1195.66 292.378 1231.61 283.373 1281.73 268.17C1321.79 256.031 1373.75 238.281 1439.68 218.835" stroke="#3A4A35" stroke-opacity="0.2" stroke-width="2" stroke-miterlimit="10"/>
<path d="M-203.098 142.864C-155.401 156.789 -110.39 176.253 -69.4413 200.661C-65.588 203.018 -61.6198 205.211 -57.709 207.426C12.9725 247.663 19.2699 266.19 69.6211 292.448C101.597 309.137 120.95 322.808 157.527 330.163C180.92 334.636 205.096 335.666 228.928 333.203C249.057 331.341 263.578 325.189 277.812 318.73C295.066 310.975 309.443 302.089 327.243 292.802C367.041 272.483 405.257 265.082 425.76 249.407C455.033 243.161 481.719 242.336 509.583 239.978C526.06 243.75 540.84 246.437 554.528 244.033C607.582 267.958 625.641 274.841 696.409 285.33C723.611 289.36 755.271 289.643 782.33 289.243C787.046 289.243 791.503 289.243 795.644 289.243C843.609 288.371 872.767 284.528 920.013 285.212C957.913 285.707 983.016 295.489 1013.9 302.773C1025.4 305.507 1036.9 307.487 1048.84 309.396C1106.35 318.212 1127.28 318.4 1164.58 311.023C1194.11 305.177 1229.83 295.277 1280.12 279.908C1320.21 267.675 1372.86 250.208 1439.89 232.341" stroke="#3A4A35" stroke-opacity="0.2" stroke-width="2" stroke-miterlimit="10"/>
<path d="M-204.764 151.609C-157.58 164.913 -112.834 183.438 -71.7687 206.672C-67.8867 209.029 -63.9184 210.962 -60.0076 213.06C11.6227 251.292 18.7254 268.075 68.1851 293.603C100.794 310.409 119.226 324.411 156.379 331.93C179.857 336.432 204.138 337.398 228.038 334.782C248.167 332.755 262.775 326.249 276.923 319.461C293.716 311.399 307.979 302.23 326.21 292.919C367.129 272.106 407.042 266.024 426.596 251.457C456.818 246.201 483.791 247.002 511.224 246.578C527.873 251.552 542.452 255.559 555.594 254.027C608.677 283.114 622.019 294.098 691.867 306.567C719.185 311.423 751.219 311.47 778.134 311.282C782.907 311.282 787.393 311.282 791.534 311.282C840.246 310.032 868.455 305.884 916.449 304.54C955.154 303.456 979.97 313.969 1011.17 321.04C1022.79 323.608 1034.56 325.653 1046.45 327.169C1103.96 334.853 1125.59 333.722 1162.74 325.118C1192.3 318.282 1227.76 307.487 1278.22 291.953C1318.48 279.625 1371.56 262.418 1439.8 246.13" stroke="#3A4A35" stroke-opacity="0.2" stroke-width="2" stroke-miterlimit="10"/>
<path d="M-206.434 155.31C-159.756 168.047 -115.278 185.667 -74.1 207.733C-70.218 209.854 -66.2209 211.787 -62.2814 213.744C10.2691 249.973 18.2345 265.011 66.7453 289.785C99.9868 306.756 117.499 321.088 155.198 328.748C178.818 333.295 203.264 334.198 227.288 331.412C247.82 329.22 262.111 322.384 276.173 315.266C292.535 306.733 306.568 297.304 325.23 287.876C367.242 266.661 408.909 261.782 427.485 248.37C458.628 244.104 485.917 246.602 512.918 247.969C529.74 254.168 544.089 259.472 556.713 258.836C609.825 293.061 618.48 308.336 687.35 322.478C714.812 328.159 747.219 328.277 774.077 327.923L787.535 327.711C836.995 327.004 864.226 319.697 912.967 318.283C952.564 317.104 977.006 326.886 1008.52 333.604C1020.27 336.039 1032.17 337.92 1044.18 339.238C1101.55 345.791 1124 343.292 1160.98 333.486C1190.57 325.661 1225.8 313.969 1276.44 298.271C1316.7 285.848 1370.38 268.924 1439.83 254.216" stroke="#3A4A35" stroke-opacity="0.2" stroke-width="2" stroke-miterlimit="10"/>
<path d="M-208.16 156.795C-162.005 168.885 -117.803 185.505 -76.5167 206.295C-72.6059 208.322 -68.6089 210.113 -64.6693 211.928C8.94517 246.201 17.6006 259.59 65.3063 283.538C99.2092 300.628 115.773 315.313 154.046 323.138C177.818 327.692 202.431 328.492 226.568 325.495C247.33 323.138 261.449 316.067 275.309 308.524C291.383 299.873 305.33 290.115 324.194 280.521C367.327 258.765 410.691 255.253 428.318 242.972C460.409 239.696 489.021 240.214 514.585 247.073C532.902 252 545.727 261.216 557.718 261.216C610.83 300.58 614.77 320.145 682.719 336.197C710.267 342.75 743.106 342.915 769.82 342.42C774.709 342.42 779.252 342.231 783.364 342.137C833.572 341.053 859.825 332.402 909.343 329.95C949.744 327.947 973.899 337.729 1005.73 344.093C1017.59 346.426 1029.61 348.142 1041.73 349.232C1099.07 354.7 1122.25 350.811 1159.09 339.803C1188.68 330.964 1223.67 318.377 1274.48 302.537C1314.74 290.02 1369.03 273.379 1439.68 260.108" stroke="#3A4A35" stroke-opacity="0.2" stroke-width="2" stroke-miterlimit="10"/>
<path d="M-209.74 158.233C-164.089 169.75 -120.155 185.42 -78.7581 204.951C-74.8186 206.861 -70.7928 208.511 -66.882 210.208C7.65266 242.359 17.0845 253.956 63.87 277.292C98.3768 294.499 114.02 309.538 153.013 317.505C176.908 322.194 201.694 322.995 225.966 319.862C247.015 317.34 260.933 309.844 274.62 302.089C290.378 293.156 304.152 283.067 323.505 273.332C367.702 251.104 412.791 248.912 429.498 237.739C462.481 235.382 491.668 237.999 516.513 246.343C535.176 252.613 547.627 262.843 559.186 263.998C612.298 308.524 611.522 332.355 678.58 350.222C706.243 357.647 739.398 357.835 766.084 357.293L779.714 356.916C830.64 355.478 855.945 345.461 906.239 342.019C947.503 339.167 971.313 349.091 1003.49 355.101C1015.46 357.352 1027.6 358.927 1039.84 359.815C1097.12 364.223 1121.04 358.92 1157.74 346.71C1187.33 336.881 1222.06 323.398 1273.07 307.393C1327.07 289.782 1382.88 276.151 1439.83 266.661" stroke="#3A4A35" stroke-opacity="0.2" stroke-width="2" stroke-miterlimit="10"/>
<path d="M-211.408 158.705C-166.252 169.705 -122.585 184.458 -81.0875 202.736C-77.1192 204.527 -73.0934 206.06 -69.1827 207.615C6.35849 237.716 16.538 247.687 62.432 270.221C97.629 287.546 112.294 302.938 151.718 311.07C175.765 315.78 200.724 316.469 225.103 313.097C246.382 310.41 260.127 302.584 273.671 294.499C289.084 285.283 302.686 274.888 322.326 265.012C367.645 242.312 414.344 241.44 430.188 231.375C464.12 230.102 493.767 234.675 518.008 244.457C536.987 252.118 549.093 263.527 560.106 265.53C613.247 315.195 607.726 343.316 673.864 362.998C701.642 371.295 735.2 371.484 761.77 370.753C766.745 370.611 771.374 370.423 775.486 370.282C827.247 368.467 851.488 357.129 902.5 352.674C944.57 348.997 968.092 358.826 1000.59 364.648C1012.68 366.765 1024.94 368.151 1037.28 368.796C1094.53 372.167 1119.17 365.402 1155.72 352.014C1185.31 341.171 1219.82 326.816 1271 310.622C1325.48 292.917 1382.06 279.921 1439.83 271.847" stroke="#3A4A35" stroke-opacity="0.2" stroke-width="2" stroke-miterlimit="10"/>
<path d="M-213.076 157.361C-168.406 167.835 -125.003 181.651 -83.4168 198.634C-79.4486 200.308 -75.394 201.722 -71.4832 203.16C5.0931 231.139 16.1353 239.342 60.9941 261.264C96.8525 278.706 110.569 294.476 150.568 302.726C174.748 307.489 199.867 308.115 224.355 304.564C245.893 301.689 259.466 293.556 272.837 285.141C287.934 275.713 301.363 264.941 321.348 254.923C367.76 231.752 416.242 232.153 431.08 223.243C465.932 222.96 495.981 229.607 519.705 240.827C538.913 249.926 550.761 262.419 561.257 265.294C614.397 320.121 604.103 352.508 669.378 373.982C697.213 383.175 731.203 383.411 757.687 382.515C762.69 382.35 767.348 382.138 771.461 381.973C823.882 379.804 847.174 367.076 898.934 361.631C941.838 357.105 965.072 366.958 997.825 372.497C1010.05 374.489 1022.44 375.71 1034.89 376.151C1092.11 378.508 1117.45 370.258 1153.85 355.691C1183.44 343.905 1217.75 328.583 1269.11 312.249C1323.98 294.364 1381.26 281.932 1439.74 275.218" stroke="#3A4A35" stroke-opacity="0.2" stroke-width="2" stroke-miterlimit="10"/>
<path d="M-214.715 156.017C-170.534 166.007 -127.405 178.895 -85.7456 194.556C-81.7486 196.112 -77.6941 197.361 -73.7833 198.681C3.85703 224.61 15.3593 231.092 59.5568 252.306C96.0477 269.843 108.844 285.99 149.389 294.405C173.711 299.238 199.006 299.792 223.608 296.031C245.405 292.943 258.805 284.552 272.032 275.783C286.813 266.001 300.04 254.993 320.371 244.834C367.904 221.263 418.14 222.866 431.972 215.087C463.716 215.397 494.707 223.053 521.373 237.173C540.783 247.733 552.429 261.287 562.378 265.058C615.548 325.024 600.451 361.701 664.892 384.966C692.785 395.078 727.206 395.267 753.575 394.277C758.665 394.088 763.323 393.852 767.464 393.64C820.576 391.047 843.005 377.14 895.513 370.588C939.193 365.237 962.197 375.09 995.266 380.346C1006.77 382.161 1018.9 382.444 1032.65 383.481C1089.64 387.795 1115.9 375.113 1152.16 359.344C1181.75 346.474 1215.82 330.351 1267.35 313.851C1322.67 295.789 1380.7 283.897 1439.89 278.494" stroke="#3A4A35" stroke-opacity="0.2" stroke-width="2" stroke-miterlimit="10"/>
<path d="M-216.385 154.673C-172.672 164.192 -129.803 176.147 -88.077 190.455C-84.0512 191.869 -79.9966 193.024 -76.0571 194.203C2.56092 217.774 14.9546 222.842 58.1169 243.349C95.298 261.004 107.002 277.504 148.237 286.084C172.741 290.98 198.249 291.462 223.002 287.498C245.029 284.198 258.256 275.524 271.34 266.425C285.718 256.36 298.831 245.046 319.506 234.745C368.161 210.608 420.151 213.531 432.976 206.955C465.568 208.356 496.921 217.65 523.067 233.661C542.592 245.659 554.095 260.297 563.498 264.94C616.696 330.045 596.768 371.012 660.376 396.092C688.355 407.099 723.178 407.264 749.518 406.157C754.637 405.944 759.353 405.662 763.465 405.449C817.324 402.456 838.776 387.111 892.06 379.662C936.603 373.463 959.176 383.387 992.705 388.313C1005.22 389.741 1017.83 390.622 1030.46 390.953C1087.54 393.994 1114.37 380.087 1150.52 363.139C1180.08 349.255 1213.95 332.26 1265.54 315.595C1321.27 297.393 1380 286.096 1439.8 282.077" stroke="#3A4A35" stroke-opacity="0.2" stroke-width="2" stroke-miterlimit="10"/>
<path d="M-218.049 153.33C-174.784 162.402 -132.161 173.418 -90.3737 186.33C-86.3479 187.626 -82.2933 188.687 -78.3538 189.701C1.29942 211.198 14.4408 214.545 56.7979 234.486C94.5253 252.118 105.28 269.018 147.062 277.74C171.669 282.706 197.315 283.124 222.143 278.966C244.429 275.453 257.512 266.496 270.395 257.068C284.543 246.744 297.397 235.099 318.446 224.657C368.164 200.049 421.966 204.339 433.756 198.729C467.289 201.168 499.081 212.052 524.768 229.89C544.35 243.373 555.737 259.048 564.623 264.564C617.821 334.83 593.062 380.228 655.894 406.958C683.93 418.885 719.156 419.027 745.381 417.801C750.557 417.565 755.302 417.259 759.414 417C814.05 413.605 834.495 396.94 888.556 388.502C933.932 381.43 956.189 391.425 989.977 396.045C1002.61 397.395 1015.34 398.111 1028.08 398.19C1085.24 399.958 1112.65 384.825 1148.65 366.675C1178.24 351.801 1211.91 333.911 1263.67 317.175C1319.86 298.81 1379.32 288.086 1439.72 285.424" stroke="#3A4A35" stroke-opacity="0.2" stroke-width="2" stroke-miterlimit="10"/>
<path d="M-219.66 151.986C-170.402 162.24 -126.204 172.682 -92.6751 182.252C-88.5918 183.431 -84.5373 184.326 -80.6265 185.269C0.0906655 204.503 13.9509 206.295 55.2728 225.341C93.7766 243.161 103.697 260.438 145.939 269.325C170.681 274.351 196.494 274.698 221.423 270.338C243.968 266.59 256.908 257.398 269.618 247.615C283.42 237.008 296.102 225.058 317.496 214.474C368.336 189.394 423.892 194.981 434.675 190.596C469.128 194.099 501.305 206.557 526.492 226.142C546.103 241.11 558.67 256.903 565.801 264.233C631.939 332.425 589.352 389.421 651.435 417.848C679.501 430.718 715.215 430.812 741.326 429.469C746.559 429.21 751.304 428.856 755.445 428.573C810.742 424.778 830.209 406.793 885.075 397.388C931.285 389.445 953.226 399.486 987.359 403.776C1000.08 405.323 1012.95 405.883 1025.81 405.45C1083 403.847 1111.04 389.562 1146.92 370.257C1176.49 354.347 1209.9 335.584 1261.95 318.613C1318.61 300.095 1378.82 289.936 1439.8 288.606" stroke="#3A4A35" stroke-opacity="0.2" stroke-width="2" stroke-miterlimit="10"/>
<path d="M-221.357 150.643C-171.553 160.59 -127.643 170.018 -95.0338 178.15C-90.9217 179.188 -86.8671 179.965 -82.9564 180.79C-1.11773 197.762 13.4039 198.021 53.8056 216.454C92.9996 234.368 101.943 252.07 144.731 261.098C169.627 266.19 195.627 266.465 220.675 261.9C243.449 257.892 256.217 248.464 268.754 238.328C282.269 227.438 294.634 215.181 316.489 204.456C368.421 178.881 425.559 185.788 435.566 182.511C475.076 187.225 506.132 204.103 528.159 222.582C547.742 239.082 560.135 256.125 566.893 264.068C630.874 339.19 585.584 398.779 646.891 428.926C674.986 442.716 711.189 442.763 737.184 441.301C742.475 440.995 747.277 440.641 751.389 440.335C807.434 436.116 825.953 416.764 881.566 406.416C928.582 397.624 950.206 407.736 984.655 411.696C997.508 413.124 1010.5 413.511 1023.45 412.851C1080.67 410.329 1109.37 394.489 1145.14 373.982C1174.67 357.057 1207.89 337.422 1260.16 320.286C1300.68 307.015 1359.57 292.613 1439.83 292" stroke="#3A4A35" stroke-opacity="0.2" stroke-width="2" stroke-miterlimit="10"/>
<path d="M-223.027 149.299C-172.705 159.011 -129.083 167.308 -97.3651 174.073C-93.2242 174.945 -89.1697 175.605 -85.2589 176.43C-2.47134 190.974 12.8842 189.724 52.3657 207.497C91.8473 225.27 100.215 243.585 143.579 252.754C168.606 257.933 194.779 258.143 219.925 253.367C242.93 249.077 255.582 239.46 267.947 228.994C281.146 217.845 293.425 205.258 315.509 194.391C368.563 168.463 427.426 176.548 436.455 174.403C476.914 180.107 507.999 198.964 529.854 218.953C549.379 236.82 561.485 255.229 568.013 263.738C629.521 345.649 581.786 407.995 642.403 439.817C670.498 454.573 707.161 454.549 733.099 452.97C738.419 452.64 743.25 452.239 747.477 451.909C804.24 447.195 821.81 426.64 878.171 415.279C926.021 405.638 947.357 415.821 982.123 419.451C995.107 420.767 1008.22 420.989 1021.26 420.111C1078.51 416.646 1107.81 399.25 1143.5 377.565C1173 359.627 1206.01 339.12 1258.52 321.818C1299.1 308.453 1358.53 294.311 1440 295.324" stroke="#3A4A35" stroke-opacity="0.2" stroke-width="2" stroke-miterlimit="10"/>
<path d="M-224.664 147.956C-173.853 157.385 -130.518 164.597 -99.6919 170.019C-95.5223 170.75 -91.4678 171.315 -87.557 171.881C-3.76301 184.162 12.3689 181.427 50.9303 198.564C91.5045 216.572 98.4634 235.1 142.402 244.434C167.571 249.703 193.931 249.841 219.18 244.835C242.414 240.238 254.952 230.432 267.144 219.66C280.027 208.205 292.104 195.335 314.562 184.303C368.68 157.785 429.729 163.843 437.349 166.271C476.687 178.74 509.842 193.779 531.552 215.323C550.991 234.628 562.982 254.31 569.165 263.621C627.97 352.132 577.964 417.448 637.92 450.943C666.014 466.641 703.166 466.524 728.989 464.85C734.395 464.496 739.226 464.072 743.367 463.719C800.878 458.674 817.441 436.706 874.579 424.354C923.233 413.841 944.254 424.119 979.365 427.419C992.481 428.62 1005.72 428.675 1018.85 427.584C1076.13 423.199 1106.06 404.224 1141.6 381.36C1171.11 362.503 1203.92 341.006 1256.63 323.539C1297.23 310.08 1357.27 296.244 1439.92 298.813" stroke="#3A4A35" stroke-opacity="0.2" stroke-width="2" stroke-miterlimit="10"/>
<path d="M-226.332 146.612C-175.003 155.876 -131.985 161.816 -102.021 165.87C-97.8229 166.436 -93.7684 166.907 -89.8289 167.355C-5.05713 177.302 11.88 173.13 49.4924 189.583C90.9005 207.733 96.6517 226.59 141.252 236.019C166.567 241.356 193.107 241.42 218.461 236.207C241.868 231.281 254.319 221.334 266.31 210.279C278.905 198.493 290.781 185.364 313.584 174.214C368.824 147.225 431.166 157.432 438.24 158.115C481.374 162.334 511.654 188.569 533.134 211.669C547.663 227.784 560.078 245.111 570.171 263.361C626.245 358.307 574.025 426.758 633.434 461.927C661.499 478.568 699.169 478.427 724.906 476.612C730.34 476.235 735.229 475.763 739.283 475.386C797.485 469.847 813.099 446.582 871.042 433.311C920.473 421.903 941.235 432.345 976.662 435.268C989.912 436.353 1003.27 436.234 1016.49 434.914C1073.83 429.611 1104.31 408.986 1139.79 385.013C1169.24 365.001 1201.85 342.773 1254.82 325.166C1295.48 311.612 1356.04 298.035 1439.92 302.184" stroke="#3A4A35" stroke-opacity="0.2" stroke-width="2" stroke-miterlimit="10"/>
<path d="M-228 145.269C-176.24 154.131 -133.48 158.987 -104.351 161.769C-7.96161 170.961 9.69436 164.126 48.0544 180.626C90.0377 198.705 95.0124 218.128 140.073 227.768C165.529 233.195 192.256 233.195 217.713 227.768C265.965 216.926 267.288 186.236 312.607 164.126C368.939 136.641 432.978 148.734 439.132 149.983C521.143 166.483 559.388 240.285 571.408 263.126C624.692 364.294 570.257 436.069 628.919 472.911C662.966 494.29 711.965 489.411 735.315 487.054C794.235 481.161 808.901 456.552 867.591 442.268C933.729 426.145 948.308 449.34 1014.24 442.268C1119.43 430.883 1136.31 365.897 1252.92 326.768C1293.61 313.12 1354.74 299.826 1439.83 305.554" stroke="#3A4A35" stroke-opacity="0.2" stroke-width="2" stroke-miterlimit="10"/>
<path d="M-226.447 148.215C-175.607 157.078 -133.566 162.358 -104.437 165.281C-10.6072 174.992 7.71018 168.581 45.8402 185.105C87.0471 203.019 92.5394 221.876 136.478 231.587C161.403 236.985 187.567 237.26 212.652 232.389C260.271 223.172 262.112 193.237 306.74 171.975C361.865 145.528 423.977 156.536 431.166 157.502C498.426 166.436 535.52 220.768 553.78 249.761C557.519 255.677 560.222 260.769 562.407 264.446C617.043 360.216 565.455 429.186 623.254 463.978C657.761 484.697 707.163 479.488 731.49 477.248C753.784 475.242 775.393 469.719 795.127 460.984C815.256 452.711 834.091 443.376 865.06 437.177C874.55 435.291 883.004 434.254 890.596 433.359C936.605 427.914 954.347 441.326 1009.79 433.241C1031.24 430.154 1051.89 424.105 1070.86 415.35C1122.37 391.779 1154.57 349.35 1234.31 318.377C1238.99 316.554 1243.88 314.779 1248.98 313.05C1290.04 299.049 1352.1 285.118 1438.48 290.469" stroke="#3A4A35" stroke-opacity="0.2" stroke-width="2" stroke-miterlimit="10"/>
<path d="M-224.893 151.161C-175.088 160.024 -133.651 165.516 -104.493 168.769C-13.2796 178.975 5.61288 173.035 43.6279 189.606C84.0871 207.143 90.0683 225.835 132.77 235.382C157.183 240.765 182.805 241.33 207.535 237.032C254.436 229.324 256.937 200.355 300.847 179.8C354.793 154.555 415.266 162.688 423.145 165.021C485.373 183.289 525.746 224.539 544.552 251.858C548.376 257.421 551.022 262.3 553.178 265.742C609.079 356.232 560.54 422.232 617.419 455.044C652.213 475.079 702.162 469.564 727.467 467.419C749.935 465.528 771.834 460.464 792.196 452.451C812.641 444.979 831.763 436.894 862.359 432.109C871.878 430.6 880.389 430.034 887.981 429.139C933.846 423.694 950.812 434.277 1005.13 424.189C1026.33 420.184 1046.63 413.47 1065.29 404.294C1114.86 380.723 1148.68 336.809 1230.03 304.799C1234.77 302.961 1239.72 301.122 1244.87 299.331C1286.28 284.976 1349.25 270.409 1436.96 275.359" stroke="#3A4A35" stroke-opacity="0.2" stroke-width="2" stroke-miterlimit="10"/>
<path d="M-223.342 154.108C-174.572 162.947 -133.768 168.769 -104.638 172.376C-16.0134 183.006 3.51165 177.609 41.3541 194.179C81.0369 211.434 87.5357 229.772 129.203 239.271C153.091 244.608 178.148 245.414 202.472 241.629C248.481 235.382 251.788 207.379 294.979 187.626C347.746 163.489 406.292 169.665 415.178 172.494C464.589 188.727 506.595 217.187 535.348 253.909C539.258 259.118 541.875 263.786 543.974 267.015C601.083 352.037 555.649 415.326 611.521 446.158C646.718 465.533 697.127 459.664 723.41 457.66C746.059 455.849 768.243 451.231 789.203 443.965C810.022 437.295 829.461 430.483 859.597 427.065C869.201 425.98 877.741 425.863 885.333 424.967C931.141 419.498 947.186 427.324 1000.36 415.185C1021.27 410.24 1041.22 402.874 1059.59 393.31C1107.24 369.574 1142.81 324.411 1225.6 291.27C1230.37 289.384 1235.38 287.506 1240.61 285.636C1282.36 270.951 1346.29 255.748 1435.29 260.321" stroke="#3A4A35" stroke-opacity="0.2" stroke-width="2" stroke-miterlimit="10"/>
<path d="M-221.789 157.031C-174.055 165.894 -133.854 172.022 -104.667 175.888C-18.6302 186.943 1.55625 182.087 39.1112 198.681C77.9888 215.676 85.1202 233.614 125.522 243.09C148.909 248.454 173.44 249.58 197.411 246.39C242.759 241.676 246.641 214.569 289.142 195.594C340.729 172.376 396.659 181.616 407.213 180.036C468.031 190.101 506.276 231.894 526.175 256.031C530.172 260.863 532.731 265.294 534.974 268.335C593.348 347.959 551.02 408.373 605.857 437.177C641.514 455.893 692.296 449.693 719.585 447.784C742.436 446.06 764.912 441.892 786.442 435.385C807.664 429.516 827.333 424 857.095 421.926C866.757 421.243 875.326 421.596 882.975 420.7C928.725 415.232 943.851 420.205 996.042 406.11C1018.16 400.123 1036.3 391.543 1054.36 382.208C1100.14 358.425 1137.29 311.753 1221.66 277.646C1226.45 275.713 1231.51 273.788 1236.84 271.871C1278.97 256.808 1343.81 240.969 1434.11 245.164" stroke="#3A4A35" stroke-opacity="0.2" stroke-width="2" stroke-miterlimit="10"/>
<path d="M-220.266 159.978C-173.653 168.817 -133.97 175.252 -104.639 179.259C-21.2476 190.715 -0.543515 186.519 37.0114 203.019C75.0839 219.802 82.6467 237.315 122.042 246.744C144.884 252.105 168.84 253.502 192.378 250.845C236.863 247.357 241.522 221.452 283.304 203.278C333.684 181.38 387.572 189.795 399.304 187.509C458.311 196.655 496.527 235.547 517.03 258.082C521.113 262.56 523.644 266.78 525.944 269.608C585.555 343.787 546.418 401.349 600.163 428.196C636.28 446.252 687.465 439.699 715.703 437.931C744.458 436.14 764.731 431.261 783.652 426.829C805.277 421.761 825.406 414.407 854.535 416.788C863.146 417.549 871.84 417.43 880.415 416.434C926.137 410.966 940.285 413.205 991.47 397.012C1012.89 390.247 1030.72 380.936 1048.98 371.083C1092.89 347.323 1131.62 299.214 1217.55 263.998C1222.4 262.018 1227.52 260.038 1232.9 258.058C1275.37 242.666 1341.14 226.19 1432.75 229.985" stroke="#3A4A35" stroke-opacity="0.2" stroke-width="2" stroke-miterlimit="10"/>
<path d="M-218.713 162.947C-173.02 171.787 -134.056 178.528 -104.84 182.794C-23.9507 194.58 -2.58525 190.997 34.7971 207.544C72.1795 224.091 80.2023 241.157 118.419 250.609C151.718 258.836 179.467 257.068 187.432 255.536C229.904 247.286 236.461 228.546 277.553 211.174C326.725 190.384 378.629 198.045 391.454 195.075C448.62 203.325 486.779 239.224 507.972 260.203C512.113 264.328 514.614 268.335 516.944 270.975C577.791 339.709 541.932 394.348 594.584 419.333C631.219 436.729 682.72 429.823 711.965 428.173C741.209 426.523 761.712 422.091 780.978 418.343C802.976 414.077 823.795 407.689 852.091 411.767C860.63 413.062 869.367 413.229 877.971 412.262C923.635 406.793 936.834 406.298 986.984 388.031C1007.75 380.488 1025.17 370.423 1043.46 360.146C1085.53 336.574 1125.87 286.839 1213.32 250.515C1218.21 248.488 1223.38 246.461 1228.85 244.434C1271.69 228.688 1338.38 211.575 1431.29 214.969" stroke="#3A4A35" stroke-opacity="0.2" stroke-width="2" stroke-miterlimit="10"/>
<path d="M-217.16 165.823C-172.503 174.733 -134.171 181.804 -104.927 186.236C-26.6251 198.304 -4.62702 195.405 32.5828 211.952C69.1025 228.216 77.7292 244.952 114.824 254.38C147.203 262.607 174.176 261.593 182.256 260.132C223.894 252.542 231.141 235.571 271.571 219C319.536 199.294 369.34 206.248 383.373 202.5C438.728 209.831 476.743 242.571 498.655 262.206C501.889 265.401 504.922 268.728 507.742 272.177C569.767 335.466 537.274 387.158 588.66 410.305C625.841 427.017 677.659 419.734 707.881 418.249C736.953 416.787 758.318 412.757 777.959 409.716C800.359 406.251 821.868 400.995 849.301 406.581C857.794 408.425 866.644 408.889 875.354 407.948C920.989 402.456 933.21 399.274 982.354 378.885C1002.48 370.564 1019.45 359.792 1037.88 348.996C1078.14 325.425 1120.06 274.275 1209.03 236.843C1213.96 234.769 1219.2 232.695 1224.74 230.621C1267.87 214.521 1335.53 196.772 1429.76 199.789" stroke="#3A4A35" stroke-opacity="0.2" stroke-width="2" stroke-miterlimit="10"/>
<path d="M-215.605 168.722C-171.983 177.585 -134.284 184.892 -104.982 189.701C-29.2975 202.099 -6.66677 199.86 30.5143 216.407C66.2576 232.412 75.4019 248.723 111.347 258.105C142.978 266.331 169.03 266.072 177.341 264.681C218.174 257.822 226.225 242.548 265.851 226.755C312.607 208.157 360.486 214.38 375.554 209.996C429.068 216.407 466.882 246.225 489.627 264.21C492.891 267.14 495.954 270.217 498.8 273.426C562.063 331.247 532.933 379.945 583.055 401.301C620.782 417.353 672.887 409.74 704.087 408.373C733.418 407.053 755.272 403.446 775.257 401.113C799.012 398.434 823.111 398.538 846.83 401.419C856.952 402.48 865.464 404.554 872.969 403.776C918.547 398.26 929.79 392.438 977.927 369.904C997.309 360.829 1013.96 349.279 1032.56 338.012C1071.07 314.629 1114.49 261.853 1205.1 223.314C1210.04 221.216 1215.36 219.071 1221 216.926C1264.54 200.426 1333.15 182.087 1428.59 184.727" stroke="#3A4A35" stroke-opacity="0.2" stroke-width="2" stroke-miterlimit="10"/>
<path d="M-213.908 172.776C-171.321 181.616 -134.226 189.276 -104.924 194.297C-31.9423 206.955 -8.67896 205.376 28.1571 221.993C63.1527 237.739 72.7859 253.65 107.609 263.008C138.205 271.234 163.568 271.706 172.108 270.409C212.193 264.351 220.849 250.68 259.87 235.688C305.391 218.198 351.285 223.691 367.445 218.623C419.205 224.115 456.588 250.821 480.283 267.463C483.577 270.125 486.678 272.942 489.571 275.901C553.84 328.253 528.362 373.935 577.16 393.523C615.492 408.915 667.827 400.971 700.033 399.722C729.565 398.567 751.937 395.385 772.268 393.758C795.445 391.896 817.04 393.475 844.157 397.506C854.423 399.038 862.906 401.513 870.382 400.618C915.902 395.102 926.197 386.64 973.327 361.913C992.018 352.084 1008.27 339.803 1027.01 328.018C1063.79 304.871 1108.71 250.468 1200.73 210.797C1205.73 208.628 1211.08 206.46 1216.8 204.244C1260.68 187.461 1330.13 168.439 1426.98 170.679" stroke="#3A4A35" stroke-opacity="0.2" stroke-width="2" stroke-miterlimit="10"/>
<path d="M-212.5 182.983C-170.948 191.822 -134.486 199.719 -105.155 205.069C-34.6174 217.963 -10.7214 217.161 25.942 233.661C60.1613 249.148 70.312 264.681 104.014 273.992C133.69 282.218 158.247 283.421 167.046 282.218C206.384 277.009 215.672 264.893 254.003 250.703C298.287 234.203 342.197 239.106 359.479 233.308C409.341 238.022 443.589 265.271 471.109 276.75C474.761 279.956 477.924 282.548 480.454 284.387C545.816 331.247 523.99 373.958 571.408 391.778C610.372 406.463 662.938 398.19 696.122 397.082C725.855 396.092 748.745 393.334 769.42 392.368C793 391.307 814.998 394.442 841.453 399.557C851.862 401.56 860.317 404.436 867.764 403.517C913.256 398.001 922.573 387.017 968.668 360.004C986.698 349.468 1002.54 336.433 1021.43 324.105C1056.52 301.217 1102.9 245.141 1196.44 204.362C1201.48 202.178 1206.9 199.946 1212.69 197.668C1256.94 180.649 1327.39 160.991 1425.45 162.947" stroke="#3A4A35" stroke-opacity="0.2" stroke-width="2" stroke-miterlimit="10"/>
<path d="M-211.035 192.176C-170.432 201.015 -134.603 209.171 -105.243 214.804C-37.2646 227.91 -12.621 227.91 23.7262 244.504C57.169 259.708 67.8374 274.864 100.389 284.151C129.144 292.354 152.897 294.193 161.983 293.179C200.602 288.865 210.494 278.282 248.25 264.893C291.384 249.572 333.223 253.65 351.627 247.168C399.649 250.845 433.552 275.618 462.02 285.165C465.004 287.604 468.163 289.895 471.481 292.024C537.849 333.439 519.762 372.945 565.771 389.185C605.396 403.163 658.134 394.56 692.296 393.617C722.259 392.768 745.666 390.435 766.658 390.222C790.64 389.963 813.069 394.701 838.95 400.853C849.474 403.352 857.928 406.605 865.376 405.567C910.781 400.028 919.178 386.427 964.238 357.223C981.491 345.979 997.048 332.213 1016 319.343C1049.38 296.762 1097.2 238.965 1192.27 197.055C1197.33 194.698 1202.82 192.529 1208.69 190.219C1253.29 172.706 1324.58 152.505 1424.04 153.896" stroke="#3A4A35" stroke-opacity="0.2" stroke-width="2" stroke-miterlimit="10"/>
<path d="M-209.424 201.368C-169.885 210.208 -134.659 218.623 -105.328 224.586C-39.9092 237.833 -14.8054 238.611 21.513 255.229C54.1794 270.173 65.3654 284.953 96.7953 294.193C124.688 302.395 147.578 303.079 156.923 304.045C194.737 308.005 205.319 291.553 242.27 278.989C284.11 264.846 324.023 268.123 343.548 260.933C389.758 263.691 423.258 285.895 452.819 293.509C455.832 295.709 459.021 297.741 462.366 299.59C529.712 335.537 515.42 371.86 560.135 386.498C600.393 399.745 653.333 390.859 688.501 390.034C718.694 389.35 742.59 387.465 763.927 387.936C788.312 388.478 811.115 394.866 836.449 402.079C847.117 405.072 855.514 408.679 862.961 407.783C908.338 402.22 915.814 386.074 959.782 354.606C976.489 342.655 991.557 328.135 1010.71 314.723C1042.34 292.472 1091.68 232.93 1188.27 189.795C1193.39 187.532 1198.92 185.175 1204.87 182.723C1249.81 164.856 1322.05 143.925 1422.81 145.009" stroke="#3A4A35" stroke-opacity="0.2" stroke-width="2" stroke-miterlimit="10"/>
<path d="M-207.871 210.585C-169.367 219.519 -134.803 228.075 -105.415 234.345C-42.5547 247.734 -16.8472 249.337 19.2987 265.978C51.1887 280.639 62.8923 294.947 93.172 304.376C120.174 312.579 142.287 313.804 151.834 315.054C188.698 319.768 200.114 304.965 236.404 293.203C277.007 280.027 314.964 282.714 335.582 274.817C379.952 276.679 413.223 296.267 443.531 301.971C446.573 303.938 449.793 305.711 453.164 307.275C521.43 337.776 511.107 370.918 554.154 383.953C595.188 396.422 648.214 387.253 684.331 386.593C714.755 386.051 739.168 384.613 760.85 385.791C785.637 387.135 808.814 395.22 833.602 403.305C844.385 406.841 852.782 410.801 860.201 409.881C905.52 404.318 912.133 385.65 955.094 351.896C971.14 339.238 985.806 323.987 1005.07 310.009C1035.21 288.112 1085.82 226.802 1183.93 182.724C1189.09 180.382 1194.68 178.025 1200.7 175.652C1246.02 157.455 1319.14 135.887 1421.22 136.595" stroke="#3A4A35" stroke-opacity="0.2" stroke-width="2" stroke-miterlimit="10"/>
<path d="M-206.316 219.778C-168.934 228.593 -134.916 237.503 -105.499 244.103C-45.1121 257.586 -18.8869 260.085 17.0864 276.703C48.2288 291.105 60.4212 305.153 89.5794 314.417C115.661 322.62 136.998 324.388 146.774 325.92C182.662 331.506 194.94 318.212 230.54 307.275C269.906 295.183 305.88 297.163 327.619 288.559C370.177 289.502 402.959 306.52 434.36 310.292C437.438 312.015 440.69 313.522 444.079 314.794C513.093 339.945 506.882 369.645 548.405 381.242C589.928 392.839 643.299 383.599 680.422 383.01C711.047 382.609 735.978 381.595 758.062 383.481C783.224 385.626 806.775 395.267 831.044 404.46C841.943 408.537 850.339 412.804 857.73 411.908C902.991 406.322 908.771 385.178 950.495 349.09C965.937 335.749 980.2 319.768 999.581 305.2C1028.11 283.727 1080.1 220.603 1179.71 175.298C1184.88 172.941 1190.55 170.584 1196.64 168.015C1242.25 149.37 1316.32 127.166 1419.7 127.59" stroke="#3A4A35" stroke-opacity="0.2" stroke-width="2" stroke-miterlimit="10"/>
<path d="M-204.764 228.947C-168.33 237.763 -135.002 246.909 -105.557 253.815C-47.8152 267.392 -20.9287 270.763 14.8722 287.404C45.2382 301.547 58.0057 315.195 85.9562 324.341C111.175 332.544 131.735 334.854 141.713 336.669C176.652 343.009 189.735 331.365 224.702 321.229C262.804 310.198 296.793 311.518 319.596 302.207C360.314 302.207 392.722 316.656 425.101 318.495C428.24 319.976 431.53 321.23 434.935 322.243C504.984 342.09 502.683 368.301 542.654 378.484C585.183 389.304 638.381 379.71 676.511 379.38C707.338 379.097 732.786 378.531 755.158 381.124C780.722 384.071 804.589 395.526 828.37 405.544C839.384 410.258 847.752 414.761 855.142 413.841C900.374 408.278 905.32 384.636 945.895 346.215C960.704 332.19 974.65 315.572 994.032 300.321C1021 279.272 1074.32 214.333 1175.45 167.897C1180.68 165.493 1186.39 163.01 1192.56 160.449C1238.57 141.592 1313.56 118.727 1418.26 118.657" stroke="#3A4A35" stroke-opacity="0.2" stroke-width="2" stroke-miterlimit="10"/>
<path d="M-203.211 238.187C-167.813 247.003 -135.118 256.361 -105.643 263.621C-50.432 277.245 -22.9416 281.535 12.6579 298.224C42.2475 312.06 55.4751 325.354 82.3616 334.453C99.9627 340.11 118.127 344.511 136.652 347.606C170.642 354.677 184.531 344.683 218.836 335.372C255.672 325.401 287.85 325.944 311.688 316.02C350.566 315.148 382.628 326.981 415.985 326.91C419.174 328.141 422.495 329.127 425.906 329.856C496.587 344.376 498.542 367.028 536.903 375.821C580.237 385.744 633.493 376.575 672.572 375.821C703.628 375.231 729.566 375.585 752.311 378.861C778.191 382.609 802.461 395.809 825.753 406.723C836.853 411.908 845.25 416.811 852.611 415.892C897.786 410.306 901.956 384.212 941.351 343.434C955.528 328.749 969.043 311.353 988.568 295.536C1013.96 274.935 1068.59 208.157 1171.25 160.59C1176.51 158.233 1182.27 155.617 1188.51 153C1234.89 133.742 1310.8 110.265 1416.8 109.817" stroke="#3A4A35" stroke-opacity="0.2" stroke-width="2" stroke-miterlimit="10"/>
<path d="M-201.66 247.403C-167.153 256.219 -135.206 265.766 -105.731 273.332C-53.0508 286.956 -24.9853 292.189 10.4704 308.901C39.2261 322.455 53.0001 335.396 78.7364 344.447C95.8895 350.257 113.558 354.985 131.589 358.59C164.687 366.345 179.324 358.024 212.968 349.585C248.539 340.628 278.646 340.605 303.721 329.903C340.787 328.088 372.476 337.352 406.781 335.348C410.029 336.32 413.379 337.046 416.788 337.517C488.275 346.828 494.428 365.803 531.149 373.251C575.318 382.208 628.574 372.921 668.659 372.355C699.945 371.931 726.372 372.709 749.462 376.693C775.803 381.242 800.274 396.186 823.163 407.995C834.292 413.747 842.746 418.956 850.079 418.037C895.225 412.427 898.618 383.882 936.777 340.746C950.378 325.378 963.52 307.298 983.074 290.869C1007 270.739 1062.9 202.099 1167.11 153.377C1172.4 150.902 1178.24 148.309 1184.56 145.622C1231.32 126.034 1308.21 101.921 1415.44 101.072" stroke="#3A4A35" stroke-opacity="0.2" stroke-width="2" stroke-miterlimit="10"/>
<path d="M-200.137 256.62C-166.78 265.412 -135.293 275.171 -105.818 283.161C-55.7545 296.809 -26.9988 302.985 8.25562 319.72C36.2924 333.015 50.5264 345.649 75.1413 354.583C91.8455 360.436 109.002 365.381 126.499 369.385C158.734 377.8 174.118 371.2 207.015 363.587C241.349 355.69 269.472 355.007 295.669 343.575C330.894 340.864 362.209 347.535 397.521 343.575C400.825 344.296 404.204 344.762 407.614 344.965C479.906 349.114 490.172 364.247 525.311 370.446C570.314 378.413 623.569 369.032 664.661 368.702C696.149 368.419 723.093 369.621 746.529 374.312C773.271 379.663 798.001 396.351 820.459 409.056C831.645 415.397 840.128 420.842 847.461 419.97C892.55 414.36 895.253 383.34 932.146 337.847C945.144 321.818 958.027 303.079 977.494 285.99C1000.04 266.355 1057.09 195.947 1162.85 145.976C1168.17 143.454 1174.07 140.814 1180.48 138.079C1227.58 118.161 1305.34 93.3879 1413.95 92.2329" stroke="#3A4A35" stroke-opacity="0.2" stroke-width="2" stroke-miterlimit="10"/>
<path d="M-198.582 265.836C-166.261 274.652 -135.32 284.552 -105.902 292.967C-58.2256 306.568 -29.0386 313.757 6.0433 330.493C33.3324 343.504 48.0553 355.738 71.52 364.671C87.7824 370.657 104.45 375.875 121.44 380.299C152.812 389.374 168.887 384.471 201.237 377.706C234.306 370.823 260.473 369.503 287.791 357.388C321.205 353.758 352.147 357.835 388.436 351.99C391.811 352.359 395.211 352.556 398.616 352.579C471.655 355.243 486.148 362.833 519.648 367.83C565.485 374.665 618.769 364.86 660.81 365.19C692.441 365.449 719.989 366.698 743.77 372.096C770.915 378.248 795.847 396.705 817.931 410.282C829.174 417.212 837.715 422.963 845.019 422.067C890.079 416.457 892.092 383.01 927.663 335.16C940.085 318.448 952.594 299.048 972.119 281.252C993.111 262.112 1051.51 189.724 1158.66 138.716C1164.04 136.139 1169.98 133.459 1176.46 130.678C1223.9 110.359 1302.61 84.973 1412.51 83.3701" stroke="#3A4A35" stroke-opacity="0.2" stroke-width="2" stroke-miterlimit="10"/>
<path d="M-197.029 275.029C-165.743 283.821 -135.406 293.886 -105.989 302.702C-60.7849 316.232 -31.0803 324.435 3.82903 341.218C30.3418 353.946 45.5535 365.826 67.9254 374.713C88.6295 382.963 105.308 387.677 116.379 391.212C146.917 400.9 163.682 397.718 195.371 391.849C224.035 386.454 252.246 379.549 279.826 371.177C310.077 362.455 341.651 353.781 379.234 360.358C382.646 360.747 386.113 360.683 389.5 360.169C463.517 354.182 482.007 361.348 513.897 365.19C560.596 370.8 613.852 361.135 656.899 361.654C688.847 362.031 716.797 363.752 740.923 369.833C768.442 376.905 793.603 397.035 815.314 411.484C826.586 419.003 835.213 425.037 842.517 424.118C887.491 418.485 888.871 382.585 923.033 332.378C934.88 314.983 947.101 294.97 966.54 276.491C985.979 258.011 1045.82 183.713 1154.37 131.385C1159.78 128.816 1165.87 126.058 1172.34 123.206C1220.16 102.557 1299.76 76.5343 1411.02 74.5308" stroke="#3A4A35" stroke-opacity="0.2" stroke-width="2" stroke-miterlimit="10"/>
<path d="M-195.477 284.245C-165.226 293.038 -135.463 303.103 -106.046 312.531C-63.3443 325.99 -33.0933 335.23 1.61479 352.037C27.4949 364.482 43.0805 376.009 64.3022 384.848C84.1148 393.122 100.218 398.284 111.318 402.126C141.051 412.427 158.448 410.942 189.504 405.968C220.014 401.089 240.258 394.866 271.861 384.99C300.329 376.08 330.637 374.359 370.061 368.725C373.684 368.207 377.164 368.254 380.413 367.782C455.351 356.751 477.866 359.815 508.146 362.55C555.679 366.816 608.963 357.435 652.96 358.118C685.137 358.637 713.605 360.805 738.076 367.547C765.998 375.325 791.332 397.294 812.697 412.639C823.998 420.747 832.826 427.065 839.986 426.145C884.903 420.512 885.679 382.137 918.547 329.503C929.848 311.423 941.81 290.845 961.134 271.611C979.336 253.508 1040.21 177.443 1150.26 123.984C1155.72 121.367 1161.76 118.562 1168.4 115.639C1216.57 94.6607 1297.12 68.0015 1409.64 65.5972" stroke="#3A4A35" stroke-opacity="0.2" stroke-width="2" stroke-miterlimit="10"/>
<path d="M-193.779 293.438C-164.564 302.23 -135.348 312.484 -105.988 322.219C-65.7303 335.584 -34.9905 345.79 -0.454905 362.715C24.5338 374.877 40.752 386.05 60.8522 394.866C79.7447 403.116 95.1577 408.702 106.401 412.945C135.358 423.859 153.388 424.071 183.811 420.017C213.027 416.104 231.517 409.763 264.04 398.802C290.811 389.704 320.573 385.437 361.004 377.117C364.598 376.386 368.164 376.08 371.471 375.396C447.386 359.344 473.956 362.597 502.539 359.91C551.231 355.526 600.22 353.762 649.193 354.63C681.601 355.266 710.558 357.883 735.46 365.378C763.785 373.958 789.262 397.695 810.225 413.912C821.526 422.61 830.354 429.186 837.6 428.29C882.488 422.633 882.632 381.807 914.148 326.933C924.903 308.194 936.664 287.05 955.815 267.038C972.637 249.478 1034.63 171.456 1146.21 116.889C1151.7 114.225 1157.71 111.373 1164.52 108.403C1213.06 87.0472 1294.5 59.7515 1408.34 56.9937" stroke="#3A4A35" stroke-opacity="0.2" stroke-width="2" stroke-miterlimit="10"/>
<path d="M-192.371 300.062C-164.191 308.854 -135.521 319.179 -106.104 329.409C-68.2616 342.632 -37.0905 354.017 -2.58366 370.871C21.6574 382.657 38.3644 393.594 57.3432 402.339C75.3155 410.612 90.0671 416.623 101.397 421.196C129.664 432.699 148.24 434.608 178.031 431.473C205.981 428.526 222.803 422.186 256.16 409.834C281.292 400.524 310.623 393.806 351.916 382.727C355.511 381.761 359.076 381.124 362.47 380.205C439.42 359.179 469.93 357.199 496.874 354.512C546.128 349.544 595.753 347.472 645.368 348.313C677.977 349.091 707.451 352.155 732.584 360.358C761.34 369.787 786.932 395.22 807.694 412.215C818.966 421.502 827.823 428.385 835.155 427.466C879.985 421.785 879.583 378.508 909.661 321.253C919.87 301.807 931.516 280.144 950.408 259.355C965.907 242.312 1029 162.358 1142.09 106.659C1147.61 103.948 1153.8 101.049 1160.58 98.0319C1209.47 76.3226 1291.85 48.3905 1406.99 45.2319" stroke="#3A4A35" stroke-opacity="0.2" stroke-width="2" stroke-miterlimit="10"/>
<path d="M-190.904 303.621C-163.759 312.414 -135.578 322.738 -106.391 333.51C-70.9644 346.592 -39.2181 359.014 -5.11388 375.939C18.3795 387.512 35.5466 398.048 53.4039 406.723C70.4848 415.02 84.5751 421.408 96.0198 426.452C123.597 438.544 142.719 442.127 171.849 439.935C198.534 437.931 213.803 431.756 247.879 417.966C271.401 408.538 300.386 399.298 342.398 385.438C346.022 384.259 349.616 383.293 353.038 382.138C431.138 356.091 465.358 348.808 490.806 346.191C540.353 341.124 594.154 337.871 641.112 339.12C673.951 339.992 703.915 343.528 729.421 352.438C758.551 362.621 784.258 389.846 804.761 407.854C816.033 417.754 825.091 424.873 832.309 423.953C877.11 418.296 876.133 372.521 904.802 312.932C914.464 292.802 926.052 270.645 944.6 249.03C958.805 232.53 1022.96 150.643 1137.58 93.8125C1143.16 91.0782 1149.37 88.1082 1156.24 85.0204C1205.5 62.9811 1288.78 34.4126 1405.24 30.8062" stroke="#3A4A35" stroke-opacity="0.2" stroke-width="2" stroke-miterlimit="10"/>
<path d="M-189.295 307.015C-163.156 315.784 -135.436 326.108 -106.392 337.47C-72.4388 350.511 -39.3434 365.004 -7.24276 380.888C15.503 392.202 33.0152 402.409 49.8948 410.989C66.0267 419.357 79.4844 426.098 91.0441 431.543C117.959 444.248 137.6 449.481 166.068 448.255C191.516 447.171 205.319 441.302 239.999 425.957C262.025 416.222 290.695 404.625 333.311 388.007C336.934 386.592 340.557 385.296 344.037 383.929C423.258 352.862 460.928 339.025 485.141 337.729C535.722 335.089 589.322 328.3 637.287 329.785C670.356 330.752 700.808 334.806 726.659 344.4C756.192 355.384 781.985 384.471 802.229 403.328C813.444 413.817 822.646 421.219 829.864 420.323C874.607 414.619 872.997 366.368 900.315 304.446C909.962 281.25 923.017 259.103 939.193 238.493C952.133 222.488 1017.32 138.692 1133.44 80.73C1139.04 77.9485 1145.31 74.9314 1152.27 71.7964C1201.88 49.4036 1286.1 20.1986 1403.86 16.2622" stroke="#3A4A35" stroke-opacity="0.2" stroke-width="2" stroke-miterlimit="10"/>
<path d="M-187.742 310.268C-126.14 331.798 -66.5517 357.009 -9.45702 385.697C82.3886 431.873 107.492 456.812 160.201 456.411C198.59 456.104 207.648 442.716 324.109 390.411C411.699 351.07 455.493 331.482 479.389 329.125C565.254 320.899 659.112 310.716 723.813 336.197C770.454 354.559 807.204 418.885 827.333 416.339C887.001 408.749 863.45 320.875 933.729 227.768C945.433 212.258 1011.63 126.576 1129.27 67.4828C1174.93 44.5479 1266.6 6.40933 1402.45 1.48291" stroke="#3A4A35" stroke-opacity="0.2" stroke-width="2" stroke-miterlimit="10"/>
</svg>
