<svg width="1440" height="250" viewBox="0 0 1440 250" fill="none" xmlns="http://www.w3.org/2000/svg">
<g clip-path="url(#clip0_2901_1884)">
<rect width="1440" height="249.167" fill="#D2D3CE"/>
<g opacity="0.68">
<g clip-path="url(#clip1_2901_1884)">
<path d="M-26.8782 240.286C-26.8782 240.939 -26.8729 241.301 -26.8782 241.663C-26.9695 246.868 -27.0489 252.073 -27.162 257.278C-27.2282 260.201 -27.9958 260.916 -30.9443 260.916H-47.2487C-54.0369 260.916 -60.825 260.916 -67.6132 260.916C-70.0211 260.916 -70.886 260.036 -70.9217 257.665C-71.0011 251.996 -71.193 246.324 -71.1811 240.657C-71.122 213.787 -71.0305 186.916 -70.9065 160.045C-70.9696 156.876 -70.8625 153.707 -70.5856 150.549C-70.1422 146.611 -69.4408 142.689 -68.6177 138.807C-67.8852 135.329 -66.9711 131.889 -65.8789 128.503C-64.5231 124.318 -63.0587 120.152 -61.3469 116.097C-58.6878 109.878 -55.2562 104.003 -51.1296 98.606C-48.983 95.7688 -46.6717 93.0456 -44.3299 90.358C-42.712 88.502 -40.9592 86.7509 -39.1885 85.0309C-33.4828 79.5248 -27.1585 74.6696 -20.3366 70.5582C-13.0387 66.1196 -5.40064 62.3926 2.82299 59.9947C9.03108 58.1866 15.3728 56.7952 21.6987 55.4116C23.9597 54.9171 26.3485 54.9754 28.6803 54.8076C30.2865 54.6918 31.8942 54.6013 33.5035 54.536C33.7543 54.4964 34.0106 54.507 34.2571 54.5671C34.5036 54.6272 34.7351 54.7357 34.9376 54.8859C35.1401 55.0361 35.3094 55.225 35.4352 55.4411C35.5611 55.6572 35.6409 55.8961 35.6699 56.1432C35.8986 57.0977 36.0407 58.0702 36.0947 59.0492C36.1243 69.6045 36.1304 80.1596 36.1132 90.7145C36.1132 93.0073 34.9718 94.4214 32.6062 94.9191C30.2558 95.4136 27.8486 95.6864 25.5379 96.3112C21.4387 97.42 17.2666 98.4219 13.3626 100.027C9.36354 101.742 5.50562 103.757 1.82316 106.054C-2.44568 108.72 -6.31681 111.953 -9.67987 115.66C-14.1635 120.375 -17.9229 125.704 -20.8401 131.479C-23.324 136.583 -25.0804 141.996 -26.0603 147.568C-27.0787 153.053 -27.0972 158.585 -26.818 164.094C-26.427 171.009 -24.5986 177.774 -21.4449 183.973C-19.5664 187.924 -17.3084 191.691 -14.7015 195.223C-11.6639 199.202 -8.16056 202.818 -4.26318 205.998C0.181061 209.645 5.11724 212.675 10.4061 215.002C20.0026 219.158 30.4963 220.934 40.9602 220.175C46.8276 219.819 52.6072 218.604 58.1062 216.568C64.0619 214.449 69.6561 211.461 74.6991 207.703C79.2606 204.347 83.3061 200.366 86.7116 195.883C91.1351 189.949 94.8241 183.584 96.8456 176.469C97.9705 172.499 98.6322 168.393 99.3561 164.323C99.7173 162.298 99.6677 160.204 99.9688 158.167C100.242 156.313 100.701 154.987 103.312 154.977C115.371 154.929 127.428 154.807 139.486 154.733C141.003 154.724 142.805 157.208 142.496 158.76C142.394 159.193 142.333 159.635 142.314 160.079C142.214 164.611 141.77 169.128 140.986 173.595C139.978 179.88 138.374 186.059 136.194 192.052C132.677 201.768 128.027 210.916 121.565 219.09C118.52 223.052 115.263 226.854 111.809 230.479C108.666 233.538 105.332 236.404 101.828 239.059C99.1394 241.268 96.2905 243.282 93.3035 245.086C88.6107 247.808 83.775 250.322 78.8817 252.682C75.9378 254.067 72.8883 255.225 69.7608 256.146C65.2638 257.514 60.7202 258.73 56.1297 259.793C51.2402 260.843 46.2398 261.316 41.2355 261.2C36.9291 261.167 32.5976 261.478 28.323 261.117C23.4204 260.705 18.5515 259.972 13.749 258.922C5.94879 257.208 -1.6143 254.587 -8.7793 251.115C-14.5439 248.268 -20.0725 244.984 -25.3146 241.294C-25.7533 240.989 -26.2079 240.716 -26.8782 240.286Z" fill="white"/>
<path d="M97.4249 114.982V97.5131C97.4249 95.2202 96.6759 94.4432 94.2997 94.3939C89.0332 94.2844 83.7661 94.1664 78.4989 94.125C72.6932 94.0789 66.8867 94.16 61.0816 94.0887C59.1598 94.0388 57.2442 93.8526 55.3499 93.5313C53.0399 93.1717 51.8952 91.2015 51.7907 88.7479C51.4856 81.6328 51.4922 74.504 51.4545 67.3805C51.4386 64.4415 51.561 61.4986 51.7351 58.5635C51.8674 56.3802 52.009 54.0775 54.3746 52.935C55.3856 52.4436 56.4895 52.1622 57.6169 52.1087C62.6018 51.9359 67.5899 51.8368 72.5813 51.8113C79.0839 51.7659 85.5871 51.8365 92.0883 51.7711C93.4953 51.7049 94.891 51.4904 96.2511 51.1314C97.1583 50.9254 97.4521 50.2326 97.4474 49.2741C97.4077 41.6312 97.4044 33.9885 97.4375 26.3461C97.4633 21.9146 97.5857 17.4831 97.7128 13.0529C97.8028 9.91621 99.2671 7.84499 101.821 7.36866C103.226 7.13315 104.65 7.02468 106.076 7.04462C114.9 7.01675 123.727 6.95454 132.549 7.09193C134.402 7.12109 136.41 6.90464 138.16 7.99923C139.245 8.67711 140.151 9.4535 140.334 10.7561C140.626 12.3854 140.809 14.0318 140.88 15.6847C140.929 26.6941 140.905 37.7028 140.905 48.7122C140.905 50.602 141.784 51.4866 143.785 51.5255C149.153 51.6305 154.523 51.7562 159.892 51.7925C166.626 51.8378 173.361 51.8028 180.096 51.8035C182.929 51.8035 185.72 54.3374 185.764 57.1176C185.899 65.5598 185.992 74.0026 186.041 82.4461C186.056 84.8375 185.909 87.2328 185.767 89.6222C185.677 90.673 185.223 91.6621 184.481 92.426C183.738 93.1898 182.752 93.6827 181.685 93.823C180.178 93.9972 178.663 94.0906 177.146 94.1029C167.439 94.1269 157.732 94.1029 148.024 94.1275C146.531 94.1415 145.039 94.2363 143.557 94.4114C141.919 94.5935 141.206 95.5948 141.187 97.5973C141.089 108.134 141.025 118.671 140.882 129.206C140.885 131.225 140.684 133.24 140.283 135.22C140.083 135.994 139.659 136.694 139.062 137.237C138.464 137.78 137.72 138.142 136.917 138.28C135.035 138.667 133.117 138.862 131.194 138.864C123.949 138.927 116.703 138.927 109.457 138.864C106.987 138.84 104.512 138.589 102.052 138.325C99.7157 138.073 97.4262 135.422 97.4262 133.14C97.424 127.085 97.4236 121.032 97.4249 114.982Z" fill="white"/>
<path d="M169.805 33.8349C171.666 33.0095 173.57 32.2792 175.509 31.647C179.109 30.669 181.028 28.2122 182.139 24.955C182.584 23.6524 182.886 22.3044 183.276 20.983C183.469 20.3259 183.714 19.683 183.937 19.0336L184.363 19.0103C184.929 20.9389 185.555 22.8533 186.046 24.8001C186.785 27.7268 188.381 29.8479 191.354 30.9386C193.659 31.7844 195.904 32.7908 198.418 33.8258C197.101 34.3053 195.904 34.6728 194.764 35.1718C192.831 36.0189 190.781 36.7272 189.063 37.8976C186.758 39.4646 186.246 42.1677 185.503 44.6511C185.148 45.8364 184.788 47.0198 184.43 48.2045L184.023 48.2453L182.996 45.3173C182.424 43.6894 181.972 42.0077 181.253 40.4445C179.969 37.652 177.34 36.4375 174.602 35.4421C173.117 34.8996 171.605 34.4324 169.805 33.8349Z" fill="white"/>
<path d="M200.391 42.6638C200.964 47.4006 203.077 50.5942 208.149 51.3946C203.07 52.195 201.081 55.5332 200.209 59.931C199.276 55.5792 197.6 52.0893 192.264 51.67C194.386 50.4925 196.519 49.8554 197.778 48.4582C199.036 47.061 199.439 44.8971 200.391 42.6638Z" fill="white"/>
</g>
<path d="M331.853 225.916V93.6749H376.626C386.701 93.6749 395.014 95.4382 401.563 98.9646C408.112 102.365 412.961 107.088 416.109 113.133C419.258 119.179 420.832 126.106 420.832 133.914C420.832 141.723 419.258 148.65 416.109 154.695C412.961 160.74 408.112 165.526 401.563 169.053C395.014 172.453 386.701 174.153 376.626 174.153H351.878V225.916H331.853ZM351.878 156.206H375.681C384.245 156.206 390.48 154.191 394.384 150.161C398.414 146.131 400.429 140.715 400.429 133.914C400.429 127.239 398.414 121.886 394.384 117.856C390.48 113.7 384.245 111.622 375.681 111.622H351.878V156.206ZM436.816 225.916V208.536H459.675V155.828C459.675 151.672 457.66 149.594 453.63 149.594H438.705V132.214H461.187C466.35 132.214 470.569 133.725 473.844 136.748C477.118 139.645 478.756 143.738 478.756 149.027V151.294H479.7C481.086 144.242 484.045 138.952 488.579 135.425C493.239 131.773 499.977 129.947 508.793 129.947H523.34V151.106H502.937C495.506 151.106 489.776 153.687 485.746 158.851C481.715 164.015 479.7 170.186 479.7 177.365V208.536H508.793V225.916H436.816ZM574.274 228.183C566.843 228.183 560.609 226.924 555.571 224.405C550.533 221.76 546.755 218.297 544.236 214.015C541.717 209.607 540.458 204.821 540.458 199.657C540.458 190.463 543.795 183.284 550.47 178.121C557.271 172.957 566.843 170.375 579.185 170.375H603.367V168.297C603.367 154.191 596.818 147.138 583.719 147.138C578.304 147.138 573.707 148.335 569.929 150.728C566.276 152.995 563.82 156.71 562.561 161.874H542.536C543.543 152.05 547.762 144.305 555.193 138.637C562.75 132.844 572.259 129.947 583.719 129.947C597.573 129.947 607.649 133.347 613.946 140.148C620.243 146.949 623.392 156.332 623.392 168.297V225.916H606.389L604.689 212.125H603.367C600.596 216.534 597.133 220.312 592.976 223.46C588.82 226.609 582.586 228.183 574.274 228.183ZM578.052 211.37C586.238 211.37 592.347 208.914 596.377 204.002C600.533 198.964 602.8 192.604 603.178 184.922H581.264C574.085 184.922 568.984 186.118 565.961 188.511C563.065 190.778 561.616 193.99 561.616 198.146C561.616 202.302 563.065 205.576 565.961 207.969C568.984 210.236 573.014 211.37 578.052 211.37ZM687.927 228.183C679.237 228.183 671.429 226.168 664.502 222.138C657.701 218.108 652.348 212.44 648.444 205.136C644.54 197.705 642.588 189.015 642.588 179.065C642.588 169.116 644.54 160.488 648.444 153.184C652.474 145.879 657.89 140.211 664.691 136.181C671.492 132.025 679.237 129.947 687.927 129.947C699.892 129.947 709.527 132.97 716.832 139.015C724.262 144.934 728.985 153.121 731 163.574H710.031C708.771 159.04 706.189 155.451 702.285 152.806C698.507 150.161 693.658 148.839 687.739 148.839C683.456 148.839 679.363 149.972 675.459 152.239C671.681 154.506 668.595 157.906 666.202 162.44C663.935 166.849 662.802 172.39 662.802 179.065C662.802 185.614 663.935 191.156 666.202 195.69C668.595 200.224 671.681 203.687 675.459 206.08C679.363 208.347 683.456 209.481 687.739 209.481C693.784 209.481 698.633 208.158 702.285 205.513C705.937 202.869 708.519 199.216 710.031 194.556H731C728.482 204.884 723.57 213.07 716.265 219.115C708.96 225.161 699.514 228.183 687.927 228.183ZM800.637 225.916C791.443 225.916 784.138 223.712 778.722 219.304C773.307 214.77 770.599 206.773 770.599 195.312V149.216H746.984V132.214H760.964C767.387 132.214 771.166 129.065 772.299 122.768L775.133 107.655H790.624V132.214H827.652V149.216H790.624V194.934C790.624 199.846 791.695 203.309 793.836 205.325C796.103 207.214 799.944 208.158 805.36 208.158H827.274V225.916H800.637ZM892.376 117.856C887.968 117.856 884.253 116.471 881.23 113.7C878.333 110.803 876.885 107.277 876.885 103.121C876.885 98.9646 878.333 95.5011 881.23 92.7304C884.253 89.9596 887.968 88.5742 892.376 88.5742C896.91 88.5742 900.626 89.9596 903.522 92.7304C906.545 95.5011 908.056 98.9646 908.056 103.121C908.056 107.277 906.545 110.803 903.522 113.7C900.626 116.471 896.91 117.856 892.376 117.856ZM854.782 225.916V208.536H884.253V155.828C884.253 151.672 882.238 149.594 878.208 149.594H857.427V132.214H881.797C889.605 132.214 895.273 134.04 898.799 137.692C902.452 141.219 904.278 146.886 904.278 154.695V208.536H933.749V225.916H854.782ZM999.418 228.183C990.728 228.183 982.919 226.168 975.992 222.138C969.191 218.108 963.839 212.44 959.935 205.136C956.03 197.705 954.078 189.015 954.078 179.065C954.078 169.116 956.03 160.488 959.935 153.184C963.965 145.879 969.38 140.211 976.181 136.181C982.982 132.025 990.728 129.947 999.418 129.947C1011.38 129.947 1021.02 132.97 1028.32 139.015C1035.75 144.934 1040.48 153.121 1042.49 163.574H1021.52C1020.26 159.04 1017.68 155.451 1013.78 152.806C1010 150.161 1005.15 148.839 999.229 148.839C994.947 148.839 990.854 149.972 986.95 152.239C983.171 154.506 980.086 157.906 977.693 162.44C975.426 166.849 974.292 172.39 974.292 179.065C974.292 185.614 975.426 191.156 977.693 195.69C980.086 200.224 983.171 203.687 986.95 206.08C990.854 208.347 994.947 209.481 999.229 209.481C1005.27 209.481 1010.12 208.158 1013.78 205.513C1017.43 202.869 1020.01 199.216 1021.52 194.556H1042.49C1039.97 204.884 1035.06 213.07 1027.76 219.115C1020.45 225.161 1011 228.183 999.418 228.183ZM1103.06 228.183C1093.99 228.183 1085.99 226.168 1079.07 222.138C1072.14 217.982 1066.72 212.251 1062.82 204.947C1058.92 197.642 1056.96 189.141 1056.96 179.443C1056.96 169.619 1058.85 160.992 1062.63 153.561C1066.54 146.131 1071.95 140.337 1078.88 136.181C1085.93 132.025 1094.05 129.947 1103.25 129.947C1112.32 129.947 1120.12 132.025 1126.67 136.181C1133.22 140.211 1138.26 145.627 1141.79 152.428C1145.44 159.229 1147.27 166.723 1147.27 174.909C1147.27 176.168 1147.27 177.554 1147.27 179.065C1147.27 180.451 1147.2 182.025 1147.08 183.788H1076.61C1077.24 192.478 1080.07 199.09 1085.11 203.624C1090.15 208.032 1096.07 210.236 1102.87 210.236C1108.79 210.236 1113.45 209.04 1116.85 206.647C1120.38 204.128 1122.96 200.728 1124.6 196.445H1144.81C1142.54 205.387 1137.82 212.944 1130.64 219.115C1123.46 225.161 1114.27 228.183 1103.06 228.183ZM1103.06 147.327C1096.89 147.327 1091.41 149.216 1086.62 152.995C1081.84 156.647 1078.75 161.811 1077.37 168.486H1127.24C1126.74 162.189 1124.28 157.088 1119.87 153.184C1115.46 149.279 1109.86 147.327 1103.06 147.327ZM1258.2 225.916L1297.68 93.6749H1321.49L1360.97 225.916H1339.25L1330.37 194.178H1288.81L1279.93 225.916H1258.2ZM1309.02 122.012L1293.34 178.121H1325.83L1310.15 122.012H1309.02ZM1374.69 225.916V208.158H1403.4V111.433H1375.07V93.6749H1451.77V111.433H1423.43V208.158H1452.14V225.916H1374.69Z" fill="#121212"/>
</g>
</g>
<defs>
<clipPath id="clip0_2901_1884">
<rect width="1440" height="249.167" fill="white"/>
</clipPath>
<clipPath id="clip1_2901_1884">
<rect width="225" height="302" fill="white" transform="translate(0 -11)"/>
</clipPath>
</defs>
</svg>
