<svg width="1181" height="302" viewBox="0 0 1181 302" fill="none" xmlns="http://www.w3.org/2000/svg">
<g clip-path="url(#clip0_3263_1431)">
<path d="M44.1218 251.286C44.1218 251.939 44.1271 252.301 44.1218 252.663C44.0305 257.868 43.9511 263.073 43.838 268.278C43.7718 271.201 43.0042 271.916 40.0557 271.916H23.7513C16.9631 271.916 10.175 271.916 3.38679 271.916C0.978852 271.916 0.114008 271.036 0.0782757 268.665C-0.00112855 262.996 -0.193021 257.324 -0.18111 251.657C-0.121998 224.787 -0.0304623 197.916 0.0934966 171.045C0.0303865 167.876 0.13751 164.707 0.414423 161.549C0.857763 157.611 1.55917 153.689 2.38232 149.807C3.11476 146.329 4.02889 142.889 5.12111 139.503C6.47694 135.318 7.94128 131.152 9.65311 127.097C12.3122 120.878 15.7438 115.003 19.8704 109.606C22.017 106.769 24.3283 104.046 26.6701 101.358C28.288 99.5019 30.0408 97.7508 31.8115 96.0308C37.5172 90.5247 43.8415 85.6696 50.6634 81.5582C57.9613 77.1196 65.5994 73.3925 73.823 70.9946C80.0311 69.1865 86.3728 67.7951 92.6987 66.4115C94.9597 65.917 97.3485 65.9754 99.6803 65.8075C101.286 65.6917 102.894 65.6012 104.503 65.536C104.754 65.4963 105.011 65.5069 105.257 65.567C105.504 65.6272 105.735 65.7356 105.938 65.8858C106.14 66.0361 106.309 66.2249 106.435 66.441C106.561 66.6571 106.641 66.896 106.67 67.1432C106.899 68.0977 107.041 69.0701 107.095 70.0491C107.124 80.6044 107.13 91.1595 107.113 101.714C107.113 104.007 105.972 105.421 103.606 105.919C101.256 106.414 98.8486 106.686 96.5379 107.311C92.4387 108.42 88.2666 109.422 84.3626 111.026C80.3635 112.742 76.5056 114.757 72.8232 117.054C68.5543 119.72 64.6832 122.953 61.3201 126.66C56.8365 131.375 53.0771 136.704 50.1599 142.479C47.676 147.582 45.9196 152.996 44.9397 158.568C43.9213 164.053 43.9028 169.585 44.182 175.094C44.573 182.009 46.4014 188.774 49.5551 194.973C51.4336 198.924 53.6916 202.691 56.2985 206.223C59.3361 210.202 62.8394 213.818 66.7368 216.998C71.1811 220.645 76.1172 223.675 81.4061 226.002C91.0026 230.158 101.496 231.934 111.96 231.175C117.828 230.819 123.607 229.603 129.106 227.568C135.062 225.449 140.656 222.461 145.699 218.703C150.261 215.347 154.306 211.366 157.712 206.883C162.135 200.949 165.824 194.584 167.846 187.469C168.97 183.499 169.632 179.393 170.356 175.323C170.717 173.297 170.668 171.204 170.969 169.167C171.242 167.313 171.701 165.987 174.312 165.977C186.371 165.929 198.428 165.807 210.486 165.733C212.003 165.723 213.805 168.208 213.496 169.76C213.394 170.193 213.333 170.635 213.314 171.079C213.214 175.61 212.77 180.128 211.986 184.595C210.978 190.88 209.374 197.059 207.194 203.052C203.677 212.768 199.027 221.916 192.565 230.09C189.52 234.052 186.263 237.854 182.809 241.479C179.666 244.538 176.332 247.404 172.828 250.059C170.139 252.268 167.291 254.282 164.303 256.086C159.611 258.808 154.775 261.322 149.882 263.682C146.938 265.067 143.888 266.225 140.761 267.146C136.264 268.514 131.72 269.73 127.13 270.793C122.24 271.843 117.24 272.316 112.235 272.2C107.929 272.167 103.598 272.478 99.323 272.117C94.4204 271.705 89.5515 270.972 84.749 269.922C76.9488 268.208 69.3857 265.587 62.2207 262.115C56.4561 259.268 50.9275 255.984 45.6854 252.294C45.2467 251.989 44.7921 251.716 44.1218 251.286Z" fill="white"/>
<path d="M168.425 125.982V108.513C168.425 106.22 167.676 105.443 165.3 105.394C160.033 105.284 154.766 105.166 149.499 105.125C143.693 105.079 137.887 105.16 132.082 105.089C130.16 105.039 128.244 104.853 126.35 104.531C124.04 104.172 122.895 102.202 122.791 99.748C122.486 92.6328 122.492 85.5041 122.455 78.3805C122.439 75.4415 122.561 72.4986 122.735 69.5635C122.867 67.3802 123.009 65.0776 125.375 63.9351C126.386 63.4436 127.49 63.1623 128.617 63.1088C133.602 62.9359 138.59 62.8368 143.581 62.8113C150.084 62.7659 156.587 62.8366 163.088 62.7711C164.495 62.7049 165.891 62.4905 167.251 62.1315C168.158 61.9254 168.452 61.2326 168.447 60.2741C168.408 52.6312 168.404 44.9886 168.437 37.3461C168.463 32.9146 168.586 28.4831 168.713 24.0529C168.803 20.9163 170.267 18.845 172.821 18.3687C174.226 18.1332 175.65 18.0247 177.076 18.0447C185.9 18.0168 194.727 17.9546 203.549 18.092C205.402 18.1211 207.41 17.9047 209.16 18.9993C210.245 19.6772 211.151 20.4535 211.334 21.7562C211.626 23.3855 211.809 25.0319 211.88 26.6847C211.929 37.6941 211.905 48.7029 211.905 59.7122C211.905 61.602 212.784 62.4866 214.785 62.5255C220.153 62.6305 225.523 62.7562 230.892 62.7925C237.626 62.8379 244.361 62.8029 251.096 62.8035C253.929 62.8035 256.72 65.3375 256.764 68.1177C256.899 76.5599 256.992 85.0027 257.041 93.4462C257.056 95.8375 256.909 98.2328 256.767 100.622C256.677 101.673 256.223 102.662 255.481 103.426C254.738 104.19 253.752 104.683 252.685 104.823C251.178 104.997 249.663 105.091 248.146 105.103C238.439 105.127 228.732 105.103 219.024 105.128C217.531 105.142 216.039 105.236 214.557 105.411C212.919 105.594 212.206 106.595 212.187 108.597C212.089 119.134 212.025 129.671 211.882 140.206C211.885 142.225 211.684 144.24 211.283 146.22C211.083 146.994 210.659 147.694 210.061 148.237C209.464 148.78 208.72 149.142 207.917 149.281C206.035 149.667 204.117 149.862 202.194 149.864C194.949 149.927 187.703 149.927 180.457 149.864C177.987 149.84 175.512 149.589 173.052 149.325C170.716 149.073 168.426 146.423 168.426 144.14C168.424 138.085 168.424 132.032 168.425 125.982Z" fill="white"/>
<path d="M240.805 44.8348C242.666 44.0095 244.57 43.2792 246.509 42.6469C250.109 41.669 252.028 39.2122 253.139 35.955C253.584 34.6524 253.886 33.3044 254.276 31.983C254.469 31.3258 254.714 30.683 254.937 30.0336L255.363 30.0103C255.929 31.9389 256.555 33.8533 257.046 35.8001C257.785 38.7268 259.381 40.8479 262.354 41.9386C264.659 42.7843 266.904 43.7908 269.418 44.8257C268.101 45.3053 266.904 45.6728 265.764 46.1718C263.831 47.0188 261.781 47.7272 260.063 48.8976C257.758 50.4646 257.246 53.1677 256.503 55.6511C256.148 56.8364 255.788 58.0198 255.43 59.2045L255.023 59.2453L253.996 56.3173C253.424 54.6894 252.972 53.0076 252.253 51.4445C250.969 48.652 248.34 47.4375 245.602 46.442C244.117 45.8996 242.605 45.4323 240.805 44.8348Z" fill="white"/>
<path d="M271.391 53.6638C271.964 58.4006 274.077 61.5942 279.149 62.3946C274.07 63.195 272.081 66.5332 271.209 70.931C270.276 66.5792 268.6 63.0893 263.264 62.67C265.386 61.4925 267.519 60.8554 268.778 59.4582C270.036 58.061 270.439 55.8971 271.391 53.6638Z" fill="white"/>
</g>
<path d="M396.281 239.183C385.198 239.183 375.752 236.35 367.944 230.682C360.261 225.015 354.342 217.08 350.186 206.879C346.155 196.551 344.14 184.587 344.14 170.985C344.14 157.257 346.155 145.292 350.186 135.09C354.342 124.763 360.324 116.766 368.133 111.098C375.941 105.305 385.324 102.408 396.281 102.408C410.513 102.408 421.848 106.312 430.286 114.121C438.724 121.803 443.636 132.257 445.022 145.481H422.918C421.785 138.554 418.951 132.823 414.417 128.289C410.009 123.63 403.901 121.3 396.092 121.3C386.143 121.3 378.397 125.708 372.856 134.524C367.314 143.34 364.543 155.493 364.543 170.985C364.543 186.35 367.314 198.44 372.856 207.257C378.397 215.947 386.143 220.292 396.092 220.292C404.153 220.292 410.324 218.214 414.606 214.058C418.888 209.775 421.659 204.171 422.918 197.244H445.022C443.007 210.216 437.906 220.481 429.719 228.037C421.533 235.468 410.387 239.183 396.281 239.183ZM491.421 239.183C480.086 239.183 471.459 235.72 465.54 228.793C459.746 221.74 456.85 211.539 456.85 198.189V143.214H476.875V195.733C476.875 203.415 478.512 209.461 481.787 213.869C485.187 218.151 490.351 220.292 497.278 220.292C504.205 220.292 509.998 217.962 514.658 213.302C519.318 208.642 521.648 201.904 521.648 193.088V143.214H541.673V236.916H524.293L522.592 222.937H521.648C519.129 227.471 515.225 231.312 509.935 234.46C504.645 237.609 498.474 239.183 491.421 239.183ZM561.435 236.916V219.536H584.294V166.828C584.294 162.672 582.279 160.594 578.249 160.594H563.325V143.214H585.806C590.969 143.214 595.189 144.725 598.463 147.748C601.738 150.645 603.375 154.738 603.375 160.027V162.294H604.319C605.705 155.242 608.665 149.952 613.199 146.425C617.858 142.773 624.596 140.947 633.413 140.947H647.959V162.106H627.556C620.125 162.106 614.395 164.687 610.365 169.851C606.335 175.015 604.319 181.186 604.319 188.365V219.536H633.413V236.916H561.435ZM705.505 128.856C701.097 128.856 697.381 127.471 694.359 124.7C691.462 121.803 690.014 118.277 690.014 114.121C690.014 109.965 691.462 106.501 694.359 103.73C697.381 100.96 701.097 99.5742 705.505 99.5742C710.039 99.5742 713.754 100.96 716.651 103.73C719.674 106.501 721.185 109.965 721.185 114.121C721.185 118.277 719.674 121.803 716.651 124.7C713.754 127.471 710.039 128.856 705.505 128.856ZM667.91 236.916V219.536H697.381V166.828C697.381 162.672 695.366 160.594 691.336 160.594H670.555V143.214H694.926C702.734 143.214 708.402 145.04 711.928 148.692C715.58 152.219 717.407 157.886 717.407 165.695V219.536H746.878V236.916H667.91ZM812.358 239.183C803.29 239.183 795.292 237.168 788.365 233.138C781.438 228.982 776.023 223.251 772.119 215.947C768.214 208.642 766.262 200.141 766.262 190.443C766.262 180.619 768.151 171.992 771.93 164.561C775.834 157.131 781.249 151.337 788.176 147.181C795.229 143.025 803.353 140.947 812.547 140.947C821.615 140.947 829.423 143.025 835.972 147.181C842.521 151.211 847.559 156.627 851.086 163.428C854.738 170.229 856.564 177.723 856.564 185.909C856.564 187.168 856.564 188.554 856.564 190.065C856.564 191.451 856.501 193.025 856.375 194.788H785.909C786.539 203.478 789.373 210.09 794.411 214.624C799.448 219.032 805.368 221.236 812.169 221.236C818.088 221.236 822.748 220.04 826.149 217.647C829.675 215.128 832.257 211.728 833.894 207.445H854.108C851.841 216.387 847.118 223.944 839.939 230.115C832.761 236.161 823.567 239.183 812.358 239.183ZM812.358 158.327C806.186 158.327 800.708 160.216 795.922 163.995C791.136 167.647 788.05 172.811 786.665 179.486H836.539C836.035 173.189 833.579 168.088 829.171 164.184C824.763 160.279 819.159 158.327 812.358 158.327ZM967.499 236.916L1006.98 104.675H1030.79L1070.27 236.916H1048.54L1039.67 205.178H998.104L989.225 236.916H967.499ZM1018.32 133.012L1002.64 189.121H1035.13L1019.45 133.012H1018.32ZM1083.99 236.916V219.158H1112.7V122.433H1084.36V104.675H1161.06V122.433H1132.73V219.158H1161.44V236.916H1083.99Z" fill="#121212"/>
<defs>
<clipPath id="clip0_3263_1431">
<rect width="296" height="302" fill="white"/>
</clipPath>
</defs>
</svg>
