<svg width="1099" height="302" viewBox="0 0 1099 302" fill="none" xmlns="http://www.w3.org/2000/svg">
<g clip-path="url(#clip0_3263_1449)">
<path d="M-26.8782 251.286C-26.8782 251.939 -26.8729 252.301 -26.8782 252.663C-26.9695 257.868 -27.0489 263.073 -27.162 268.278C-27.2282 271.201 -27.9958 271.916 -30.9443 271.916H-47.2487C-54.0369 271.916 -60.825 271.916 -67.6132 271.916C-70.0211 271.916 -70.886 271.036 -70.9217 268.665C-71.0011 262.996 -71.193 257.324 -71.1811 251.657C-71.122 224.787 -71.0305 197.916 -70.9065 171.045C-70.9696 167.876 -70.8625 164.707 -70.5856 161.549C-70.1422 157.611 -69.4408 153.689 -68.6177 149.807C-67.8852 146.329 -66.9711 142.889 -65.8789 139.503C-64.5231 135.318 -63.0587 131.152 -61.3469 127.097C-58.6878 120.878 -55.2562 115.003 -51.1296 109.606C-48.983 106.769 -46.6717 104.046 -44.3299 101.358C-42.712 99.502 -40.9592 97.7509 -39.1885 96.0309C-33.4828 90.5248 -27.1585 85.6696 -20.3366 81.5582C-13.0387 77.1196 -5.40064 73.3926 2.82299 70.9947C9.03108 69.1866 15.3728 67.7952 21.6987 66.4116C23.9597 65.9171 26.3485 65.9754 28.6803 65.8076C30.2865 65.6918 31.8942 65.6013 33.5035 65.536C33.7543 65.4964 34.0106 65.507 34.2571 65.5671C34.5036 65.6272 34.7351 65.7357 34.9376 65.8859C35.1401 66.0361 35.3094 66.225 35.4353 66.4411C35.5611 66.6572 35.6409 66.8961 35.6699 67.1432C35.8986 68.0977 36.0407 69.0702 36.0947 70.0492C36.1243 80.6045 36.1304 91.1596 36.1132 101.714C36.1132 104.007 34.9718 105.421 32.6062 105.919C30.2558 106.414 27.8486 106.686 25.5379 107.311C21.4387 108.42 17.2666 109.422 13.3626 111.027C9.36354 112.742 5.50562 114.757 1.82316 117.054C-2.44568 119.72 -6.31681 122.953 -9.67987 126.66C-14.1635 131.375 -17.9229 136.704 -20.8401 142.479C-23.324 147.583 -25.0804 152.996 -26.0603 158.568C-27.0787 164.053 -27.0972 169.585 -26.818 175.094C-26.427 182.009 -24.5986 188.774 -21.4449 194.973C-19.5664 198.924 -17.3084 202.691 -14.7015 206.223C-11.6639 210.202 -8.16056 213.818 -4.26317 216.998C0.181059 220.645 5.11724 223.675 10.4061 226.002C20.0026 230.158 30.4963 231.934 40.9602 231.175C46.8276 230.819 52.6072 229.604 58.1062 227.568C64.0619 225.449 69.6561 222.461 74.6991 218.703C79.2606 215.347 83.3061 211.366 86.7116 206.883C91.1351 200.949 94.8241 194.584 96.8456 187.47C97.9705 183.499 98.6322 179.393 99.3561 175.323C99.7174 173.298 99.6677 171.204 99.9688 169.167C100.242 167.313 100.701 165.987 103.312 165.977C115.371 165.929 127.428 165.807 139.486 165.733C141.003 165.724 142.805 168.208 142.496 169.76C142.394 170.193 142.333 170.635 142.314 171.079C142.214 175.611 141.77 180.128 140.986 184.595C139.978 190.88 138.374 197.059 136.194 203.052C132.677 212.768 128.027 221.916 121.565 230.09C118.52 234.052 115.263 237.854 111.809 241.479C108.666 244.538 105.332 247.404 101.828 250.059C99.1394 252.268 96.2905 254.282 93.3035 256.086C88.6107 258.808 83.775 261.322 78.8817 263.682C75.9378 265.067 72.8883 266.225 69.7608 267.146C65.2638 268.514 60.7202 269.73 56.1297 270.793C51.2402 271.843 46.2398 272.316 41.2355 272.2C36.9291 272.167 32.5976 272.478 28.323 272.117C23.4204 271.705 18.5515 270.972 13.749 269.922C5.94879 268.208 -1.6143 265.587 -8.7793 262.115C-14.5439 259.268 -20.0725 255.984 -25.3146 252.294C-25.7533 251.989 -26.2079 251.716 -26.8782 251.286Z" fill="white"/>
<path d="M97.4249 125.982V108.513C97.4249 106.22 96.6759 105.443 94.2997 105.394C89.0332 105.284 83.7661 105.166 78.4989 105.125C72.6932 105.079 66.8867 105.16 61.0816 105.089C59.1598 105.039 57.2442 104.853 55.3499 104.531C53.0399 104.172 51.8952 102.202 51.7907 99.7479C51.4856 92.6328 51.4922 85.504 51.4545 78.3804C51.4386 75.4415 51.561 72.4986 51.7351 69.5635C51.8674 67.3801 52.009 65.0775 54.3746 63.935C55.3856 63.4435 56.4895 63.1622 57.6169 63.1087C62.6018 62.9359 67.5899 62.8367 72.5813 62.8113C79.0839 62.7659 85.5871 62.8365 92.0883 62.7711C93.4953 62.7049 94.891 62.4904 96.2511 62.1314C97.1583 61.9253 97.4521 61.2326 97.4474 60.2741C97.4077 52.6312 97.4044 44.9885 97.4375 37.346C97.4633 32.9145 97.5857 28.483 97.7128 24.0528C97.8028 20.9162 99.2671 18.845 101.821 18.3686C103.226 18.1331 104.65 18.0247 106.076 18.0446C114.9 18.0167 123.727 17.9545 132.549 18.0919C134.402 18.1211 136.41 17.9046 138.16 18.9992C139.245 19.6771 140.151 20.4535 140.334 21.7561C140.626 23.3854 140.809 25.0318 140.88 26.6847C140.929 37.694 140.905 48.7028 140.905 59.7122C140.905 61.6019 141.784 62.4866 143.785 62.5254C149.153 62.6304 154.523 62.7562 159.892 62.7924C166.626 62.8378 173.361 62.8028 180.096 62.8035C182.929 62.8035 185.72 65.3374 185.764 68.1176C185.899 76.5598 185.992 85.0026 186.041 93.4461C186.056 95.8375 185.909 98.2327 185.767 100.622C185.677 101.673 185.223 102.662 184.481 103.426C183.738 104.19 182.752 104.683 181.685 104.823C180.178 104.997 178.663 105.091 177.146 105.103C167.439 105.127 157.732 105.103 148.024 105.128C146.531 105.141 145.039 105.236 143.557 105.411C141.919 105.593 141.206 106.595 141.187 108.597C141.089 119.134 141.025 129.671 140.882 140.206C140.885 142.225 140.684 144.24 140.283 146.22C140.083 146.994 139.659 147.694 139.061 148.237C138.464 148.78 137.72 149.142 136.917 149.28C135.035 149.667 133.117 149.862 131.194 149.864C123.949 149.927 116.703 149.927 109.457 149.864C106.987 149.84 104.512 149.589 102.052 149.325C99.7157 149.073 97.4262 146.422 97.4262 144.14C97.424 138.085 97.4236 132.032 97.4249 125.982Z" fill="white"/>
<path d="M169.805 44.8349C171.666 44.0095 173.57 43.2792 175.509 42.647C179.109 41.669 181.028 39.2122 182.139 35.955C182.584 34.6524 182.886 33.3044 183.276 31.983C183.469 31.3259 183.714 30.683 183.937 30.0336L184.363 30.0103C184.929 31.9389 185.555 33.8533 186.046 35.8001C186.785 38.7268 188.381 40.8479 191.354 41.9386C193.659 42.7844 195.904 43.7908 198.418 44.8258C197.101 45.3053 195.904 45.6728 194.764 46.1718C192.831 47.0189 190.781 47.7272 189.063 48.8976C186.758 50.4646 186.246 53.1677 185.503 55.6511C185.148 56.8364 184.788 58.0198 184.43 59.2045L184.023 59.2453L182.996 56.3173C182.424 54.6894 181.972 53.0077 181.253 51.4445C179.969 48.652 177.34 47.4375 174.602 46.4421C173.117 45.8996 171.605 45.4324 169.805 44.8349Z" fill="white"/>
<path d="M200.391 53.6638C200.964 58.4006 203.077 61.5942 208.149 62.3946C203.07 63.195 201.081 66.5332 200.209 70.931C199.276 66.5792 197.6 63.0893 192.264 62.67C194.386 61.4925 196.519 60.8554 197.778 59.4582C199.036 58.061 199.439 55.8971 200.391 53.6638Z" fill="white"/>
</g>
<path d="M315.509 239.183C304.426 239.183 294.98 236.35 287.172 230.682C279.489 225.015 273.57 217.08 269.413 206.879C265.383 196.551 263.368 184.587 263.368 170.985C263.368 157.257 265.383 145.292 269.413 135.09C273.57 124.763 279.552 116.766 287.361 111.098C295.169 105.305 304.552 102.408 315.509 102.408C329.741 102.408 341.076 106.312 349.514 114.121C357.952 121.803 362.864 132.257 364.249 145.481H342.146C341.013 138.554 338.179 132.823 333.645 128.289C329.237 123.63 323.129 121.3 315.32 121.3C305.371 121.3 297.625 125.708 292.083 134.524C286.542 143.34 283.771 155.493 283.771 170.985C283.771 186.35 286.542 198.44 292.083 207.257C297.625 215.947 305.371 220.292 315.32 220.292C323.381 220.292 329.552 218.214 333.834 214.058C338.116 209.775 340.887 204.171 342.146 197.244H364.249C362.234 210.216 357.134 220.481 348.947 228.037C340.761 235.468 329.615 239.183 315.509 239.183ZM410.649 239.183C399.314 239.183 390.687 235.72 384.768 228.793C378.974 221.74 376.077 211.539 376.077 198.189V143.214H396.103V195.733C396.103 203.415 397.74 209.461 401.014 213.869C404.415 218.151 409.579 220.292 416.506 220.292C423.432 220.292 429.226 217.962 433.886 213.302C438.546 208.642 440.876 201.904 440.876 193.088V143.214H460.901V236.916H443.521L441.82 222.937H440.876C438.357 227.471 434.453 231.312 429.163 234.46C423.873 237.609 417.702 239.183 410.649 239.183ZM480.663 236.916V219.536H503.522V166.828C503.522 162.672 501.507 160.594 497.477 160.594H482.552V143.214H505.033C510.197 143.214 514.416 144.725 517.691 147.748C520.965 150.645 522.603 154.738 522.603 160.027V162.294H523.547C524.933 155.242 527.892 149.952 532.426 146.425C537.086 142.773 543.824 140.947 552.64 140.947H567.187V162.106H546.784C539.353 162.106 533.623 164.687 529.593 169.851C525.562 175.015 523.547 181.186 523.547 188.365V219.536H552.64V236.916H480.663ZM624.733 128.856C620.325 128.856 616.609 127.471 613.587 124.7C610.69 121.803 609.241 118.277 609.241 114.121C609.241 109.965 610.69 106.501 613.587 103.73C616.609 100.96 620.325 99.5742 624.733 99.5742C629.267 99.5742 632.982 100.96 635.879 103.73C638.901 106.501 640.413 109.965 640.413 114.121C640.413 118.277 638.901 121.803 635.879 124.7C632.982 127.471 629.267 128.856 624.733 128.856ZM587.138 236.916V219.536H616.609V166.828C616.609 162.672 614.594 160.594 610.564 160.594H589.783V143.214H614.153C621.962 143.214 627.629 145.04 631.156 148.692C634.808 152.219 636.634 157.886 636.634 165.695V219.536H666.105V236.916H587.138ZM731.586 239.183C722.518 239.183 714.52 237.168 707.593 233.138C700.666 228.982 695.251 223.251 691.346 215.947C687.442 208.642 685.49 200.141 685.49 190.443C685.49 180.619 687.379 171.992 691.157 164.561C695.062 157.131 700.477 151.337 707.404 147.181C714.457 143.025 722.58 140.947 731.774 140.947C740.842 140.947 748.651 143.025 755.2 147.181C761.749 151.211 766.787 156.627 770.313 163.428C773.966 170.229 775.792 177.723 775.792 185.909C775.792 187.168 775.792 188.554 775.792 190.065C775.792 191.451 775.729 193.025 775.603 194.788H705.137C705.767 203.478 708.601 210.09 713.638 214.624C718.676 219.032 724.596 221.236 731.397 221.236C737.316 221.236 741.976 220.04 745.376 217.647C748.903 215.128 751.485 211.728 753.122 207.445H773.336C771.069 216.387 766.346 223.944 759.167 230.115C751.988 236.161 742.795 239.183 731.586 239.183ZM731.586 158.327C725.414 158.327 719.936 160.216 715.15 163.995C710.364 167.647 707.278 172.811 705.893 179.486H755.767C755.263 173.189 752.807 168.088 748.399 164.184C743.991 160.279 738.386 158.327 731.586 158.327ZM886.727 236.916L926.211 104.675H950.014L989.498 236.916H967.772L958.893 205.178H917.332L908.453 236.916H886.727ZM937.546 133.012L921.866 189.121H954.359L938.679 133.012H937.546ZM1003.21 236.916V219.158H1031.93V122.433H1003.59V104.675H1080.29V122.433H1051.96V219.158H1080.67V236.916H1003.21Z" fill="#121212"/>
<defs>
<clipPath id="clip0_3263_1449">
<rect width="225" height="302" fill="white"/>
</clipPath>
</defs>
</svg>
