<svg width="21" height="20" viewBox="0 0 21 20" fill="none" xmlns="http://www.w3.org/2000/svg">
<path d="M13.4178 10.7417L14.6803 17.8467C14.6944 17.9304 14.6827 18.0163 14.6467 18.0932C14.6106 18.17 14.552 18.2339 14.4786 18.2765C14.4052 18.3191 14.3205 18.3383 14.236 18.3315C14.1514 18.3246 14.0709 18.2922 14.0053 18.2384L11.022 15.9992C10.8779 15.8916 10.703 15.8335 10.5232 15.8335C10.3434 15.8335 10.1685 15.8916 10.0245 15.9992L7.03613 18.2375C6.97057 18.2912 6.89019 18.3237 6.80571 18.3305C6.72124 18.3373 6.63669 18.3182 6.56335 18.2758C6.49001 18.2333 6.43136 18.1695 6.39523 18.0928C6.3591 18.0162 6.34721 17.9303 6.36113 17.8467L7.6228 10.7417" stroke="#9096A2" stroke-width="1.66667" stroke-linecap="round" stroke-linejoin="round"/>
<path d="M10.5195 11.6665C13.281 11.6665 15.5195 9.42793 15.5195 6.6665C15.5195 3.90508 13.281 1.6665 10.5195 1.6665C7.75811 1.6665 5.51953 3.90508 5.51953 6.6665C5.51953 9.42793 7.75811 11.6665 10.5195 11.6665Z" stroke="#9096A2" stroke-width="1.66667" stroke-linecap="round" stroke-linejoin="round"/>
</svg>
