<svg width="56" height="56" viewBox="0 0 56 56" fill="none" xmlns="http://www.w3.org/2000/svg">
<path d="M0 10C0 4.47715 4.47715 0 10 0H46C51.5229 0 56 4.47715 56 10V46C56 51.5229 51.5228 56 46 56H10C4.47715 56 0 51.5228 0 46V10Z" fill="url(#paint0_linear_2639_6426)"/>
<path d="M32 40V29.3333C32 28.9797 31.8595 28.6406 31.6095 28.3905C31.3594 28.1405 31.0203 28 30.6667 28H25.3333C24.9797 28 24.6406 28.1405 24.3905 28.3905C24.1405 28.6406 24 28.9797 24 29.3333V40" stroke="white" stroke-width="2.66667" stroke-linecap="round" stroke-linejoin="round"/>
<path d="M16 25.3335C15.9999 24.9455 16.0844 24.5623 16.2477 24.2104C16.411 23.8585 16.6491 23.5465 16.9453 23.2961L26.2787 15.2975C26.76 14.8907 27.3698 14.6675 28 14.6675C28.6302 14.6675 29.24 14.8907 29.7213 15.2975L39.0547 23.2961C39.3509 23.5465 39.589 23.8585 39.7523 24.2104C39.9156 24.5623 40.0001 24.9455 40 25.3335V37.3335C40 38.0407 39.719 38.719 39.219 39.2191C38.7189 39.7192 38.0406 40.0001 37.3333 40.0001H18.6667C17.9594 40.0001 17.2811 39.7192 16.781 39.2191C16.281 38.719 16 38.0407 16 37.3335V25.3335Z" stroke="white" stroke-width="2.66667" stroke-linecap="round" stroke-linejoin="round"/>
<defs>
<linearGradient id="paint0_linear_2639_6426" x1="8.54841" y1="-21.9528" x2="76.1102" y2="4.35578" gradientUnits="userSpaceOnUse">
<stop stop-color="#799B4B"/>
<stop offset="1" stop-color="#4A6F3E"/>
</linearGradient>
</defs>
</svg>
