<svg width="65" height="64" viewBox="0 0 65 64" fill="none" xmlns="http://www.w3.org/2000/svg">
<rect x="0.330078" width="64" height="64" rx="16" fill="url(#paint0_linear_2671_4201)"/>
<path d="M20.3301 34.6667H24.3301C25.0373 34.6667 25.7156 34.9476 26.2157 35.4477C26.7158 35.9478 26.9967 36.6261 26.9967 37.3333V41.3333C26.9967 42.0406 26.7158 42.7189 26.2157 43.219C25.7156 43.719 25.0373 44 24.3301 44H22.9967C22.2895 44 21.6112 43.719 21.1111 43.219C20.611 42.7189 20.3301 42.0406 20.3301 41.3333V32C20.3301 28.8174 21.5944 25.7652 23.8448 23.5147C26.0952 21.2643 29.1475 20 32.3301 20C35.5127 20 38.5649 21.2643 40.8154 23.5147C43.0658 25.7652 44.3301 28.8174 44.3301 32V41.3333C44.3301 42.0406 44.0491 42.7189 43.549 43.219C43.0489 43.719 42.3707 44 41.6634 44H40.3301C39.6228 44 38.9446 43.719 38.4445 43.219C37.9444 42.7189 37.6634 42.0406 37.6634 41.3333V37.3333C37.6634 36.6261 37.9444 35.9478 38.4445 35.4477C38.9446 34.9476 39.6228 34.6667 40.3301 34.6667H44.3301" stroke="white" stroke-width="2.66667" stroke-linecap="round" stroke-linejoin="round"/>
<defs>
<linearGradient id="paint0_linear_2671_4201" x1="0.330078" y1="0" x2="64.3301" y2="64" gradientUnits="userSpaceOnUse">
<stop stop-color="#14B8A6"/>
<stop offset="1" stop-color="#3B82F6"/>
</linearGradient>
</defs>
</svg>
