<svg width="33" height="33" viewBox="0 0 33 33" fill="none" xmlns="http://www.w3.org/2000/svg">
<path d="M21.6628 28.5V25.8333C21.6628 24.4188 21.1009 23.0623 20.1007 22.0621C19.1005 21.0619 17.7439 20.5 16.3294 20.5H8.32943C6.91494 20.5 5.55839 21.0619 4.55819 22.0621C3.558 23.0623 2.99609 24.4188 2.99609 25.8333V28.5" stroke="#90AF46" stroke-width="2.66667" stroke-linecap="round" stroke-linejoin="round"/>
<path d="M12.3294 15.1667C15.2749 15.1667 17.6628 12.7789 17.6628 9.83333C17.6628 6.88781 15.2749 4.5 12.3294 4.5C9.38391 4.5 6.99609 6.88781 6.99609 9.83333C6.99609 12.7789 9.38391 15.1667 12.3294 15.1667Z" stroke="#90AF46" stroke-width="2.66667" stroke-linecap="round" stroke-linejoin="round"/>
<path d="M29.6641 28.5V25.8333C29.6632 24.6516 29.2699 23.5037 28.5459 22.5698C27.8219 21.6358 26.8082 20.9688 25.6641 20.6733" stroke="#90AF46" stroke-width="2.66667" stroke-linecap="round" stroke-linejoin="round"/>
<path d="M21.6641 4.67334C22.8113 4.96707 23.8281 5.63427 24.5542 6.56975C25.2804 7.50523 25.6745 8.65578 25.6745 9.84001C25.6745 11.0242 25.2804 12.1748 24.5542 13.1103C23.8281 14.0457 22.8113 14.7129 21.6641 15.0067" stroke="#90AF46" stroke-width="2.66667" stroke-linecap="round" stroke-linejoin="round"/>
</svg>
