<svg width="144" height="144" viewBox="0 0 144 144" fill="none" xmlns="http://www.w3.org/2000/svg">
<g filter="url(#filter0_d_2639_7089)">
<path d="M40 50C40 44.4772 44.4772 40 50 40H94C99.5228 40 104 44.4772 104 50V94C104 99.5228 99.5228 104 94 104H50C44.4772 104 40 99.5228 40 94V50Z" fill="url(#paint0_linear_2639_7089)" shape-rendering="crispEdges"/>
<path d="M61.334 74.6666C61.0817 74.6674 60.8343 74.5967 60.6206 74.4625C60.4069 74.3284 60.2356 74.1364 60.1267 73.9088C60.0178 73.6812 59.9757 73.4273 60.0053 73.1768C60.0349 72.9262 60.135 72.6892 60.294 72.4932L73.494 58.8932C73.593 58.7789 73.7279 58.7017 73.8766 58.6742C74.0253 58.6467 74.1789 58.6706 74.3123 58.7419C74.4456 58.8132 74.5508 58.9278 74.6104 59.0667C74.6701 59.2057 74.6807 59.3608 74.6406 59.5066L72.0806 67.5332C72.0052 67.7353 71.9798 67.9526 72.0068 68.1666C72.0337 68.3806 72.1122 68.5848 72.2354 68.7618C72.3587 68.9388 72.523 69.0832 72.7143 69.1828C72.9057 69.2823 73.1183 69.3339 73.334 69.3332H82.6673C82.9196 69.3324 83.167 69.4031 83.3807 69.5373C83.5944 69.6714 83.7657 69.8634 83.8746 70.091C83.9835 70.3186 84.0256 70.5724 83.996 70.823C83.9664 71.0736 83.8663 71.3106 83.7073 71.5066L70.5073 85.1066C70.4083 85.2208 70.2734 85.2981 70.1247 85.3256C69.976 85.3531 69.8223 85.3292 69.689 85.2579C69.5557 85.1866 69.4505 85.072 69.3909 84.9331C69.3312 84.7941 69.3205 84.639 69.3606 84.4932L71.9206 76.4666C71.9961 76.2645 72.0215 76.0472 71.9945 75.8332C71.9676 75.6192 71.8891 75.415 71.7659 75.238C71.6426 75.061 71.4783 74.9165 71.2869 74.817C71.0956 74.7175 70.883 74.6659 70.6673 74.6666H61.334Z" stroke="white" stroke-width="2.66667" stroke-linecap="round" stroke-linejoin="round"/>
</g>
<defs>
<filter id="filter0_d_2639_7089" x="0" y="0" width="144" height="144" filterUnits="userSpaceOnUse" color-interpolation-filters="sRGB">
<feFlood flood-opacity="0" result="BackgroundImageFix"/>
<feColorMatrix in="SourceAlpha" type="matrix" values="0 0 0 0 0 0 0 0 0 0 0 0 0 0 0 0 0 0 127 0" result="hardAlpha"/>
<feOffset/>
<feGaussianBlur stdDeviation="20"/>
<feComposite in2="hardAlpha" operator="out"/>
<feColorMatrix type="matrix" values="0 0 0 0 0.47451 0 0 0 0 0.607843 0 0 0 0 0.294118 0 0 0 0.2 0"/>
<feBlend mode="normal" in2="BackgroundImageFix" result="effect1_dropShadow_2639_7089"/>
<feBlend mode="normal" in="SourceGraphic" in2="effect1_dropShadow_2639_7089" result="shape"/>
</filter>
<linearGradient id="paint0_linear_2639_7089" x1="49.7696" y1="14.9111" x2="126.983" y2="44.978" gradientUnits="userSpaceOnUse">
<stop stop-color="#799B4B"/>
<stop offset="1" stop-color="#4A6F3E"/>
</linearGradient>
</defs>
</svg>
