<svg width="20" height="20" viewBox="0 0 20 20" fill="none" xmlns="http://www.w3.org/2000/svg">
<path d="M3.33422 11.6667C3.17653 11.6673 3.02191 11.623 2.88835 11.5392C2.75479 11.4554 2.64775 11.3354 2.57968 11.1931C2.51161 11.0509 2.4853 10.8922 2.5038 10.7356C2.52231 10.579 2.58487 10.4309 2.68422 10.3084L10.9342 1.80839C10.9961 1.73696 11.0804 1.68868 11.1734 1.6715C11.2663 1.65431 11.3623 1.66923 11.4457 1.71381C11.529 1.75838 11.5947 1.82997 11.632 1.91681C11.6693 2.00365 11.676 2.10059 11.6509 2.19172L10.0509 7.20839C10.0037 7.33466 9.98786 7.47049 10.0047 7.60423C10.0216 7.73797 10.0706 7.86562 10.1476 7.97624C10.2247 8.08686 10.3274 8.17715 10.447 8.23935C10.5665 8.30156 10.6994 8.33383 10.8342 8.33339H16.6676C16.8253 8.33285 16.9799 8.37707 17.1134 8.46091C17.247 8.54474 17.354 8.66476 17.4221 8.80701C17.4902 8.94926 17.5165 9.1079 17.498 9.26451C17.4795 9.42111 17.4169 9.56926 17.3176 9.69172L9.06756 18.1917C9.00567 18.2632 8.92134 18.3114 8.8284 18.3286C8.73547 18.3458 8.63945 18.3309 8.55611 18.2863C8.47278 18.2417 8.40707 18.1701 8.36978 18.0833C8.33248 17.9965 8.32582 17.8995 8.35089 17.8084L9.95089 12.7917C9.99807 12.6655 10.0139 12.5296 9.99706 12.3959C9.98021 12.2621 9.93117 12.1345 9.85415 12.0239C9.77712 11.9132 9.67441 11.823 9.55483 11.7608C9.43524 11.6985 9.30235 11.6663 9.16756 11.6667H3.33422Z" stroke="#A2C043" stroke-width="1.66667" stroke-linecap="round" stroke-linejoin="round"/>
</svg>
