<svg width="32" height="32" viewBox="0 0 32 32" fill="none" xmlns="http://www.w3.org/2000/svg">
<rect width="32" height="32" rx="12" fill="#A2C043" fill-opacity="0.1"/>
<path d="M9.33422 17.6667C9.17653 17.6673 9.02191 17.623 8.88835 17.5392C8.75479 17.4554 8.64775 17.3354 8.57968 17.1931C8.51161 17.0509 8.4853 16.8922 8.5038 16.7356C8.52231 16.579 8.58487 16.4309 8.68422 16.3084L16.9342 7.80839C16.9961 7.73696 17.0804 7.68868 17.1734 7.6715C17.2663 7.65431 17.3623 7.66923 17.4457 7.71381C17.529 7.75838 17.5947 7.82997 17.632 7.91681C17.6693 8.00365 17.676 8.10059 17.6509 8.19172L16.0509 13.2084C16.0037 13.3347 15.9879 13.4705 16.0047 13.6042C16.0216 13.738 16.0706 13.8656 16.1476 13.9762C16.2247 14.0869 16.3274 14.1771 16.447 14.2394C16.5665 14.3016 16.6994 14.3338 16.8342 14.3334H22.6676C22.8253 14.3329 22.9799 14.3771 23.1134 14.4609C23.247 14.5447 23.354 14.6648 23.4221 14.807C23.4902 14.9493 23.5165 15.1079 23.498 15.2645C23.4795 15.4211 23.4169 15.5693 23.3176 15.6917L15.0676 24.1917C15.0057 24.2632 14.9213 24.3114 14.8284 24.3286C14.7355 24.3458 14.6395 24.3309 14.5561 24.2863C14.4728 24.2417 14.4071 24.1701 14.3698 24.0833C14.3325 23.9965 14.3258 23.8995 14.3509 23.8084L15.9509 18.7917C15.9981 18.6655 16.0139 18.5296 15.9971 18.3959C15.9802 18.2621 15.9312 18.1345 15.8541 18.0239C15.7771 17.9132 15.6744 17.823 15.5548 17.7608C15.4352 17.6985 15.3024 17.6663 15.1676 17.6667H9.33422Z" stroke="#A2C043" stroke-width="1.66667" stroke-linecap="round" stroke-linejoin="round"/>
</svg>
