<svg width="128" height="128" viewBox="0 0 128 128" fill="none" xmlns="http://www.w3.org/2000/svg">
<g opacity="0.1">
<path d="M80 112V69.3333C80 67.9188 79.4381 66.5623 78.4379 65.5621C77.4377 64.5619 76.0812 64 74.6667 64H53.3333C51.9188 64 50.5623 64.5619 49.5621 65.5621C48.5619 66.5623 48 67.9188 48 69.3333V112" stroke="#F8FAFC" stroke-width="10.6667" stroke-linecap="round" stroke-linejoin="round"/>
<path d="M16 53.3333C15.9996 51.7817 16.3378 50.2486 16.9909 48.8411C17.644 47.4336 18.5963 46.1856 19.7813 45.184L57.1147 13.1893C59.0399 11.5622 61.4792 10.6694 64 10.6694C66.5208 10.6694 68.9601 11.5622 70.8853 13.1893L108.219 45.184C109.404 46.1856 110.356 47.4336 111.009 48.8411C111.662 50.2486 112 51.7817 112 53.3333V101.333C112 104.162 110.876 106.875 108.876 108.876C106.875 110.876 104.162 112 101.333 112H26.6667C23.8377 112 21.1246 110.876 19.1242 108.876C17.1238 106.875 16 104.162 16 101.333V53.3333Z" stroke="#F8FAFC" stroke-width="10.6667" stroke-linecap="round" stroke-linejoin="round"/>
</g>
</svg>
