<svg width="128" height="128" viewBox="0 0 128 128" fill="none" xmlns="http://www.w3.org/2000/svg">
<g opacity="0.1">
<path d="M32 48C40.8366 48 48 40.8366 48 32C48 23.1634 40.8366 16 32 16C23.1634 16 16 23.1634 16 32C16 40.8366 23.1634 48 32 48Z" stroke="#F8FAFC" stroke-width="10.6667" stroke-linecap="round" stroke-linejoin="round"/>
<path d="M43.3066 43.3066L64 64" stroke="#F8FAFC" stroke-width="10.6667" stroke-linecap="round" stroke-linejoin="round"/>
<path d="M106.667 21.3335L43.3066 84.6935" stroke="#F8FAFC" stroke-width="10.6667" stroke-linecap="round" stroke-linejoin="round"/>
<path d="M32 112C40.8366 112 48 104.837 48 96C48 87.1634 40.8366 80 32 80C23.1634 80 16 87.1634 16 96C16 104.837 23.1634 112 32 112Z" stroke="#F8FAFC" stroke-width="10.6667" stroke-linecap="round" stroke-linejoin="round"/>
<path d="M78.9336 78.9336L106.667 106.667" stroke="#F8FAFC" stroke-width="10.6667" stroke-linecap="round" stroke-linejoin="round"/>
</g>
</svg>
