<svg width="48" height="48" viewBox="0 0 48 48" fill="none" xmlns="http://www.w3.org/2000/svg">
<path d="M42.212 22.2373H24.254V27.5836H37.0028C36.3565 35.0448 30.1486 38.2369 24.2736 38.2369C16.7732 38.2369 10.1932 32.3228 10.1932 23.9998C10.1932 15.9707 16.4599 9.76275 24.2932 9.76275C30.3445 9.76275 33.889 13.6207 33.889 13.6207L37.6099 9.74317C37.6099 9.74317 32.8315 4.4165 24.0974 4.4165C12.974 4.4165 4.37695 13.8165 4.37695 23.9998C4.37695 33.8894 12.4649 43.5832 24.3911 43.5832C34.8682 43.5832 42.5057 36.3961 42.5057 25.7819C42.5057 23.5298 42.212 22.2373 42.212 22.2373Z" fill="#EAB308"/>
</svg>
