<svg width="30" height="30" viewBox="0 0 30 30" fill="none" xmlns="http://www.w3.org/2000/svg">
<path d="M13.0013 26.3332L26.3346 12.9998C26.9577 12.3893 27.4535 11.6612 27.7934 10.8579C28.1333 10.0545 28.3106 9.19169 28.315 8.31937C28.3194 7.44705 28.1509 6.5825 27.8191 5.77573C27.4873 4.96896 26.9989 4.23596 26.382 3.61913C25.7652 3.0023 25.0322 2.51386 24.2254 2.18207C23.4186 1.85028 22.5541 1.68171 21.6818 1.68612C20.8095 1.69053 19.9467 1.86782 19.1433 2.20774C18.3399 2.54766 17.6119 3.04348 17.0013 3.66651L3.66797 16.9998C3.04494 17.6104 2.54913 18.3384 2.2092 19.1418C1.86928 19.9452 1.69199 20.808 1.68758 21.6803C1.68318 22.5526 1.85174 23.4172 2.18354 24.224C2.51533 25.0307 3.00376 25.7637 3.6206 26.3806C4.23743 26.9974 4.97042 27.4858 5.7772 27.8176C6.58397 28.1494 7.44851 28.318 8.32083 28.3136C9.19316 28.3092 10.056 28.1319 10.8593 27.7919C11.6627 27.452 12.3907 26.9562 13.0013 26.3332Z" stroke="white" stroke-width="2.66667" stroke-linecap="round" stroke-linejoin="round"/>
</svg>
