<svg width="65" height="64" viewBox="0 0 65 64" fill="none" xmlns="http://www.w3.org/2000/svg">
<rect x="0.660156" width="64" height="64" rx="16" fill="url(#paint0_linear_2671_4169)"/>
<path d="M43.3275 33.3333C43.3275 39.9999 38.6608 43.3333 33.1141 45.2666C32.8237 45.365 32.5082 45.3603 32.2208 45.2533C26.6608 43.3333 21.9941 39.9999 21.9941 33.3333V23.9999C21.9941 23.6463 22.1346 23.3072 22.3847 23.0571C22.6347 22.8071 22.9739 22.6666 23.3275 22.6666C25.9941 22.6666 29.3275 21.0666 31.6475 19.0399C31.9299 18.7986 32.2893 18.666 32.6608 18.666C33.0323 18.666 33.3917 18.7986 33.6741 19.0399C36.0075 21.0799 39.3275 22.6666 41.9941 22.6666C42.3478 22.6666 42.6869 22.8071 42.937 23.0571C43.187 23.3072 43.3275 23.6463 43.3275 23.9999V33.3333Z" stroke="white" stroke-width="2.66667" stroke-linecap="round" stroke-linejoin="round"/>
<defs>
<linearGradient id="paint0_linear_2671_4169" x1="0.660156" y1="0" x2="64.6602" y2="64" gradientUnits="userSpaceOnUse">
<stop stop-color="#A855F7"/>
<stop offset="1" stop-color="#8B5CF6"/>
</linearGradient>
</defs>
</svg>
