<svg width="38" height="38" viewBox="0 0 38 38" fill="none" xmlns="http://www.w3.org/2000/svg">
<path d="M7.22383 31.6866C7.22383 31.7666 7.22448 31.811 7.22383 31.8553C7.21268 32.493 7.20297 33.1307 7.18915 33.7684C7.18106 34.1265 7.08728 34.2141 6.727 34.2141H4.73483C3.90541 34.2141 3.07598 34.2141 2.24656 34.2141C1.95234 34.2141 1.84667 34.1063 1.84231 33.8159C1.8326 33.1213 1.80916 32.4264 1.81061 31.7321C1.81783 28.44 1.82902 25.1479 1.84416 21.8557C1.83645 21.4675 1.84954 21.0792 1.88338 20.6924C1.93755 20.2099 2.02325 19.7293 2.12383 19.2537C2.21332 18.8276 2.32502 18.4062 2.45847 17.9913C2.62414 17.4786 2.80306 16.9682 3.01222 16.4714C3.33712 15.7094 3.75643 14.9897 4.26064 14.3285C4.52292 13.9808 4.80534 13.6472 5.09147 13.3179C5.28915 13.0905 5.50332 12.876 5.71968 12.6653C6.41683 11.9907 7.18958 11.3958 8.02313 10.8921C8.91483 10.3483 9.8481 9.89171 10.8529 9.59793C11.6115 9.37641 12.3863 9.20594 13.1593 9.03642C13.4355 8.97584 13.7274 8.98298 14.0123 8.96242C14.2086 8.94823 14.405 8.93714 14.6017 8.92915C14.6323 8.92429 14.6636 8.92559 14.6937 8.93296C14.7239 8.94032 14.7521 8.95361 14.7769 8.97202C14.8016 8.99042 14.8223 9.01356 14.8377 9.04004C14.8531 9.06651 14.8628 9.09578 14.8664 9.12606C14.8943 9.243 14.9117 9.36214 14.9183 9.48209C14.9219 10.7753 14.9226 12.0685 14.9205 13.3616C14.9205 13.6425 14.7811 13.8158 14.492 13.8767C14.2048 13.9373 13.9107 13.9708 13.6284 14.0473C13.1275 14.1831 12.6177 14.3059 12.1407 14.5025C11.6521 14.7126 11.1807 14.9595 10.7307 15.2409C10.2092 15.5676 9.73615 15.9637 9.32523 16.4178C8.7774 16.9955 8.31804 17.6484 7.9616 18.3559C7.65811 18.9812 7.44349 19.6445 7.32376 20.3271C7.19933 20.9992 7.19707 21.6769 7.23119 22.3518C7.27896 23.1991 7.50236 24.0278 7.8877 24.7873C8.11723 25.2713 8.39312 25.7329 8.71165 26.1656C9.08281 26.6531 9.51087 27.0962 9.98708 27.4858C10.5301 27.9326 11.1332 28.3038 11.7795 28.5889C12.952 29.098 14.2342 29.3157 15.5128 29.2227C16.2297 29.1791 16.9359 29.0301 17.6078 28.7808C18.3355 28.5212 19.019 28.155 19.6352 27.6947C20.1926 27.2835 20.6869 26.7958 21.103 26.2465C21.6435 25.5194 22.0942 24.7397 22.3412 23.868C22.4787 23.3816 22.5595 22.8785 22.648 22.3799C22.6921 22.1317 22.686 21.8752 22.7228 21.6256C22.7562 21.3985 22.8123 21.2361 23.1313 21.2348C24.6047 21.229 26.078 21.214 27.5513 21.2049C27.7366 21.2038 27.9568 21.5082 27.919 21.6983C27.9066 21.7514 27.8992 21.8055 27.8969 21.8599C27.8846 22.4151 27.8304 22.9686 27.7346 23.5159C27.6114 24.2859 27.4154 25.0429 27.149 25.7771C26.7194 26.9675 26.1511 28.0883 25.3616 29.0898C24.9895 29.5752 24.5916 30.0409 24.1695 30.4851C23.7855 30.8599 23.3782 31.2109 22.9499 31.5362C22.6215 31.8069 22.2734 32.0537 21.9084 32.2746C21.335 32.6081 20.7442 32.9162 20.1463 33.2054C19.7866 33.375 19.4139 33.5169 19.0318 33.6297C18.4823 33.7973 17.9272 33.9463 17.3663 34.0765C16.7688 34.2052 16.1579 34.2631 15.5464 34.2489C15.0202 34.2449 14.491 34.283 13.9687 34.2387C13.3696 34.1883 12.7747 34.0984 12.1879 33.9698C11.2348 33.7598 10.3107 33.4387 9.43527 33.0133C8.73091 32.6645 8.05539 32.2622 7.41488 31.8101C7.36128 31.7728 7.30574 31.7393 7.22383 31.6866Z" fill="#0A0C10"/>
<path d="M22.4121 16.3348V14.1945C22.4121 13.9136 22.3205 13.8184 22.0302 13.8124C21.3867 13.799 20.7431 13.7845 20.0996 13.7794C19.3902 13.7738 18.6807 13.7837 17.9714 13.775C17.7366 13.7689 17.5025 13.7461 17.2711 13.7067C16.9888 13.6627 16.8489 13.4213 16.8362 13.1207C16.7989 12.249 16.7997 11.3756 16.7951 10.5028C16.7932 10.1427 16.8081 9.78218 16.8294 9.42258C16.8455 9.15509 16.8628 8.87298 17.1519 8.733C17.2754 8.67279 17.4103 8.63832 17.5481 8.63176C18.1571 8.61059 18.7666 8.59844 19.3765 8.59532C20.171 8.58976 20.9656 8.59842 21.76 8.5904C21.9319 8.58229 22.1024 8.55602 22.2686 8.51203C22.3795 8.48678 22.4154 8.40191 22.4148 8.28447C22.41 7.34809 22.4095 6.41174 22.4136 5.47541C22.4167 4.93248 22.4317 4.38955 22.4472 3.84678C22.4582 3.46248 22.6371 3.20872 22.9492 3.15037C23.1209 3.12151 23.2949 3.10822 23.4691 3.11067C24.5473 3.10725 25.6258 3.09963 26.7038 3.11646C26.9302 3.12004 27.1756 3.09352 27.3893 3.22762C27.5218 3.31067 27.6326 3.40579 27.6549 3.56539C27.6907 3.765 27.713 3.96672 27.7217 4.16922C27.7276 5.51805 27.7248 6.8668 27.7248 8.21563C27.7248 8.44716 27.8321 8.55554 28.0766 8.56031C28.7326 8.57317 29.3886 8.58857 30.0446 8.59302C30.8675 8.59858 31.6904 8.59429 32.5133 8.59437C32.8595 8.59437 33.2006 8.90482 33.2059 9.24544C33.2224 10.2797 33.2337 11.3141 33.2398 12.3486C33.2416 12.6416 33.2236 12.935 33.2063 13.2278C33.1953 13.3565 33.1398 13.4777 33.0491 13.5713C32.9584 13.6649 32.8379 13.7253 32.7075 13.7424C32.5234 13.7638 32.3383 13.7752 32.1529 13.7768C30.9668 13.7797 29.7807 13.7767 28.5946 13.7798C28.4121 13.7815 28.2299 13.7931 28.0488 13.8145C27.8486 13.8369 27.7615 13.9595 27.7592 14.2049C27.7472 15.4957 27.7394 16.7867 27.7219 18.0775C27.7223 18.3249 27.6977 18.5717 27.6487 18.8143C27.6243 18.9091 27.5724 18.9949 27.4995 19.0614C27.4265 19.1279 27.3355 19.1723 27.2375 19.1892C27.0075 19.2366 26.7732 19.2605 26.5382 19.2607C25.6529 19.2685 24.7676 19.2685 23.8823 19.2607C23.5804 19.2578 23.278 19.227 22.9774 19.1946C22.692 19.1638 22.4122 18.8391 22.4122 18.5594C22.4119 17.8176 22.4119 17.076 22.4121 16.3348Z" fill="#0A0C10"/>
<path d="M31.2559 6.39292C31.4833 6.29179 31.7159 6.20232 31.9528 6.12486C32.3927 6.00505 32.6272 5.70405 32.763 5.30499C32.8173 5.1454 32.8542 4.98025 32.9018 4.81835C32.9255 4.73784 32.9554 4.65908 32.9827 4.57952L33.0347 4.57666C33.1038 4.81295 33.1803 5.0475 33.2403 5.28601C33.3306 5.64458 33.5257 5.90445 33.8889 6.03808C34.1705 6.1417 34.4448 6.265 34.752 6.3918C34.591 6.45056 34.4448 6.49558 34.3056 6.55672C34.0694 6.66049 33.8188 6.74727 33.6089 6.89067C33.3273 7.08266 33.2648 7.41383 33.174 7.71809C33.1306 7.86331 33.0866 8.00829 33.0428 8.15343L32.9932 8.15843L32.8676 7.79971C32.7978 7.60026 32.7425 7.39422 32.6547 7.20271C32.4978 6.86058 32.1766 6.71178 31.842 6.58983C31.6606 6.52337 31.4759 6.46612 31.2559 6.39292Z" fill="#0A0C10"/>
<path d="M34.993 7.47461C35.0631 8.05494 35.3212 8.44622 35.941 8.54428C35.3204 8.64233 35.0773 9.05132 34.9708 9.59012C34.8568 9.05696 34.6521 8.62939 34 8.57802C34.2593 8.43375 34.52 8.3557 34.6737 8.18452C34.8275 8.01333 34.8767 7.74822 34.993 7.47461Z" fill="#0A0C10"/>
</svg>
