<svg width="112" height="112" viewBox="0 0 112 112" fill="none" xmlns="http://www.w3.org/2000/svg">
<g clip-path="url(#clip0_3643_993)" filter="url(#filter0_d_3643_993)">
<rect width="32" height="32" transform="translate(40 40)" fill="black" fill-opacity="0.022"/>
<path d="M59.9987 42.6667H47.9987C47.2915 42.6667 46.6132 42.9477 46.1131 43.4478C45.613 43.9479 45.332 44.6262 45.332 45.3334V66.6667C45.332 67.374 45.613 68.0523 46.1131 68.5524C46.6132 69.0525 47.2915 69.3334 47.9987 69.3334H63.9987C64.7059 69.3334 65.3842 69.0525 65.8843 68.5524C66.3844 68.0523 66.6654 67.374 66.6654 66.6667V49.3334L59.9987 42.6667Z" stroke="white" stroke-width="2.66667" stroke-linecap="round" stroke-linejoin="round"/>
<path d="M58.668 42.6667V48.0001C58.668 48.7073 58.9489 49.3856 59.449 49.8857C59.9491 50.3858 60.6274 50.6667 61.3346 50.6667H66.668" stroke="white" stroke-width="2.66667" stroke-linecap="round" stroke-linejoin="round"/>
<path d="M53.3346 52H50.668" stroke="white" stroke-width="2.66667" stroke-linecap="round" stroke-linejoin="round"/>
<path d="M61.3346 57.3333H50.668" stroke="white" stroke-width="2.66667" stroke-linecap="round" stroke-linejoin="round"/>
<path d="M61.3346 62.6667H50.668" stroke="white" stroke-width="2.66667" stroke-linecap="round" stroke-linejoin="round"/>
</g>
<defs>
<filter id="filter0_d_3643_993" x="0" y="0" width="112" height="112" filterUnits="userSpaceOnUse" color-interpolation-filters="sRGB">
<feFlood flood-opacity="0" result="BackgroundImageFix"/>
<feColorMatrix in="SourceAlpha" type="matrix" values="0 0 0 0 0 0 0 0 0 0 0 0 0 0 0 0 0 0 127 0" result="hardAlpha"/>
<feOffset/>
<feGaussianBlur stdDeviation="20"/>
<feComposite in2="hardAlpha" operator="out"/>
<feColorMatrix type="matrix" values="0 0 0 0 0.211765 0 0 0 0 0.827451 0 0 0 0 0.6 0 0 0 0.3 0"/>
<feBlend mode="normal" in2="BackgroundImageFix" result="effect1_dropShadow_3643_993"/>
<feBlend mode="normal" in="SourceGraphic" in2="effect1_dropShadow_3643_993" result="shape"/>
</filter>
<clipPath id="clip0_3643_993">
<rect width="32" height="32" fill="white" transform="translate(40 40)"/>
</clipPath>
</defs>
</svg>
