<svg width="20" height="20" viewBox="0 0 20 20" fill="none" xmlns="http://www.w3.org/2000/svg">
<path d="M10.1824 1.66675H9.81569C9.37366 1.66675 8.94974 1.84234 8.63718 2.1549C8.32462 2.46746 8.14902 2.89139 8.14902 3.33341V3.48341C8.14872 3.77569 8.07157 4.06274 7.92531 4.31578C7.77904 4.56882 7.56881 4.77895 7.31569 4.92508L6.95736 5.13341C6.70399 5.2797 6.41659 5.35671 6.12402 5.35671C5.83146 5.35671 5.54406 5.2797 5.29069 5.13341L5.16569 5.06675C4.78325 4.84613 4.32889 4.78628 3.90236 4.90034C3.47583 5.01439 3.11198 5.29303 2.89069 5.67508L2.70736 5.99175C2.48674 6.37419 2.42689 6.82855 2.54095 7.25508C2.655 7.68161 2.93364 8.04546 3.31569 8.26675L3.44069 8.35008C3.69259 8.49551 3.90204 8.70432 4.04823 8.95577C4.19443 9.20723 4.27227 9.49256 4.27403 9.78341V10.2084C4.27519 10.5021 4.19873 10.7909 4.05239 11.0455C3.90606 11.3001 3.69503 11.5116 3.44069 11.6584L3.31569 11.7334C2.93364 11.9547 2.655 12.3186 2.54095 12.7451C2.42689 13.1716 2.48674 13.626 2.70736 14.0084L2.89069 14.3251C3.11198 14.7071 3.47583 14.9858 3.90236 15.0998C4.32889 15.2139 4.78325 15.154 5.16569 14.9334L5.29069 14.8667C5.54406 14.7205 5.83146 14.6435 6.12402 14.6435C6.41659 14.6435 6.70399 14.7205 6.95736 14.8667L7.31569 15.0751C7.56881 15.2212 7.77904 15.4313 7.92531 15.6844C8.07157 15.9374 8.14872 16.2245 8.14902 16.5167V16.6667C8.14902 17.1088 8.32462 17.5327 8.63718 17.8453C8.94974 18.1578 9.37366 18.3334 9.81569 18.3334H10.1824C10.6244 18.3334 11.0483 18.1578 11.3609 17.8453C11.6734 17.5327 11.849 17.1088 11.849 16.6667V16.5167C11.8493 16.2245 11.9265 15.9374 12.0727 15.6844C12.219 15.4313 12.4292 15.2212 12.6824 15.0751L13.0407 14.8667C13.2941 14.7205 13.5815 14.6435 13.874 14.6435C14.1666 14.6435 14.454 14.7205 14.7074 14.8667L14.8324 14.9334C15.2148 15.154 15.6692 15.2139 16.0957 15.0998C16.5222 14.9858 16.8861 14.7071 17.1074 14.3251L17.2907 14.0001C17.5113 13.6176 17.5712 13.1633 17.4571 12.7367C17.343 12.3102 17.0644 11.9464 16.6824 11.7251L16.5574 11.6584C16.303 11.5116 16.092 11.3001 15.9457 11.0455C15.7993 10.7909 15.7229 10.5021 15.724 10.2084V9.79175C15.7229 9.49806 15.7993 9.20929 15.9457 8.95466C16.092 8.70003 16.303 8.48859 16.5574 8.34175L16.6824 8.26675C17.0644 8.04546 17.343 7.68161 17.4571 7.25508C17.5712 6.82855 17.5113 6.37419 17.2907 5.99175L17.1074 5.67508C16.8861 5.29303 16.5222 5.01439 16.0957 4.90034C15.6692 4.78628 15.2148 4.84613 14.8324 5.06675L14.7074 5.13341C14.454 5.2797 14.1666 5.35671 13.874 5.35671C13.5815 5.35671 13.2941 5.2797 13.0407 5.13341L12.6824 4.92508C12.4292 4.77895 12.219 4.56882 12.0727 4.31578C11.9265 4.06274 11.8493 3.77569 11.849 3.48341V3.33341C11.849 2.89139 11.6734 2.46746 11.3609 2.1549C11.0483 1.84234 10.6244 1.66675 10.1824 1.66675Z" stroke="#94A3B8" stroke-width="1.66667" stroke-linecap="round" stroke-linejoin="round"/>
<path d="M10 12.5C11.3807 12.5 12.5 11.3807 12.5 10C12.5 8.61929 11.3807 7.5 10 7.5C8.61929 7.5 7.5 8.61929 7.5 10C7.5 11.3807 8.61929 12.5 10 12.5Z" stroke="#94A3B8" stroke-width="1.66667" stroke-linecap="round" stroke-linejoin="round"/>
</svg>
