<svg width="32" height="32" viewBox="0 0 32 32" fill="none" xmlns="http://www.w3.org/2000/svg">
<rect width="32" height="32" rx="12" fill="#A2C043" fill-opacity="0.1"/>
<path d="M16 10.1665C16.001 9.83324 15.9353 9.5031 15.8068 9.19555C15.6784 8.88799 15.4897 8.60923 15.2519 8.37567C15.0141 8.1421 14.732 7.95844 14.4222 7.83549C14.1124 7.71254 13.7812 7.65278 13.4479 7.65972C13.1147 7.66667 12.7862 7.74018 12.4818 7.87593C12.1774 8.01169 11.9032 8.20694 11.6754 8.45022C11.4475 8.69349 11.2706 8.97987 11.1551 9.29251C11.0395 9.60515 10.9877 9.93774 11.0025 10.2707C10.5127 10.3967 10.0579 10.6324 9.67271 10.9601C9.28749 11.2879 8.98189 11.6989 8.77906 12.1623C8.57623 12.6256 8.48149 13.129 8.50201 13.6343C8.52254 14.1397 8.65779 14.6337 8.89752 15.079C8.476 15.4215 8.14454 15.8617 7.93197 16.3615C7.7194 16.8612 7.63215 17.4054 7.67782 17.9465C7.7235 18.4877 7.9007 19.0095 8.19403 19.4666C8.48735 19.9236 8.88791 20.3021 9.36085 20.569C9.30245 21.0209 9.3373 21.4799 9.46326 21.9178C9.58922 22.3557 9.8036 22.7631 10.0932 23.1148C10.3827 23.4666 10.7414 23.7553 11.1469 23.963C11.5524 24.1708 11.9962 24.2932 12.4508 24.3227C12.9055 24.3522 13.3614 24.2881 13.7903 24.1346C14.2193 23.981 14.6122 23.7411 14.9448 23.4297C15.2774 23.1183 15.5427 22.742 15.7242 22.3241C15.9056 21.9062 15.9995 21.4555 16 20.9999V10.1665Z" stroke="#A2C043" stroke-width="1.66667" stroke-linecap="round" stroke-linejoin="round"/>
<path d="M16 10.1665C15.999 9.83324 16.0647 9.5031 16.1932 9.19555C16.3217 8.88799 16.5103 8.60923 16.7481 8.37567C16.9859 8.1421 17.268 7.95844 17.5778 7.83549C17.8876 7.71254 18.2189 7.65278 18.5521 7.65972C18.8853 7.66667 19.2138 7.74018 19.5182 7.87593C19.8226 8.01169 20.0968 8.20694 20.3247 8.45022C20.5525 8.69349 20.7294 8.97987 20.845 9.29251C20.9605 9.60515 21.0124 9.93774 20.9975 10.2707C21.4873 10.3967 21.9421 10.6324 22.3273 10.9601C22.7125 11.2879 23.0181 11.6989 23.221 12.1623C23.4238 12.6256 23.5185 13.129 23.498 13.6343C23.4775 14.1397 23.3422 14.6337 23.1025 15.079C23.524 15.4215 23.8555 15.8617 24.0681 16.3615C24.2806 16.8612 24.3679 17.4054 24.3222 17.9465C24.2765 18.4877 24.0993 19.0095 23.806 19.4666C23.5127 19.9236 23.1121 20.3021 22.6392 20.569C22.6976 21.0209 22.6627 21.4799 22.5368 21.9178C22.4108 22.3557 22.1964 22.7631 21.9069 23.1148C21.6173 23.4666 21.2587 23.7553 20.8532 23.963C20.4477 24.1708 20.0039 24.2932 19.5492 24.3227C19.0945 24.3522 18.6386 24.2881 18.2097 24.1346C17.7807 23.981 17.3878 23.7411 17.0552 23.4297C16.7226 23.1183 16.4574 22.742 16.2759 22.3241C16.0944 21.9062 16.0005 21.4555 16 20.9999V10.1665Z" stroke="#A2C043" stroke-width="1.66667" stroke-linecap="round" stroke-linejoin="round"/>
<path d="M18.5 16.8333C17.8004 16.5872 17.1894 16.1392 16.7444 15.5458C16.2994 14.9525 16.0404 14.2406 16 13.5C15.9596 14.2406 15.7006 14.9525 15.2556 15.5458C14.8106 16.1392 14.1996 16.5872 13.5 16.8333" stroke="#A2C043" stroke-width="1.66667" stroke-linecap="round" stroke-linejoin="round"/>
<path d="M20.666 11.4166C20.8677 11.0671 20.9818 10.6739 20.9985 10.2708" stroke="#A2C043" stroke-width="1.66667" stroke-linecap="round" stroke-linejoin="round"/>
<path d="M11.0039 10.2708C11.0204 10.6739 11.1342 11.067 11.3356 11.4166" stroke="#A2C043" stroke-width="1.66667" stroke-linecap="round" stroke-linejoin="round"/>
<path d="M8.89844 15.08C9.05089 14.9558 9.21402 14.8454 9.38594 14.75" stroke="#A2C043" stroke-width="1.66667" stroke-linecap="round" stroke-linejoin="round"/>
<path d="M22.6152 14.75C22.7871 14.8454 22.9503 14.9558 23.1027 15.08" stroke="#A2C043" stroke-width="1.66667" stroke-linecap="round" stroke-linejoin="round"/>
<path d="M10.9985 21.0001C10.4242 21.0003 9.8596 20.8522 9.35938 20.5701" stroke="#A2C043" stroke-width="1.66667" stroke-linecap="round" stroke-linejoin="round"/>
<path d="M22.6392 20.5701C22.1389 20.8522 21.5743 21.0003 21 21.0001" stroke="#A2C043" stroke-width="1.66667" stroke-linecap="round" stroke-linejoin="round"/>
</svg>
