<svg width="32" height="32" viewBox="0 0 32 32" fill="none" xmlns="http://www.w3.org/2000/svg">
<rect width="32" height="32" rx="12" fill="#22262A"/>
<path d="M19.3346 23.5V21.8333C19.3346 20.9493 18.9834 20.1014 18.3583 19.4763C17.7332 18.8512 16.8854 18.5 16.0013 18.5H11.0013C10.1172 18.5 9.2694 18.8512 8.64428 19.4763C8.01916 20.1014 7.66797 20.9493 7.66797 21.8333V23.5" stroke="#94A3B8" stroke-width="1.66667" stroke-linecap="round" stroke-linejoin="round"/>
<path d="M13.5013 15.1667C15.3423 15.1667 16.8346 13.6743 16.8346 11.8333C16.8346 9.99238 15.3423 8.5 13.5013 8.5C11.6604 8.5 10.168 9.99238 10.168 11.8333C10.168 13.6743 11.6604 15.1667 13.5013 15.1667Z" stroke="#94A3B8" stroke-width="1.66667" stroke-linecap="round" stroke-linejoin="round"/>
<path d="M24.332 23.5001V21.8334C24.3315 21.0948 24.0857 20.3774 23.6332 19.7937C23.1807 19.2099 22.5471 18.793 21.832 18.6084" stroke="#94A3B8" stroke-width="1.66667" stroke-linecap="round" stroke-linejoin="round"/>
<path d="M19.332 8.6084C20.049 8.79198 20.6846 9.20898 21.1384 9.79366C21.5922 10.3783 21.8386 11.0974 21.8386 11.8376C21.8386 12.5777 21.5922 13.2968 21.1384 13.8815C20.6846 14.4661 20.049 14.8831 19.332 15.0667" stroke="#94A3B8" stroke-width="1.66667" stroke-linecap="round" stroke-linejoin="round"/>
</svg>
