<svg width="30" height="28" viewBox="0 0 30 28" fill="none" xmlns="http://www.w3.org/2000/svg">
<path d="M20.3346 26V23.3333C20.3346 21.9188 19.7727 20.5623 18.7725 19.5621C17.7723 18.5619 16.4158 18 15.0013 18H7.0013C5.58681 18 4.23026 18.5619 3.23007 19.5621C2.22987 20.5623 1.66797 21.9188 1.66797 23.3333V26" stroke="white" stroke-width="2.66667" stroke-linecap="round" stroke-linejoin="round"/>
<path d="M11.0013 12.6667C13.9468 12.6667 16.3346 10.2789 16.3346 7.33333C16.3346 4.38781 13.9468 2 11.0013 2C8.05578 2 5.66797 4.38781 5.66797 7.33333C5.66797 10.2789 8.05578 12.6667 11.0013 12.6667Z" stroke="white" stroke-width="2.66667" stroke-linecap="round" stroke-linejoin="round"/>
<path d="M20.332 12.6667L22.9987 15.3333L28.332 10" stroke="white" stroke-width="2.66667" stroke-linecap="round" stroke-linejoin="round"/>
</svg>
