<svg width="32" height="32" viewBox="0 0 32 32" fill="none" xmlns="http://www.w3.org/2000/svg">
<path d="M19.9987 2.66675H7.9987C7.29145 2.66675 6.61318 2.9477 6.11308 3.4478C5.61298 3.94789 5.33203 4.62617 5.33203 5.33341V26.6667C5.33203 27.374 5.61298 28.0523 6.11308 28.5524C6.61318 29.0525 7.29145 29.3334 7.9987 29.3334H23.9987C24.7059 29.3334 25.3842 29.0525 25.8843 28.5524C26.3844 28.0523 26.6654 27.374 26.6654 26.6667V9.33341L19.9987 2.66675Z" stroke="white" stroke-width="2.66667" stroke-linecap="round" stroke-linejoin="round"/>
<path d="M18.668 2.66675V8.00008C18.668 8.70733 18.9489 9.3856 19.449 9.8857C19.9491 10.3858 20.6274 10.6667 21.3346 10.6667H26.668" stroke="white" stroke-width="2.66667" stroke-linecap="round" stroke-linejoin="round"/>
<path d="M13.3346 12H10.668" stroke="white" stroke-width="2.66667" stroke-linecap="round" stroke-linejoin="round"/>
<path d="M21.3346 17.3333H10.668" stroke="white" stroke-width="2.66667" stroke-linecap="round" stroke-linejoin="round"/>
<path d="M21.3346 22.6667H10.668" stroke="white" stroke-width="2.66667" stroke-linecap="round" stroke-linejoin="round"/>
</svg>
