<svg width="64" height="64" viewBox="0 0 64 64" fill="none" xmlns="http://www.w3.org/2000/svg">
<rect width="64" height="64" rx="32" fill="#22262A"/>
<path d="M32.2933 18.6667H31.7067C30.9994 18.6667 30.3211 18.9477 29.8211 19.4478C29.321 19.9479 29.04 20.6262 29.04 21.3334V21.5734C29.0395 22.041 28.9161 22.5003 28.6821 22.9052C28.448 23.3101 28.1117 23.6463 27.7067 23.8801L27.1333 24.2134C26.728 24.4475 26.2681 24.5707 25.8 24.5707C25.3319 24.5707 24.8721 24.4475 24.4667 24.2134L24.2667 24.1067C23.6548 23.7538 22.9278 23.658 22.2453 23.8405C21.5629 24.023 20.9807 24.4688 20.6267 25.0801L20.3333 25.5867C19.9804 26.1987 19.8846 26.9256 20.0671 27.6081C20.2496 28.2905 20.6954 28.8727 21.3067 29.2267L21.5067 29.3601C21.9097 29.5928 22.2448 29.9269 22.4787 30.3292C22.7126 30.7315 22.8372 31.188 22.84 31.6534V32.3334C22.8419 32.8033 22.7195 33.2654 22.4854 33.6728C22.2513 34.0802 21.9136 34.4185 21.5067 34.6534L21.3067 34.7734C20.6954 35.1275 20.2496 35.7096 20.0671 36.3921C19.8846 37.0745 19.9804 37.8015 20.3333 38.4134L20.6267 38.9201C20.9807 39.5314 21.5629 39.9772 22.2453 40.1597C22.9278 40.3422 23.6548 40.2464 24.2667 39.8934L24.4667 39.7867C24.8721 39.5527 25.3319 39.4295 25.8 39.4295C26.2681 39.4295 26.728 39.5527 27.1333 39.7867L27.7067 40.1201C28.1117 40.3539 28.448 40.6901 28.6821 41.095C28.9161 41.4998 29.0395 41.9591 29.04 42.4267V42.6667C29.04 43.374 29.321 44.0523 29.8211 44.5524C30.3211 45.0525 30.9994 45.3334 31.7067 45.3334H32.2933C33.0006 45.3334 33.6789 45.0525 34.179 44.5524C34.6791 44.0523 34.96 43.374 34.96 42.6667V42.4267C34.9605 41.9591 35.0839 41.4998 35.318 41.095C35.552 40.6901 35.8884 40.3539 36.2933 40.1201L36.8667 39.7867C37.2721 39.5527 37.7319 39.4295 38.2 39.4295C38.6681 39.4295 39.128 39.5527 39.5333 39.7867L39.7333 39.8934C40.3452 40.2464 41.0722 40.3422 41.7547 40.1597C42.4371 39.9772 43.0193 39.5314 43.3733 38.9201L43.6667 38.4001C44.0197 37.7882 44.1154 37.0612 43.9329 36.3788C43.7504 35.6963 43.3046 35.1141 42.6933 34.7601L42.4933 34.6534C42.0864 34.4185 41.7488 34.0802 41.5146 33.6728C41.2805 33.2654 41.1581 32.8033 41.16 32.3334V31.6667C41.1581 31.1969 41.2805 30.7348 41.5146 30.3274C41.7488 29.92 42.0864 29.5817 42.4933 29.3467L42.6933 29.2267C43.3046 28.8727 43.7504 28.2905 43.9329 27.6081C44.1154 26.9256 44.0197 26.1987 43.6667 25.5867L43.3733 25.0801C43.0193 24.4688 42.4371 24.023 41.7547 23.8405C41.0722 23.658 40.3452 23.7538 39.7333 24.1067L39.5333 24.2134C39.128 24.4475 38.6681 24.5707 38.2 24.5707C37.7319 24.5707 37.2721 24.4475 36.8667 24.2134L36.2933 23.8801C35.8884 23.6463 35.552 23.3101 35.318 22.9052C35.0839 22.5003 34.9605 22.041 34.96 21.5734V21.3334C34.96 20.6262 34.6791 19.9479 34.179 19.4478C33.6789 18.9477 33.0006 18.6667 32.2933 18.6667Z" stroke="#94A3B8" stroke-width="2.66667" stroke-linecap="round" stroke-linejoin="round"/>
<path d="M32 36C34.2091 36 36 34.2091 36 32C36 29.7909 34.2091 28 32 28C29.7909 28 28 29.7909 28 32C28 34.2091 29.7909 36 32 36Z" stroke="#94A3B8" stroke-width="2.66667" stroke-linecap="round" stroke-linejoin="round"/>
</svg>
