<svg width="702" height="512" viewBox="0 0 702 512" fill="none" xmlns="http://www.w3.org/2000/svg">
<rect x="0.5" y="0.5" width="701" height="511" rx="47.5" fill="#E7E9E3" fill-opacity="0.8"/>
<rect x="0.5" y="0.5" width="701" height="511" rx="47.5" stroke="#C8CBC2"/>
<line x1="55.7482" y1="213.103" x2="646.25" y2="212.252" stroke="url(#paint0_linear_1680_1189)" stroke-width="1.49862" stroke-linecap="round" stroke-dasharray="2.5 2.5"/>
<circle cx="152.435" cy="213.427" r="6.49401" fill="#525252"/>
<circle cx="251.344" cy="213.427" r="6.49401" fill="#525252"/>
<circle cx="350.253" cy="213.427" r="6.49401" fill="#525252"/>
<circle cx="449.161" cy="213.427" r="6.49401" fill="#525252"/>
<circle cx="548.07" cy="213.427" r="6.49401" fill="#525252"/>
<path d="M142.422 194.072H146.636V195.958H140.451V185.959H146.565V187.844H142.422V189.973H146.208V191.829H142.422V194.072ZM153.711 185.959H155.668V195.958H153.711V191.815H149.997V195.958H148.026V185.959H149.997V189.93H153.711V185.959ZM163.01 195.958L160.996 192.486H159.496V195.958H157.525V185.959H161.525C162.448 185.959 163.234 186.282 163.882 186.93C164.529 187.578 164.853 188.358 164.853 189.273C164.853 189.892 164.677 190.468 164.324 191.001C163.972 191.525 163.505 191.92 162.925 192.187L165.139 195.958H163.01ZM159.496 187.801V190.758H161.525C161.896 190.758 162.215 190.615 162.482 190.33C162.748 190.034 162.882 189.682 162.882 189.273C162.882 188.863 162.748 188.516 162.482 188.23C162.215 187.944 161.896 187.801 161.525 187.801H159.496Z" fill="#424242"/>
<path d="M127.537 289.37L127.702 288.405L131.41 285.205C132.383 284.392 132.929 283.673 133.048 283.047C133.141 282.547 133.056 282.158 132.794 281.878C132.54 281.599 132.193 281.459 131.752 281.459C130.965 281.459 130.301 281.862 129.759 282.666L128.819 282.069C129.598 280.901 130.622 280.317 131.892 280.317C132.637 280.317 133.246 280.579 133.72 281.104C134.203 281.62 134.368 282.297 134.216 283.135C134.131 283.652 133.919 284.126 133.581 284.557C133.251 284.989 132.789 285.459 132.197 285.967L129.518 288.227H133.479L133.289 289.37H127.537ZM139.819 289.37L138.829 280.482H139.997L140.759 287.821L144.212 280.482H145.406L146.282 287.821L149.634 280.482H150.891L146.777 289.37H145.406L144.543 282.272L141.191 289.37H139.819ZM153.728 282.856C154.684 282.856 155.417 283.186 155.925 283.846C156.441 284.498 156.61 285.285 156.432 286.208C156.415 286.344 156.373 286.509 156.305 286.703H150.998C150.998 287.27 151.172 287.711 151.519 288.024C151.874 288.337 152.344 288.494 152.928 288.494C153.783 288.494 154.456 288.18 154.947 287.554L155.772 288.151C155.45 288.591 155.023 288.934 154.49 289.179C153.965 289.416 153.402 289.535 152.801 289.535C151.802 289.535 151.036 289.2 150.503 288.532C149.97 287.863 149.788 287.042 149.957 286.068C150.118 285.146 150.554 284.38 151.265 283.77C151.976 283.161 152.797 282.856 153.728 282.856ZM151.163 285.726H155.391C155.417 285.125 155.269 284.672 154.947 284.367C154.625 284.054 154.198 283.897 153.664 283.897C153.072 283.897 152.551 284.062 152.103 284.392C151.663 284.714 151.349 285.158 151.163 285.726ZM161.13 282.856C162.087 282.856 162.819 283.186 163.327 283.846C163.843 284.498 164.013 285.285 163.835 286.208C163.818 286.344 163.776 286.509 163.708 286.703H158.401C158.401 287.27 158.574 287.711 158.921 288.024C159.277 288.337 159.746 288.494 160.33 288.494C161.185 288.494 161.858 288.18 162.349 287.554L163.175 288.151C162.853 288.591 162.425 288.934 161.892 289.179C161.367 289.416 160.804 289.535 160.203 289.535C159.205 289.535 158.439 289.2 157.905 288.532C157.372 287.863 157.19 287.042 157.359 286.068C157.52 285.146 157.956 284.38 158.667 283.77C159.378 283.161 160.199 282.856 161.13 282.856ZM158.566 285.726H162.794C162.819 285.125 162.671 284.672 162.349 284.367C162.028 284.054 161.6 283.897 161.067 283.897C160.474 283.897 159.954 284.062 159.505 284.392C159.065 284.714 158.752 285.158 158.566 285.726ZM170.894 283.021L167.314 286.094L169.891 289.37H168.621L166.196 286.246L165.65 289.37H164.546L166.107 280.482H167.212L166.285 285.776L169.472 283.021H170.894ZM172.759 289.535C172.132 289.535 171.616 289.399 171.21 289.128C170.812 288.849 170.537 288.472 170.385 287.998L171.375 287.49C171.443 287.787 171.603 288.028 171.857 288.214C172.12 288.4 172.45 288.494 172.848 288.494C173.22 288.494 173.529 288.422 173.775 288.278C174.029 288.134 174.181 287.926 174.232 287.656C174.266 287.469 174.227 287.313 174.117 287.186C174.007 287.059 173.851 286.957 173.648 286.881C173.453 286.796 173.233 286.716 172.987 286.64C172.75 286.564 172.513 286.475 172.276 286.373C172.039 286.272 171.828 286.153 171.642 286.018C171.455 285.882 171.316 285.696 171.223 285.459C171.129 285.214 171.112 284.93 171.172 284.608C171.265 284.092 171.536 283.673 171.984 283.351C172.441 283.021 172.975 282.856 173.584 282.856C174.668 282.856 175.404 283.296 175.793 284.177L174.816 284.684C174.646 284.151 174.219 283.885 173.533 283.885C173.237 283.885 172.966 283.957 172.721 284.1C172.475 284.236 172.327 284.443 172.276 284.723C172.234 284.976 172.319 285.18 172.53 285.332C172.75 285.484 173.025 285.611 173.356 285.713C173.694 285.814 174.029 285.929 174.359 286.056C174.689 286.183 174.951 286.39 175.146 286.678C175.341 286.966 175.4 287.334 175.324 287.783C175.222 288.341 174.943 288.773 174.486 289.078C174.029 289.382 173.453 289.535 172.759 289.535Z" fill="#D85F5F"/>
<path d="M323.193 289.37L323.358 288.405L327.066 285.205C328.039 284.392 328.585 283.673 328.704 283.047C328.797 282.547 328.712 282.158 328.45 281.878C328.196 281.599 327.849 281.459 327.409 281.459C326.621 281.459 325.957 281.862 325.415 282.666L324.476 282.069C325.254 280.901 326.279 280.317 327.548 280.317C328.293 280.317 328.903 280.579 329.377 281.104C329.859 281.62 330.024 282.297 329.872 283.135C329.787 283.652 329.576 284.126 329.237 284.557C328.907 284.989 328.445 285.459 327.853 285.967L325.174 288.227H329.135L328.945 289.37H323.193ZM343.436 280.482L341.875 289.37H340.707L341.926 282.463L338.18 287.262H338.028L335.971 282.348L334.739 289.37H333.558L335.12 280.482H336.415L338.37 285.23L342.053 280.482H343.436ZM346.721 289.535C345.781 289.535 345.028 289.209 344.461 288.557C343.894 287.905 343.699 287.08 343.877 286.081C344.055 285.099 344.52 284.316 345.274 283.732C346.027 283.148 346.865 282.856 347.788 282.856C348.693 282.856 349.421 283.182 349.971 283.834C350.522 284.486 350.712 285.302 350.543 286.284C350.373 287.283 349.921 288.075 349.184 288.659C348.448 289.243 347.627 289.535 346.721 289.535ZM346.81 288.455C347.428 288.455 347.991 288.252 348.499 287.846C349.015 287.44 349.332 286.881 349.451 286.17C349.569 285.484 349.442 284.943 349.07 284.545C348.706 284.138 348.219 283.935 347.61 283.935C347.009 283.944 346.454 284.147 345.946 284.545C345.439 284.943 345.117 285.493 344.982 286.195C344.863 286.906 344.986 287.465 345.35 287.871C345.722 288.269 346.209 288.464 346.81 288.455ZM355.552 282.856C356.297 282.856 356.86 283.093 357.241 283.567C357.63 284.041 357.757 284.676 357.622 285.472L356.936 289.37H355.832L356.504 285.535C356.598 285.01 356.534 284.608 356.314 284.329C356.094 284.05 355.73 283.91 355.222 283.91C354.68 283.91 354.206 284.083 353.8 284.431C353.394 284.769 353.131 285.294 353.013 286.005V285.992L352.416 289.37H351.311L352.429 283.021H353.533L353.381 283.859C353.931 283.19 354.655 282.856 355.552 282.856ZM361.183 284.088L360.573 287.529C360.514 287.833 360.539 288.053 360.649 288.189C360.759 288.324 360.937 288.396 361.183 288.405C361.437 288.405 361.75 288.396 362.122 288.379L361.945 289.37C361.005 289.497 360.324 289.416 359.9 289.128C359.477 288.832 359.333 288.299 359.469 287.529L360.065 284.088H358.808L359.012 283.021H360.256L360.51 281.574L361.678 281.244L361.36 283.021H363.062L362.871 284.088H361.183ZM367.493 282.856C368.238 282.856 368.801 283.093 369.181 283.567C369.571 284.041 369.698 284.676 369.562 285.472L368.877 289.37H367.772L368.445 285.535C368.538 285.01 368.475 284.608 368.255 284.329C368.035 284.05 367.671 283.91 367.163 283.91C366.621 283.91 366.147 284.083 365.741 284.431C365.334 284.769 365.072 285.294 364.953 286.005V285.992L364.357 289.37H363.252L364.814 280.482H365.918L365.322 283.859C365.872 283.19 366.596 282.856 367.493 282.856ZM372.742 289.535C372.116 289.535 371.6 289.399 371.193 289.128C370.795 288.849 370.52 288.472 370.368 287.998L371.358 287.49C371.426 287.787 371.587 288.028 371.841 288.214C372.103 288.4 372.433 288.494 372.831 288.494C373.204 288.494 373.513 288.422 373.758 288.278C374.012 288.134 374.164 287.926 374.215 287.656C374.249 287.469 374.211 287.313 374.101 287.186C373.991 287.059 373.834 286.957 373.631 286.881C373.436 286.796 373.216 286.716 372.971 286.64C372.734 286.564 372.497 286.475 372.26 286.373C372.023 286.272 371.811 286.153 371.625 286.018C371.439 285.882 371.299 285.696 371.206 285.459C371.113 285.214 371.096 284.93 371.155 284.608C371.248 284.092 371.519 283.673 371.968 283.351C372.425 283.021 372.958 282.856 373.568 282.856C374.651 282.856 375.388 283.296 375.777 284.177L374.799 284.684C374.63 284.151 374.203 283.885 373.517 283.885C373.221 283.885 372.95 283.957 372.704 284.1C372.459 284.236 372.311 284.443 372.26 284.723C372.218 284.976 372.302 285.18 372.514 285.332C372.734 285.484 373.009 285.611 373.339 285.713C373.678 285.814 374.012 285.929 374.342 286.056C374.672 286.183 374.935 286.39 375.129 286.678C375.324 286.966 375.383 287.334 375.307 287.783C375.206 288.341 374.926 288.773 374.469 289.078C374.012 289.382 373.436 289.535 372.742 289.535Z" fill="#D85F5F"/>
<path d="M517.472 282.094L522.297 284.38L522.208 284.926L522.107 285.459L516.482 287.744L516.711 286.487L520.964 284.862L517.282 283.224L517.472 282.094ZM529.718 283.554C530.59 283.554 531.271 283.851 531.762 284.443C532.261 285.027 532.431 285.755 532.27 286.627C532.109 287.507 531.707 288.214 531.064 288.747C530.429 289.272 529.65 289.535 528.727 289.535C527.847 289.535 527.161 289.243 526.671 288.659C526.18 288.066 526.015 287.33 526.175 286.449C526.319 285.671 526.649 285.036 527.166 284.545L530.594 280.482H532.016L529.4 283.567C529.468 283.559 529.574 283.554 529.718 283.554ZM531.102 286.538C531.195 285.98 531.102 285.531 530.822 285.192C530.543 284.854 530.12 284.684 529.553 284.684C528.977 284.684 528.49 284.854 528.093 285.192C527.695 285.522 527.449 285.971 527.356 286.538C527.255 287.105 527.343 287.558 527.623 287.897C527.902 288.235 528.325 288.405 528.892 288.405C529.46 288.405 529.942 288.235 530.34 287.897C530.746 287.558 531 287.105 531.102 286.538ZM546.149 280.482L544.587 289.37H543.419L544.638 282.463L540.892 287.262H540.74L538.683 282.348L537.451 289.37H536.27L537.832 280.482H539.127L541.083 285.23L544.765 280.482H546.149ZM549.433 289.535C548.494 289.535 547.74 289.209 547.173 288.557C546.606 287.905 546.411 287.08 546.589 286.081C546.767 285.099 547.232 284.316 547.986 283.732C548.739 283.148 549.577 282.856 550.5 282.856C551.405 282.856 552.133 283.182 552.684 283.834C553.234 284.486 553.424 285.302 553.255 286.284C553.086 287.283 552.633 288.075 551.896 288.659C551.16 289.243 550.339 289.535 549.433 289.535ZM549.522 288.455C550.14 288.455 550.703 288.252 551.211 287.846C551.727 287.44 552.045 286.881 552.163 286.17C552.282 285.484 552.155 284.943 551.782 284.545C551.418 284.138 550.931 283.935 550.322 283.935C549.721 283.944 549.167 284.147 548.659 284.545C548.151 284.943 547.829 285.493 547.694 286.195C547.575 286.906 547.698 287.465 548.062 287.871C548.434 288.269 548.921 288.464 549.522 288.455ZM558.264 282.856C559.009 282.856 559.572 283.093 559.953 283.567C560.342 284.041 560.469 284.676 560.334 285.472L559.648 289.37H558.544L559.217 285.535C559.31 285.01 559.246 284.608 559.026 284.329C558.806 284.05 558.442 283.91 557.934 283.91C557.393 283.91 556.919 284.083 556.512 284.431C556.106 284.769 555.844 285.294 555.725 286.005V285.992L555.128 289.37H554.024L555.141 283.021H556.246L556.093 283.859C556.643 283.19 557.367 282.856 558.264 282.856ZM563.895 284.088L563.285 287.529C563.226 287.833 563.252 288.053 563.362 288.189C563.472 288.324 563.649 288.396 563.895 288.405C564.149 288.405 564.462 288.396 564.834 288.379L564.657 289.37C563.717 289.497 563.036 289.416 562.613 289.128C562.189 288.832 562.045 288.299 562.181 287.529L562.778 284.088H561.521L561.724 283.021H562.968L563.222 281.574L564.39 281.244L564.073 283.021H565.774L565.584 284.088H563.895ZM570.205 282.856C570.95 282.856 571.513 283.093 571.894 283.567C572.283 284.041 572.41 284.676 572.275 285.472L571.589 289.37H570.484L571.157 285.535C571.25 285.01 571.187 284.608 570.967 284.329C570.747 284.05 570.383 283.91 569.875 283.91C569.333 283.91 568.859 284.083 568.453 284.431C568.047 284.769 567.784 285.294 567.666 286.005V285.992L567.069 289.37H565.964L567.526 280.482H568.631L568.034 283.859C568.584 283.19 569.308 282.856 570.205 282.856ZM575.455 289.535C574.828 289.535 574.312 289.399 573.906 289.128C573.508 288.849 573.233 288.472 573.08 287.998L574.071 287.49C574.138 287.787 574.299 288.028 574.553 288.214C574.815 288.4 575.146 288.494 575.543 288.494C575.916 288.494 576.225 288.422 576.47 288.278C576.724 288.134 576.877 287.926 576.927 287.656C576.961 287.469 576.923 287.313 576.813 287.186C576.703 287.059 576.547 286.957 576.343 286.881C576.149 286.796 575.929 286.716 575.683 286.64C575.446 286.564 575.209 286.475 574.972 286.373C574.735 286.272 574.523 286.153 574.337 286.018C574.151 285.882 574.011 285.696 573.918 285.459C573.825 285.214 573.808 284.93 573.867 284.608C573.961 284.092 574.231 283.673 574.68 283.351C575.137 283.021 575.67 282.856 576.28 282.856C577.363 282.856 578.1 283.296 578.489 284.177L577.511 284.684C577.342 284.151 576.915 283.885 576.229 283.885C575.933 283.885 575.662 283.957 575.416 284.1C575.171 284.236 575.023 284.443 574.972 284.723C574.93 284.976 575.014 285.18 575.226 285.332C575.446 285.484 575.721 285.611 576.051 285.713C576.39 285.814 576.724 285.929 577.054 286.056C577.385 286.183 577.647 286.39 577.842 286.678C578.036 286.966 578.096 287.334 578.019 287.783C577.918 288.341 577.638 288.773 577.181 289.078C576.724 289.382 576.149 289.535 575.455 289.535Z" fill="#D85F5F"/>
<path d="M229.327 142.185C230.199 142.185 230.881 142.481 231.371 143.074C231.871 143.658 232.04 144.386 231.879 145.257C231.719 146.138 231.316 146.845 230.673 147.378C230.038 147.903 229.26 148.165 228.337 148.165C227.457 148.165 226.771 147.873 226.28 147.289C225.789 146.696 225.624 145.96 225.785 145.08C225.929 144.301 226.259 143.666 226.775 143.175L230.203 139.112H231.625L229.01 142.198C229.078 142.189 229.183 142.185 229.327 142.185ZM230.711 145.169C230.804 144.61 230.711 144.161 230.432 143.823C230.153 143.484 229.729 143.315 229.162 143.315C228.587 143.315 228.1 143.484 227.702 143.823C227.304 144.153 227.059 144.601 226.966 145.169C226.864 145.736 226.953 146.189 227.232 146.527C227.512 146.866 227.935 147.035 228.502 147.035C229.069 147.035 229.552 146.866 229.949 146.527C230.356 146.189 230.61 145.736 230.711 145.169ZM237.797 148L236.807 139.112H237.975L238.737 146.451L242.19 139.112H243.384L244.26 146.451L247.612 139.112H248.869L244.755 148H243.384L242.52 140.902L239.168 148H237.797ZM251.706 141.486C252.662 141.486 253.394 141.817 253.902 142.477C254.419 143.129 254.588 143.916 254.41 144.838C254.393 144.974 254.351 145.139 254.283 145.334H248.976C248.976 145.901 249.149 146.341 249.497 146.654C249.852 146.967 250.322 147.124 250.906 147.124C251.761 147.124 252.434 146.811 252.925 146.184L253.75 146.781C253.428 147.221 253.001 147.564 252.468 147.81C251.943 148.047 251.38 148.165 250.779 148.165C249.78 148.165 249.014 147.831 248.481 147.162C247.948 146.493 247.766 145.672 247.935 144.699C248.096 143.776 248.532 143.01 249.243 142.401C249.954 141.791 250.775 141.486 251.706 141.486ZM249.141 144.356H253.369C253.394 143.755 253.246 143.302 252.925 142.997C252.603 142.684 252.176 142.528 251.642 142.528C251.05 142.528 250.529 142.693 250.081 143.023C249.64 143.344 249.327 143.789 249.141 144.356ZM259.108 141.486C260.065 141.486 260.797 141.817 261.305 142.477C261.821 143.129 261.99 143.916 261.813 144.838C261.796 144.974 261.753 145.139 261.686 145.334H256.378C256.378 145.901 256.552 146.341 256.899 146.654C257.254 146.967 257.724 147.124 258.308 147.124C259.163 147.124 259.836 146.811 260.327 146.184L261.152 146.781C260.831 147.221 260.403 147.564 259.87 147.81C259.345 148.047 258.782 148.165 258.181 148.165C257.183 148.165 256.416 147.831 255.883 147.162C255.35 146.493 255.168 145.672 255.337 144.699C255.498 143.776 255.934 143.01 256.645 142.401C257.356 141.791 258.177 141.486 259.108 141.486ZM256.543 144.356H260.772C260.797 143.755 260.649 143.302 260.327 142.997C260.005 142.684 259.578 142.528 259.045 142.528C258.452 142.528 257.932 142.693 257.483 143.023C257.043 143.344 256.73 143.789 256.543 144.356ZM268.872 141.652L265.291 144.724L267.869 148H266.599L264.174 144.877L263.628 148H262.523L264.085 139.112H265.19L264.263 144.407L267.45 141.652H268.872ZM270.737 148.165C270.11 148.165 269.594 148.03 269.188 147.759C268.79 147.479 268.515 147.103 268.362 146.629L269.353 146.121C269.42 146.417 269.581 146.658 269.835 146.845C270.098 147.031 270.428 147.124 270.826 147.124C271.198 147.124 271.507 147.052 271.752 146.908C272.006 146.764 272.159 146.557 272.21 146.286C272.243 146.1 272.205 145.943 272.095 145.816C271.985 145.689 271.829 145.588 271.625 145.511C271.431 145.427 271.211 145.346 270.965 145.27C270.728 145.194 270.491 145.105 270.254 145.004C270.017 144.902 269.806 144.783 269.619 144.648C269.433 144.513 269.293 144.326 269.2 144.089C269.107 143.844 269.09 143.56 269.15 143.239C269.243 142.722 269.514 142.303 269.962 141.982C270.419 141.652 270.953 141.486 271.562 141.486C272.645 141.486 273.382 141.927 273.771 142.807L272.794 143.315C272.624 142.782 272.197 142.515 271.511 142.515C271.215 142.515 270.944 142.587 270.699 142.731C270.453 142.866 270.305 143.074 270.254 143.353C270.212 143.607 270.297 143.81 270.508 143.962C270.728 144.115 271.003 144.242 271.333 144.343C271.672 144.445 272.006 144.559 272.337 144.686C272.667 144.813 272.929 145.02 273.124 145.308C273.318 145.596 273.378 145.964 273.301 146.413C273.2 146.972 272.921 147.403 272.463 147.708C272.006 148.013 271.431 148.165 270.737 148.165Z" fill="#D85F5F"/>
<path d="M428.64 145.207L428.462 146.311H427.37L427.078 148H425.897L426.19 146.311H421.669L421.847 145.207L426.088 139.112H427.421L423.18 145.207H426.38L426.824 142.693H428.005L427.561 145.207H428.64ZM442.343 139.112L440.781 148H439.613L440.832 141.093L437.087 145.892H436.934L434.877 140.979L433.646 148H432.465L434.027 139.112H435.322L437.277 143.861L440.959 139.112H442.343ZM445.628 148.165C444.688 148.165 443.935 147.839 443.368 147.187C442.8 146.536 442.606 145.71 442.784 144.711C442.961 143.73 443.427 142.947 444.18 142.363C444.934 141.779 445.772 141.486 446.694 141.486C447.6 141.486 448.328 141.812 448.878 142.464C449.428 143.116 449.619 143.933 449.449 144.915C449.28 145.913 448.827 146.705 448.091 147.289C447.354 147.873 446.533 148.165 445.628 148.165ZM445.717 147.086C446.334 147.086 446.897 146.883 447.405 146.476C447.922 146.07 448.239 145.511 448.357 144.8C448.476 144.115 448.349 143.573 447.977 143.175C447.613 142.769 447.126 142.566 446.516 142.566C445.915 142.574 445.361 142.777 444.853 143.175C444.345 143.573 444.024 144.123 443.888 144.826C443.77 145.537 443.892 146.095 444.256 146.502C444.629 146.9 445.116 147.094 445.717 147.086ZM454.459 141.486C455.204 141.486 455.767 141.723 456.148 142.198C456.537 142.672 456.664 143.306 456.528 144.102L455.843 148H454.738L455.411 144.166C455.504 143.641 455.441 143.239 455.221 142.959C455.001 142.68 454.637 142.54 454.129 142.54C453.587 142.54 453.113 142.714 452.707 143.061C452.3 143.399 452.038 143.924 451.919 144.635V144.623L451.323 148H450.218L451.335 141.652H452.44L452.288 142.49C452.838 141.821 453.562 141.486 454.459 141.486ZM460.089 142.718L459.48 146.159C459.421 146.464 459.446 146.684 459.556 146.819C459.666 146.955 459.844 147.027 460.089 147.035C460.343 147.035 460.656 147.027 461.029 147.01L460.851 148C459.912 148.127 459.23 148.047 458.807 147.759C458.384 147.462 458.24 146.929 458.375 146.159L458.972 142.718H457.715L457.918 141.652H459.162L459.416 140.204L460.585 139.874L460.267 141.652H461.968L461.778 142.718H460.089ZM466.399 141.486C467.144 141.486 467.707 141.723 468.088 142.198C468.477 142.672 468.604 143.306 468.469 144.102L467.783 148H466.679L467.352 144.166C467.445 143.641 467.381 143.239 467.161 142.959C466.941 142.68 466.577 142.54 466.069 142.54C465.528 142.54 465.054 142.714 464.647 143.061C464.241 143.399 463.979 143.924 463.86 144.635V144.623L463.263 148H462.159L463.72 139.112H464.825L464.228 142.49C464.778 141.821 465.502 141.486 466.399 141.486ZM471.649 148.165C471.023 148.165 470.506 148.03 470.1 147.759C469.702 147.479 469.427 147.103 469.275 146.629L470.265 146.121C470.333 146.417 470.494 146.658 470.747 146.845C471.01 147.031 471.34 147.124 471.738 147.124C472.11 147.124 472.419 147.052 472.665 146.908C472.919 146.764 473.071 146.557 473.122 146.286C473.156 146.1 473.118 145.943 473.008 145.816C472.898 145.689 472.741 145.588 472.538 145.511C472.343 145.427 472.123 145.346 471.878 145.27C471.641 145.194 471.404 145.105 471.166 145.004C470.929 144.902 470.718 144.783 470.532 144.648C470.345 144.513 470.206 144.326 470.113 144.089C470.02 143.844 470.003 143.56 470.062 143.239C470.155 142.722 470.426 142.303 470.874 141.982C471.332 141.652 471.865 141.486 472.474 141.486C473.558 141.486 474.294 141.927 474.684 142.807L473.706 143.315C473.537 142.782 473.109 142.515 472.423 142.515C472.127 142.515 471.856 142.587 471.611 142.731C471.365 142.866 471.217 143.074 471.166 143.353C471.124 143.607 471.209 143.81 471.42 143.962C471.641 144.115 471.916 144.242 472.246 144.343C472.584 144.445 472.919 144.559 473.249 144.686C473.579 144.813 473.841 145.02 474.036 145.308C474.231 145.596 474.29 145.964 474.214 146.413C474.112 146.972 473.833 147.403 473.376 147.708C472.919 148.013 472.343 148.165 471.649 148.165Z" fill="#D85F5F"/>
<path d="M235.684 242.115C234.693 242.115 233.86 241.896 233.184 241.458C232.508 241.01 232.032 240.406 231.755 239.644L233.441 238.658C233.831 239.677 234.598 240.187 235.741 240.187C236.293 240.187 236.698 240.087 236.955 239.887C237.212 239.687 237.341 239.434 237.341 239.13C237.341 238.777 237.183 238.506 236.869 238.315C236.555 238.115 235.993 237.901 235.184 237.673C234.736 237.539 234.355 237.406 234.041 237.273C233.736 237.139 233.427 236.963 233.112 236.744C232.808 236.516 232.574 236.23 232.413 235.887C232.251 235.544 232.17 235.144 232.17 234.687C232.17 233.783 232.489 233.064 233.127 232.53C233.774 231.988 234.55 231.716 235.455 231.716C236.264 231.716 236.974 231.916 237.583 232.316C238.202 232.707 238.683 233.254 239.026 233.959L237.369 234.916C236.969 234.059 236.331 233.63 235.455 233.63C235.046 233.63 234.722 233.726 234.484 233.916C234.255 234.097 234.141 234.335 234.141 234.63C234.141 234.944 234.269 235.202 234.527 235.402C234.793 235.592 235.298 235.801 236.041 236.03C236.345 236.125 236.574 236.201 236.726 236.259C236.888 236.306 237.102 236.387 237.369 236.501C237.645 236.606 237.855 236.706 237.998 236.801C238.15 236.897 238.321 237.025 238.512 237.187C238.702 237.349 238.845 237.516 238.94 237.687C239.045 237.858 239.131 238.068 239.197 238.315C239.274 238.554 239.312 238.815 239.312 239.101C239.312 240.025 238.974 240.758 238.298 241.301C237.631 241.844 236.76 242.115 235.684 242.115ZM244.107 242.115C243.031 242.115 242.131 241.753 241.407 241.029C240.693 240.306 240.336 239.411 240.336 238.344C240.336 237.277 240.693 236.382 241.407 235.659C242.131 234.935 243.031 234.573 244.107 234.573C244.802 234.573 245.435 234.74 246.006 235.073C246.578 235.406 247.011 235.854 247.306 236.416L245.721 237.344C245.578 237.049 245.359 236.816 245.064 236.644C244.778 236.473 244.454 236.387 244.092 236.387C243.54 236.387 243.083 236.573 242.721 236.944C242.359 237.306 242.178 237.773 242.178 238.344C242.178 238.906 242.359 239.372 242.721 239.744C243.083 240.106 243.54 240.287 244.092 240.287C244.464 240.287 244.792 240.206 245.078 240.044C245.373 239.872 245.592 239.639 245.735 239.344L247.335 240.258C247.021 240.82 246.578 241.272 246.006 241.615C245.435 241.948 244.802 242.115 244.107 242.115ZM250.208 236.001C250.379 235.544 250.66 235.202 251.051 234.973C251.451 234.744 251.893 234.63 252.379 234.63V236.687C251.817 236.62 251.312 236.735 250.865 237.03C250.427 237.325 250.208 237.816 250.208 238.501V241.915H248.365V234.773H250.208V236.001ZM254.371 233.916C254.066 233.916 253.799 233.806 253.571 233.587C253.352 233.359 253.242 233.092 253.242 232.788C253.242 232.483 253.352 232.216 253.571 231.988C253.799 231.759 254.066 231.645 254.371 231.645C254.685 231.645 254.952 231.759 255.171 231.988C255.399 232.216 255.514 232.483 255.514 232.788C255.514 233.092 255.399 233.359 255.171 233.587C254.952 233.806 254.685 233.916 254.371 233.916ZM253.457 241.915V234.773H255.299V241.915H253.457ZM261.142 234.573C262.104 234.573 262.923 234.94 263.599 235.673C264.285 236.397 264.628 237.287 264.628 238.344C264.628 239.401 264.285 240.296 263.599 241.029C262.923 241.753 262.104 242.115 261.142 242.115C260.143 242.115 259.371 241.767 258.828 241.072V241.915H256.986V231.916H258.828V235.616C259.371 234.921 260.143 234.573 261.142 234.573ZM259.386 239.801C259.757 240.172 260.228 240.358 260.8 240.358C261.371 240.358 261.842 240.172 262.214 239.801C262.595 239.42 262.785 238.934 262.785 238.344C262.785 237.754 262.595 237.273 262.214 236.901C261.842 236.52 261.371 236.33 260.8 236.33C260.228 236.33 259.757 236.52 259.386 236.901C259.014 237.273 258.828 237.754 258.828 238.344C258.828 238.934 259.014 239.42 259.386 239.801ZM267.484 239.101C267.732 239.996 268.403 240.444 269.498 240.444C270.203 240.444 270.736 240.206 271.098 239.73L272.584 240.587C271.879 241.606 270.841 242.115 269.47 242.115C268.289 242.115 267.341 241.758 266.627 241.044C265.913 240.33 265.556 239.43 265.556 238.344C265.556 237.268 265.908 236.373 266.613 235.659C267.318 234.935 268.222 234.573 269.327 234.573C270.374 234.573 271.236 234.935 271.912 235.659C272.598 236.382 272.941 237.277 272.941 238.344C272.941 238.582 272.917 238.834 272.869 239.101H267.484ZM267.456 237.673H271.098C270.993 237.187 270.774 236.825 270.441 236.587C270.117 236.349 269.746 236.23 269.327 236.23C268.832 236.23 268.422 236.359 268.098 236.616C267.775 236.863 267.56 237.216 267.456 237.673Z" fill="#424242"/>
<path d="M332.435 196.157C330.931 196.157 329.688 195.658 328.707 194.658C327.726 193.658 327.236 192.425 327.236 190.958C327.236 189.482 327.726 188.249 328.707 187.259C329.688 186.259 330.931 185.759 332.435 185.759C333.34 185.759 334.173 185.973 334.935 186.401C335.706 186.82 336.306 187.392 336.735 188.116L335.035 189.101C334.787 188.654 334.435 188.306 333.978 188.058C333.521 187.801 333.007 187.673 332.435 187.673C331.464 187.673 330.678 187.978 330.078 188.587C329.488 189.196 329.193 189.987 329.193 190.958C329.193 191.92 329.488 192.706 330.078 193.315C330.678 193.924 331.464 194.229 332.435 194.229C333.007 194.229 333.521 194.105 333.978 193.858C334.445 193.601 334.797 193.253 335.035 192.815L336.735 193.801C336.306 194.524 335.711 195.1 334.949 195.529C334.187 195.948 333.349 196.157 332.435 196.157ZM343.987 195.072C343.254 195.796 342.358 196.157 341.301 196.157C340.244 196.157 339.349 195.796 338.616 195.072C337.892 194.339 337.53 193.444 337.53 192.387C337.53 191.329 337.892 190.439 338.616 189.715C339.349 188.982 340.244 188.616 341.301 188.616C342.358 188.616 343.254 188.982 343.987 189.715C344.72 190.439 345.087 191.329 345.087 192.387C345.087 193.444 344.72 194.339 343.987 195.072ZM339.916 193.801C340.287 194.172 340.749 194.358 341.301 194.358C341.854 194.358 342.316 194.172 342.687 193.801C343.058 193.429 343.244 192.958 343.244 192.387C343.244 191.815 343.058 191.344 342.687 190.972C342.316 190.601 341.854 190.415 341.301 190.415C340.749 190.415 340.287 190.601 339.916 190.972C339.554 191.344 339.373 191.815 339.373 192.387C339.373 192.958 339.554 193.429 339.916 193.801ZM351.797 185.959H353.639V195.958H351.797V195.115C351.254 195.81 350.483 196.157 349.483 196.157C348.521 196.157 347.697 195.796 347.012 195.072C346.335 194.339 345.997 193.444 345.997 192.387C345.997 191.329 346.335 190.439 347.012 189.715C347.697 188.982 348.521 188.616 349.483 188.616C350.483 188.616 351.254 188.963 351.797 189.658V185.959ZM348.397 193.843C348.778 194.215 349.254 194.401 349.825 194.401C350.397 194.401 350.868 194.215 351.24 193.843C351.611 193.463 351.797 192.977 351.797 192.387C351.797 191.796 351.611 191.315 351.24 190.944C350.868 190.563 350.397 190.372 349.825 190.372C349.254 190.372 348.778 190.563 348.397 190.944C348.026 191.315 347.84 191.796 347.84 192.387C347.84 192.977 348.026 193.463 348.397 193.843ZM356.239 187.958C355.934 187.958 355.667 187.849 355.439 187.63C355.22 187.401 355.11 187.135 355.11 186.83C355.11 186.525 355.22 186.259 355.439 186.03C355.667 185.802 355.934 185.687 356.239 185.687C356.553 185.687 356.82 185.802 357.039 186.03C357.267 186.259 357.381 186.525 357.381 186.83C357.381 187.135 357.267 187.401 357.039 187.63C356.82 187.849 356.553 187.958 356.239 187.958ZM355.324 195.958V188.815H357.167V195.958H355.324ZM362.825 188.616C363.605 188.616 364.248 188.877 364.753 189.401C365.267 189.925 365.524 190.649 365.524 191.572V195.958H363.682V191.801C363.682 191.325 363.553 190.963 363.296 190.715C363.039 190.458 362.696 190.33 362.268 190.33C361.791 190.33 361.41 190.477 361.125 190.772C360.839 191.068 360.696 191.51 360.696 192.101V195.958H358.854V188.815H360.696V189.615C361.144 188.949 361.853 188.616 362.825 188.616ZM372.568 188.815H374.368V195.615C374.368 196.719 374.002 197.562 373.268 198.143C372.545 198.724 371.669 199.014 370.64 199.014C369.869 199.014 369.188 198.867 368.597 198.571C368.017 198.276 367.569 197.843 367.255 197.272L368.826 196.372C369.188 197.038 369.812 197.372 370.697 197.372C371.278 197.372 371.735 197.219 372.069 196.915C372.402 196.61 372.568 196.177 372.568 195.615V194.843C372.026 195.567 371.264 195.929 370.283 195.929C369.274 195.929 368.426 195.577 367.74 194.872C367.064 194.158 366.726 193.291 366.726 192.272C366.726 191.263 367.069 190.401 367.755 189.687C368.44 188.973 369.283 188.616 370.283 188.616C371.264 188.616 372.026 188.977 372.568 189.701V188.815ZM369.126 193.686C369.507 194.048 369.988 194.229 370.569 194.229C371.15 194.229 371.626 194.048 371.997 193.686C372.378 193.315 372.568 192.844 372.568 192.272C372.568 191.71 372.378 191.249 371.997 190.887C371.626 190.515 371.15 190.33 370.569 190.33C369.988 190.33 369.507 190.515 369.126 190.887C368.755 191.249 368.569 191.71 368.569 192.272C368.569 192.844 368.755 193.315 369.126 193.686Z" fill="#424242"/>
<path d="M437.085 242.115C435.58 242.115 434.337 241.615 433.356 240.615C432.376 239.615 431.885 238.382 431.885 236.916C431.885 235.44 432.376 234.206 433.356 233.216C434.337 232.216 435.58 231.716 437.085 231.716C437.989 231.716 438.822 231.93 439.584 232.359C440.356 232.778 440.956 233.349 441.384 234.073L439.684 235.059C439.437 234.611 439.084 234.264 438.627 234.016C438.17 233.759 437.656 233.63 437.085 233.63C436.113 233.63 435.328 233.935 434.728 234.544C434.137 235.154 433.842 235.944 433.842 236.916C433.842 237.877 434.137 238.663 434.728 239.272C435.328 239.882 436.113 240.187 437.085 240.187C437.656 240.187 438.17 240.063 438.627 239.815C439.094 239.558 439.446 239.211 439.684 238.773L441.384 239.758C440.956 240.482 440.36 241.058 439.599 241.487C438.837 241.906 437.999 242.115 437.085 242.115ZM442.621 241.915V231.488H444.464V241.915H442.621ZM451.578 234.773H453.421V241.915H451.578V241.072C451.026 241.767 450.25 242.115 449.25 242.115C448.297 242.115 447.478 241.753 446.793 241.029C446.117 240.296 445.779 239.401 445.779 238.344C445.779 237.287 446.117 236.397 446.793 235.673C447.478 234.94 448.297 234.573 449.25 234.573C450.25 234.573 451.026 234.921 451.578 235.616V234.773ZM448.178 239.801C448.55 240.172 449.021 240.358 449.592 240.358C450.164 240.358 450.635 240.172 451.007 239.801C451.388 239.42 451.578 238.934 451.578 238.344C451.578 237.754 451.388 237.273 451.007 236.901C450.635 236.52 450.164 236.33 449.592 236.33C449.021 236.33 448.55 236.52 448.178 236.901C447.807 237.273 447.621 237.754 447.621 238.344C447.621 238.934 447.807 239.42 448.178 239.801ZM456.006 233.916C455.701 233.916 455.434 233.806 455.206 233.587C454.987 233.359 454.877 233.092 454.877 232.788C454.877 232.483 454.987 232.216 455.206 231.988C455.434 231.759 455.701 231.645 456.006 231.645C456.32 231.645 456.587 231.759 456.806 231.988C457.034 232.216 457.148 232.483 457.148 232.788C457.148 233.092 457.034 233.359 456.806 233.587C456.587 233.806 456.32 233.916 456.006 233.916ZM455.092 241.915V234.773H456.934V241.915H455.092ZM466.52 234.573C467.339 234.573 467.991 234.84 468.477 235.373C468.972 235.906 469.219 236.62 469.219 237.516V241.915H467.377V237.644C467.377 237.216 467.272 236.882 467.063 236.644C466.853 236.406 466.558 236.287 466.177 236.287C465.758 236.287 465.429 236.425 465.191 236.701C464.963 236.978 464.849 237.377 464.849 237.901V241.915H463.006V237.644C463.006 237.216 462.901 236.882 462.692 236.644C462.482 236.406 462.187 236.287 461.806 236.287C461.397 236.287 461.068 236.425 460.82 236.701C460.582 236.978 460.463 237.377 460.463 237.901V241.915H458.621V234.773H460.463V235.53C460.892 234.892 461.554 234.573 462.449 234.573C463.325 234.573 463.972 234.916 464.391 235.601C464.868 234.916 465.577 234.573 466.52 234.573Z" fill="#424242"/>
<path d="M525.157 185.959C526.119 185.959 526.929 186.282 527.586 186.93C528.243 187.578 528.571 188.373 528.571 189.315C528.571 190.258 528.243 191.053 527.586 191.701C526.929 192.348 526.119 192.672 525.157 192.672H523.401V195.958H521.429V185.959H525.157ZM525.157 190.83C525.576 190.83 525.924 190.687 526.2 190.401C526.476 190.106 526.614 189.744 526.614 189.315C526.614 188.877 526.476 188.516 526.2 188.23C525.924 187.944 525.576 187.801 525.157 187.801H523.401V190.83H525.157ZM534.723 188.815H536.565V195.958H534.723V195.115C534.17 195.81 533.394 196.157 532.394 196.157C531.442 196.157 530.623 195.796 529.937 195.072C529.261 194.339 528.923 193.444 528.923 192.387C528.923 191.329 529.261 190.439 529.937 189.715C530.623 188.982 531.442 188.616 532.394 188.616C533.394 188.616 534.17 188.963 534.723 189.658V188.815ZM531.323 193.843C531.694 194.215 532.166 194.401 532.737 194.401C533.309 194.401 533.78 194.215 534.151 193.843C534.532 193.463 534.723 192.977 534.723 192.387C534.723 191.796 534.532 191.315 534.151 190.944C533.78 190.563 533.309 190.372 532.737 190.372C532.166 190.372 531.694 190.563 531.323 190.944C530.952 191.315 530.766 191.796 530.766 192.387C530.766 192.977 530.952 193.463 531.323 193.843ZM542.893 188.815H544.864L542.264 195.958C541.893 196.986 541.398 197.729 540.779 198.186C540.169 198.652 539.407 198.862 538.493 198.814V197.1C538.988 197.11 539.379 197.005 539.665 196.786C539.96 196.567 540.193 196.215 540.364 195.729L537.436 188.815H539.45L541.307 193.615L542.893 188.815ZM553.64 188.616C554.459 188.616 555.111 188.882 555.597 189.415C556.092 189.949 556.34 190.663 556.34 191.558V195.958H554.497V191.687C554.497 191.258 554.392 190.925 554.183 190.687C553.973 190.449 553.678 190.33 553.297 190.33C552.878 190.33 552.55 190.468 552.312 190.744C552.083 191.02 551.969 191.42 551.969 191.944V195.958H550.126V191.687C550.126 191.258 550.021 190.925 549.812 190.687C549.602 190.449 549.307 190.33 548.926 190.33C548.517 190.33 548.188 190.468 547.941 190.744C547.703 191.02 547.584 191.42 547.584 191.944V195.958H545.741V188.815H547.584V189.573C548.012 188.935 548.674 188.616 549.569 188.616C550.445 188.616 551.093 188.958 551.512 189.644C551.988 188.958 552.697 188.616 553.64 188.616ZM559.462 193.144C559.709 194.039 560.381 194.486 561.476 194.486C562.18 194.486 562.714 194.248 563.075 193.772L564.561 194.629C563.856 195.648 562.818 196.157 561.447 196.157C560.266 196.157 559.319 195.8 558.605 195.086C557.89 194.372 557.533 193.472 557.533 192.387C557.533 191.31 557.886 190.415 558.59 189.701C559.295 188.977 560.2 188.616 561.304 188.616C562.352 188.616 563.214 188.977 563.89 189.701C564.575 190.425 564.918 191.32 564.918 192.387C564.918 192.625 564.894 192.877 564.847 193.144H559.462ZM559.433 191.715H563.075C562.971 191.23 562.752 190.868 562.418 190.63C562.095 190.392 561.723 190.272 561.304 190.272C560.809 190.272 560.4 190.401 560.076 190.658C559.752 190.906 559.538 191.258 559.433 191.715ZM570.175 188.616C570.956 188.616 571.599 188.877 572.104 189.401C572.618 189.925 572.875 190.649 572.875 191.572V195.958H571.032V191.801C571.032 191.325 570.904 190.963 570.647 190.715C570.39 190.458 570.047 190.33 569.618 190.33C569.142 190.33 568.761 190.477 568.476 190.772C568.19 191.068 568.047 191.51 568.047 192.101V195.958H566.204V188.815H568.047V189.615C568.495 188.949 569.204 188.616 570.175 188.616ZM578.534 190.587H576.92V193.558C576.92 193.805 576.981 193.986 577.105 194.101C577.229 194.215 577.41 194.282 577.648 194.301C577.886 194.31 578.181 194.305 578.534 194.286V195.958C577.267 196.1 576.372 195.981 575.848 195.6C575.334 195.22 575.077 194.539 575.077 193.558V190.587H573.834V188.815H575.077V187.373L576.92 186.816V188.815H578.534V190.587Z" fill="#424242"/>
<path d="M152.436 261.715C150.964 261.715 149.771 262.908 149.771 264.38C149.771 265.851 150.964 267.044 152.436 267.044C153.907 267.044 155.1 265.851 155.1 264.38C155.1 262.908 153.907 261.715 152.436 261.715ZM151.936 219.921L151.936 264.38L152.935 264.38L152.935 219.921L151.936 219.921Z" fill="#8FA486"/>
<path d="M350.253 261.715C348.782 261.715 347.589 262.908 347.589 264.38C347.589 265.851 348.782 267.044 350.253 267.044C351.724 267.044 352.917 265.851 352.917 264.38C352.917 262.908 351.724 261.715 350.253 261.715ZM349.753 219.921L349.753 264.38L350.752 264.38L350.752 219.921L349.753 219.921Z" fill="#8FA486"/>
<path d="M548.07 261.715C546.599 261.715 545.406 262.908 545.406 264.38C545.406 265.851 546.599 267.044 548.07 267.044C549.542 267.044 550.735 265.851 550.735 264.38C550.735 262.908 549.542 261.715 548.07 261.715ZM547.571 219.921L547.571 264.38L548.57 264.38L548.57 219.921L547.571 219.921Z" fill="#8FA486"/>
<path d="M251.344 165.138C249.872 165.138 248.68 163.945 248.68 162.474C248.68 161.002 249.872 159.809 251.344 159.809C252.815 159.809 254.008 161.002 254.008 162.474C254.008 163.945 252.815 165.138 251.344 165.138ZM250.844 206.933L250.844 162.474L251.843 162.474L251.843 206.933L250.844 206.933Z" fill="#8FA486"/>
<path d="M449.162 165.138C447.69 165.138 446.497 163.945 446.497 162.474C446.497 161.002 447.69 159.809 449.162 159.809C450.633 159.809 451.826 161.002 451.826 162.474C451.826 163.945 450.633 165.138 449.162 165.138ZM448.662 206.933L448.662 162.474L449.661 162.474L449.661 206.933L448.662 206.933Z" fill="#8FA486"/>
<path d="M53.338 378V366.444H49.558V365.4H58.378V366.444H54.598V378H53.338ZM60.3716 378V368.982H61.6316V378H60.3716ZM61.0196 366.84C60.7556 366.84 60.5336 366.75 60.3536 366.57C60.1856 366.39 60.1016 366.168 60.1016 365.904C60.1016 365.628 60.1856 365.406 60.3536 365.238C60.5336 365.07 60.7496 364.986 61.0016 364.986C61.2536 364.986 61.4696 365.07 61.6496 365.238C61.8296 365.406 61.9196 365.628 61.9196 365.904C61.9196 366.168 61.8296 366.39 61.6496 366.57C61.4816 366.75 61.2716 366.84 61.0196 366.84ZM64.3757 378V368.982H65.5097L65.6177 370.35C65.8937 369.846 66.2717 369.456 66.7517 369.18C67.2437 368.904 67.7897 368.766 68.3897 368.766C68.8457 368.766 69.2657 368.832 69.6497 368.964C70.0457 369.096 70.3877 369.294 70.6757 369.558C70.9637 369.822 71.1977 370.164 71.3777 370.584C71.6777 370.02 72.0977 369.576 72.6377 369.252C73.1897 368.928 73.7777 368.766 74.4017 368.766C75.0977 368.766 75.7037 368.904 76.2197 369.18C76.7357 369.456 77.1377 369.876 77.4257 370.44C77.7137 371.004 77.8577 371.73 77.8577 372.618V378H76.6157V372.744C76.6157 371.772 76.4177 371.052 76.0217 370.584C75.6257 370.104 75.0677 369.864 74.3477 369.864C73.8557 369.864 73.4117 369.996 73.0157 370.26C72.6197 370.524 72.3077 370.902 72.0797 371.394C71.8517 371.886 71.7377 372.498 71.7377 373.23V378H70.4777V372.744C70.4777 371.772 70.2797 371.052 69.8837 370.584C69.4997 370.104 68.9537 369.864 68.2457 369.864C67.7417 369.864 67.2917 369.996 66.8957 370.26C66.4997 370.524 66.1877 370.908 65.9597 371.412C65.7437 371.904 65.6357 372.516 65.6357 373.248V378H64.3757ZM84.084 378.216C83.244 378.216 82.5 378.018 81.852 377.622C81.216 377.226 80.712 376.674 80.34 375.966C79.968 375.258 79.782 374.43 79.782 373.482C79.782 372.522 79.962 371.694 80.322 370.998C80.694 370.29 81.21 369.744 81.87 369.36C82.53 368.964 83.28 368.766 84.12 368.766C84.996 368.766 85.74 368.964 86.352 369.36C86.964 369.756 87.426 370.272 87.738 370.908C88.062 371.532 88.224 372.216 88.224 372.96C88.224 373.08 88.224 373.206 88.224 373.338C88.224 373.458 88.218 373.602 88.206 373.77H80.754V372.708H87C86.964 371.796 86.67 371.094 86.118 370.602C85.578 370.098 84.894 369.846 84.066 369.846C83.538 369.846 83.04 369.972 82.572 370.224C82.104 370.464 81.726 370.818 81.438 371.286C81.15 371.754 81.006 372.342 81.006 373.05V373.518C81.006 374.334 81.156 375.012 81.456 375.552C81.756 376.08 82.14 376.476 82.608 376.74C83.076 377.004 83.568 377.136 84.084 377.136C84.768 377.136 85.332 376.986 85.776 376.686C86.232 376.374 86.556 375.942 86.748 375.39H87.972C87.828 375.93 87.582 376.416 87.234 376.848C86.886 377.268 86.448 377.604 85.92 377.856C85.404 378.096 84.792 378.216 84.084 378.216ZM98.6273 378C98.1113 378 97.6673 377.922 97.2953 377.766C96.9233 377.598 96.6353 377.328 96.4313 376.956C96.2393 376.572 96.1433 376.05 96.1433 375.39V370.062H94.5773V368.982H96.1433L96.3233 366.894H97.4033V369H100.121V370.062H97.4033V375.39C97.4033 375.99 97.5233 376.398 97.7633 376.614C98.0153 376.818 98.4413 376.92 99.0413 376.92H99.9593V378H98.6273ZM105.866 378.216C105.038 378.216 104.288 378.024 103.616 377.64C102.956 377.256 102.428 376.71 102.032 376.002C101.648 375.282 101.456 374.448 101.456 373.5C101.456 372.528 101.654 371.694 102.05 370.998C102.446 370.29 102.98 369.744 103.652 369.36C104.324 368.964 105.074 368.766 105.902 368.766C106.754 368.766 107.51 368.964 108.17 369.36C108.83 369.744 109.352 370.29 109.736 370.998C110.12 371.694 110.312 372.528 110.312 373.5C110.312 374.448 110.114 375.282 109.718 376.002C109.334 376.71 108.806 377.256 108.134 377.64C107.474 378.024 106.718 378.216 105.866 378.216ZM105.866 377.136C106.43 377.136 106.946 377.004 107.414 376.74C107.894 376.464 108.278 376.056 108.566 375.516C108.866 374.964 109.016 374.292 109.016 373.5C109.016 372.684 108.872 372.012 108.584 371.484C108.296 370.944 107.912 370.542 107.432 370.278C106.964 370.002 106.454 369.864 105.902 369.864C105.362 369.864 104.852 370.002 104.372 370.278C103.892 370.542 103.502 370.944 103.202 371.484C102.902 372.012 102.752 372.684 102.752 373.5C102.752 374.292 102.896 374.958 103.184 375.498C103.484 376.038 103.868 376.446 104.336 376.722C104.816 376.998 105.326 377.136 105.866 377.136ZM120.774 378.216C120.066 378.216 119.436 378.096 118.884 377.856C118.344 377.616 117.906 377.274 117.57 376.83C117.234 376.386 117.024 375.846 116.94 375.21H118.254C118.326 375.558 118.464 375.876 118.668 376.164C118.884 376.44 119.172 376.668 119.532 376.848C119.892 377.016 120.318 377.1 120.81 377.1C121.266 377.1 121.638 377.034 121.926 376.902C122.214 376.77 122.43 376.59 122.574 376.362C122.73 376.122 122.808 375.864 122.808 375.588C122.808 375.192 122.712 374.886 122.52 374.67C122.34 374.454 122.076 374.292 121.728 374.184C121.38 374.076 120.96 373.974 120.468 373.878C120.084 373.806 119.706 373.716 119.334 373.608C118.974 373.488 118.644 373.332 118.344 373.14C118.044 372.948 117.81 372.708 117.642 372.42C117.474 372.12 117.39 371.772 117.39 371.376C117.39 370.86 117.516 370.41 117.768 370.026C118.02 369.63 118.38 369.324 118.848 369.108C119.328 368.88 119.892 368.766 120.54 368.766C121.452 368.766 122.202 369 122.79 369.468C123.39 369.924 123.738 370.596 123.834 371.484H122.574C122.526 370.992 122.322 370.602 121.962 370.314C121.602 370.026 121.116 369.882 120.504 369.882C119.916 369.882 119.46 370.008 119.136 370.26C118.824 370.5 118.668 370.83 118.668 371.25C118.668 371.514 118.752 371.742 118.92 371.934C119.1 372.114 119.352 372.276 119.676 372.42C120.012 372.552 120.414 372.666 120.882 372.762C121.434 372.87 121.95 373.014 122.43 373.194C122.922 373.362 123.324 373.62 123.636 373.968C123.948 374.316 124.104 374.814 124.104 375.462C124.116 376.002 123.984 376.482 123.708 376.902C123.444 377.31 123.06 377.634 122.556 377.874C122.052 378.102 121.458 378.216 120.774 378.216ZM129.614 378.216C128.93 378.216 128.324 378.078 127.796 377.802C127.28 377.526 126.878 377.112 126.59 376.56C126.302 375.996 126.158 375.27 126.158 374.382V368.982H127.418V374.238C127.418 375.222 127.628 375.948 128.048 376.416C128.468 376.884 129.062 377.118 129.83 377.118C130.37 377.118 130.85 376.992 131.27 376.74C131.702 376.476 132.038 376.098 132.278 375.606C132.53 375.102 132.656 374.484 132.656 373.752V368.982H133.916V378H132.764L132.692 376.38C132.404 376.956 131.984 377.406 131.432 377.73C130.892 378.054 130.286 378.216 129.614 378.216ZM141.107 378.216C140.591 378.216 140.111 378.138 139.667 377.982C139.235 377.826 138.857 377.61 138.533 377.334C138.209 377.058 137.951 376.74 137.759 376.38L137.633 378H136.499V365.04H137.759V370.602C138.047 370.098 138.473 369.666 139.037 369.306C139.601 368.946 140.297 368.766 141.125 368.766C142.013 368.766 142.787 368.976 143.447 369.396C144.107 369.804 144.617 370.368 144.977 371.088C145.337 371.796 145.517 372.6 145.517 373.5C145.517 374.412 145.331 375.222 144.959 375.93C144.599 376.638 144.089 377.196 143.429 377.604C142.781 378.012 142.007 378.216 141.107 378.216ZM141.035 377.118C141.671 377.118 142.223 376.968 142.691 376.668C143.171 376.368 143.549 375.948 143.825 375.408C144.101 374.856 144.239 374.22 144.239 373.5C144.239 372.768 144.101 372.132 143.825 371.592C143.549 371.04 143.171 370.614 142.691 370.314C142.223 370.014 141.671 369.864 141.035 369.864C140.411 369.864 139.853 370.014 139.361 370.314C138.881 370.614 138.503 371.04 138.227 371.592C137.963 372.132 137.831 372.768 137.831 373.5C137.831 374.232 137.963 374.868 138.227 375.408C138.503 375.948 138.881 376.368 139.361 376.668C139.853 376.968 140.411 377.118 141.035 377.118ZM147.661 378V368.982H148.795L148.903 370.35C149.179 369.846 149.557 369.456 150.037 369.18C150.529 368.904 151.075 368.766 151.675 368.766C152.131 368.766 152.551 368.832 152.935 368.964C153.331 369.096 153.673 369.294 153.961 369.558C154.249 369.822 154.483 370.164 154.663 370.584C154.963 370.02 155.383 369.576 155.923 369.252C156.475 368.928 157.063 368.766 157.687 368.766C158.383 368.766 158.989 368.904 159.505 369.18C160.021 369.456 160.423 369.876 160.711 370.44C160.999 371.004 161.143 371.73 161.143 372.618V378H159.901V372.744C159.901 371.772 159.703 371.052 159.307 370.584C158.911 370.104 158.353 369.864 157.633 369.864C157.141 369.864 156.697 369.996 156.301 370.26C155.905 370.524 155.593 370.902 155.365 371.394C155.137 371.886 155.023 372.498 155.023 373.23V378H153.763V372.744C153.763 371.772 153.565 371.052 153.169 370.584C152.785 370.104 152.239 369.864 151.531 369.864C151.027 369.864 150.577 369.996 150.181 370.26C149.785 370.524 149.473 370.908 149.245 371.412C149.029 371.904 148.921 372.516 148.921 373.248V378H147.661ZM163.643 378V368.982H164.903V378H163.643ZM164.291 366.84C164.027 366.84 163.805 366.75 163.625 366.57C163.457 366.39 163.373 366.168 163.373 365.904C163.373 365.628 163.457 365.406 163.625 365.238C163.805 365.07 164.021 364.986 164.273 364.986C164.525 364.986 164.741 365.07 164.921 365.238C165.101 365.406 165.191 365.628 165.191 365.904C165.191 366.168 165.101 366.39 164.921 366.57C164.753 366.75 164.543 366.84 164.291 366.84ZM171.049 378C170.533 378 170.089 377.922 169.717 377.766C169.345 377.598 169.057 377.328 168.853 376.956C168.661 376.572 168.565 376.05 168.565 375.39V370.062H166.999V368.982H168.565L168.745 366.894H169.825V369H172.543V370.062H169.825V375.39C169.825 375.99 169.945 376.398 170.185 376.614C170.437 376.818 170.863 376.92 171.463 376.92H172.381V378H171.049ZM183.491 378.216C182.663 378.216 181.913 378.018 181.241 377.622C180.581 377.226 180.053 376.674 179.657 375.966C179.273 375.258 179.081 374.436 179.081 373.5C179.081 372.54 179.273 371.712 179.657 371.016C180.053 370.308 180.581 369.756 181.241 369.36C181.913 368.964 182.663 368.766 183.491 368.766C184.547 368.766 185.423 369.042 186.119 369.594C186.827 370.134 187.277 370.854 187.469 371.754H186.191C186.059 371.142 185.747 370.674 185.255 370.35C184.763 370.026 184.175 369.864 183.491 369.864C182.939 369.864 182.429 370.002 181.961 370.278C181.493 370.542 181.109 370.944 180.809 371.484C180.521 372.012 180.377 372.684 180.377 373.5C180.377 374.112 180.461 374.646 180.629 375.102C180.809 375.546 181.043 375.924 181.331 376.236C181.631 376.548 181.967 376.782 182.339 376.938C182.711 377.082 183.095 377.154 183.491 377.154C183.935 377.154 184.343 377.082 184.715 376.938C185.099 376.782 185.417 376.566 185.669 376.29C185.933 376.002 186.107 375.654 186.191 375.246H187.469C187.289 376.122 186.839 376.836 186.119 377.388C185.411 377.94 184.535 378.216 183.491 378.216ZM189.637 378V365.04H190.897V378H189.637ZM196.368 378.216C195.636 378.216 195.024 378.09 194.532 377.838C194.04 377.574 193.674 377.232 193.434 376.812C193.194 376.38 193.074 375.918 193.074 375.426C193.074 374.802 193.236 374.274 193.56 373.842C193.884 373.41 194.334 373.086 194.91 372.87C195.498 372.654 196.176 372.546 196.944 372.546H199.392C199.392 371.97 199.302 371.484 199.122 371.088C198.942 370.68 198.678 370.374 198.33 370.17C197.982 369.954 197.544 369.846 197.016 369.846C196.392 369.846 195.858 370.008 195.414 370.332C194.97 370.644 194.694 371.1 194.586 371.7H193.254C193.326 371.064 193.548 370.53 193.92 370.098C194.292 369.654 194.748 369.324 195.288 369.108C195.84 368.88 196.416 368.766 197.016 368.766C197.844 368.766 198.522 368.928 199.05 369.252C199.59 369.564 199.992 369.996 200.256 370.548C200.52 371.088 200.652 371.724 200.652 372.456V378H199.5L199.428 376.362C199.32 376.602 199.17 376.836 198.978 377.064C198.798 377.292 198.582 377.496 198.33 377.676C198.09 377.844 197.808 377.976 197.484 378.072C197.16 378.168 196.788 378.216 196.368 378.216ZM196.494 377.1C196.95 377.1 197.352 377.01 197.7 376.83C198.06 376.65 198.366 376.41 198.618 376.11C198.87 375.81 199.062 375.474 199.194 375.102C199.326 374.718 199.392 374.328 199.392 373.932V373.608H197.034C196.386 373.608 195.87 373.692 195.486 373.86C195.102 374.016 194.82 374.226 194.64 374.49C194.472 374.742 194.388 375.042 194.388 375.39C194.388 375.726 194.466 376.026 194.622 376.29C194.79 376.542 195.03 376.74 195.342 376.884C195.666 377.028 196.05 377.1 196.494 377.1ZM203.176 378V368.982H204.436V378H203.176ZM203.824 366.84C203.56 366.84 203.338 366.75 203.158 366.57C202.99 366.39 202.906 366.168 202.906 365.904C202.906 365.628 202.99 365.406 203.158 365.238C203.338 365.07 203.554 364.986 203.806 364.986C204.058 364.986 204.274 365.07 204.454 365.238C204.634 365.406 204.724 365.628 204.724 365.904C204.724 366.168 204.634 366.39 204.454 366.57C204.286 366.75 204.076 366.84 203.824 366.84ZM207.18 378V368.982H208.314L208.422 370.35C208.698 369.846 209.076 369.456 209.556 369.18C210.048 368.904 210.594 368.766 211.194 368.766C211.65 368.766 212.07 368.832 212.454 368.964C212.85 369.096 213.192 369.294 213.48 369.558C213.768 369.822 214.002 370.164 214.182 370.584C214.482 370.02 214.902 369.576 215.442 369.252C215.994 368.928 216.582 368.766 217.206 368.766C217.902 368.766 218.508 368.904 219.024 369.18C219.54 369.456 219.942 369.876 220.23 370.44C220.518 371.004 220.662 371.73 220.662 372.618V378H219.42V372.744C219.42 371.772 219.222 371.052 218.826 370.584C218.43 370.104 217.872 369.864 217.152 369.864C216.66 369.864 216.216 369.996 215.82 370.26C215.424 370.524 215.112 370.902 214.884 371.394C214.656 371.886 214.542 372.498 214.542 373.23V378H213.282V372.744C213.282 371.772 213.084 371.052 212.688 370.584C212.304 370.104 211.758 369.864 211.05 369.864C210.546 369.864 210.096 369.996 209.7 370.26C209.304 370.524 208.992 370.908 208.764 371.412C208.548 371.904 208.44 372.516 208.44 373.248V378H207.18Z" fill="black"/>
<path d="M53.796 447L49.088 416.2H52.828L55.952 439.96L60.308 416.2H64.092L68.448 439.96L71.572 416.2H75.312L70.604 447H66.38L62.2 423.328L58.02 447H53.796ZM87.0428 447.528C84.9895 447.528 83.1708 447.059 81.5868 446.12C80.0321 445.152 78.8001 443.817 77.8908 442.116C76.9815 440.385 76.5268 438.376 76.5268 436.088C76.5268 433.8 76.9668 431.805 77.8468 430.104C78.7561 428.373 80.0028 427.039 81.5868 426.1C83.1708 425.132 85.0188 424.648 87.1308 424.648C89.2428 424.648 91.0468 425.132 92.5428 426.1C94.0388 427.039 95.1828 428.285 95.9748 429.84C96.7668 431.395 97.1628 433.067 97.1628 434.856C97.1628 435.179 97.1481 435.501 97.1188 435.824C97.1188 436.147 97.1188 436.513 97.1188 436.924H80.1788C80.2668 438.537 80.6335 439.887 81.2788 440.972C81.9535 442.028 82.7895 442.82 83.7868 443.348C84.8135 443.876 85.8988 444.14 87.0428 444.14C88.6561 444.14 89.9175 443.803 90.8268 443.128C91.7361 442.453 92.4255 441.515 92.8948 440.312H96.5468C96.0481 442.336 95.0068 444.052 93.4228 445.46C91.8388 446.839 89.7121 447.528 87.0428 447.528ZM87.0428 427.948C85.3415 427.948 83.8455 428.461 82.5548 429.488C81.2935 430.515 80.5161 431.952 80.2228 433.8H93.5108C93.3935 431.981 92.7335 430.559 91.5308 429.532C90.3575 428.476 88.8615 427.948 87.0428 427.948ZM111.666 447.528C109.612 447.528 107.794 447.059 106.21 446.12C104.655 445.152 103.423 443.817 102.514 442.116C101.604 440.385 101.15 438.376 101.15 436.088C101.15 433.8 101.59 431.805 102.47 430.104C103.379 428.373 104.626 427.039 106.21 426.1C107.794 425.132 109.642 424.648 111.754 424.648C113.866 424.648 115.67 425.132 117.166 426.1C118.662 427.039 119.806 428.285 120.598 429.84C121.39 431.395 121.786 433.067 121.786 434.856C121.786 435.179 121.771 435.501 121.742 435.824C121.742 436.147 121.742 436.513 121.742 436.924H104.802C104.89 438.537 105.256 439.887 105.902 440.972C106.576 442.028 107.412 442.82 108.41 443.348C109.436 443.876 110.522 444.14 111.666 444.14C113.279 444.14 114.54 443.803 115.45 443.128C116.359 442.453 117.048 441.515 117.518 440.312H121.17C120.671 442.336 119.63 444.052 118.046 445.46C116.462 446.839 114.335 447.528 111.666 447.528ZM111.666 427.948C109.964 427.948 108.468 428.461 107.178 429.488C105.916 430.515 105.139 431.952 104.846 433.8H118.134C118.016 431.981 117.356 430.559 116.154 429.532C114.98 428.476 113.484 427.948 111.666 427.948ZM127.752 447V415.32H131.448V434.416L140.556 425.176H145.264L135.54 434.9V435.164L146.452 447H141.876L131.448 435.648V447H127.752ZM160.911 447.528C158.125 447.528 155.866 446.883 154.135 445.592C152.434 444.272 151.481 442.468 151.275 440.18H155.103C155.279 441.383 155.866 442.365 156.863 443.128C157.89 443.891 159.269 444.272 160.999 444.272C162.642 444.272 163.859 443.92 164.651 443.216C165.473 442.512 165.883 441.705 165.883 440.796C165.883 439.564 165.399 438.728 164.431 438.288C163.463 437.819 162.011 437.467 160.075 437.232C157.758 436.968 155.837 436.337 154.311 435.34C152.786 434.343 152.023 432.847 152.023 430.852C152.023 429.063 152.771 427.581 154.267 426.408C155.763 425.235 157.802 424.648 160.383 424.648C162.935 424.648 164.945 425.235 166.411 426.408C167.878 427.552 168.714 429.195 168.919 431.336H165.267C165.179 430.28 164.666 429.444 163.727 428.828C162.818 428.183 161.674 427.86 160.295 427.86C158.858 427.86 157.743 428.139 156.951 428.696C156.159 429.224 155.763 429.928 155.763 430.808C155.763 431.688 156.203 432.421 157.083 433.008C157.993 433.565 159.415 433.932 161.351 434.108C162.877 434.284 164.27 434.577 165.531 434.988C166.793 435.399 167.79 436.044 168.523 436.924C169.286 437.804 169.667 439.036 169.667 440.62C169.697 441.94 169.33 443.128 168.567 444.184C167.834 445.211 166.807 446.032 165.487 446.648C164.167 447.235 162.642 447.528 160.911 447.528Z" fill="black"/>
<path d="M326.338 378V366.444H322.558V365.4H331.378V366.444H327.598V378H326.338ZM333.372 378V368.982H334.632V378H333.372ZM334.02 366.84C333.756 366.84 333.534 366.75 333.354 366.57C333.186 366.39 333.102 366.168 333.102 365.904C333.102 365.628 333.186 365.406 333.354 365.238C333.534 365.07 333.75 364.986 334.002 364.986C334.254 364.986 334.47 365.07 334.65 365.238C334.83 365.406 334.92 365.628 334.92 365.904C334.92 366.168 334.83 366.39 334.65 366.57C334.482 366.75 334.272 366.84 334.02 366.84ZM337.376 378V368.982H338.51L338.618 370.35C338.894 369.846 339.272 369.456 339.752 369.18C340.244 368.904 340.79 368.766 341.39 368.766C341.846 368.766 342.266 368.832 342.65 368.964C343.046 369.096 343.388 369.294 343.676 369.558C343.964 369.822 344.198 370.164 344.378 370.584C344.678 370.02 345.098 369.576 345.638 369.252C346.19 368.928 346.778 368.766 347.402 368.766C348.098 368.766 348.704 368.904 349.22 369.18C349.736 369.456 350.138 369.876 350.426 370.44C350.714 371.004 350.858 371.73 350.858 372.618V378H349.616V372.744C349.616 371.772 349.418 371.052 349.022 370.584C348.626 370.104 348.068 369.864 347.348 369.864C346.856 369.864 346.412 369.996 346.016 370.26C345.62 370.524 345.308 370.902 345.08 371.394C344.852 371.886 344.738 372.498 344.738 373.23V378H343.478V372.744C343.478 371.772 343.28 371.052 342.884 370.584C342.5 370.104 341.954 369.864 341.246 369.864C340.742 369.864 340.292 369.996 339.896 370.26C339.5 370.524 339.188 370.908 338.96 371.412C338.744 371.904 338.636 372.516 338.636 373.248V378H337.376ZM357.084 378.216C356.244 378.216 355.5 378.018 354.852 377.622C354.216 377.226 353.712 376.674 353.34 375.966C352.968 375.258 352.782 374.43 352.782 373.482C352.782 372.522 352.962 371.694 353.322 370.998C353.694 370.29 354.21 369.744 354.87 369.36C355.53 368.964 356.28 368.766 357.12 368.766C357.996 368.766 358.74 368.964 359.352 369.36C359.964 369.756 360.426 370.272 360.738 370.908C361.062 371.532 361.224 372.216 361.224 372.96C361.224 373.08 361.224 373.206 361.224 373.338C361.224 373.458 361.218 373.602 361.206 373.77H353.754V372.708H360C359.964 371.796 359.67 371.094 359.118 370.602C358.578 370.098 357.894 369.846 357.066 369.846C356.538 369.846 356.04 369.972 355.572 370.224C355.104 370.464 354.726 370.818 354.438 371.286C354.15 371.754 354.006 372.342 354.006 373.05V373.518C354.006 374.334 354.156 375.012 354.456 375.552C354.756 376.08 355.14 376.476 355.608 376.74C356.076 377.004 356.568 377.136 357.084 377.136C357.768 377.136 358.332 376.986 358.776 376.686C359.232 376.374 359.556 375.942 359.748 375.39H360.972C360.828 375.93 360.582 376.416 360.234 376.848C359.886 377.268 359.448 377.604 358.92 377.856C358.404 378.096 357.792 378.216 357.084 378.216ZM371.627 378C371.111 378 370.667 377.922 370.295 377.766C369.923 377.598 369.635 377.328 369.431 376.956C369.239 376.572 369.143 376.05 369.143 375.39V370.062H367.577V368.982H369.143L369.323 366.894H370.403V369H373.121V370.062H370.403V375.39C370.403 375.99 370.523 376.398 370.763 376.614C371.015 376.818 371.441 376.92 372.041 376.92H372.959V378H371.627ZM378.866 378.216C378.038 378.216 377.288 378.024 376.616 377.64C375.956 377.256 375.428 376.71 375.032 376.002C374.648 375.282 374.456 374.448 374.456 373.5C374.456 372.528 374.654 371.694 375.05 370.998C375.446 370.29 375.98 369.744 376.652 369.36C377.324 368.964 378.074 368.766 378.902 368.766C379.754 368.766 380.51 368.964 381.17 369.36C381.83 369.744 382.352 370.29 382.736 370.998C383.12 371.694 383.312 372.528 383.312 373.5C383.312 374.448 383.114 375.282 382.718 376.002C382.334 376.71 381.806 377.256 381.134 377.64C380.474 378.024 379.718 378.216 378.866 378.216ZM378.866 377.136C379.43 377.136 379.946 377.004 380.414 376.74C380.894 376.464 381.278 376.056 381.566 375.516C381.866 374.964 382.016 374.292 382.016 373.5C382.016 372.684 381.872 372.012 381.584 371.484C381.296 370.944 380.912 370.542 380.432 370.278C379.964 370.002 379.454 369.864 378.902 369.864C378.362 369.864 377.852 370.002 377.372 370.278C376.892 370.542 376.502 370.944 376.202 371.484C375.902 372.012 375.752 372.684 375.752 373.5C375.752 374.292 375.896 374.958 376.184 375.498C376.484 376.038 376.868 376.446 377.336 376.722C377.816 376.998 378.326 377.136 378.866 377.136ZM393.936 382.176C393.144 382.176 392.436 382.068 391.812 381.852C391.2 381.648 390.714 381.33 390.354 380.898C390.006 380.466 389.832 379.932 389.832 379.296C389.832 379.044 389.874 378.774 389.958 378.486C390.042 378.198 390.21 377.904 390.462 377.604C390.726 377.304 391.098 377.028 391.578 376.776L392.622 377.226C391.986 377.526 391.572 377.85 391.38 378.198C391.2 378.558 391.11 378.882 391.11 379.17C391.11 379.602 391.23 379.956 391.47 380.232C391.71 380.52 392.046 380.736 392.478 380.88C392.91 381.024 393.396 381.096 393.936 381.096C394.476 381.096 394.944 381.012 395.34 380.844C395.748 380.688 396.06 380.466 396.276 380.178C396.492 379.89 396.6 379.554 396.6 379.17C396.6 378.738 396.426 378.366 396.078 378.054C395.742 377.754 395.118 377.58 394.206 377.532C393.474 377.484 392.868 377.424 392.388 377.352C391.92 377.268 391.53 377.172 391.218 377.064C390.918 376.944 390.672 376.818 390.48 376.686C390.288 376.554 390.102 376.41 389.922 376.254V375.822L391.632 374.184L392.784 374.616L391.128 376.11L391.236 375.642C391.368 375.738 391.494 375.828 391.614 375.912C391.734 375.996 391.896 376.068 392.1 376.128C392.316 376.176 392.61 376.23 392.982 376.29C393.366 376.338 393.882 376.386 394.53 376.434C395.346 376.494 396 376.638 396.492 376.866C396.984 377.094 397.338 377.4 397.554 377.784C397.782 378.168 397.896 378.612 397.896 379.116C397.896 379.62 397.758 380.106 397.482 380.574C397.206 381.042 396.774 381.426 396.186 381.726C395.598 382.026 394.848 382.176 393.936 382.176ZM393.918 375.138C393.15 375.138 392.502 374.994 391.974 374.706C391.458 374.418 391.062 374.034 390.786 373.554C390.51 373.074 390.372 372.54 390.372 371.952C390.372 371.352 390.51 370.818 390.786 370.35C391.062 369.87 391.464 369.486 391.992 369.198C392.52 368.91 393.162 368.766 393.918 368.766C394.674 368.766 395.31 368.91 395.826 369.198C396.354 369.486 396.75 369.87 397.014 370.35C397.29 370.818 397.428 371.352 397.428 371.952C397.428 372.54 397.29 373.074 397.014 373.554C396.75 374.034 396.354 374.418 395.826 374.706C395.31 374.994 394.674 375.138 393.918 375.138ZM393.918 374.058C394.602 374.058 395.148 373.878 395.556 373.518C395.964 373.158 396.168 372.636 396.168 371.952C396.168 371.268 395.964 370.746 395.556 370.386C395.148 370.026 394.602 369.846 393.918 369.846C393.222 369.846 392.67 370.026 392.262 370.386C391.854 370.746 391.65 371.268 391.65 371.952C391.65 372.636 391.848 373.158 392.244 373.518C392.652 373.878 393.21 374.058 393.918 374.058ZM395.376 370.134L394.926 368.982H398.598V370.026L395.376 370.134ZM403.912 378.216C403.072 378.216 402.328 378.018 401.68 377.622C401.044 377.226 400.54 376.674 400.168 375.966C399.796 375.258 399.61 374.43 399.61 373.482C399.61 372.522 399.79 371.694 400.15 370.998C400.522 370.29 401.038 369.744 401.698 369.36C402.358 368.964 403.108 368.766 403.948 368.766C404.824 368.766 405.568 368.964 406.18 369.36C406.792 369.756 407.254 370.272 407.566 370.908C407.89 371.532 408.052 372.216 408.052 372.96C408.052 373.08 408.052 373.206 408.052 373.338C408.052 373.458 408.046 373.602 408.034 373.77H400.582V372.708H406.828C406.792 371.796 406.498 371.094 405.946 370.602C405.406 370.098 404.722 369.846 403.894 369.846C403.366 369.846 402.868 369.972 402.4 370.224C401.932 370.464 401.554 370.818 401.266 371.286C400.978 371.754 400.834 372.342 400.834 373.05V373.518C400.834 374.334 400.984 375.012 401.284 375.552C401.584 376.08 401.968 376.476 402.436 376.74C402.904 377.004 403.396 377.136 403.912 377.136C404.596 377.136 405.16 376.986 405.604 376.686C406.06 376.374 406.384 375.942 406.576 375.39H407.8C407.656 375.93 407.41 376.416 407.062 376.848C406.714 377.268 406.276 377.604 405.748 377.856C405.232 378.096 404.62 378.216 403.912 378.216ZM413.147 378C412.631 378 412.187 377.922 411.815 377.766C411.443 377.598 411.155 377.328 410.951 376.956C410.759 376.572 410.663 376.05 410.663 375.39V370.062H409.097V368.982H410.663L410.843 366.894H411.923V369H414.641V370.062H411.923V375.39C411.923 375.99 412.043 376.398 412.283 376.614C412.535 376.818 412.961 376.92 413.561 376.92H414.479V378H413.147ZM421.592 381.96V368.982H422.726L422.852 370.584C423.032 370.272 423.278 369.978 423.59 369.702C423.902 369.426 424.274 369.204 424.706 369.036C425.15 368.856 425.654 368.766 426.218 368.766C427.106 368.766 427.88 368.976 428.54 369.396C429.2 369.804 429.71 370.368 430.07 371.088C430.43 371.796 430.61 372.606 430.61 373.518C430.61 374.418 430.424 375.228 430.052 375.948C429.692 376.656 429.182 377.214 428.522 377.622C427.874 378.018 427.1 378.216 426.2 378.216C425.444 378.216 424.772 378.054 424.184 377.73C423.608 377.406 423.164 376.95 422.852 376.362V381.96H421.592ZM426.128 377.118C426.752 377.118 427.304 376.968 427.784 376.668C428.264 376.368 428.642 375.948 428.918 375.408C429.194 374.868 429.332 374.232 429.332 373.5C429.332 372.768 429.194 372.132 428.918 371.592C428.642 371.04 428.264 370.614 427.784 370.314C427.304 370.014 426.752 369.864 426.128 369.864C425.504 369.864 424.946 370.014 424.454 370.314C423.974 370.614 423.596 371.04 423.32 371.592C423.056 372.132 422.924 372.768 422.924 373.5C422.924 374.22 423.056 374.856 423.32 375.408C423.596 375.948 423.974 376.368 424.454 376.668C424.946 376.968 425.504 377.118 426.128 377.118ZM435.671 378.216C434.939 378.216 434.327 378.09 433.835 377.838C433.343 377.574 432.977 377.232 432.737 376.812C432.497 376.38 432.377 375.918 432.377 375.426C432.377 374.802 432.539 374.274 432.863 373.842C433.187 373.41 433.637 373.086 434.213 372.87C434.801 372.654 435.479 372.546 436.247 372.546H438.695C438.695 371.97 438.605 371.484 438.425 371.088C438.245 370.68 437.981 370.374 437.633 370.17C437.285 369.954 436.847 369.846 436.319 369.846C435.695 369.846 435.161 370.008 434.717 370.332C434.273 370.644 433.997 371.1 433.889 371.7H432.557C432.629 371.064 432.851 370.53 433.223 370.098C433.595 369.654 434.051 369.324 434.591 369.108C435.143 368.88 435.719 368.766 436.319 368.766C437.147 368.766 437.825 368.928 438.353 369.252C438.893 369.564 439.295 369.996 439.559 370.548C439.823 371.088 439.955 371.724 439.955 372.456V378H438.803L438.731 376.362C438.623 376.602 438.473 376.836 438.281 377.064C438.101 377.292 437.885 377.496 437.633 377.676C437.393 377.844 437.111 377.976 436.787 378.072C436.463 378.168 436.091 378.216 435.671 378.216ZM435.797 377.1C436.253 377.1 436.655 377.01 437.003 376.83C437.363 376.65 437.669 376.41 437.921 376.11C438.173 375.81 438.365 375.474 438.497 375.102C438.629 374.718 438.695 374.328 438.695 373.932V373.608H436.337C435.689 373.608 435.173 373.692 434.789 373.86C434.405 374.016 434.123 374.226 433.943 374.49C433.775 374.742 433.691 375.042 433.691 375.39C433.691 375.726 433.769 376.026 433.925 376.29C434.093 376.542 434.333 376.74 434.645 376.884C434.969 377.028 435.353 377.1 435.797 377.1ZM442.479 378V368.982H443.739V378H442.479ZM443.127 366.84C442.863 366.84 442.641 366.75 442.461 366.57C442.293 366.39 442.209 366.168 442.209 365.904C442.209 365.628 442.293 365.406 442.461 365.238C442.641 365.07 442.857 364.986 443.109 364.986C443.361 364.986 443.577 365.07 443.757 365.238C443.937 365.406 444.027 365.628 444.027 365.904C444.027 366.168 443.937 366.39 443.757 366.57C443.589 366.75 443.379 366.84 443.127 366.84ZM450.461 378.216C449.573 378.216 448.799 378.012 448.139 377.604C447.491 377.184 446.981 376.62 446.609 375.912C446.249 375.192 446.069 374.382 446.069 373.482C446.069 372.57 446.249 371.76 446.609 371.052C446.981 370.344 447.497 369.786 448.157 369.378C448.817 368.97 449.591 368.766 450.479 368.766C451.247 368.766 451.919 368.928 452.495 369.252C453.083 369.576 453.533 370.032 453.845 370.62V365.04H455.105V378H453.953L453.845 376.398C453.653 376.71 453.401 377.004 453.089 377.28C452.777 377.556 452.405 377.784 451.973 377.964C451.541 378.132 451.037 378.216 450.461 378.216ZM450.551 377.118C451.187 377.118 451.745 376.968 452.225 376.668C452.705 376.368 453.083 375.948 453.359 375.408C453.635 374.856 453.773 374.22 453.773 373.5C453.773 372.768 453.635 372.132 453.359 371.592C453.083 371.04 452.705 370.614 452.225 370.314C451.745 370.014 451.193 369.864 450.569 369.864C449.945 369.864 449.387 370.014 448.895 370.314C448.415 370.614 448.037 371.04 447.761 371.592C447.485 372.132 447.347 372.762 447.347 373.482C447.347 374.226 447.485 374.868 447.761 375.408C448.037 375.948 448.415 376.368 448.895 376.668C449.387 376.968 449.939 377.118 450.551 377.118Z" fill="black"/>
<path d="M339.028 436C338.177 436 337.4 435.853 336.696 435.56C335.992 435.267 335.332 434.929 334.716 434.548C334.129 434.167 333.543 433.844 332.956 433.58C332.399 433.287 331.827 433.14 331.24 433.14C330.507 433.14 329.905 433.404 329.436 433.932C328.967 434.431 328.688 435.12 328.6 436H325.476C325.652 433.917 326.253 432.377 327.28 431.38C328.336 430.353 329.7 429.84 331.372 429.84C332.223 429.84 333 429.987 333.704 430.28C334.408 430.544 335.053 430.867 335.64 431.248C336.256 431.629 336.843 431.967 337.4 432.26C337.987 432.553 338.573 432.7 339.16 432.7C339.893 432.7 340.495 432.436 340.964 431.908C341.433 431.38 341.712 430.691 341.8 429.84H344.924C344.748 431.923 344.132 433.477 343.076 434.504C342.049 435.501 340.7 436 339.028 436ZM348.823 447V416.2H352.783L359.823 430.852L366.863 416.2H370.823V447H367.215V423.328L361.231 435.78H358.415L352.431 423.372V447H348.823ZM384.446 447.528C382.392 447.528 380.574 447.059 378.99 446.12C377.406 445.181 376.159 443.861 375.25 442.16C374.34 440.429 373.886 438.405 373.886 436.088C373.886 433.771 374.34 431.761 375.25 430.06C376.159 428.329 377.406 426.995 378.99 426.056C380.574 425.117 382.392 424.648 384.446 424.648C386.499 424.648 388.318 425.117 389.902 426.056C391.486 426.995 392.732 428.329 393.642 430.06C394.551 431.761 395.006 433.771 395.006 436.088C395.006 438.405 394.551 440.429 393.642 442.16C392.732 443.861 391.486 445.181 389.902 446.12C388.318 447.059 386.499 447.528 384.446 447.528ZM384.446 444.008C385.707 444.008 386.851 443.729 387.878 443.172C388.904 442.615 389.711 441.749 390.298 440.576C390.914 439.403 391.222 437.907 391.222 436.088C391.222 434.269 390.914 432.773 390.298 431.6C389.711 430.427 388.904 429.561 387.878 429.004C386.851 428.447 385.707 428.168 384.446 428.168C383.214 428.168 382.084 428.447 381.058 429.004C380.031 429.561 379.21 430.427 378.594 431.6C377.978 432.773 377.67 434.269 377.67 436.088C377.67 438.816 378.33 440.825 379.65 442.116C380.97 443.377 382.568 444.008 384.446 444.008ZM399.74 447V425.176H402.82L403.216 428.476H403.436C404.023 427.42 404.947 426.525 406.208 425.792C407.47 425.029 408.922 424.648 410.564 424.648C413.234 424.648 415.228 425.44 416.548 427.024C417.898 428.608 418.572 430.896 418.572 433.888V447H414.876V434.328C414.876 432.392 414.451 430.881 413.6 429.796C412.75 428.681 411.43 428.124 409.64 428.124C407.91 428.124 406.443 428.725 405.24 429.928C404.038 431.101 403.436 432.803 403.436 435.032V447H399.74ZM435.979 447C433.985 447 432.415 446.516 431.271 445.548C430.127 444.58 429.555 442.835 429.555 440.312V428.344H424.011V425.176H427.311C428.807 425.176 429.673 424.443 429.907 422.976L430.523 419.588H433.251V425.176H441.963V428.344H433.251V440.312C433.251 441.544 433.53 442.409 434.087 442.908C434.674 443.407 435.671 443.656 437.079 443.656H441.963V447H435.979ZM448.766 447V415.32H452.462V428.476C453.049 427.361 454.017 426.452 455.366 425.748C456.715 425.015 458.197 424.648 459.81 424.648C462.479 424.648 464.503 425.455 465.882 427.068C467.29 428.681 467.994 430.94 467.994 433.844V447H464.298V434.328C464.298 432.363 463.814 430.837 462.846 429.752C461.907 428.667 460.587 428.124 458.886 428.124C457.713 428.124 456.642 428.388 455.674 428.916C454.706 429.444 453.929 430.221 453.342 431.248C452.755 432.275 452.462 433.536 452.462 435.032V447H448.766ZM483.157 447.528C480.37 447.528 478.112 446.883 476.381 445.592C474.68 444.272 473.726 442.468 473.521 440.18H477.349C477.525 441.383 478.112 442.365 479.109 443.128C480.136 443.891 481.514 444.272 483.245 444.272C484.888 444.272 486.105 443.92 486.897 443.216C487.718 442.512 488.129 441.705 488.129 440.796C488.129 439.564 487.645 438.728 486.677 438.288C485.709 437.819 484.257 437.467 482.321 437.232C480.004 436.968 478.082 436.337 476.557 435.34C475.032 434.343 474.269 432.847 474.269 430.852C474.269 429.063 475.017 427.581 476.513 426.408C478.009 425.235 480.048 424.648 482.629 424.648C485.181 424.648 487.19 425.235 488.657 426.408C490.124 427.552 490.96 429.195 491.165 431.336H487.513C487.425 430.28 486.912 429.444 485.973 428.828C485.064 428.183 483.92 427.86 482.541 427.86C481.104 427.86 479.989 428.139 479.197 428.696C478.405 429.224 478.009 429.928 478.009 430.808C478.009 431.688 478.449 432.421 479.329 433.008C480.238 433.565 481.661 433.932 483.597 434.108C485.122 434.284 486.516 434.577 487.777 434.988C489.038 435.399 490.036 436.044 490.769 436.924C491.532 437.804 491.913 439.036 491.913 440.62C491.942 441.94 491.576 443.128 490.813 444.184C490.08 445.211 489.053 446.032 487.733 446.648C486.413 447.235 484.888 447.528 483.157 447.528Z" fill="black"/>
<path d="M51.328 74L49.024 57.2H51.496L52.888 69.416L54.952 57.2H57.448L59.512 69.416L60.904 57.2H63.376L61.072 74H58.12L56.2 62.12L54.28 74H51.328ZM69.3906 60.272C68.8306 60.272 68.3586 60.096 67.9746 59.744C67.6066 59.376 67.4226 58.928 67.4226 58.4C67.4226 57.872 67.6066 57.432 67.9746 57.08C68.3586 56.728 68.8306 56.552 69.3906 56.552C69.9666 56.552 70.4386 56.728 70.8066 57.08C71.1906 57.432 71.3826 57.872 71.3826 58.4C71.3826 58.928 71.1906 59.376 70.8066 59.744C70.4386 60.096 69.9666 60.272 69.3906 60.272ZM64.6146 74V71.792H68.3586V65.096C68.3586 64.568 68.1026 64.304 67.5906 64.304H64.9506V62.096H68.0466C69.0386 62.096 69.7586 62.328 70.2066 62.792C70.6706 63.24 70.9026 63.96 70.9026 64.952V71.792H74.6466V74H64.6146ZM84.3572 74C83.1893 74 82.2613 73.72 81.5733 73.16C80.8853 72.584 80.5413 71.568 80.5413 70.112V64.256H77.5412V62.096H79.3173C80.1333 62.096 80.6133 61.696 80.7573 60.896L81.1173 58.976H83.0853V62.096H87.7893V64.256H83.0853V70.064C83.0853 70.688 83.2213 71.128 83.4933 71.384C83.7813 71.624 84.2693 71.744 84.9573 71.744H87.7413V74H84.3572ZM91.0439 74V56.72H93.5879V63.872C93.9079 63.28 94.4199 62.792 95.1239 62.408C95.8279 62.008 96.6199 61.808 97.4999 61.808C98.9719 61.808 100.092 62.256 100.86 63.152C101.628 64.032 102.012 65.304 102.012 66.968V74H99.4679V67.328C99.4679 66.336 99.2279 65.568 98.7479 65.024C98.2679 64.48 97.6039 64.208 96.7559 64.208C95.8759 64.208 95.1239 64.504 94.4999 65.096C93.8919 65.688 93.5879 66.544 93.5879 67.664V74H91.0439ZM109.923 74.288C108.787 74.288 107.771 74.032 106.875 73.52C105.979 73.008 105.274 72.288 104.762 71.36C104.25 70.416 103.994 69.312 103.994 68.048C103.994 66.784 104.25 65.688 104.762 64.76C105.274 63.816 105.979 63.088 106.875 62.576C107.771 62.064 108.795 61.808 109.947 61.808C111.099 61.808 112.115 62.064 112.995 62.576C113.891 63.088 114.587 63.816 115.083 64.76C115.595 65.688 115.851 66.784 115.851 68.048C115.851 69.312 115.595 70.416 115.083 71.36C114.571 72.288 113.867 73.008 112.971 73.52C112.091 74.032 111.075 74.288 109.923 74.288ZM109.923 71.864C110.531 71.864 111.091 71.728 111.602 71.456C112.115 71.184 112.523 70.768 112.827 70.208C113.147 69.632 113.307 68.912 113.307 68.048C113.307 67.168 113.147 66.448 112.827 65.888C112.523 65.328 112.115 64.912 111.602 64.64C111.107 64.368 110.555 64.232 109.947 64.232C109.339 64.232 108.779 64.368 108.266 64.64C107.755 64.912 107.339 65.328 107.018 65.888C106.715 66.448 106.563 67.168 106.563 68.048C106.563 69.36 106.891 70.328 107.546 70.952C108.219 71.56 109.011 71.864 109.923 71.864ZM122.297 74.288C120.857 74.288 119.761 73.848 119.009 72.968C118.273 72.072 117.905 70.776 117.905 69.08V62.096H120.449V68.768C120.449 69.744 120.657 70.512 121.073 71.072C121.505 71.616 122.161 71.888 123.041 71.888C123.921 71.888 124.657 71.592 125.249 71C125.841 70.408 126.137 69.552 126.137 68.432V62.096H128.681V74H126.473L126.257 72.224H126.137C125.817 72.8 125.321 73.288 124.649 73.688C123.977 74.088 123.193 74.288 122.297 74.288ZM138.08 74C136.912 74 135.984 73.72 135.296 73.16C134.608 72.584 134.264 71.568 134.264 70.112V64.256H131.264V62.096H133.04C133.856 62.096 134.336 61.696 134.48 60.896L134.84 58.976H136.808V62.096H141.512V64.256H136.808V70.064C136.808 70.688 136.944 71.128 137.216 71.384C137.504 71.624 137.992 71.744 138.68 71.744H141.464V74H138.08ZM158.149 74V57.2H163.837C165.117 57.2 166.173 57.424 167.005 57.872C167.837 58.304 168.453 58.904 168.853 59.672C169.253 60.44 169.453 61.32 169.453 62.312C169.453 63.304 169.253 64.184 168.853 64.952C168.453 65.72 167.837 66.328 167.005 66.776C166.173 67.208 165.117 67.424 163.837 67.424H160.693V74H158.149ZM160.693 65.144H163.717C164.805 65.144 165.597 64.888 166.093 64.376C166.605 63.864 166.861 63.176 166.861 62.312C166.861 61.464 166.605 60.784 166.093 60.272C165.597 59.744 164.805 59.48 163.717 59.48H160.693V65.144ZM171.724 74V71.792H174.628V65.096C174.628 64.568 174.372 64.304 173.86 64.304H171.964V62.096H174.82C175.476 62.096 176.012 62.288 176.428 62.672C176.844 63.04 177.052 63.56 177.052 64.232V64.52H177.172C177.348 63.624 177.724 62.952 178.3 62.504C178.892 62.04 179.748 61.808 180.868 61.808H182.716V64.496H180.124C179.18 64.496 178.452 64.824 177.94 65.48C177.428 66.136 177.172 66.92 177.172 67.832V71.792H180.868V74H171.724ZM189.426 74.288C188.482 74.288 187.69 74.128 187.05 73.808C186.41 73.472 185.93 73.032 185.61 72.488C185.29 71.928 185.13 71.32 185.13 70.664C185.13 69.496 185.554 68.584 186.402 67.928C187.266 67.272 188.482 66.944 190.05 66.944H193.122V66.68C193.122 64.888 192.29 63.992 190.626 63.992C189.938 63.992 189.354 64.144 188.874 64.448C188.41 64.736 188.098 65.208 187.938 65.864H185.394C185.522 64.616 186.058 63.632 187.002 62.912C187.962 62.176 189.17 61.808 190.626 61.808C192.386 61.808 193.666 62.24 194.466 63.104C195.266 63.968 195.666 65.16 195.666 66.68V74H193.506L193.29 72.248H193.122C192.77 72.808 192.33 73.288 191.802 73.688C191.274 74.088 190.482 74.288 189.426 74.288ZM189.906 72.152C190.946 72.152 191.722 71.84 192.234 71.216C192.762 70.576 193.05 69.768 193.098 68.792H190.314C189.402 68.792 188.754 68.944 188.37 69.248C188.002 69.536 187.818 69.944 187.818 70.472C187.818 71 188.002 71.416 188.37 71.72C188.754 72.008 189.266 72.152 189.906 72.152ZM204.105 74.288C203.001 74.288 202.009 74.032 201.129 73.52C200.265 73.008 199.585 72.288 199.089 71.36C198.593 70.416 198.345 69.312 198.345 68.048C198.345 66.784 198.593 65.688 199.089 64.76C199.601 63.832 200.289 63.112 201.153 62.6C202.017 62.072 203.001 61.808 204.105 61.808C205.625 61.808 206.849 62.192 207.777 62.96C208.721 63.712 209.321 64.752 209.577 66.08H206.913C206.753 65.504 206.425 65.048 205.929 64.712C205.449 64.376 204.833 64.208 204.081 64.208C203.537 64.208 203.017 64.352 202.521 64.64C202.041 64.928 201.649 65.36 201.345 65.936C201.057 66.496 200.913 67.2 200.913 68.048C200.913 68.88 201.057 69.584 201.345 70.16C201.649 70.736 202.041 71.176 202.521 71.48C203.017 71.768 203.537 71.912 204.081 71.912C204.849 71.912 205.465 71.744 205.929 71.408C206.393 71.072 206.721 70.608 206.913 70.016H209.577C209.257 71.328 208.633 72.368 207.705 73.136C206.777 73.904 205.577 74.288 204.105 74.288ZM218.663 74C217.495 74 216.567 73.72 215.879 73.16C215.191 72.584 214.847 71.568 214.847 70.112V64.256H211.847V62.096H213.623C214.439 62.096 214.919 61.696 215.063 60.896L215.423 58.976H217.391V62.096H222.095V64.256H217.391V70.064C217.391 70.688 217.527 71.128 217.799 71.384C218.087 71.624 218.575 71.744 219.263 71.744H222.047V74H218.663ZM230.558 60.272C229.998 60.272 229.526 60.096 229.142 59.744C228.774 59.376 228.59 58.928 228.59 58.4C228.59 57.872 228.774 57.432 229.142 57.08C229.526 56.728 229.998 56.552 230.558 56.552C231.134 56.552 231.606 56.728 231.974 57.08C232.358 57.432 232.55 57.872 232.55 58.4C232.55 58.928 232.358 59.376 231.974 59.744C231.606 60.096 231.134 60.272 230.558 60.272ZM225.782 74V71.792H229.526V65.096C229.526 64.568 229.27 64.304 228.758 64.304H226.118V62.096H229.214C230.206 62.096 230.926 62.328 231.374 62.792C231.838 63.24 232.07 63.96 232.07 64.952V71.792H235.814V74H225.782ZM244.397 74.288C243.293 74.288 242.301 74.032 241.421 73.52C240.557 73.008 239.877 72.288 239.381 71.36C238.885 70.416 238.637 69.312 238.637 68.048C238.637 66.784 238.885 65.688 239.381 64.76C239.893 63.832 240.581 63.112 241.445 62.6C242.309 62.072 243.293 61.808 244.397 61.808C245.917 61.808 247.141 62.192 248.069 62.96C249.013 63.712 249.613 64.752 249.869 66.08H247.205C247.045 65.504 246.717 65.048 246.221 64.712C245.741 64.376 245.125 64.208 244.373 64.208C243.829 64.208 243.309 64.352 242.813 64.64C242.333 64.928 241.941 65.36 241.637 65.936C241.349 66.496 241.205 67.2 241.205 68.048C241.205 68.88 241.349 69.584 241.637 70.16C241.941 70.736 242.333 71.176 242.813 71.48C243.309 71.768 243.829 71.912 244.373 71.912C245.141 71.912 245.757 71.744 246.221 71.408C246.685 71.072 247.013 70.608 247.205 70.016H249.869C249.549 71.328 248.925 72.368 247.997 73.136C247.069 73.904 245.869 74.288 244.397 74.288ZM257.803 74.288C256.651 74.288 255.635 74.032 254.755 73.52C253.875 72.992 253.187 72.264 252.691 71.336C252.195 70.408 251.947 69.328 251.947 68.096C251.947 66.848 252.187 65.752 252.667 64.808C253.163 63.864 253.851 63.128 254.731 62.6C255.627 62.072 256.659 61.808 257.827 61.808C258.979 61.808 259.971 62.072 260.803 62.6C261.635 63.112 262.275 63.8 262.723 64.664C263.187 65.528 263.419 66.48 263.419 67.52C263.419 67.68 263.419 67.856 263.419 68.048C263.419 68.224 263.411 68.424 263.395 68.648H254.443C254.523 69.752 254.883 70.592 255.523 71.168C256.163 71.728 256.915 72.008 257.779 72.008C258.531 72.008 259.123 71.856 259.555 71.552C260.003 71.232 260.331 70.8 260.539 70.256H263.107C262.819 71.392 262.219 72.352 261.307 73.136C260.395 73.904 259.227 74.288 257.803 74.288ZM257.803 64.016C257.019 64.016 256.323 64.256 255.715 64.736C255.107 65.2 254.715 65.856 254.539 66.704H260.875C260.811 65.904 260.499 65.256 259.939 64.76C259.379 64.264 258.667 64.016 257.803 64.016ZM277.993 74L283.009 57.2H286.033L291.049 74H288.289L287.161 69.968H281.881L280.753 74H277.993ZM284.449 60.8L282.457 67.928H286.585L284.593 60.8H284.449ZM293.031 74V71.744H296.679V59.456H293.079V57.2H302.823V59.456H299.223V71.744H302.871V74H293.031Z" fill="black"/>
<defs>
<linearGradient id="paint0_linear_1680_1189" x1="55.0007" y1="214.354" x2="647.001" y2="213.5" gradientUnits="userSpaceOnUse">
<stop stop-color="#4A6F3E" stop-opacity="0"/>
<stop offset="0.19888" stop-color="#4A6F3E" stop-opacity="0.451946"/>
<stop offset="0.517495" stop-color="#4A6F3E"/>
<stop offset="0.77388" stop-color="#4A6F3E" stop-opacity="0.406462"/>
<stop offset="1" stop-color="#4A6F3E" stop-opacity="0"/>
</linearGradient>
</defs>
</svg>
