<svg width="32" height="32" viewBox="0 0 32 32" fill="none" xmlns="http://www.w3.org/2000/svg">
<path d="M16.0004 6.66657C16.002 6.13328 15.8969 5.60506 15.6914 5.11297C15.4858 4.62089 15.1839 4.17487 14.8035 3.80117C14.423 3.42746 13.9717 3.1336 13.476 2.93688C12.9803 2.74016 12.4503 2.64454 11.9171 2.65565C11.3839 2.66677 10.8583 2.78439 10.3713 3.00159C9.88422 3.2188 9.44551 3.53121 9.08096 3.92044C8.71641 4.30968 8.43337 4.76788 8.24849 5.26811C8.06362 5.76833 7.98063 6.30047 8.00442 6.83324C7.22069 7.03475 6.49309 7.41197 5.87673 7.93632C5.26037 8.46067 4.77141 9.1184 4.44688 9.8597C4.12236 10.601 3.97077 11.4064 4.00361 12.215C4.03645 13.0235 4.25285 13.814 4.63642 14.5266C3.962 15.0745 3.43166 15.7789 3.09154 16.5785C2.75143 17.3781 2.61183 18.2487 2.68491 19.1146C2.75798 19.9804 3.04151 20.8153 3.51083 21.5466C3.98015 22.2779 4.62104 22.8834 5.37776 23.3106C5.28431 24.0336 5.34008 24.768 5.54161 25.4686C5.74314 26.1692 6.08615 26.821 6.54947 27.3838C7.01279 27.9467 7.58657 28.4085 8.23538 28.7409C8.8842 29.0733 9.59426 29.2691 10.3217 29.3164C11.0492 29.3636 11.7786 29.2611 12.4649 29.0154C13.1513 28.7696 13.7799 28.3858 14.3121 27.8876C14.8443 27.3894 15.2687 26.7873 15.559 26.1187C15.8494 25.45 15.9996 24.7289 16.0004 23.9999V6.66657Z" stroke="white" stroke-width="2.66667" stroke-linecap="round" stroke-linejoin="round"/>
<path d="M16 6.66657C15.9984 6.13328 16.1035 5.60506 16.3091 5.11297C16.5147 4.62089 16.8165 4.17487 17.197 3.80117C17.5774 3.42746 18.0288 3.1336 18.5245 2.93688C19.0202 2.74016 19.5502 2.64454 20.0834 2.65565C20.6165 2.66677 21.1421 2.78439 21.6292 3.00159C22.1162 3.2188 22.5549 3.53121 22.9195 3.92044C23.284 4.30968 23.5671 4.76788 23.752 5.26811C23.9368 5.76833 24.0198 6.30047 23.996 6.83324C24.7797 7.03475 25.5073 7.41197 26.1237 7.93632C26.7401 8.46067 27.229 9.1184 27.5536 9.8597C27.8781 10.601 28.0297 11.4064 27.9968 12.215C27.964 13.0235 27.7476 13.814 27.364 14.5266C28.0384 15.0745 28.5688 15.7789 28.9089 16.5785C29.249 17.3781 29.3886 18.2487 29.3155 19.1146C29.2425 19.9804 28.9589 20.8153 28.4896 21.5466C28.0203 22.2779 27.3794 22.8834 26.6227 23.3106C26.7161 24.0336 26.6604 24.768 26.4588 25.4686C26.2573 26.1692 25.9143 26.821 25.451 27.3838C24.9877 27.9467 24.4139 28.4085 23.7651 28.7409C23.1162 29.0733 22.4062 29.2691 21.6787 29.3164C20.9512 29.3636 20.2218 29.2611 19.5355 29.0154C18.8492 28.7696 18.2205 28.3858 17.6883 27.8876C17.1562 27.3894 16.7318 26.7873 16.4414 26.1187C16.151 25.45 16.0008 24.7289 16 23.9999V6.66657Z" stroke="white" stroke-width="2.66667" stroke-linecap="round" stroke-linejoin="round"/>
<path d="M20 17.3333C18.8806 16.9395 17.9031 16.2227 17.1911 15.2733C16.4791 14.324 16.0646 13.1849 16 12C15.9354 13.1849 15.5209 14.324 14.8089 15.2733C14.0969 16.2227 13.1194 16.9395 12 17.3333" stroke="white" stroke-width="2.66667" stroke-linecap="round" stroke-linejoin="round"/>
<path d="M23.4648 8.66634C23.7875 8.10712 23.9701 7.4781 23.9968 6.83301" stroke="white" stroke-width="2.66667" stroke-linecap="round" stroke-linejoin="round"/>
<path d="M8.00391 6.8335C8.03027 7.47847 8.21234 8.10749 8.53457 8.66683" stroke="white" stroke-width="2.66667" stroke-linecap="round" stroke-linejoin="round"/>
<path d="M4.63672 14.528C4.88064 14.3293 5.14166 14.1527 5.41672 14" stroke="white" stroke-width="2.66667" stroke-linecap="round" stroke-linejoin="round"/>
<path d="M26.584 14C26.859 14.1527 27.1201 14.3293 27.364 14.528" stroke="white" stroke-width="2.66667" stroke-linecap="round" stroke-linejoin="round"/>
<path d="M7.99962 24C7.08073 24.0004 6.17731 23.7634 5.37695 23.312" stroke="white" stroke-width="2.66667" stroke-linecap="round" stroke-linejoin="round"/>
<path d="M26.6227 23.312C25.8223 23.7634 24.9189 24.0004 24 24" stroke="white" stroke-width="2.66667" stroke-linecap="round" stroke-linejoin="round"/>
</svg>
