<svg width="40" height="48" viewBox="0 0 40 48" fill="none" xmlns="http://www.w3.org/2000/svg">
<path d="M35.1667 28.3636C35.1667 19.9287 28.3763 13.0909 20 13.0909C11.6237 13.0909 4.83333 19.9287 4.83333 28.3636C4.83333 36.7985 11.6237 43.6364 20 43.6364C28.3763 43.6364 35.1667 36.7985 35.1667 28.3636ZM39.5 28.3636C39.5 39.2085 30.7696 48 20 48C9.23045 48 0.5 39.2085 0.5 28.3636C0.5 17.5188 9.23045 8.72727 20 8.72727C30.7696 8.72727 39.5 17.5188 39.5 28.3636Z" fill="#FFE299"/>
<path d="M17.8333 21.8182C17.8333 20.6132 18.8034 19.6364 20 19.6364C21.1966 19.6364 22.1667 20.6132 22.1667 21.8182V28.3636C22.1667 29.5686 21.1966 30.5455 20 30.5455H13.5C12.3034 30.5455 11.3333 29.5686 11.3333 28.3636C11.3333 27.1587 12.3034 26.1818 13.5 26.1818H17.8333V21.8182ZM33.6348 10.4574C34.4809 9.60533 35.8524 9.60533 36.6986 10.4574C37.5447 11.3094 37.5447 12.6906 36.6986 13.5426L33.4486 16.8153C32.6024 17.6674 31.2309 17.6674 30.3848 16.8153C29.5386 15.9633 29.5386 14.5822 30.3848 13.7301L33.6348 10.4574ZM17.8333 10.9091V4.36364H15.6667C14.47 4.36364 13.5 3.3868 13.5 2.18182C13.5 0.976833 14.47 0 15.6667 0H24.3333C25.53 0 26.5 0.976833 26.5 2.18182C26.5 3.3868 25.53 4.36364 24.3333 4.36364H22.1667V10.9091C22.1667 12.1141 21.1966 13.0909 20 13.0909C18.8034 13.0909 17.8333 12.1141 17.8333 10.9091Z" fill="#FFE299"/>
</svg>
