<svg width="314" height="609" viewBox="0 0 314 609" fill="none" xmlns="http://www.w3.org/2000/svg">
<path d="M606.914 323.674C610.937 345.982 604.952 375.577 591.073 407.402C577.218 439.17 555.602 472.918 528.695 503.434C474.805 564.55 400.124 612.248 324.552 605.826C286.615 602.603 258.42 591.896 235.35 575.585C212.247 559.25 194.168 537.216 176.582 511.138C167.367 497.474 158.289 482.693 148.698 467.077C121.756 423.21 90.7653 372.75 41.3157 321.924C8.36662 288.058 -2.20516 244.764 3.44415 200.934C9.09862 157.065 31.0106 112.711 62.9559 77.0282C94.8996 41.3474 136.764 14.4608 182.197 5.3583C227.573 -3.73254 276.629 4.88511 323.169 40.409C346.032 57.8605 367.288 73.9146 387.02 88.818C448.488 135.243 495.17 170.5 529.593 202.044C574.993 243.644 598.772 278.528 606.914 323.674Z" stroke="#7ABD63" stroke-opacity="0.5" stroke-width="4"/>
</svg>
