<svg width="33" height="46" viewBox="0 0 33 46" fill="none" xmlns="http://www.w3.org/2000/svg">
<path d="M29.6314 23C27.934 21.5977 25.7761 20.8534 23.5618 20.9064H9.32866C8.67971 20.9225 8.03412 20.8095 7.43055 20.5739C6.82698 20.3384 6.27783 19.9853 5.81599 19.5357C5.35414 19.0861 4.98908 18.5493 4.74268 17.9574C4.49627 17.3655 4.37359 16.7307 4.38196 16.091C4.36614 15.842 4.36614 15.5923 4.38196 15.3433C4.57332 14.2002 5.18151 13.1653 6.09234 12.4328C7.00317 11.7004 8.15397 11.3208 9.32866 11.3654H23.3494C24.4931 11.3644 25.5999 11.7638 26.4726 12.4924C27.3453 13.221 27.927 14.2313 28.114 15.3433H32.6662C32.4756 13.0371 31.4114 10.8861 29.6852 9.31782C27.959 7.74956 25.6971 6.87894 23.3494 6.87906H18.5544V0H14.7609V6.87906H9.32866C6.9809 6.87894 4.71906 7.74956 2.99284 9.31782C1.26661 10.8861 0.202432 13.0371 0.0118662 15.3433C-0.00395541 15.5923 -0.00395541 15.842 0.0118662 16.091C0.0118662 17.2968 0.252852 18.4908 0.721065 19.6048C1.18928 20.7189 1.87555 21.7311 2.74069 22.5837C4.48793 24.3057 6.85769 25.2731 9.32866 25.2731H23.7136C24.3574 25.2571 24.9979 25.3683 25.5974 25.6002C26.1969 25.832 26.7433 26.1797 27.2043 26.6229C27.6653 27.0661 28.0316 27.5958 28.2817 28.1807C28.5317 28.7656 28.6605 29.3939 28.6603 30.0286C28.6895 30.367 28.6895 30.7072 28.6603 31.0455C28.4193 32.0979 27.8224 33.0382 26.9676 33.7121C26.1129 34.3861 25.051 34.7535 23.9563 34.7542H9.69284C8.59819 34.7535 7.5363 34.3861 6.68152 33.7121C5.82674 33.0382 5.22988 32.0979 4.98892 31.0455H0.406389C0.667192 33.2927 1.75779 35.3669 3.47036 36.8726C5.18293 38.3784 7.39777 39.2106 9.69284 39.2107H14.7609V46H18.5544V39.2107H23.7136C26.0086 39.2106 28.2235 38.3784 29.936 36.8726C31.6486 35.3669 32.7392 33.2927 33 31.0455V30.0286C32.9963 28.6852 32.6926 27.3591 32.1105 26.1443C31.5283 24.9296 30.6819 23.8561 29.6314 23Z" fill="#16A249"/>
</svg>
