<svg width="231" height="208" viewBox="0 0 231 208" fill="none" xmlns="http://www.w3.org/2000/svg">
    <g filter="url(#filter0_d_2093_179)">
        <path fill-rule="evenodd" clip-rule="evenodd" d="M191.123 13H30.4667L7 36.4667V189H191.123V13Z"
            fill="#FFE299" />
    </g>
    <path
        d="M73.438 92L74.7099 84.9512L70.6025 73.4504H73.65L76.5119 81.8242L82.2888 73.4504H85.6542L77.5189 84.9512L76.2469 92H73.438ZM90.8642 92.318C89.6452 92.318 88.5853 92.0618 87.6843 91.5495C86.801 91.0372 86.1208 90.3217 85.6438 89.4031C85.1668 88.4844 84.9283 87.4156 84.9283 86.1966C84.9283 84.801 85.2287 83.529 85.8293 82.3807C86.4476 81.2147 87.3133 80.2873 88.4263 79.5983C89.5569 78.8916 90.8819 78.5383 92.4012 78.5383C93.6025 78.5383 94.6359 78.7945 95.5016 79.3068C96.3849 79.8191 97.0651 80.5346 97.542 81.4532C98.0367 82.3719 98.284 83.4407 98.284 84.6597C98.284 86.0376 97.9749 87.3096 97.3566 88.4756C96.7559 89.6416 95.8991 90.5779 94.7861 91.2845C93.6908 91.9735 92.3835 92.318 90.8642 92.318ZM90.9967 89.6416C91.9153 89.6416 92.7015 89.4296 93.3551 89.0056C94.0265 88.5816 94.5388 88.0163 94.8921 87.3096C95.2454 86.5853 95.4221 85.7815 95.4221 84.8982C95.4221 83.6969 95.1218 82.787 94.5211 82.1687C93.9205 81.5327 93.152 81.2147 92.2157 81.2147C91.297 81.2147 90.502 81.4267 89.8307 81.8507C89.1771 82.2747 88.6736 82.8489 88.3203 83.5732C87.9669 84.2798 87.7903 85.0748 87.7903 85.9581C87.7903 87.1948 88.0906 88.1223 88.6913 88.7406C89.3096 89.3412 90.0781 89.6416 90.9967 89.6416ZM104.554 92.318C103.547 92.318 102.699 92.0707 102.01 91.576C101.339 91.0637 100.862 90.3659 100.579 89.4826C100.296 88.5816 100.261 87.5569 100.473 86.4086L101.798 78.8563H104.607L103.309 86.2231C103.132 87.3008 103.247 88.1488 103.653 88.7671C104.059 89.3677 104.748 89.6681 105.72 89.6681C106.692 89.6681 107.531 89.3236 108.237 88.6346C108.962 87.9456 109.439 86.9563 109.668 85.6666L110.861 78.8563H113.67L111.947 88.6346C111.824 89.2529 112.071 89.5621 112.689 89.5621H113.802L113.378 92H110.94C110.287 92 109.792 91.8498 109.456 91.5495C109.138 91.2315 108.979 90.8164 108.979 90.304V90.092H108.847C108.388 90.7987 107.805 91.3463 107.098 91.735C106.409 92.1237 105.561 92.318 104.554 92.318ZM118.906 92L120.655 82.1687C120.761 81.5857 120.523 81.2942 119.94 81.2942H117.608L118.032 78.8563H121.662C122.369 78.8563 122.864 79.0418 123.146 79.4128C123.447 79.7661 123.579 80.2696 123.544 80.9233V81.0028H123.676C124.065 80.1194 124.613 79.4923 125.319 79.1213C126.044 78.7326 126.962 78.5383 128.075 78.5383H130.222L129.692 81.5062H126.565C125.646 81.5062 124.869 81.7801 124.233 82.3277C123.614 82.8754 123.217 83.6527 123.04 84.6597L121.715 92H118.906ZM76.8115 132L80.0974 113.45H91.9426L91.4921 115.968H82.4558L81.5018 121.374H89.7697L89.3192 123.865H81.0779L80.0709 129.483H89.1072L88.6567 132H76.8115ZM91.3758 132L94.6617 113.45H97.4706L96.1192 121.135H104.228L105.579 113.45H108.388L105.102 132H102.294L103.751 123.706H95.6422L94.1847 132H91.3758ZM107.875 132L111.16 113.45H117.123C118.995 113.45 120.4 113.927 121.336 114.881C122.29 115.818 122.767 117.037 122.767 118.538C122.767 120.075 122.334 121.338 121.469 122.328C120.621 123.299 119.464 123.971 117.997 124.342L120.541 132H117.467L115.162 124.66H111.982L110.683 132H107.875ZM112.432 122.116H115.533C116.875 122.116 117.927 121.815 118.686 121.215C119.464 120.596 119.852 119.757 119.852 118.697C119.852 117.849 119.587 117.187 119.057 116.71C118.527 116.215 117.688 115.968 116.54 115.968H113.519L112.432 122.116Z"
        fill="#282828" />
    <g filter="url(#filter1_d_2093_179)">
        <path d="M7.00013 36.4668L30.4668 13.0001V36.4668H7.00013Z" fill="#E4B234" />
    </g>
    <g filter="url(#filter2_d_2093_179)">
        <path
            d="M219.162 14.6875C217.608 11.7813 216.054 8.87516 214.342 5.67432C216.533 5.31139 218.059 6.24862 218.955 7.58843C221.614 11.5655 224.243 15.5962 226.442 19.8352C227.702 22.2638 226.277 24.1186 223.558 24.0348C219.02 23.8951 214.489 23.5213 209.955 23.2404C209.69 23.2241 209.345 23.2482 209.18 23.0974C208.651 22.6146 208.189 22.0583 207.702 21.5304C208.161 21.1228 208.58 20.4316 209.087 20.3594C210.798 20.1159 212.539 20.0901 214.269 19.9853C215.176 19.9303 216.084 19.8843 217.256 19.1957C216.088 18.4577 214.949 17.6672 213.746 16.9892C189.31 3.20844 159.489 7.06956 139.288 26.6944C136.706 29.2032 134.434 32.031 132.002 34.6963C131.155 35.6249 130.259 36.5088 129.385 37.4131C129.115 37.2827 128.845 37.1522 128.575 37.0218C128.642 36.2152 128.452 35.2581 128.822 34.6293C130.104 32.4456 131.431 30.2568 133.006 28.2809C148.952 8.27117 176.519 0.0159063 201.792 7.85924C206.612 9.35493 211.158 11.7385 215.817 13.7438C216.776 14.1565 217.674 14.7093 218.6 15.1975C218.787 15.0275 218.975 14.8576 219.162 14.6875Z"
            fill="white" />
    </g>
    <g filter="url(#filter3_d_2093_179)">
        <path
            d="M200.246 172.671C198.698 177.96 199.462 178.979 210.551 187.148C209.227 187.374 208.306 187.628 207.378 187.675C198.665 188.119 190.044 187.391 181.536 185.647C167.595 182.79 153.942 178.93 140.757 173.603C137.995 172.488 134.872 171.782 133.157 168.765C132.828 168.185 131.229 168.34 130.216 168.156C130.01 168.53 129.804 168.904 129.598 169.279C130.756 170.554 131.704 172.173 133.116 173.036C136.257 174.955 139.507 176.804 142.93 178.137C155.59 183.069 168.503 187.372 181.931 189.655C189.963 191.021 198.207 191.238 206.364 191.874C208.509 192.041 210.685 191.847 213.788 191.807C212.332 192.825 211.641 193.542 210.803 193.856C205.134 195.981 199.429 198.006 193.747 200.096C192.383 200.598 190.088 200.586 190.57 202.691C191.061 204.838 193.134 203.771 194.508 203.476C203.385 201.57 211.657 198.096 219.584 193.618C223.273 191.535 223.058 189.104 219.647 187.112C216.725 185.405 213.73 183.788 210.645 182.398C206.286 180.434 202.762 177.64 200.246 172.671Z"
            fill="white" />
    </g>
    <defs>
        <filter id="filter0_d_2093_179" x="0.561025" y="9.5559" width="197.001" height="188.878"
            filterUnits="userSpaceOnUse" color-interpolation-filters="sRGB">
            <feFlood flood-opacity="0" result="BackgroundImageFix" />
            <feColorMatrix in="SourceAlpha" type="matrix" values="0 0 0 0 0 0 0 0 0 0 0 0 0 0 0 0 0 0 127 0"
                result="hardAlpha" />
            <feOffset dy="2.99487" />
            <feGaussianBlur stdDeviation="3.21949" />
            <feComposite in2="hardAlpha" operator="out" />
            <feColorMatrix type="matrix" values="0 0 0 0 0 0 0 0 0 0 0 0 0 0 0 0 0 0 0.45 0" />
            <feBlend mode="normal" in2="BackgroundImageFix" result="effect1_dropShadow_2093_179" />
            <feBlend mode="normal" in="SourceGraphic" in2="effect1_dropShadow_2093_179" result="shape" />
        </filter>
        <filter id="filter1_d_2093_179" x="6.55077" y="12.5508" width="25.8627" height="25.8627"
            filterUnits="userSpaceOnUse" color-interpolation-filters="sRGB">
            <feFlood flood-opacity="0" result="BackgroundImageFix" />
            <feColorMatrix in="SourceAlpha" type="matrix" values="0 0 0 0 0 0 0 0 0 0 0 0 0 0 0 0 0 0 127 0"
                result="hardAlpha" />
            <feOffset dx="0.748718" dy="0.748718" />
            <feGaussianBlur stdDeviation="0.598974" />
            <feComposite in2="hardAlpha" operator="out" />
            <feColorMatrix type="matrix" values="0 0 0 0 0 0 0 0 0 0 0 0 0 0 0 0 0 0 0.25 0" />
            <feBlend mode="normal" in2="BackgroundImageFix" result="effect1_dropShadow_2093_179" />
            <feBlend mode="normal" in="SourceGraphic" in2="effect1_dropShadow_2093_179" result="shape" />
        </filter>
        <filter id="filter2_d_2093_179" x="124.576" y="0.927246" width="106.33" height="40.4858"
            filterUnits="userSpaceOnUse" color-interpolation-filters="sRGB">
            <feFlood flood-opacity="0" result="BackgroundImageFix" />
            <feColorMatrix in="SourceAlpha" type="matrix" values="0 0 0 0 0 0 0 0 0 0 0 0 0 0 0 0 0 0 127 0"
                result="hardAlpha" />
            <feOffset />
            <feGaussianBlur stdDeviation="2" />
            <feComposite in2="hardAlpha" operator="out" />
            <feColorMatrix type="matrix" values="0 0 0 0 0 0 0 0 0 0 0 0 0 0 0 0 0 0 0.25 0" />
            <feBlend mode="normal" in2="BackgroundImageFix" result="effect1_dropShadow_2093_179" />
            <feBlend mode="normal" in="SourceGraphic" in2="effect1_dropShadow_2093_179" result="shape" />
        </filter>
        <filter id="filter3_d_2093_179" x="125.598" y="164.156" width="100.68" height="43.8462"
            filterUnits="userSpaceOnUse" color-interpolation-filters="sRGB">
            <feFlood flood-opacity="0" result="BackgroundImageFix" />
            <feColorMatrix in="SourceAlpha" type="matrix" values="0 0 0 0 0 0 0 0 0 0 0 0 0 0 0 0 0 0 127 0"
                result="hardAlpha" />
            <feOffset />
            <feGaussianBlur stdDeviation="2" />
            <feComposite in2="hardAlpha" operator="out" />
            <feColorMatrix type="matrix" values="0 0 0 0 0 0 0 0 0 0 0 0 0 0 0 0 0 0 0.25 0" />
            <feBlend mode="normal" in2="BackgroundImageFix" result="effect1_dropShadow_2093_179" />
            <feBlend mode="normal" in="SourceGraphic" in2="effect1_dropShadow_2093_179" result="shape" />
        </filter>
    </defs>
</svg>