<svg width="232" height="220" viewBox="0 0 232 220" fill="none" xmlns="http://www.w3.org/2000/svg">
<g filter="url(#filter0_d_3439_985)">
<path d="M218.113 179.652H33.9902V27.1187L57.457 3.65186H218.113V179.652Z" fill="#FFE299"/>
</g>
<path d="M100.429 82.6519L101.701 75.603L97.5932 64.1023H100.641L103.503 72.4761L109.279 64.1023H112.645L104.51 75.603L103.238 82.6519H100.429ZM117.855 82.9698C116.636 82.9698 115.576 82.7137 114.675 82.2014C113.792 81.689 113.112 80.9736 112.635 80.0549C112.158 79.1363 111.919 78.0675 111.919 76.8485C111.919 75.4529 112.219 74.1809 112.82 73.0326C113.438 71.8666 114.304 70.9391 115.417 70.2501C116.548 69.5435 117.873 69.1902 119.392 69.1902C120.593 69.1902 121.627 69.4463 122.492 69.9586C123.376 70.471 124.056 71.1865 124.533 72.1051C125.027 73.0237 125.275 74.0926 125.275 75.3115C125.275 76.6895 124.966 77.9615 124.347 79.1274C123.747 80.2934 122.89 81.2297 121.777 81.9364C120.682 82.6254 119.374 82.9698 117.855 82.9698ZM117.987 80.2934C118.906 80.2934 119.692 80.0814 120.346 79.6574C121.017 79.2334 121.53 78.6681 121.883 77.9615C122.236 77.2371 122.413 76.4333 122.413 75.55C122.413 74.3487 122.112 73.4389 121.512 72.8206C120.911 72.1846 120.143 71.8666 119.206 71.8666C118.288 71.8666 117.493 72.0786 116.821 72.5026C116.168 72.9266 115.664 73.5007 115.311 74.225C114.958 74.9317 114.781 75.7267 114.781 76.61C114.781 77.8466 115.081 78.7741 115.682 79.3924C116.3 79.9931 117.069 80.2934 117.987 80.2934ZM131.545 82.9698C130.538 82.9698 129.69 82.7225 129.001 82.2279C128.329 81.7155 127.853 81.0177 127.57 80.1344C127.287 79.2334 127.252 78.2088 127.464 77.0605L128.789 69.5082H131.598L130.299 76.875C130.123 77.9526 130.237 78.8006 130.644 79.4189C131.05 80.0196 131.739 80.3199 132.711 80.3199C133.682 80.3199 134.522 79.9754 135.228 79.2864C135.952 78.5974 136.429 77.6081 136.659 76.3185L137.852 69.5082H140.661L138.938 79.2864C138.814 79.9048 139.062 80.2139 139.68 80.2139H140.793L140.369 82.6519H137.931C137.277 82.6519 136.783 82.5017 136.447 82.2014C136.129 81.8834 135.97 81.4682 135.97 80.9559V80.7439H135.838C135.378 81.4505 134.795 81.9982 134.089 82.3869C133.4 82.7755 132.552 82.9698 131.545 82.9698ZM145.897 82.6519L147.646 72.8206C147.752 72.2376 147.514 71.9461 146.931 71.9461H144.599L145.023 69.5082H148.653C149.36 69.5082 149.854 69.6937 150.137 70.0646C150.437 70.418 150.57 70.9215 150.534 71.5751V71.6546H150.667C151.056 70.7713 151.603 70.1441 152.31 69.7732C153.034 69.3845 153.953 69.1902 155.066 69.1902H157.212L156.682 72.1581H153.555C152.637 72.1581 151.859 72.4319 151.223 72.9796C150.605 73.5272 150.208 74.3045 150.031 75.3115L148.706 82.6519H145.897ZM103.802 122.652L107.088 104.102H118.933L118.483 106.62H109.447L108.493 112.026H116.76L116.31 114.517H108.069L107.062 120.134H116.098L115.647 122.652H103.802ZM118.366 122.652L121.652 104.102H124.461L123.11 111.787H131.219L132.57 104.102H135.379L132.093 122.652H129.284L130.742 114.358H122.633L121.175 122.652H118.366ZM134.865 122.652L138.151 104.102H144.114C145.986 104.102 147.391 104.579 148.327 105.533C149.281 106.47 149.758 107.689 149.758 109.19C149.758 110.727 149.325 111.99 148.459 112.98C147.611 113.951 146.454 114.623 144.988 114.994L147.532 122.652H144.458L142.153 115.312H138.973L137.674 122.652H134.865ZM139.423 112.768H142.524C143.866 112.768 144.917 112.467 145.677 111.867C146.454 111.248 146.843 110.409 146.843 109.349C146.843 108.501 146.578 107.839 146.048 107.362C145.518 106.867 144.679 106.62 143.531 106.62H140.51L139.423 112.768Z" fill="#282828"/>
<g filter="url(#filter1_d_3439_985)">
<path d="M33.9904 27.1187L57.457 3.65199V27.1187H33.9904Z" fill="#E4B234"/>
</g>
<g filter="url(#filter2_d_3439_985)">
<path d="M209.406 207.883C212.294 206.297 215.183 204.71 218.364 202.962C218.752 205.15 217.832 206.686 216.502 207.596C212.555 210.3 208.554 212.974 204.34 215.221C201.926 216.508 200.055 215.104 200.108 212.385C200.197 207.845 200.52 203.31 200.75 198.773C200.763 198.508 200.735 198.164 200.884 197.997C201.361 197.463 201.912 196.994 202.434 196.501C202.847 196.956 203.543 197.367 203.621 197.873C203.884 199.581 203.929 201.322 204.053 203.051C204.118 203.957 204.175 204.864 204.876 206.028C205.601 204.852 206.379 203.704 207.043 202.494C220.548 177.904 216.352 148.129 196.501 128.15C193.964 125.596 191.111 123.356 188.418 120.954C187.48 120.117 186.586 119.231 185.672 118.367C185.799 118.096 185.927 117.825 186.054 117.554C186.862 117.611 187.816 117.411 188.449 117.773C190.647 119.031 192.851 120.333 194.844 121.885C215.032 137.606 223.597 165.078 216.038 190.438C214.597 195.274 212.264 199.847 210.312 204.528C209.91 205.491 209.367 206.396 208.889 207.327C209.061 207.513 209.233 207.698 209.406 207.883Z" fill="white"/>
</g>
<g filter="url(#filter3_d_3439_985)">
<path d="M51.2188 190.744C45.9125 189.256 44.9017 190.031 36.8578 201.212C36.6169 199.89 36.3532 198.972 36.2956 198.044C35.7541 189.337 36.3851 180.708 38.0326 172.181C40.7325 158.209 44.4396 144.514 49.6174 131.269C50.702 128.495 51.3718 125.364 54.3702 123.616C54.9466 123.28 54.773 121.683 54.9453 120.668C54.569 120.466 54.1927 120.264 53.8162 120.062C52.5535 121.235 50.9457 122.201 50.0985 123.623C48.2147 126.784 46.403 130.056 45.1085 133.493C40.3192 146.207 36.161 159.168 34.0293 172.621C32.754 180.668 32.6301 188.914 32.0857 197.078C31.9427 199.224 32.1609 201.398 32.2361 204.501C31.2019 203.056 30.4766 202.373 30.1533 201.539C27.9653 195.894 25.8755 190.212 23.7221 184.554C23.2053 183.196 23.1908 180.901 21.0913 181.406C18.9502 181.921 20.0403 183.982 20.351 185.353C22.357 194.208 25.9233 202.44 30.4899 210.316C32.615 213.981 35.0427 213.74 36.9963 210.307C38.6702 207.365 40.2533 204.352 41.6088 201.252C43.5241 196.871 46.2783 193.316 51.2188 190.744Z" fill="white"/>
</g>
<defs>
<filter id="filter0_d_3439_985" x="27.5513" y="0.207752" width="197.001" height="188.878" filterUnits="userSpaceOnUse" color-interpolation-filters="sRGB">
<feFlood flood-opacity="0" result="BackgroundImageFix"/>
<feColorMatrix in="SourceAlpha" type="matrix" values="0 0 0 0 0 0 0 0 0 0 0 0 0 0 0 0 0 0 127 0" result="hardAlpha"/>
<feOffset dy="2.99487"/>
<feGaussianBlur stdDeviation="3.21949"/>
<feComposite in2="hardAlpha" operator="out"/>
<feColorMatrix type="matrix" values="0 0 0 0 0 0 0 0 0 0 0 0 0 0 0 0 0 0 0.45 0"/>
<feBlend mode="normal" in2="BackgroundImageFix" result="effect1_dropShadow_3439_985"/>
<feBlend mode="normal" in="SourceGraphic" in2="effect1_dropShadow_3439_985" result="shape"/>
</filter>
<filter id="filter1_d_3439_985" x="33.541" y="3.20262" width="25.8627" height="25.8627" filterUnits="userSpaceOnUse" color-interpolation-filters="sRGB">
<feFlood flood-opacity="0" result="BackgroundImageFix"/>
<feColorMatrix in="SourceAlpha" type="matrix" values="0 0 0 0 0 0 0 0 0 0 0 0 0 0 0 0 0 0 127 0" result="hardAlpha"/>
<feOffset dx="0.748718" dy="0.748718"/>
<feGaussianBlur stdDeviation="0.598974"/>
<feComposite in2="hardAlpha" operator="out"/>
<feColorMatrix type="matrix" values="0 0 0 0 0 0 0 0 0 0 0 0 0 0 0 0 0 0 0.25 0"/>
<feBlend mode="normal" in2="BackgroundImageFix" result="effect1_dropShadow_3439_985"/>
<feBlend mode="normal" in="SourceGraphic" in2="effect1_dropShadow_3439_985" result="shape"/>
</filter>
<filter id="filter2_d_3439_985" x="181.672" y="113.549" width="41.084" height="106.154" filterUnits="userSpaceOnUse" color-interpolation-filters="sRGB">
<feFlood flood-opacity="0" result="BackgroundImageFix"/>
<feColorMatrix in="SourceAlpha" type="matrix" values="0 0 0 0 0 0 0 0 0 0 0 0 0 0 0 0 0 0 127 0" result="hardAlpha"/>
<feOffset/>
<feGaussianBlur stdDeviation="2"/>
<feComposite in2="hardAlpha" operator="out"/>
<feColorMatrix type="matrix" values="0 0 0 0 0 0 0 0 0 0 0 0 0 0 0 0 0 0 0.25 0"/>
<feBlend mode="normal" in2="BackgroundImageFix" result="effect1_dropShadow_3439_985"/>
<feBlend mode="normal" in="SourceGraphic" in2="effect1_dropShadow_3439_985" result="shape"/>
</filter>
<filter id="filter3_d_3439_985" x="15.7969" y="116.062" width="43.1484" height="100.912" filterUnits="userSpaceOnUse" color-interpolation-filters="sRGB">
<feFlood flood-opacity="0" result="BackgroundImageFix"/>
<feColorMatrix in="SourceAlpha" type="matrix" values="0 0 0 0 0 0 0 0 0 0 0 0 0 0 0 0 0 0 127 0" result="hardAlpha"/>
<feOffset/>
<feGaussianBlur stdDeviation="2"/>
<feComposite in2="hardAlpha" operator="out"/>
<feColorMatrix type="matrix" values="0 0 0 0 0 0 0 0 0 0 0 0 0 0 0 0 0 0 0.25 0"/>
<feBlend mode="normal" in2="BackgroundImageFix" result="effect1_dropShadow_3439_985"/>
<feBlend mode="normal" in="SourceGraphic" in2="effect1_dropShadow_3439_985" result="shape"/>
</filter>
</defs>
</svg>
