<svg width="39" height="41" viewBox="0 0 39 41" fill="none" xmlns="http://www.w3.org/2000/svg">
<path d="M38.212 18.7373H20.254V24.0836H33.0028C32.3565 31.5448 26.1486 34.7369 20.2736 34.7369C12.7732 34.7369 6.1932 28.8228 6.1932 20.4998C6.1932 12.4707 12.4599 6.26275 20.2932 6.26275C26.3445 6.26275 29.889 10.1207 29.889 10.1207L33.6099 6.24317C33.6099 6.24317 28.8315 0.916504 20.0974 0.916504C8.97404 0.916504 0.376953 10.3165 0.376953 20.4998C0.376953 30.3894 8.46487 40.0832 20.3911 40.0832C30.8682 40.0832 38.5057 32.8961 38.5057 22.2819C38.5057 20.0298 38.212 18.7373 38.212 18.7373Z" fill="#EAB308"/>
</svg>
