<svg width="23" height="22" viewBox="0 0 23 22" fill="none" xmlns="http://www.w3.org/2000/svg">
<path fill-rule="evenodd" clip-rule="evenodd" d="M11.5894 5.54233C10.4571 5.54262 9.34877 5.86831 8.39633 6.48061C7.4439 7.09291 6.6875 7.96603 6.21719 8.99601C5.74689 10.026 5.58249 11.1694 5.74358 12.2902C5.90467 13.4109 6.38445 14.4618 7.12581 15.3176C7.86717 16.1734 8.83886 16.7982 9.92519 17.1174C11.0115 17.4367 12.1667 17.437 13.2532 17.1184C14.3398 16.7998 15.3118 16.1756 16.0537 15.3203C16.7955 14.4649 17.276 13.4143 17.4377 12.2936H12.4333C12.2095 12.2936 11.9948 12.2047 11.8366 12.0465C11.6783 11.8882 11.5894 11.6736 11.5894 11.4497C11.5894 11.2259 11.6783 11.0113 11.8366 10.853C11.9948 10.6947 12.2095 10.6058 12.4333 10.6058H18.3407C18.5645 10.6058 18.7792 10.6947 18.9374 10.853C19.0957 11.0113 19.1846 11.2259 19.1846 11.4497C19.1848 13.206 18.5763 14.9081 17.4627 16.2663C16.3491 17.6244 14.7992 18.5546 13.0769 18.8986C11.3546 19.2426 9.56635 18.979 8.0165 18.1529C6.46664 17.3267 5.25101 15.9889 4.57654 14.3673C3.90206 12.7456 3.81043 10.9404 4.31724 9.25876C4.82405 7.57716 5.89797 6.12317 7.3562 5.1443C8.81443 4.16543 10.5668 3.72217 12.3151 3.88999C14.0634 4.0578 15.6995 4.82632 16.9449 6.06471C17.0991 6.22343 17.1848 6.43638 17.1835 6.65769C17.1823 6.879 17.0941 7.09096 16.9381 7.24789C16.782 7.40483 16.5706 7.49418 16.3493 7.49671C16.128 7.49923 15.9145 7.41472 15.7549 7.26138C14.6492 6.1589 13.1509 5.54059 11.5894 5.54233Z" fill="#9096A2" stroke="#9096A2" stroke-width="0.543283"/>
</svg>
