<svg width="43" height="45" viewBox="0 0 43 45" fill="none" xmlns="http://www.w3.org/2000/svg">
<path fill-rule="evenodd" clip-rule="evenodd" d="M21.5 4.77572C18.2949 4.77654 15.1575 5.69847 12.4614 7.43172C9.76531 9.16498 7.62415 11.6365 6.29284 14.5521C4.96154 17.4677 4.49618 20.7044 4.95218 23.877C5.40817 27.0495 6.76631 30.0242 8.86489 32.4468C10.9635 34.8694 13.7141 36.6378 16.7892 37.5416C19.8642 38.4453 23.1343 38.4463 26.2099 37.5444C29.2856 36.6425 32.0372 34.8756 34.1372 32.4543C36.2372 30.0329 37.5971 27.0591 38.055 23.8868H23.8889C23.2553 23.8868 22.6477 23.6351 22.1997 23.1871C21.7517 22.7391 21.5 22.1315 21.5 21.4979C21.5 20.8643 21.7517 20.2567 22.1997 19.8087C22.6477 19.3607 23.2553 19.109 23.8889 19.109H40.6111C41.2447 19.109 41.8523 19.3607 42.3003 19.8087C42.7483 20.2567 43 20.8643 43 21.4979C43.0005 26.4695 41.278 31.2877 38.1257 35.1322C34.9734 38.9767 30.5862 41.6099 25.7108 42.5836C20.8355 43.5573 15.7734 42.8113 11.3862 40.4726C6.99897 38.1339 3.55786 34.347 1.64861 29.7566C-0.260643 25.1662 -0.52003 20.056 0.914602 15.2959C2.34923 10.5358 5.38921 6.41992 9.51705 3.64901C13.6449 0.878093 18.6055 -0.376637 23.5543 0.0984044C28.5032 0.573446 33.1345 2.7489 36.6599 6.25444C37.0965 6.70372 37.3391 7.30654 37.3355 7.933C37.3319 8.55947 37.0824 9.15945 36.6406 9.60369C36.1989 10.0479 35.6004 10.3009 34.9739 10.308C34.3475 10.3152 33.7433 10.0759 33.2916 9.64188C30.1614 6.52107 25.9201 4.77078 21.5 4.77572Z" fill="#EAB308"/>
</svg>
