<svg width="36" height="36" viewBox="0 0 36 36" fill="none" xmlns="http://www.w3.org/2000/svg">
<path fill-rule="evenodd" clip-rule="evenodd" d="M18.4286 8.76072C16.5758 8.76119 14.7621 9.29413 13.2036 10.2961C11.6451 11.298 10.4073 12.7268 9.63772 14.4122C8.86813 16.0976 8.59912 17.9687 8.86272 19.8027C9.12632 21.6366 9.91142 23.3562 11.1246 24.7566C12.3377 26.1571 13.9277 27.1794 15.7054 27.7018C17.483 28.2242 19.3733 28.2248 21.1512 27.7034C22.9292 27.182 24.5198 26.1607 25.7338 24.761C26.9477 23.3612 27.7339 21.6421 27.9986 19.8083H19.8095C19.4433 19.8083 19.092 19.6628 18.833 19.4039C18.5741 19.1449 18.4286 18.7936 18.4286 18.4274C18.4286 18.0611 18.5741 17.7099 18.833 17.4509C19.092 17.1919 19.4433 17.0464 19.8095 17.0464H29.4762C29.8424 17.0464 30.1937 17.1919 30.4527 17.4509C30.7116 17.7099 30.8571 18.0611 30.8571 18.4274C30.8574 21.3013 29.8617 24.0866 28.0394 26.309C26.2172 28.5314 23.681 30.0536 20.8627 30.6164C18.0444 31.1793 15.1182 30.7481 12.582 29.3961C10.0459 28.0442 8.0567 25.8551 6.95302 23.2015C5.84933 20.5479 5.69938 17.5939 6.52871 14.8421C7.35803 12.0904 9.11536 9.71119 11.5015 8.1094C13.8877 6.5076 16.7553 5.78228 19.6161 6.05688C22.4769 6.33149 25.1542 7.58906 27.1921 9.61553C27.4445 9.87525 27.5847 10.2237 27.5826 10.5859C27.5806 10.948 27.4363 11.2948 27.181 11.5516C26.9256 11.8084 26.5796 11.9547 26.2175 11.9588C25.8553 11.9629 25.5061 11.8246 25.2449 11.5737C23.4355 9.76966 20.9837 8.75786 18.4286 8.76072Z" fill="#EAB308" stroke="#EAB308" stroke-width="0.874396"/>
</svg>
