<svg width="36" height="36" viewBox="0 0 36 36" fill="none" xmlns="http://www.w3.org/2000/svg">
<path d="M27.4291 19.5846C27.4291 25.7043 23.1166 28.7642 17.9909 30.539C17.7225 30.6293 17.431 30.625 17.1654 30.5267C12.0273 28.7642 7.71484 25.7043 7.71484 19.5846V11.017C7.71484 10.6923 7.84466 10.381 8.07573 10.1515C8.3068 9.92196 8.6202 9.793 8.94699 9.793C11.4113 9.793 14.4916 8.32426 16.6356 6.46386C16.8966 6.24233 17.2287 6.12061 17.572 6.12061C17.9153 6.12061 18.2474 6.24233 18.5084 6.46386C20.6647 8.3365 23.7327 9.793 26.197 9.793C26.5238 9.793 26.8372 9.92196 27.0682 10.1515C27.2993 10.381 27.4291 10.6923 27.4291 11.017V19.5846Z" stroke="#16A249" stroke-width="4" stroke-linecap="round" stroke-linejoin="round"/>
</svg>
