<svg width="226" height="124" viewBox="0 0 226 124" fill="none" xmlns="http://www.w3.org/2000/svg">
<path d="M102.921 83.5906C103.7 83.1201 104.635 82.911 105.57 82.911C106.298 82.911 107.025 83.0678 107.648 83.3815C108.324 83.6952 108.895 84.1657 109.363 84.6885L111.077 82.9633C110.402 82.1268 109.571 81.4995 108.636 81.0812C107.493 80.6107 106.298 80.4016 105.051 80.4539C103.804 80.5062 102.609 80.8721 101.57 81.4472C100.427 82.1268 99.4918 83.0678 98.8165 84.2702C98.1411 85.5249 97.8293 86.8841 97.8293 88.2957C97.8293 89.7072 98.1411 91.0664 98.8165 92.3211C99.4399 93.4713 100.375 94.4646 101.518 95.1442C102.713 95.8238 104.064 96.1897 105.414 96.1375C106.505 96.1375 107.596 95.9284 108.636 95.5101C109.571 95.0919 110.454 94.4123 111.077 93.6281L109.363 91.9029C108.895 92.478 108.324 92.9485 107.648 93.2621C106.973 93.5758 106.246 93.7327 105.518 93.7327C104.583 93.7327 103.7 93.5235 102.869 93.053C102.089 92.5825 101.466 91.9552 101.05 91.171C100.635 90.3345 100.375 89.3412 100.375 88.4002C100.375 87.4592 100.583 86.5182 101.05 85.6295C101.518 84.7407 102.141 84.0611 102.921 83.5906ZM100.271 65.9204H107.545V72.4553H110.142V57.1899H107.545V63.4633H100.271V57.1899H97.6735V72.4553H100.271V65.9204ZM113.363 72.4553H115.961V57.1899H113.363V72.4553ZM127.079 57.8695C126.092 57.399 125.001 57.1899 123.91 57.2422H119.234V72.4553H121.832V68.0639H123.91C125.001 68.0639 126.092 67.8547 127.079 67.4365C127.962 67.0183 128.689 66.3909 129.157 65.5545C129.624 64.6657 129.884 63.6725 129.884 62.6792C129.884 61.6859 129.624 60.6926 129.157 59.8038C128.689 58.9151 127.962 58.2878 127.079 57.8695ZM126.351 64.8749C125.78 65.3976 124.897 65.659 123.754 65.659H121.832V59.5947H123.754C124.897 59.5947 125.78 59.8561 126.351 60.3789C126.923 60.9017 127.235 61.6336 127.235 62.6269C127.235 63.6202 126.975 64.3521 126.351 64.8749ZM152.64 57.2422L145.626 72.4553H148.587L150.146 68.9526H157.939L159.497 72.4553H162.511L155.497 57.1899H152.64V57.2422ZM151.133 66.7046L154.042 60.0652L156.952 66.7046H151.133ZM124.741 81.4472C123.546 80.7676 122.195 80.4539 120.792 80.4539C119.39 80.4539 118.091 80.8198 116.844 81.4472C115.701 82.1268 114.714 83.0678 114.091 84.2702C113.415 85.5249 113.103 86.8841 113.103 88.2957C113.103 89.7072 113.467 91.0664 114.091 92.3211C114.714 93.4713 115.701 94.4646 116.844 95.1442C118.039 95.8238 119.39 96.1375 120.792 96.1375C122.195 96.1375 123.494 95.7715 124.741 95.1442C125.884 94.4646 126.819 93.5235 127.494 92.3211C128.17 91.0664 128.481 89.7072 128.481 88.2957C128.481 86.8841 128.118 85.5249 127.494 84.2702C126.819 83.0678 125.884 82.1268 124.741 81.4472ZM125.157 91.0142C124.741 91.7983 124.117 92.478 123.39 92.9485C122.611 93.419 121.728 93.6281 120.844 93.6281C119.961 93.6281 119.078 93.3667 118.299 92.9485C117.519 92.478 116.896 91.8506 116.532 91.0142C116.117 90.1777 115.857 89.2367 115.857 88.2434C115.857 87.2501 116.065 86.3614 116.532 85.4726C116.948 84.6885 117.571 84.0088 118.299 83.5383C119.078 83.0678 119.961 82.8587 120.844 82.8587C121.728 82.8587 122.611 83.1201 123.39 83.5383C124.169 84.0088 124.793 84.6362 125.157 85.4726C125.572 86.3091 125.832 87.2501 125.832 88.2434C125.832 89.2367 125.572 90.1777 125.157 91.0142ZM213.476 80.663V83.0678H218.204V95.9284H220.854V83.0678H225.581V80.663H213.476ZM209.268 90.9619L201.423 80.663H199.241V95.9284H201.891V85.6295L209.736 95.9284H211.918V80.663H209.268V90.9619ZM143.704 80.663L139.288 88.7662L134.768 80.663H131.495V95.9284H134.3V85.3681L139.236 94.1509L144.275 85.2112V95.8761H147.081V80.6107H143.704V80.663ZM158.043 81.2903C157.056 80.8198 155.913 80.6107 154.822 80.663H150.094V95.9284H152.743V91.5369H154.822C155.913 91.5369 157.056 91.3278 158.043 90.9096C158.926 90.4914 159.653 89.864 160.173 89.0276C160.64 88.1388 160.9 87.1456 160.9 86.1523C160.9 85.159 160.64 84.1657 160.173 83.2769C159.653 82.3882 158.926 81.7086 158.043 81.2903ZM157.315 88.348C156.744 88.8707 155.861 89.1321 154.666 89.1321H152.691V83.0678H154.666C155.809 83.0678 156.692 83.3292 157.315 83.852C157.887 84.3748 158.199 85.1067 158.199 86.1C158.25 87.041 157.939 87.8252 157.315 88.348ZM140.638 68.9526L142.197 72.4553H145.21L138.197 57.1899H135.339L128.378 72.4553H131.339L132.897 68.9526H140.638ZM136.794 60.0652L139.703 66.7046H133.885L136.794 60.0652ZM165.991 80.663H163.342V95.9284H173.421V93.5235H165.991V80.663ZM175.603 95.8761H178.252V80.6107H175.603V95.8761ZM69.0994 113.076C69.1514 116.735 69.2034 119.401 69.2553 120.708C69.3073 120.865 69.3073 121.074 69.2553 121.231C69.2553 121.44 69.2553 121.597 69.2553 121.597C69.2553 122.329 69.3592 123.061 69.567 123.741C69.7748 123.061 69.8787 122.329 69.8787 121.597C69.8787 121.336 69.9826 117.519 70.1385 111.403C70.0865 111.455 70.0346 111.507 70.0346 111.56C69.6709 112.03 69.3592 112.553 69.0994 113.076ZM58.2933 36.749C59.1245 35.8602 59.9038 34.8147 60.4753 33.7168C60.0597 34.6578 58.4491 38.2128 60.0077 38.5264C61.7221 38.8401 63.6444 38.3173 67.1252 33.8736C67.0213 28.1753 66.9174 23.2088 66.8655 19.4448H64.9952C64.8913 19.4448 64.8393 19.4448 64.7354 19.4448C63.6964 19.4448 61.9819 19.3402 60.839 17.615C59.5921 15.733 59.5401 13.7987 59.4882 12.3871C59.4362 10.3483 58.9167 6.63649 56.371 4.54535C54.6046 3.13382 49.8249 2.03597 45.409 3.81344C43.9543 4.38851 41.0449 5.90459 38.1875 7.31611C35.5899 8.62308 32.2649 10.2437 31.2259 10.2437C32.9403 9.45953 35.2262 8.3094 37.72 6.89788C40.5774 5.32952 43.5906 3.65661 45.0972 3.02926C48.1105 1.82686 53.8773 1.46091 56.8386 3.86573C59.644 6.16598 60.2155 10.1392 60.2675 12.2826C60.3194 13.6941 60.3714 15.4193 61.4624 17.1445C62.4495 18.6083 64.0081 18.6083 64.9432 18.6083H65.151H66.8135C66.8135 18.1378 66.8135 17.7196 66.8135 17.249C65.151 17.3536 62.7612 17.4582 61.7221 15.2102C60.4753 12.4917 61.826 5.53864 57.6698 2.61104C53.5136 -0.316564 46.8636 0.415338 40.941 3.86573C35.0704 7.26384 27.2774 11.7075 17.6662 15.5761C8.0549 19.4447 2.08033 21.0131 0.937367 21.1699C-0.153642 21.3791 1.82056 22.111 5.92484 22.2155C10.0291 22.3201 13.458 22.0064 13.458 22.0064L43.5906 8.20485C43.5906 8.20485 17.6142 21.2222 15.4322 22.6337C13.2502 24.0453 11.4838 24.5158 11.6396 25.8227C11.7955 27.1297 13.458 26.9729 18.0298 26.8683C22.6017 26.7638 23.5888 26.3455 25.1474 25.875C26.706 25.4045 43.5906 17.5627 43.5906 17.5627C43.5906 17.5627 25.511 26.6069 22.9134 28.6981C20.3158 30.7892 23.1212 31.4688 24.8876 31.5211C26.706 31.5734 31.5376 31.312 34.2391 29.9527C36.9407 28.5935 45.357 23.1565 45.357 23.1565C45.357 23.1565 37.0446 29.1686 35.434 30.5278C34.1352 31.6257 33.4598 32.5667 33.7715 33.7168C34.2391 35.1806 36.7328 35.0238 40.0578 33.8214C40.0578 33.8214 43.4867 32.619 44.7855 31.4688C46.0844 30.2664 49.721 27.0252 49.721 27.0252C49.721 27.0252 45.409 31.5211 44.318 33.4554C43.2789 35.3897 43.0711 35.8602 43.5906 36.9581C44.318 38.5264 49.8249 36.9058 51.3835 35.2329C52.5265 33.9259 53.6175 32.5667 54.6046 31.1029C54.6046 31.1029 52.9421 33.8214 52.5784 35.3897C52.2148 36.9581 51.7992 38.2128 53.3058 38.3696C54.9683 38.631 56.5269 38.6833 58.2933 36.749ZM68.5799 72.3507C68.7358 72.2461 68.8916 72.1416 69.0475 72.037C69.3592 71.8279 69.619 71.6711 69.8268 71.462C70.2424 71.2006 70.658 70.8869 71.0737 70.6255C71.1256 67.6456 71.2295 64.6135 71.2815 61.6336C70.4502 61.2676 69.567 60.9017 68.6319 60.5357C68.5799 60.5357 68.528 60.4835 68.476 60.4835C68.3721 60.4312 68.3202 60.4312 68.2162 60.3789C67.5928 60.1698 67.0213 59.9084 66.3459 59.6993C65.5667 59.3856 64.7874 59.1242 64.0081 58.8105C58.8128 61.5813 57.7737 62.8883 57.7737 65.4499C57.7737 69.0572 60.8389 70.6778 66.1381 74.0759C66.9694 73.4486 67.8006 72.8735 68.5799 72.3507ZM62.1897 65.9204C62.1897 65.9204 61.8261 63.6202 67.6967 60.954C67.8526 60.9017 68.0084 60.7971 68.1643 60.7449C68.2162 64.3521 68.2682 67.9593 68.3721 71.5665C65.4628 69.5799 62.1897 67.6979 62.1897 65.9204ZM71.0737 110.305C70.8139 110.619 70.5541 110.932 70.2944 111.194C71.801 113.233 71.6971 115.219 70.8658 117.781C71.6451 116.892 73.2037 114.644 71.9049 111.716C71.6451 111.246 71.3854 110.775 71.0737 110.305ZM68.6838 88.8707C69.2553 89.4458 69.9307 90.1254 70.6061 90.8051C71.0217 91.2233 71.4373 91.6415 71.9049 92.112C71.9568 92.1643 72.0608 92.2166 72.1647 92.3211C75.6974 89.2367 78.9185 86.3091 78.9185 82.6496C78.9185 79.7743 76.165 77.1603 73.4115 75.0692C73.1518 75.226 72.892 75.3829 72.6322 75.592C72.0088 76.0102 71.4373 76.3762 70.9178 76.7421C70.9178 76.7421 70.8658 76.7421 70.8658 76.7944C70.7619 76.8989 70.6061 76.9512 70.5022 77.0558C69.7748 77.5786 69.0994 78.0491 68.476 78.5196C68.5799 82.0222 68.6319 85.5249 68.6838 88.8707ZM70.9178 77.3172C74.3467 79.8265 75.6974 81.4472 75.6974 83.2247C75.6974 85.0544 73.7752 87.1978 70.658 90.3345C70.71 86.1523 70.8139 81.8131 70.9178 77.3172ZM89.8806 27.0774C89.8806 27.0774 93.5173 30.3187 94.8161 31.5211C96.1149 32.7235 99.5438 33.8736 99.5438 33.8736C102.869 35.076 105.363 35.2329 105.83 33.7691C106.194 32.619 105.466 31.6257 104.168 30.5801C102.557 29.2208 94.2446 23.2088 94.2446 23.2088C94.2446 23.2088 102.661 28.6458 105.362 30.005C108.064 31.3643 112.896 31.6257 114.714 31.5734C116.532 31.5211 119.286 30.8415 116.688 28.7503C114.091 26.6592 96.011 17.615 96.011 17.615C96.011 17.615 112.844 25.5091 114.454 25.9273C116.013 26.3978 117 26.7638 121.572 26.9206C126.144 27.0251 127.754 27.182 127.962 25.875C128.17 24.6203 126.351 24.1498 124.169 22.686C121.987 21.2745 96.011 8.25713 96.011 8.25713L126.144 22.0587C126.144 22.0587 129.573 22.3724 133.677 22.2678C137.781 22.1632 139.755 21.4313 138.664 21.2222C137.573 21.0131 131.547 19.497 121.935 15.6284C112.324 11.7598 104.531 7.36839 98.6606 3.918C92.7899 0.519894 86.088 -0.264286 81.9318 2.66332C77.7756 5.59092 79.1263 12.4917 77.8795 15.2625C76.8404 17.5104 74.4506 17.4059 72.7881 17.3013C72.7881 17.7196 72.7881 18.1901 72.7361 18.6606H74.4506H74.6584C75.5935 18.6606 77.1521 18.6606 78.1392 17.1968C79.2302 15.5239 79.2822 13.7464 79.3341 12.3349C79.3861 10.1914 79.9576 6.21826 82.763 3.918C85.7243 1.51319 91.4911 1.87914 94.5044 3.08155C96.011 3.65661 99.0243 5.32952 101.882 6.95016C104.375 8.36168 106.661 9.51181 108.376 10.296C107.285 10.296 104.012 8.67536 101.414 7.36839C98.6086 5.90459 95.6993 4.44079 94.1926 3.86573C89.7767 2.08825 84.997 3.1861 83.2306 4.59762C80.633 6.68877 80.1654 10.4005 80.1134 12.4394C80.0615 13.8509 80.0095 15.8375 78.7627 17.6673C77.6717 19.3925 75.9572 19.497 74.8662 19.497C74.7623 19.497 74.7104 19.497 74.6064 19.497H72.7361C72.6322 23.2611 72.5283 28.1753 72.4244 33.7691C75.9572 38.3173 77.9834 38.8924 79.6459 38.5264C81.2045 38.2128 79.6459 34.6578 79.1783 33.7168C79.8017 34.8147 80.5291 35.808 81.3603 36.749C83.0748 38.6833 84.6853 38.631 86.2439 38.4219C87.8025 38.2128 87.3349 37.0104 86.9712 35.442C86.6075 33.8736 84.9451 31.1552 84.9451 31.1552C85.9322 32.5667 87.0232 33.9782 88.1661 35.2852C89.7247 36.9581 95.2317 38.631 95.9591 37.0104C96.4266 35.9648 96.2708 35.442 95.2317 33.5077C94.2446 31.5734 89.8806 27.0774 89.8806 27.0774ZM69.8787 11.0802C70.71 11.0802 71.5412 10.8188 72.2166 10.3483C72.892 9.87776 73.4635 9.19814 73.7752 8.46624C74.0869 7.68206 74.1908 6.84561 74.035 6.00915C73.8791 5.17269 73.4635 4.44079 72.892 3.81344C72.3205 3.23838 71.5412 2.82015 70.71 2.66332C69.8787 2.50648 69.0475 2.55876 68.2682 2.92471C67.4889 3.23838 66.8135 3.81345 66.3979 4.49307C65.9303 5.17269 65.6706 6.00915 65.6706 6.8456C65.6706 7.42067 65.7745 7.94345 65.9823 8.46624C66.1901 8.98903 66.5018 9.45953 66.9174 9.82548C67.333 10.2437 67.7487 10.5574 68.2682 10.7665C68.7358 10.9756 69.3073 11.0802 69.8787 11.0802ZM83.6982 42.8656C83.6982 42.8656 83.5943 39.938 78.8666 39.6243C74.035 39.3106 73.8272 41.4018 73.9311 42.1859C74.2947 42.1859 74.6064 42.2905 74.6064 42.3951C74.6064 42.4996 74.3467 42.6042 74.035 42.6042C74.2947 43.3884 75.0221 44.3294 77.1002 45.3749C78.8146 46.2114 79.6459 46.1591 80.633 46.0023C80.633 46.0023 81.7759 46.6819 81.7759 47.7798C81.7759 48.8253 79.9576 50.8642 71.4373 55.151C71.9568 32.0439 72.4244 11.7598 72.4244 11.7598H72.9439C73.1518 11.7598 73.3596 11.6552 73.5154 11.4984C73.6713 11.3416 73.7752 11.1325 73.7752 10.9233V10.6619C73.7752 10.5574 73.7752 10.4528 73.7232 10.3483C73.6713 10.2437 73.6193 10.1392 73.5154 10.0869C73.0479 10.6097 72.5283 11.0279 71.9049 11.3416C71.2815 11.6552 70.6061 11.7598 69.9307 11.7598C69.2553 11.7598 68.5799 11.603 67.9565 11.3416C67.3331 11.0802 66.7616 10.6097 66.3459 10.0869C66.242 10.1914 66.1901 10.2437 66.1381 10.3483C66.0862 10.4528 66.0862 10.5574 66.0862 10.6619V10.9233C66.0862 11.1325 66.1901 11.3416 66.3459 11.4984C66.5018 11.6552 66.7096 11.7598 66.9174 11.7598H67.437C67.437 11.7598 67.8006 31.4688 68.1643 54.1577C68.8916 54.5237 69.619 54.8896 70.4502 55.3079C70.5541 55.3602 70.71 55.4124 70.8139 55.4647C72.7361 56.4057 74.3467 57.1899 75.6974 57.9218C80.2693 56.1443 84.7372 54.1055 86.088 51.2301C88.4778 45.8977 83.6982 42.8656 83.6982 42.8656ZM77.3599 41.6632C76.8404 41.6632 76.4248 41.4018 76.4248 41.0881C76.4248 40.7744 76.8404 40.513 77.3599 40.513C77.8795 40.513 78.2951 40.7744 78.2951 41.0881C78.2951 41.4018 77.8795 41.6632 77.3599 41.6632ZM69.0994 107.848C69.5151 107.325 69.8787 106.802 70.2944 106.332C70.3463 103.352 70.4502 100.006 70.5022 96.3989C69.9826 95.8761 69.4112 95.3533 68.7877 94.7782C68.5799 94.6214 68.4241 94.4123 68.2162 94.2554C67.9565 93.994 67.6967 93.7849 67.437 93.5758C65.9823 94.9351 63.1249 97.9672 63.1249 100.581C63.1249 103.666 66.0862 106.802 68.3202 109.05C68.528 108.58 68.7877 108.214 69.0994 107.848ZM68.7877 95.4056C68.8916 99.8493 68.9436 103.927 68.9955 107.43C67.2811 105.129 65.4627 102.777 65.4627 101.156C65.4627 99.6401 66.3459 97.9149 68.7877 95.4056ZM69.9826 55.9875C59.8518 51.0733 57.7737 48.8253 57.7737 47.7275C57.7737 46.6296 58.9167 45.95 58.9167 45.95C59.9038 46.1591 60.735 46.1591 62.4495 45.3227C64.5276 44.3294 65.2549 43.3361 65.5147 42.5519C65.203 42.5519 64.9432 42.4473 64.9432 42.3428C64.9432 42.2382 65.2549 42.1337 65.6186 42.1337V42.0814C65.6706 41.2972 65.4108 39.2583 60.6311 39.572C55.9034 39.8857 55.7995 42.8133 55.7995 42.8133C55.7995 42.8133 51.0199 45.8977 53.5136 51.1256C55.6956 55.7784 65.9303 58.2355 71.8529 60.9017C77.7236 63.5679 77.3599 65.8681 77.3599 65.8681C77.3599 67.8547 73.4115 69.9459 70.2944 72.1416C67.1772 74.3373 60.5792 78.1536 60.5792 82.6496C60.5792 86.7796 64.6835 89.9686 68.6838 93.5235C72.7361 97.0785 74.035 99.2219 74.035 101.208C74.035 103.927 69.567 107.586 67.2811 112.135C64.9952 116.683 69.5151 123.741 68.1123 120.029C66.6577 116.317 67.437 113.703 69.3073 111.089C71.5932 107.9 76.4767 104.763 76.4767 100.529C76.4767 96.9739 71.3334 92.7916 71.3334 92.7916C66.7616 88.1911 63.8522 85.5772 63.8522 83.2769C63.8522 80.9767 66.0342 78.9378 72.1647 74.9124C78.2431 70.9392 81.8279 69.3708 81.8279 65.5022C81.8279 62.1041 80.1134 60.9017 69.9826 55.9875ZM62.1897 40.5653C62.7092 40.5653 63.1249 40.8267 63.1249 41.1404C63.1249 41.454 62.7092 41.7154 62.1897 41.7154C61.6702 41.7154 61.2546 41.454 61.2546 41.1404C61.2546 40.8267 61.6702 40.5653 62.1897 40.5653ZM187.292 80.663L180.278 95.9284H183.24L184.798 92.4257H192.591L194.15 95.9284H197.163L190.149 80.663H187.292ZM185.785 90.1777L188.695 83.5383L191.604 90.1777H185.785Z" fill="white"/>
</svg>
