<svg width="22" height="22" viewBox="0 0 22 22" fill="none" xmlns="http://www.w3.org/2000/svg">
<path d="M16.7625 12.1687C16.7625 15.9711 14.127 17.8722 10.9947 18.9749C10.8306 19.0311 10.6525 19.0284 10.4902 18.9673C7.35026 17.8722 4.71484 15.9711 4.71484 12.1687V6.84544C4.71484 6.64375 4.79418 6.45032 4.93539 6.30771C5.0766 6.16509 5.26812 6.08497 5.46782 6.08497C6.97377 6.08497 8.85621 5.17241 10.1664 4.0165C10.3259 3.87885 10.5288 3.80322 10.7387 3.80322C10.9485 3.80322 11.1514 3.87885 11.3109 4.0165C12.6286 5.18001 14.5035 6.08497 16.0095 6.08497C16.2092 6.08497 16.4007 6.16509 16.5419 6.30771C16.6831 6.45032 16.7625 6.64375 16.7625 6.84544V12.1687Z" stroke="#9096A2" stroke-width="2.48529" stroke-linecap="round" stroke-linejoin="round"/>
</svg>
