<svg width="32" height="32" viewBox="0 0 32 32" fill="none" xmlns="http://www.w3.org/2000/svg">
<path d="M5.33397 18.6666C5.08166 18.6674 4.83428 18.5967 4.62058 18.4625C4.40688 18.3284 4.23562 18.1364 4.12671 17.9088C4.0178 17.6812 3.9757 17.4273 4.00531 17.1768C4.03492 16.9262 4.13501 16.6892 4.29397 16.4932L17.494 2.89323C17.593 2.77893 17.7279 2.7017 17.8766 2.6742C18.0253 2.6467 18.1789 2.67058 18.3123 2.7419C18.4456 2.81322 18.5508 2.92775 18.6104 3.0667C18.6701 3.20565 18.6807 3.36076 18.6406 3.50656L16.0806 11.5332C16.0052 11.7353 15.9798 11.9526 16.0068 12.1666C16.0337 12.3806 16.1122 12.5848 16.2354 12.7618C16.3587 12.9388 16.523 13.0832 16.7143 13.1828C16.9057 13.2823 17.1183 13.3339 17.334 13.3332H26.6673C26.9196 13.3324 27.167 13.4031 27.3807 13.5373C27.5944 13.6714 27.7657 13.8634 27.8746 14.091C27.9835 14.3186 28.0256 14.5724 27.996 14.823C27.9664 15.0736 27.8663 15.3106 27.7073 15.5066L14.5073 29.1066C14.4083 29.2208 14.2734 29.2981 14.1247 29.3256C13.976 29.3531 13.8223 29.3292 13.689 29.2579C13.5557 29.1866 13.4505 29.072 13.3909 28.9331C13.3312 28.7941 13.3205 28.639 13.3606 28.4932L15.9206 20.4666C15.9961 20.2645 16.0215 20.0472 15.9945 19.8332C15.9676 19.6192 15.8891 19.415 15.7659 19.238C15.6426 19.061 15.4783 18.9165 15.2869 18.817C15.0956 18.7175 14.883 18.6659 14.6673 18.6666H5.33397Z" stroke="white" stroke-width="2.66667" stroke-linecap="round" stroke-linejoin="round"/>
</svg>
