<svg width="38" height="38" viewBox="0 0 38 38" fill="none" xmlns="http://www.w3.org/2000/svg">
<path d="M7.22383 31.2867C7.22383 31.3667 7.22448 31.411 7.22383 31.4554C7.21268 32.0931 7.20297 32.7308 7.18915 33.3685C7.18106 33.7266 7.08728 33.8142 6.727 33.8142H4.73483C3.90541 33.8142 3.07598 33.8142 2.24656 33.8142C1.95234 33.8142 1.84667 33.7064 1.84231 33.416C1.8326 32.7214 1.80916 32.0265 1.81061 31.3322C1.81783 28.0401 1.82902 24.748 1.84416 21.4558C1.83645 21.0676 1.84954 20.6793 1.88338 20.2925C1.93755 19.81 2.02325 19.3294 2.12383 18.8538C2.21332 18.4277 2.32502 18.0063 2.45847 17.5914C2.62414 17.0787 2.80306 16.5683 3.01222 16.0715C3.33712 15.3095 3.75643 14.5898 4.26064 13.9285C4.52292 13.5809 4.80534 13.2473 5.09147 12.918C5.28915 12.6906 5.50332 12.4761 5.71968 12.2654C6.41683 11.5908 7.18958 10.9959 8.02313 10.4922C8.91483 9.94843 9.8481 9.4918 10.8529 9.19803C11.6115 8.9765 12.3863 8.80603 13.1593 8.63652C13.4355 8.57594 13.7274 8.58308 14.0123 8.56252C14.2086 8.54833 14.405 8.53724 14.6017 8.52925C14.6323 8.52439 14.6636 8.52569 14.6937 8.53305C14.7239 8.54042 14.7521 8.55371 14.7769 8.57211C14.8016 8.59052 14.8223 8.61366 14.8377 8.64013C14.8531 8.66661 14.8628 8.69588 14.8664 8.72616C14.8943 8.8431 14.9117 8.96224 14.9183 9.08218C14.9219 10.3754 14.9226 11.6686 14.9205 12.9617C14.9205 13.2426 14.7811 13.4159 14.492 13.4768C14.2048 13.5374 13.9107 13.5709 13.6284 13.6474C13.1275 13.7832 12.6177 13.906 12.1407 14.1026C11.6521 14.3127 11.1807 14.5596 10.7307 14.841C10.2092 15.1677 9.73615 15.5638 9.32523 16.0179C8.7774 16.5956 8.31804 17.2485 7.9616 17.956C7.65811 18.5813 7.44349 19.2446 7.32376 19.9272C7.19933 20.5993 7.19707 21.277 7.23119 21.9519C7.27896 22.7992 7.50236 23.6279 7.8877 24.3874C8.11723 24.8714 8.39312 25.333 8.71165 25.7657C9.08281 26.2532 9.51087 26.6963 9.98708 27.0859C10.5301 27.5327 11.1332 27.9039 11.7795 28.189C12.952 28.6981 14.2342 28.9158 15.5128 28.8228C16.2297 28.7792 16.9359 28.6302 17.6078 28.3809C18.3355 28.1213 19.019 27.7551 19.6352 27.2948C20.1926 26.8836 20.6869 26.3959 21.103 25.8466C21.6435 25.1195 22.0942 24.3398 22.3412 23.4681C22.4787 22.9817 22.5595 22.4786 22.648 21.98C22.6921 21.7318 22.686 21.4753 22.7228 21.2257C22.7562 20.9986 22.8123 20.8362 23.1313 20.8349C24.6047 20.829 26.078 20.8141 27.5513 20.805C27.7366 20.8039 27.9568 21.1083 27.919 21.2984C27.9066 21.3515 27.8992 21.4056 27.8969 21.46C27.8846 22.0152 27.8304 22.5687 27.7346 23.116C27.6114 23.886 27.4154 24.643 27.149 25.3772C26.7194 26.5676 26.1511 27.6884 25.3616 28.6899C24.9895 29.1753 24.5916 29.641 24.1695 30.0852C23.7855 30.46 23.3782 30.811 22.9499 31.1363C22.6215 31.407 22.2734 31.6538 21.9084 31.8747C21.335 32.2082 20.7442 32.5163 20.1463 32.8055C19.7866 32.9751 19.4139 33.117 19.0318 33.2298C18.4823 33.3974 17.9272 33.5464 17.3663 33.6766C16.7688 33.8053 16.1579 33.8632 15.5464 33.849C15.0202 33.8449 14.491 33.8831 13.9687 33.8388C13.3696 33.7884 12.7747 33.6985 12.1879 33.5699C11.2348 33.3599 10.3107 33.0388 9.43527 32.6134C8.73091 32.2646 8.05539 31.8623 7.41488 31.4102C7.36128 31.3729 7.30574 31.3394 7.22383 31.2867Z" fill="#0A0C10"/>
<path d="M22.4121 15.9349V13.7946C22.4121 13.5137 22.3205 13.4185 22.0302 13.4125C21.3867 13.3991 20.7431 13.3846 20.0996 13.3795C19.3902 13.3739 18.6807 13.3838 17.9714 13.3751C17.7366 13.369 17.5025 13.3462 17.2711 13.3068C16.9888 13.2628 16.8489 13.0214 16.8362 12.7208C16.7989 11.8491 16.7997 10.9757 16.7951 10.1029C16.7932 9.74283 16.8081 9.38228 16.8294 9.02268C16.8455 8.75518 16.8628 8.47308 17.1519 8.3331C17.2754 8.27289 17.4103 8.23842 17.5481 8.23186C18.1571 8.21069 18.7666 8.19854 19.3765 8.19542C20.171 8.18986 20.9656 8.19852 21.76 8.1905C21.9319 8.18239 22.1024 8.15611 22.2686 8.11213C22.3795 8.08688 22.4154 8.002 22.4148 7.88457C22.41 6.94819 22.4095 6.01184 22.4136 5.07551C22.4167 4.53258 22.4317 3.98965 22.4472 3.44687C22.4582 3.06258 22.6371 2.80882 22.9492 2.75046C23.1209 2.72161 23.2949 2.70832 23.4691 2.71076C24.5473 2.70735 25.6258 2.69973 26.7038 2.71656C26.9302 2.72013 27.1756 2.69361 27.3893 2.82772C27.5218 2.91077 27.6326 3.00589 27.6549 3.16548C27.6907 3.3651 27.713 3.56681 27.7217 3.76931C27.7276 5.11815 27.7248 6.4669 27.7248 7.81573C27.7248 8.04726 27.8321 8.15564 28.0766 8.1604C28.7326 8.17327 29.3886 8.18867 30.0446 8.19312C30.8675 8.19867 31.6904 8.19439 32.5133 8.19447C32.8595 8.19447 33.2006 8.50492 33.2059 8.84554C33.2224 9.87985 33.2337 10.9142 33.2398 11.9487C33.2416 12.2417 33.2236 12.5351 33.2063 12.8279C33.1953 12.9566 33.1398 13.0778 33.0491 13.1714C32.9584 13.265 32.8379 13.3254 32.7075 13.3425C32.5234 13.3639 32.3383 13.3753 32.1529 13.3768C30.9668 13.3798 29.7807 13.3768 28.5946 13.3799C28.4121 13.3816 28.2299 13.3932 28.0488 13.4146C27.8486 13.437 27.7615 13.5596 27.7592 13.805C27.7472 15.0958 27.7394 16.3868 27.7219 17.6776C27.7223 17.925 27.6977 18.1718 27.6487 18.4144C27.6243 18.5092 27.5724 18.595 27.4995 18.6615C27.4265 18.728 27.3355 18.7724 27.2375 18.7893C27.0075 18.8367 26.7732 18.8606 26.5382 18.8608C25.6529 18.8686 24.7676 18.8686 23.8823 18.8608C23.5804 18.8578 23.278 18.8271 22.9774 18.7947C22.692 18.7639 22.4122 18.4392 22.4122 18.1595C22.4119 17.4177 22.4119 16.6761 22.4121 15.9349Z" fill="#0A0C10"/>
<path d="M31.2559 5.99301C31.4833 5.89189 31.7159 5.80242 31.9528 5.72496C32.3927 5.60515 32.6272 5.30415 32.763 4.90509C32.8173 4.74549 32.8542 4.58034 32.9018 4.41845C32.9255 4.33794 32.9554 4.25917 32.9827 4.17962L33.0347 4.17676C33.1038 4.41305 33.1803 4.6476 33.2403 4.88611C33.3306 5.24468 33.5257 5.50455 33.8889 5.63818C34.1705 5.74179 34.4448 5.8651 34.752 5.9919C34.591 6.05066 34.4448 6.09568 34.3056 6.15682C34.0694 6.26059 33.8188 6.34737 33.6089 6.49077C33.3273 6.68275 33.2648 7.01393 33.174 7.31818C33.1306 7.46341 33.0866 7.60839 33.0428 7.75353L32.9932 7.75853L32.8676 7.39981C32.7978 7.20036 32.7425 6.99432 32.6547 6.80281C32.4978 6.46067 32.1766 6.31188 31.842 6.18992C31.6606 6.12347 31.4759 6.06622 31.2559 5.99301Z" fill="#0A0C10"/>
<path d="M34.993 7.07471C35.0631 7.65504 35.3212 8.04632 35.941 8.14437C35.3204 8.24243 35.0773 8.65142 34.9708 9.19022C34.8568 8.65705 34.6521 8.22949 34 8.17812C34.2593 8.03385 34.52 7.9558 34.6737 7.78462C34.8275 7.61343 34.8767 7.34832 34.993 7.07471Z" fill="#0A0C10"/>
</svg>
