<svg width="32" height="33" viewBox="0 0 32 33" fill="none" xmlns="http://www.w3.org/2000/svg">
<path d="M26.6673 18.0833C26.6673 24.7499 22.0007 28.0833 16.454 30.0166C16.1635 30.115 15.848 30.1103 15.5607 30.0033C10.0007 28.0833 5.33398 24.7499 5.33398 18.0833V8.74995C5.33398 8.39633 5.47446 8.05719 5.72451 7.80714C5.97456 7.55709 6.3137 7.41662 6.66732 7.41662C9.33398 7.41662 12.6673 5.81662 14.9873 3.78995C15.2698 3.54861 15.6291 3.41602 16.0007 3.41602C16.3722 3.41602 16.7315 3.54861 17.014 3.78995C19.3473 5.82995 22.6673 7.41662 25.334 7.41662C25.6876 7.41662 26.0267 7.55709 26.2768 7.80714C26.5268 8.05719 26.6673 8.39633 26.6673 8.74995V18.0833Z" stroke="white" stroke-width="2.66667" stroke-linecap="round" stroke-linejoin="round"/>
</svg>
