<svg width="21" height="21" viewBox="0 0 21 21" fill="none" xmlns="http://www.w3.org/2000/svg">
<path d="M9.48047 2.07861V3.72366" stroke="#A0BE41" stroke-width="1.64505" stroke-linecap="round" stroke-linejoin="round"/>
<path d="M4.54688 2.07861V3.72366" stroke="#A0BE41" stroke-width="1.64505" stroke-linecap="round" stroke-linejoin="round"/>
<path d="M4.5457 2.90137H3.72318C3.28688 2.90137 2.86846 3.07468 2.55995 3.38319C2.25144 3.6917 2.07813 4.11012 2.07812 4.54642V7.83652C2.07813 9.1454 2.59808 10.4007 3.5236 11.3262C4.44912 12.2517 5.70439 12.7717 7.01328 12.7717C8.32216 12.7717 9.57744 12.2517 10.503 11.3262C11.4285 10.4007 11.9484 9.1454 11.9484 7.83652V4.54642C11.9484 4.11012 11.7751 3.6917 11.4666 3.38319C11.1581 3.07468 10.7397 2.90137 10.3034 2.90137H9.48086" stroke="#A0BE41" stroke-width="1.64505" stroke-linecap="round" stroke-linejoin="round"/>
<path d="M7.01367 12.7713C7.01367 14.0802 7.53362 15.3354 8.45914 16.261C9.38467 17.1865 10.6399 17.7064 11.9488 17.7064C13.2577 17.7064 14.513 17.1865 15.4385 16.261C16.364 15.3354 16.884 14.0802 16.884 12.7713V10.3037" stroke="#A0BE41" stroke-width="1.64505" stroke-linecap="round" stroke-linejoin="round"/>
<path d="M16.8833 10.3038C17.7919 10.3038 18.5284 9.56726 18.5284 8.65872C18.5284 7.75019 17.7919 7.01367 16.8833 7.01367C15.9748 7.01367 15.2383 7.75019 15.2383 8.65872C15.2383 9.56726 15.9748 10.3038 16.8833 10.3038Z" stroke="#A0BE41" stroke-width="1.64505" stroke-linecap="round" stroke-linejoin="round"/>
</svg>
