<svg width="396" height="407" viewBox="0 0 396 407" fill="none" xmlns="http://www.w3.org/2000/svg">
<rect x="0.5" y="0.5" width="395" height="406" rx="31.5" fill="#E7E9E3" fill-opacity="0.8"/>
<rect x="0.5" y="0.5" width="395" height="406" rx="31.5" stroke="#C8CBC2"/>
<line x1="44.3945" y1="182.259" x2="355.76" y2="181.81" stroke="url(#paint0_linear_1988_23883)" stroke-width="0.790205" stroke-linecap="round" stroke-dasharray="1.32 1.32"/>
<circle cx="47.4313" cy="181.126" r="4.93131" fill="#525252"/>
<circle cx="122.538" cy="181.126" r="4.93131" fill="#525252"/>
<circle cx="197.646" cy="181.126" r="4.93131" fill="#525252"/>
<circle cx="272.753" cy="181.126" r="4.93131" fill="#525252"/>
<circle cx="347.861" cy="181.126" r="4.93131" fill="#525252"/>
<path d="M39.9558 166.28H43.1556V167.711H38.4589V160.119H43.1013V161.55H39.9558V163.167H42.8302V164.577H39.9558V166.28ZM48.5277 160.119H50.0137V167.711H48.5277V164.566H45.7075V167.711H44.2107V160.119H45.7075V163.134H48.5277V160.119ZM55.5893 167.711L54.06 165.076H52.921V167.711H51.4242V160.119H54.4613C55.1627 160.119 55.7593 160.365 56.251 160.856C56.7427 161.348 56.9886 161.941 56.9886 162.635C56.9886 163.105 56.8548 163.543 56.5873 163.948C56.3197 164.345 55.9654 164.645 55.5243 164.848L57.2055 167.711H55.5893ZM52.921 161.518V163.763H54.4613C54.7433 163.763 54.9855 163.655 55.188 163.438C55.3905 163.214 55.4917 162.946 55.4917 162.635C55.4917 162.324 55.3905 162.06 55.188 161.843C54.9855 161.626 54.7433 161.518 54.4613 161.518H52.921Z" fill="#424242"/>
<path d="M28.4197 239.164L28.5451 238.431L31.3604 236.001C32.0996 235.384 32.5142 234.838 32.6042 234.362C32.6749 233.983 32.6106 233.687 32.4113 233.475C32.2185 233.263 31.955 233.157 31.6207 233.157C31.0229 233.157 30.5184 233.462 30.107 234.073L29.3935 233.62C29.9849 232.733 30.7626 232.289 31.7268 232.289C32.2924 232.289 32.7552 232.488 33.1152 232.887C33.4815 233.279 33.6069 233.793 33.4912 234.43C33.4269 234.822 33.2662 235.182 33.0091 235.509C32.7584 235.837 32.4081 236.194 31.9582 236.58L29.9238 238.296H32.932L32.7873 239.164H28.4197ZM37.7464 239.164L36.9944 232.414H37.8814L38.4599 237.987L41.0824 232.414H41.9887L42.654 237.987L45.1994 232.414H46.1539L43.03 239.164H41.9887L41.3331 233.774L38.7877 239.164H37.7464ZM48.3081 234.217C49.0344 234.217 49.5904 234.468 49.9761 234.969C50.3682 235.464 50.4967 236.062 50.3617 236.763C50.3489 236.866 50.3167 236.991 50.2653 237.139H46.2351C46.2351 237.57 46.3669 237.904 46.6305 238.142C46.9004 238.379 47.2572 238.498 47.7007 238.498C48.3499 238.498 48.8609 238.26 49.2337 237.785L49.8604 238.238C49.6161 238.572 49.2915 238.833 48.8866 239.019C48.4881 239.199 48.0606 239.289 47.6042 239.289C46.8458 239.289 46.2641 239.035 45.8591 238.527C45.4542 238.019 45.316 237.396 45.4445 236.657C45.5667 235.956 45.8977 235.374 46.4376 234.912C46.9775 234.449 47.601 234.217 48.3081 234.217ZM46.3605 236.396H49.5711C49.5904 235.94 49.4779 235.596 49.2337 235.365C48.9894 235.127 48.6648 235.008 48.2599 235.008C47.8099 235.008 47.4146 235.133 47.074 235.384C46.7397 235.628 46.5019 235.966 46.3605 236.396ZM53.9292 234.217C54.6555 234.217 55.2115 234.468 55.5972 234.969C55.9893 235.464 56.1178 236.062 55.9828 236.763C55.97 236.866 55.9379 236.991 55.8864 237.139H51.8563C51.8563 237.57 51.988 237.904 52.2516 238.142C52.5215 238.379 52.8783 238.498 53.3218 238.498C53.971 238.498 54.482 238.26 54.8548 237.785L55.4815 238.238C55.2372 238.572 54.9126 238.833 54.5077 239.019C54.1092 239.199 53.6817 239.289 53.2254 239.289C52.4669 239.289 51.8852 239.035 51.4802 238.527C51.0753 238.019 50.9371 237.396 51.0656 236.657C51.1878 235.956 51.5188 235.374 52.0587 234.912C52.5987 234.449 53.2221 234.217 53.9292 234.217ZM51.9816 236.396H55.1922C55.2115 235.94 55.099 235.596 54.8548 235.365C54.6105 235.127 54.2859 235.008 53.881 235.008C53.431 235.008 53.0357 235.133 52.6951 235.384C52.3608 235.628 52.123 235.966 51.9816 236.396ZM61.3434 234.343L58.6245 236.676L60.5817 239.164H59.6176L57.776 236.792L57.3614 239.164H56.5226L57.7085 232.414H58.5474L57.8435 236.435L60.2636 234.343H61.3434ZM62.7594 239.289C62.2838 239.289 61.8917 239.186 61.5832 238.98C61.2811 238.768 61.0722 238.482 60.9565 238.122L61.7085 237.737C61.7599 237.962 61.8821 238.145 62.0749 238.286C62.2741 238.428 62.5248 238.498 62.8269 238.498C63.1097 238.498 63.3444 238.444 63.5308 238.334C63.7236 238.225 63.8393 238.068 63.8779 237.862C63.9036 237.721 63.8746 237.602 63.7911 237.505C63.7075 237.409 63.5886 237.332 63.4343 237.274C63.2865 237.21 63.1194 237.148 62.933 237.091C62.753 237.033 62.573 236.965 62.3931 236.888C62.2131 236.811 62.0524 236.721 61.911 236.618C61.7696 236.515 61.6635 236.374 61.5928 236.194C61.5221 236.008 61.5092 235.792 61.5542 235.548C61.6249 235.156 61.8306 234.838 62.1713 234.593C62.5184 234.343 62.9233 234.217 63.3861 234.217C64.2089 234.217 64.7681 234.552 65.0638 235.22L64.3214 235.606C64.1928 235.201 63.8682 234.998 63.3476 234.998C63.1226 234.998 62.9169 235.053 62.7305 235.162C62.5441 235.265 62.4316 235.423 62.3931 235.635C62.3609 235.828 62.4252 235.982 62.5859 236.098C62.753 236.213 62.9619 236.31 63.2126 236.387C63.4697 236.464 63.7236 236.551 63.9743 236.647C64.225 236.744 64.4242 236.901 64.5721 237.12C64.7199 237.338 64.7649 237.618 64.707 237.958C64.6299 238.383 64.4178 238.71 64.0707 238.942C63.7236 239.173 63.2865 239.289 62.7594 239.289Z" fill="#D85F5F"/>
<path d="M177.474 239.164L177.599 238.431L180.415 236.001C181.154 235.384 181.568 234.838 181.658 234.362C181.729 233.983 181.665 233.687 181.466 233.475C181.273 233.263 181.009 233.157 180.675 233.157C180.077 233.157 179.573 233.462 179.161 234.073L178.448 233.62C179.039 232.733 179.817 232.289 180.781 232.289C181.347 232.289 181.809 232.488 182.169 232.887C182.536 233.279 182.661 233.793 182.545 234.43C182.481 234.822 182.32 235.182 182.063 235.509C181.813 235.837 181.462 236.194 181.012 236.58L178.978 238.296H181.986L181.842 239.164H177.474ZM192.846 232.414L191.66 239.164H190.773L191.699 233.919L188.854 237.563H188.739L187.177 233.832L186.241 239.164H185.345L186.531 232.414H187.514L188.999 236.02L191.795 232.414H192.846ZM195.34 239.289C194.627 239.289 194.055 239.041 193.624 238.547C193.193 238.052 193.045 237.425 193.18 236.666C193.315 235.921 193.669 235.326 194.241 234.883C194.813 234.439 195.449 234.217 196.15 234.217C196.838 234.217 197.391 234.465 197.808 234.96C198.226 235.455 198.371 236.075 198.242 236.821C198.114 237.579 197.77 238.18 197.211 238.624C196.651 239.067 196.028 239.289 195.34 239.289ZM195.408 238.469C195.877 238.469 196.304 238.315 196.69 238.007C197.082 237.698 197.323 237.274 197.413 236.734C197.503 236.213 197.407 235.802 197.124 235.5C196.847 235.191 196.478 235.037 196.015 235.037C195.559 235.043 195.138 235.198 194.752 235.5C194.366 235.802 194.122 236.22 194.019 236.753C193.929 237.293 194.022 237.717 194.299 238.026C194.582 238.328 194.951 238.476 195.408 238.469ZM202.046 234.217C202.612 234.217 203.039 234.397 203.329 234.757C203.624 235.117 203.721 235.599 203.618 236.204L203.097 239.164H202.258L202.769 236.252C202.84 235.853 202.792 235.548 202.625 235.336C202.458 235.124 202.181 235.018 201.795 235.018C201.384 235.018 201.024 235.149 200.716 235.413C200.407 235.67 200.208 236.069 200.118 236.609V236.599L199.665 239.164H198.826L199.674 234.343H200.513L200.397 234.979C200.815 234.471 201.365 234.217 202.046 234.217ZM206.322 235.153L205.859 237.766C205.814 237.997 205.833 238.164 205.917 238.267C206 238.37 206.135 238.424 206.322 238.431C206.515 238.431 206.752 238.424 207.035 238.412L206.9 239.164C206.187 239.26 205.669 239.199 205.348 238.98C205.027 238.755 204.917 238.35 205.02 237.766L205.473 235.153H204.519L204.673 234.343H205.618L205.811 233.244L206.698 232.993L206.457 234.343H207.749L207.604 235.153H206.322ZM211.113 234.217C211.679 234.217 212.106 234.397 212.396 234.757C212.691 235.117 212.788 235.599 212.685 236.204L212.164 239.164H211.326L211.837 236.252C211.907 235.853 211.859 235.548 211.692 235.336C211.525 235.124 211.248 235.018 210.863 235.018C210.451 235.018 210.091 235.149 209.783 235.413C209.474 235.67 209.275 236.069 209.185 236.609V236.599L208.732 239.164H207.893L209.079 232.414H209.918L209.465 234.979C209.882 234.471 210.432 234.217 211.113 234.217ZM215.1 239.289C214.624 239.289 214.232 239.186 213.923 238.98C213.621 238.768 213.412 238.482 213.297 238.122L214.049 237.737C214.1 237.962 214.222 238.145 214.415 238.286C214.614 238.428 214.865 238.498 215.167 238.498C215.45 238.498 215.685 238.444 215.871 238.334C216.064 238.225 216.18 238.068 216.218 237.862C216.244 237.721 216.215 237.602 216.131 237.505C216.048 237.409 215.929 237.332 215.775 237.274C215.627 237.21 215.46 237.148 215.273 237.091C215.093 237.033 214.913 236.965 214.733 236.888C214.553 236.811 214.393 236.721 214.251 236.618C214.11 236.515 214.004 236.374 213.933 236.194C213.862 236.008 213.85 235.792 213.895 235.548C213.965 235.156 214.171 234.838 214.512 234.593C214.859 234.343 215.264 234.217 215.726 234.217C216.549 234.217 217.108 234.552 217.404 235.22L216.662 235.606C216.533 235.201 216.209 234.998 215.688 234.998C215.463 234.998 215.257 235.053 215.071 235.162C214.884 235.265 214.772 235.423 214.733 235.635C214.701 235.828 214.765 235.982 214.926 236.098C215.093 236.213 215.302 236.31 215.553 236.387C215.81 236.464 216.064 236.551 216.315 236.647C216.565 236.744 216.765 236.901 216.912 237.12C217.06 237.338 217.105 237.618 217.047 237.958C216.97 238.383 216.758 238.71 216.411 238.942C216.064 239.173 215.627 239.289 215.1 239.289Z" fill="#D85F5F"/>
<path d="M324.705 233.639L328.369 235.374L328.301 235.789L328.224 236.194L323.953 237.929L324.127 236.975L327.357 235.741L324.56 234.497L324.705 233.639ZM334.004 234.748C334.666 234.748 335.183 234.973 335.556 235.423C335.935 235.866 336.064 236.419 335.942 237.081C335.82 237.749 335.514 238.286 335.026 238.691C334.544 239.09 333.952 239.289 333.252 239.289C332.583 239.289 332.063 239.067 331.69 238.624C331.317 238.174 331.192 237.614 331.314 236.946C331.423 236.355 331.674 235.873 332.066 235.5L334.669 232.414H335.749L333.763 234.757C333.814 234.751 333.894 234.748 334.004 234.748ZM335.055 237.014C335.125 236.589 335.055 236.249 334.843 235.991C334.63 235.734 334.309 235.606 333.878 235.606C333.441 235.606 333.072 235.734 332.77 235.991C332.468 236.242 332.281 236.583 332.21 237.014C332.133 237.444 332.201 237.788 332.413 238.045C332.625 238.302 332.946 238.431 333.377 238.431C333.808 238.431 334.174 238.302 334.476 238.045C334.785 237.788 334.978 237.444 335.055 237.014ZM346.481 232.414L345.295 239.164H344.408L345.333 233.919L342.489 237.563H342.373L340.812 233.832L339.876 239.164H338.98L340.166 232.414H341.149L342.634 236.02L345.43 232.414H346.481ZM348.975 239.289C348.261 239.289 347.689 239.041 347.259 238.547C346.828 238.052 346.68 237.425 346.815 236.666C346.95 235.921 347.304 235.326 347.876 234.883C348.448 234.439 349.084 234.217 349.785 234.217C350.473 234.217 351.025 234.465 351.443 234.96C351.861 235.455 352.006 236.075 351.877 236.821C351.748 237.579 351.405 238.18 350.845 238.624C350.286 239.067 349.663 239.289 348.975 239.289ZM349.042 238.469C349.512 238.469 349.939 238.315 350.325 238.007C350.717 237.698 350.958 237.274 351.048 236.734C351.138 236.213 351.041 235.802 350.759 235.5C350.482 235.191 350.113 235.037 349.65 235.037C349.193 235.043 348.772 235.198 348.387 235.5C348.001 235.802 347.757 236.22 347.654 236.753C347.564 237.293 347.657 237.717 347.934 238.026C348.216 238.328 348.586 238.476 349.042 238.469ZM355.681 234.217C356.247 234.217 356.674 234.397 356.963 234.757C357.259 235.117 357.355 235.599 357.253 236.204L356.732 239.164H355.893L356.404 236.252C356.475 235.853 356.427 235.548 356.26 235.336C356.092 235.124 355.816 235.018 355.43 235.018C355.019 235.018 354.659 235.149 354.35 235.413C354.042 235.67 353.843 236.069 353.753 236.609V236.599L353.3 239.164H352.461L353.309 234.343H354.148L354.032 234.979C354.45 234.471 355 234.217 355.681 234.217ZM359.957 235.153L359.494 237.766C359.449 237.997 359.468 238.164 359.552 238.267C359.635 238.37 359.77 238.424 359.957 238.431C360.149 238.431 360.387 238.424 360.67 238.412L360.535 239.164C359.822 239.26 359.304 239.199 358.983 238.98C358.661 238.755 358.552 238.35 358.655 237.766L359.108 235.153H358.154L358.308 234.343H359.253L359.446 233.244L360.333 232.993L360.092 234.343H361.384L361.239 235.153H359.957ZM364.748 234.217C365.314 234.217 365.741 234.397 366.031 234.757C366.326 235.117 366.423 235.599 366.32 236.204L365.799 239.164H364.96L365.471 236.252C365.542 235.853 365.494 235.548 365.327 235.336C365.16 235.124 364.883 235.018 364.498 235.018C364.086 235.018 363.726 235.149 363.418 235.413C363.109 235.67 362.91 236.069 362.82 236.609V236.599L362.367 239.164H361.528L362.714 232.414H363.553L363.1 234.979C363.517 234.471 364.067 234.217 364.748 234.217ZM368.735 239.289C368.259 239.289 367.867 239.186 367.558 238.98C367.256 238.768 367.047 238.482 366.932 238.122L367.684 237.737C367.735 237.962 367.857 238.145 368.05 238.286C368.249 238.428 368.5 238.498 368.802 238.498C369.085 238.498 369.319 238.444 369.506 238.334C369.699 238.225 369.814 238.068 369.853 237.862C369.879 237.721 369.85 237.602 369.766 237.505C369.683 237.409 369.564 237.332 369.409 237.274C369.262 237.21 369.095 237.148 368.908 237.091C368.728 237.033 368.548 236.965 368.368 236.888C368.188 236.811 368.028 236.721 367.886 236.618C367.745 236.515 367.639 236.374 367.568 236.194C367.497 236.008 367.484 235.792 367.529 235.548C367.6 235.156 367.806 234.838 368.146 234.593C368.494 234.343 368.898 234.217 369.361 234.217C370.184 234.217 370.743 234.552 371.039 235.22L370.297 235.606C370.168 235.201 369.843 234.998 369.323 234.998C369.098 234.998 368.892 235.053 368.706 235.162C368.519 235.265 368.407 235.423 368.368 235.635C368.336 235.828 368.4 235.982 368.561 236.098C368.728 236.213 368.937 236.31 369.188 236.387C369.445 236.464 369.699 236.551 369.949 236.647C370.2 236.744 370.399 236.901 370.547 237.12C370.695 237.338 370.74 237.618 370.682 237.958C370.605 238.383 370.393 238.71 370.046 238.942C369.699 239.173 369.262 239.289 368.735 239.289Z" fill="#D85F5F"/>
<path d="M105.715 127.397C106.377 127.397 106.895 127.622 107.267 128.072C107.647 128.516 107.775 129.068 107.653 129.73C107.531 130.399 107.226 130.936 106.737 131.341C106.255 131.739 105.664 131.938 104.963 131.938C104.295 131.938 103.774 131.717 103.401 131.273C103.028 130.823 102.903 130.264 103.025 129.595C103.134 129.004 103.385 128.522 103.777 128.149L106.38 125.064H107.46L105.474 127.407C105.525 127.4 105.606 127.397 105.715 127.397ZM106.766 129.663C106.837 129.239 106.766 128.898 106.554 128.641C106.342 128.384 106.02 128.255 105.59 128.255C105.153 128.255 104.783 128.384 104.481 128.641C104.179 128.892 103.992 129.232 103.922 129.663C103.845 130.094 103.912 130.437 104.124 130.695C104.336 130.952 104.658 131.08 105.088 131.08C105.519 131.08 105.885 130.952 106.188 130.695C106.496 130.437 106.689 130.094 106.766 129.663ZM112.147 131.813L111.395 125.064H112.282L112.86 130.637L115.483 125.064H116.389L117.054 130.637L119.6 125.064H120.554L117.43 131.813H116.389L115.734 126.423L113.188 131.813H112.147ZM122.709 126.867C123.435 126.867 123.991 127.118 124.376 127.619C124.769 128.114 124.897 128.712 124.762 129.412C124.749 129.515 124.717 129.64 124.666 129.788H120.636C120.636 130.219 120.767 130.553 121.031 130.791C121.301 131.029 121.658 131.148 122.101 131.148C122.75 131.148 123.261 130.91 123.634 130.434L124.261 130.887C124.017 131.222 123.692 131.482 123.287 131.668C122.888 131.848 122.461 131.938 122.005 131.938C121.246 131.938 120.664 131.684 120.26 131.177C119.855 130.669 119.716 130.045 119.845 129.306C119.967 128.606 120.298 128.024 120.838 127.561C121.378 127.098 122.001 126.867 122.709 126.867ZM120.761 129.046H123.972C123.991 128.589 123.878 128.246 123.634 128.014C123.39 127.776 123.065 127.657 122.66 127.657C122.21 127.657 121.815 127.783 121.474 128.033C121.14 128.278 120.902 128.615 120.761 129.046ZM128.33 126.867C129.056 126.867 129.612 127.118 129.998 127.619C130.39 128.114 130.518 128.712 130.383 129.412C130.37 129.515 130.338 129.64 130.287 129.788H126.257C126.257 130.219 126.388 130.553 126.652 130.791C126.922 131.029 127.279 131.148 127.722 131.148C128.371 131.148 128.882 130.91 129.255 130.434L129.882 130.887C129.638 131.222 129.313 131.482 128.908 131.668C128.51 131.848 128.082 131.938 127.626 131.938C126.867 131.938 126.286 131.684 125.881 131.177C125.476 130.669 125.338 130.045 125.466 129.306C125.588 128.606 125.919 128.024 126.459 127.561C126.999 127.098 127.623 126.867 128.33 126.867ZM126.382 129.046H129.593C129.612 128.589 129.499 128.246 129.255 128.014C129.011 127.776 128.686 127.657 128.281 127.657C127.831 127.657 127.436 127.783 127.095 128.033C126.761 128.278 126.523 128.615 126.382 129.046ZM135.744 126.992L133.025 129.325L134.982 131.813H134.018L132.176 129.441L131.762 131.813H130.923L132.109 125.064H132.948L132.244 129.084L134.664 126.992H135.744ZM137.16 131.938C136.684 131.938 136.292 131.835 135.984 131.63C135.681 131.418 135.473 131.132 135.357 130.772L136.109 130.386C136.16 130.611 136.282 130.794 136.475 130.936C136.675 131.077 136.925 131.148 137.227 131.148C137.51 131.148 137.745 131.093 137.931 130.984C138.124 130.875 138.24 130.717 138.278 130.511C138.304 130.37 138.275 130.251 138.192 130.155C138.108 130.058 137.989 129.981 137.835 129.923C137.687 129.859 137.52 129.798 137.333 129.74C137.153 129.682 136.973 129.615 136.793 129.538C136.614 129.46 136.453 129.37 136.311 129.268C136.17 129.165 136.064 129.023 135.993 128.843C135.923 128.657 135.91 128.442 135.955 128.197C136.025 127.805 136.231 127.487 136.572 127.243C136.919 126.992 137.324 126.867 137.787 126.867C138.609 126.867 139.169 127.201 139.464 127.87L138.722 128.255C138.593 127.85 138.269 127.648 137.748 127.648C137.523 127.648 137.317 127.702 137.131 127.812C136.945 127.915 136.832 128.072 136.793 128.284C136.761 128.477 136.826 128.631 136.986 128.747C137.153 128.863 137.362 128.959 137.613 129.036C137.87 129.113 138.124 129.2 138.375 129.297C138.625 129.393 138.825 129.55 138.972 129.769C139.12 129.988 139.165 130.267 139.107 130.608C139.03 131.032 138.818 131.36 138.471 131.591C138.124 131.823 137.687 131.938 137.16 131.938Z" fill="#D85F5F"/>
<path d="M257.167 129.692L257.032 130.531H256.203L255.981 131.813H255.084L255.306 130.531H251.874L252.009 129.692L255.229 125.064H256.241L253.021 129.692H255.451L255.788 127.783H256.685L256.347 129.692H257.167ZM267.573 125.064L266.387 131.813H265.5L266.425 126.568L263.581 130.212H263.465L261.903 126.481L260.968 131.813H260.071L261.257 125.064H262.241L263.726 128.67L266.522 125.064H267.573ZM270.067 131.938C269.353 131.938 268.781 131.691 268.351 131.196C267.92 130.701 267.772 130.074 267.907 129.316C268.042 128.57 268.396 127.976 268.968 127.532C269.54 127.089 270.176 126.867 270.877 126.867C271.564 126.867 272.117 127.114 272.535 127.609C272.953 128.104 273.097 128.724 272.969 129.47C272.84 130.229 272.496 130.83 271.937 131.273C271.378 131.717 270.754 131.938 270.067 131.938ZM270.134 131.119C270.603 131.119 271.031 130.965 271.417 130.656C271.809 130.347 272.05 129.923 272.14 129.383C272.23 128.863 272.133 128.451 271.85 128.149C271.574 127.841 271.204 127.686 270.742 127.686C270.285 127.693 269.864 127.847 269.479 128.149C269.093 128.451 268.849 128.869 268.746 129.403C268.656 129.943 268.749 130.367 269.025 130.675C269.308 130.977 269.678 131.125 270.134 131.119ZM276.773 126.867C277.338 126.867 277.766 127.047 278.055 127.407C278.351 127.767 278.447 128.249 278.344 128.853L277.824 131.813H276.985L277.496 128.901C277.567 128.503 277.518 128.197 277.351 127.985C277.184 127.773 276.908 127.667 276.522 127.667C276.111 127.667 275.751 127.799 275.442 128.062C275.134 128.32 274.934 128.718 274.844 129.258V129.248L274.391 131.813H273.553L274.401 126.992H275.24L275.124 127.629C275.542 127.121 276.091 126.867 276.773 126.867ZM281.048 127.802L280.586 130.415C280.541 130.646 280.56 130.813 280.643 130.916C280.727 131.019 280.862 131.074 281.048 131.08C281.241 131.08 281.479 131.074 281.762 131.061L281.627 131.813C280.913 131.909 280.396 131.848 280.075 131.63C279.753 131.405 279.644 131 279.747 130.415L280.2 127.802H279.245L279.4 126.992H280.345L280.537 125.893L281.424 125.642L281.183 126.992H282.475L282.331 127.802H281.048ZM285.84 126.867C286.406 126.867 286.833 127.047 287.122 127.407C287.418 127.767 287.514 128.249 287.412 128.853L286.891 131.813H286.052L286.563 128.901C286.634 128.503 286.586 128.197 286.419 127.985C286.251 127.773 285.975 127.667 285.589 127.667C285.178 127.667 284.818 127.799 284.509 128.062C284.201 128.32 284.002 128.718 283.912 129.258V129.248L283.459 131.813H282.62L283.806 125.064H284.644L284.191 127.629C284.609 127.121 285.159 126.867 285.84 126.867ZM289.826 131.938C289.351 131.938 288.959 131.835 288.65 131.63C288.348 131.418 288.139 131.132 288.023 130.772L288.775 130.386C288.827 130.611 288.949 130.794 289.142 130.936C289.341 131.077 289.592 131.148 289.894 131.148C290.177 131.148 290.411 131.093 290.598 130.984C290.791 130.875 290.906 130.717 290.945 130.511C290.97 130.37 290.942 130.251 290.858 130.155C290.774 130.058 290.656 129.981 290.501 129.923C290.353 129.859 290.186 129.798 290 129.74C289.82 129.682 289.64 129.615 289.46 129.538C289.28 129.46 289.119 129.37 288.978 129.268C288.836 129.165 288.73 129.023 288.66 128.843C288.589 128.657 288.576 128.442 288.621 128.197C288.692 127.805 288.898 127.487 289.238 127.243C289.585 126.992 289.99 126.867 290.453 126.867C291.276 126.867 291.835 127.201 292.131 127.87L291.388 128.255C291.26 127.85 290.935 127.648 290.415 127.648C290.19 127.648 289.984 127.702 289.797 127.812C289.611 127.915 289.499 128.072 289.46 128.284C289.428 128.477 289.492 128.631 289.653 128.747C289.82 128.863 290.029 128.959 290.28 129.036C290.537 129.113 290.791 129.2 291.041 129.297C291.292 129.393 291.491 129.55 291.639 129.769C291.787 129.988 291.832 130.267 291.774 130.608C291.697 131.032 291.485 131.36 291.138 131.591C290.791 131.823 290.353 131.938 289.826 131.938Z" fill="#D85F5F"/>
<path d="M110.32 202.762C109.568 202.762 108.935 202.595 108.422 202.263C107.908 201.923 107.547 201.464 107.337 200.885L108.617 200.137C108.913 200.911 109.495 201.297 110.363 201.297C110.783 201.297 111.09 201.221 111.285 201.07C111.48 200.918 111.578 200.726 111.578 200.495C111.578 200.227 111.459 200.021 111.22 199.876C110.981 199.725 110.555 199.562 109.94 199.388C109.6 199.287 109.311 199.186 109.072 199.085C108.841 198.983 108.606 198.85 108.367 198.683C108.136 198.51 107.959 198.293 107.836 198.033C107.713 197.772 107.652 197.468 107.652 197.121C107.652 196.434 107.894 195.888 108.378 195.484C108.87 195.071 109.459 194.865 110.146 194.865C110.761 194.865 111.3 195.017 111.762 195.321C112.232 195.617 112.598 196.033 112.858 196.568L111.6 197.295C111.296 196.644 110.812 196.319 110.146 196.319C109.835 196.319 109.589 196.391 109.409 196.536C109.235 196.673 109.148 196.854 109.148 197.078C109.148 197.317 109.246 197.512 109.441 197.664C109.644 197.808 110.027 197.967 110.591 198.141C110.822 198.213 110.996 198.271 111.112 198.315C111.235 198.351 111.397 198.412 111.6 198.499C111.809 198.578 111.969 198.654 112.077 198.727C112.193 198.799 112.323 198.897 112.467 199.02C112.612 199.143 112.721 199.269 112.793 199.399C112.872 199.529 112.937 199.688 112.988 199.876C113.046 200.057 113.075 200.256 113.075 200.473C113.075 201.174 112.818 201.731 112.305 202.143C111.799 202.556 111.137 202.762 110.32 202.762ZM116.716 202.762C115.899 202.762 115.215 202.487 114.666 201.937C114.124 201.388 113.852 200.708 113.852 199.898C113.852 199.088 114.124 198.409 114.666 197.859C115.215 197.309 115.899 197.035 116.716 197.035C117.244 197.035 117.725 197.161 118.159 197.414C118.592 197.667 118.921 198.007 119.146 198.434L117.942 199.139C117.833 198.915 117.667 198.738 117.443 198.607C117.226 198.477 116.98 198.412 116.705 198.412C116.286 198.412 115.939 198.553 115.664 198.835C115.389 199.11 115.252 199.464 115.252 199.898C115.252 200.325 115.389 200.679 115.664 200.961C115.939 201.236 116.286 201.373 116.705 201.373C116.987 201.373 117.237 201.312 117.454 201.189C117.678 201.059 117.844 200.882 117.952 200.657L119.167 201.352C118.929 201.778 118.592 202.122 118.159 202.382C117.725 202.635 117.244 202.762 116.716 202.762ZM121.349 198.119C121.479 197.772 121.692 197.512 121.989 197.338C122.293 197.165 122.629 197.078 122.998 197.078V198.64C122.571 198.589 122.188 198.676 121.848 198.9C121.515 199.124 121.349 199.497 121.349 200.017V202.61H119.95V197.186H121.349V198.119ZM124.51 196.536C124.279 196.536 124.076 196.453 123.903 196.286C123.736 196.113 123.653 195.91 123.653 195.679C123.653 195.447 123.736 195.245 123.903 195.071C124.076 194.898 124.279 194.811 124.51 194.811C124.749 194.811 124.951 194.898 125.118 195.071C125.291 195.245 125.378 195.447 125.378 195.679C125.378 195.91 125.291 196.113 125.118 196.286C124.951 196.453 124.749 196.536 124.51 196.536ZM123.816 202.61V197.186H125.215V202.61H123.816ZM129.652 197.035C130.383 197.035 131.005 197.313 131.518 197.87C132.039 198.419 132.299 199.096 132.299 199.898C132.299 200.701 132.039 201.381 131.518 201.937C131.005 202.487 130.383 202.762 129.652 202.762C128.893 202.762 128.307 202.498 127.895 201.97V202.61H126.496V195.017H127.895V197.826C128.307 197.299 128.893 197.035 129.652 197.035ZM128.318 201.005C128.6 201.287 128.958 201.428 129.392 201.428C129.826 201.428 130.184 201.287 130.466 201.005C130.755 200.715 130.9 200.347 130.9 199.898C130.9 199.45 130.755 199.085 130.466 198.803C130.184 198.513 129.826 198.369 129.392 198.369C128.958 198.369 128.6 198.513 128.318 198.803C128.036 199.085 127.895 199.45 127.895 199.898C127.895 200.347 128.036 200.715 128.318 201.005ZM134.468 200.473C134.656 201.153 135.166 201.493 135.997 201.493C136.533 201.493 136.937 201.312 137.212 200.95L138.34 201.601C137.805 202.375 137.017 202.762 135.976 202.762C135.079 202.762 134.36 202.491 133.817 201.948C133.275 201.406 133.004 200.723 133.004 199.898C133.004 199.081 133.271 198.401 133.806 197.859C134.341 197.309 135.028 197.035 135.867 197.035C136.663 197.035 137.317 197.309 137.831 197.859C138.351 198.409 138.611 199.088 138.611 199.898C138.611 200.079 138.593 200.271 138.557 200.473H134.468ZM134.446 199.388H137.212C137.133 199.02 136.966 198.745 136.713 198.564C136.467 198.383 136.185 198.293 135.867 198.293C135.491 198.293 135.18 198.39 134.934 198.586C134.689 198.774 134.526 199.041 134.446 199.388Z" fill="#424242"/>
<path d="M184.012 167.863C182.869 167.863 181.926 167.484 181.181 166.724C180.436 165.965 180.064 165.029 180.064 163.915C180.064 162.794 180.436 161.858 181.181 161.106C181.926 160.346 182.869 159.967 184.012 159.967C184.699 159.967 185.331 160.13 185.91 160.455C186.496 160.773 186.951 161.207 187.277 161.757L185.986 162.505C185.798 162.165 185.53 161.901 185.183 161.713C184.836 161.518 184.446 161.42 184.012 161.42C183.274 161.42 182.678 161.652 182.222 162.114C181.774 162.577 181.55 163.177 181.55 163.915C181.55 164.645 181.774 165.242 182.222 165.705C182.678 166.168 183.274 166.399 184.012 166.399C184.446 166.399 184.836 166.305 185.183 166.117C185.538 165.922 185.805 165.658 185.986 165.325L187.277 166.074C186.951 166.623 186.499 167.061 185.921 167.386C185.342 167.704 184.706 167.863 184.012 167.863ZM192.784 167.039C192.227 167.588 191.547 167.863 190.744 167.863C189.942 167.863 189.262 167.588 188.705 167.039C188.156 166.482 187.881 165.802 187.881 165C187.881 164.197 188.156 163.521 188.705 162.971C189.262 162.415 189.942 162.136 190.744 162.136C191.547 162.136 192.227 162.415 192.784 162.971C193.34 163.521 193.619 164.197 193.619 165C193.619 165.802 193.34 166.482 192.784 167.039ZM189.692 166.074C189.974 166.356 190.325 166.497 190.744 166.497C191.164 166.497 191.514 166.356 191.797 166.074C192.079 165.792 192.22 165.434 192.22 165C192.22 164.566 192.079 164.208 191.797 163.926C191.514 163.644 191.164 163.503 190.744 163.503C190.325 163.503 189.974 163.644 189.692 163.926C189.417 164.208 189.28 164.566 189.28 165C189.28 165.434 189.417 165.792 189.692 166.074ZM198.714 160.119H200.113V167.711H198.714V167.071C198.302 167.599 197.716 167.863 196.957 167.863C196.227 167.863 195.601 167.588 195.08 167.039C194.567 166.482 194.31 165.802 194.31 165C194.31 164.197 194.567 163.521 195.08 162.971C195.601 162.415 196.227 162.136 196.957 162.136C197.716 162.136 198.302 162.4 198.714 162.928V160.119ZM196.132 166.106C196.422 166.388 196.783 166.529 197.217 166.529C197.651 166.529 198.009 166.388 198.291 166.106C198.573 165.817 198.714 165.448 198.714 165C198.714 164.551 198.573 164.186 198.291 163.904C198.009 163.615 197.651 163.47 197.217 163.47C196.783 163.47 196.422 163.615 196.132 163.904C195.85 164.186 195.709 164.551 195.709 165C195.709 165.448 195.85 165.817 196.132 166.106ZM202.087 161.637C201.856 161.637 201.653 161.554 201.48 161.388C201.313 161.214 201.23 161.012 201.23 160.78C201.23 160.549 201.313 160.346 201.48 160.173C201.653 159.999 201.856 159.913 202.087 159.913C202.326 159.913 202.528 159.999 202.695 160.173C202.868 160.346 202.955 160.549 202.955 160.78C202.955 161.012 202.868 161.214 202.695 161.388C202.528 161.554 202.326 161.637 202.087 161.637ZM201.393 167.711V162.288H202.792V167.711H201.393ZM207.088 162.136C207.681 162.136 208.169 162.335 208.553 162.733C208.943 163.13 209.138 163.68 209.138 164.381V167.711H207.739V164.555C207.739 164.193 207.641 163.919 207.446 163.731C207.251 163.535 206.991 163.438 206.665 163.438C206.304 163.438 206.014 163.55 205.797 163.774C205.581 163.998 205.472 164.334 205.472 164.783V167.711H204.073V162.288H205.472V162.895C205.812 162.389 206.351 162.136 207.088 162.136ZM214.487 162.288H215.854V167.451C215.854 168.29 215.576 168.93 215.019 169.371C214.469 169.812 213.804 170.033 213.023 170.033C212.437 170.033 211.92 169.921 211.472 169.696C211.031 169.472 210.691 169.143 210.452 168.709L211.645 168.026C211.92 168.532 212.394 168.785 213.066 168.785C213.508 168.785 213.855 168.67 214.108 168.438C214.361 168.207 214.487 167.878 214.487 167.451V166.865C214.075 167.415 213.497 167.69 212.752 167.69C211.985 167.69 211.342 167.422 210.821 166.887C210.308 166.345 210.051 165.687 210.051 164.913C210.051 164.146 210.311 163.492 210.832 162.95C211.353 162.407 211.993 162.136 212.752 162.136C213.497 162.136 214.075 162.411 214.487 162.961V162.288ZM211.873 165.987C212.163 166.262 212.528 166.399 212.969 166.399C213.41 166.399 213.771 166.262 214.053 165.987C214.343 165.705 214.487 165.347 214.487 164.913C214.487 164.486 214.343 164.136 214.053 163.861C213.771 163.579 213.41 163.438 212.969 163.438C212.528 163.438 212.163 163.579 211.873 163.861C211.591 164.136 211.45 164.486 211.45 164.913C211.45 165.347 211.591 165.705 211.873 165.987Z" fill="#424242"/>
<path d="M263.775 202.762C262.632 202.762 261.688 202.382 260.944 201.623C260.199 200.864 259.826 199.927 259.826 198.813C259.826 197.693 260.199 196.756 260.944 196.004C261.688 195.245 262.632 194.865 263.775 194.865C264.462 194.865 265.094 195.028 265.673 195.353C266.258 195.672 266.714 196.105 267.039 196.655L265.749 197.403C265.561 197.064 265.293 196.8 264.946 196.612C264.599 196.416 264.208 196.319 263.775 196.319C263.037 196.319 262.44 196.55 261.985 197.013C261.536 197.476 261.312 198.076 261.312 198.813C261.312 199.544 261.536 200.14 261.985 200.603C262.44 201.066 263.037 201.297 263.775 201.297C264.208 201.297 264.599 201.203 264.946 201.015C265.3 200.82 265.568 200.556 265.749 200.224L267.039 200.972C266.714 201.522 266.262 201.959 265.684 202.284C265.105 202.603 264.469 202.762 263.775 202.762ZM267.979 202.61V194.692H269.378V202.61H267.979ZM274.78 197.186H276.18V202.61H274.78V201.97C274.361 202.498 273.772 202.762 273.012 202.762C272.289 202.762 271.667 202.487 271.147 201.937C270.633 201.381 270.376 200.701 270.376 199.898C270.376 199.096 270.633 198.419 271.147 197.87C271.667 197.313 272.289 197.035 273.012 197.035C273.772 197.035 274.361 197.299 274.78 197.826V197.186ZM272.199 201.005C272.481 201.287 272.839 201.428 273.273 201.428C273.706 201.428 274.064 201.287 274.346 201.005C274.636 200.715 274.78 200.347 274.78 199.898C274.78 199.45 274.636 199.085 274.346 198.803C274.064 198.513 273.706 198.369 273.273 198.369C272.839 198.369 272.481 198.513 272.199 198.803C271.917 199.085 271.776 199.45 271.776 199.898C271.776 200.347 271.917 200.715 272.199 201.005ZM278.143 196.536C277.911 196.536 277.709 196.453 277.535 196.286C277.369 196.113 277.286 195.91 277.286 195.679C277.286 195.447 277.369 195.245 277.535 195.071C277.709 194.898 277.911 194.811 278.143 194.811C278.381 194.811 278.584 194.898 278.75 195.071C278.923 195.245 279.01 195.447 279.01 195.679C279.01 195.91 278.923 196.113 278.75 196.286C278.584 196.453 278.381 196.536 278.143 196.536ZM277.448 202.61V197.186H278.848V202.61H277.448ZM286.127 197.035C286.748 197.035 287.244 197.237 287.613 197.642C287.989 198.047 288.177 198.589 288.177 199.269V202.61H286.777V199.367C286.777 199.041 286.698 198.788 286.539 198.607C286.38 198.427 286.155 198.336 285.866 198.336C285.548 198.336 285.299 198.441 285.118 198.651C284.944 198.86 284.857 199.164 284.857 199.562V202.61H283.458V199.367C283.458 199.041 283.379 198.788 283.22 198.607C283.06 198.427 282.836 198.336 282.547 198.336C282.236 198.336 281.987 198.441 281.799 198.651C281.618 198.86 281.527 199.164 281.527 199.562V202.61H280.128V197.186H281.527V197.761C281.853 197.277 282.355 197.035 283.035 197.035C283.7 197.035 284.192 197.295 284.51 197.816C284.872 197.295 285.411 197.035 286.127 197.035Z" fill="#424242"/>
<path d="M330.561 160.119C331.291 160.119 331.906 160.365 332.405 160.856C332.904 161.348 333.153 161.952 333.153 162.668C333.153 163.384 332.904 163.987 332.405 164.479C331.906 164.971 331.291 165.217 330.561 165.217H329.227V167.711H327.73V160.119H330.561ZM330.561 163.817C330.879 163.817 331.143 163.709 331.353 163.492C331.562 163.268 331.667 162.993 331.667 162.668C331.667 162.335 331.562 162.06 331.353 161.843C331.143 161.626 330.879 161.518 330.561 161.518H329.227V163.817H330.561ZM337.824 162.288H339.223V167.711H337.824V167.071C337.405 167.599 336.816 167.863 336.056 167.863C335.333 167.863 334.711 167.588 334.191 167.039C333.677 166.482 333.42 165.802 333.42 165C333.42 164.197 333.677 163.521 334.191 162.971C334.711 162.415 335.333 162.136 336.056 162.136C336.816 162.136 337.405 162.4 337.824 162.928V162.288ZM335.243 166.106C335.525 166.388 335.883 166.529 336.317 166.529C336.75 166.529 337.108 166.388 337.39 166.106C337.68 165.817 337.824 165.448 337.824 165C337.824 164.551 337.68 164.186 337.39 163.904C337.108 163.615 336.75 163.47 336.317 163.47C335.883 163.47 335.525 163.615 335.243 163.904C334.961 164.186 334.82 164.551 334.82 165C334.82 165.448 334.961 165.817 335.243 166.106ZM344.028 162.288H345.525L343.551 167.711C343.269 168.492 342.893 169.056 342.423 169.404C341.96 169.758 341.382 169.917 340.688 169.881V168.579C341.064 168.586 341.36 168.507 341.577 168.341C341.801 168.174 341.978 167.907 342.108 167.538L339.885 162.288H341.414L342.824 165.933L344.028 162.288ZM352.189 162.136C352.811 162.136 353.307 162.339 353.675 162.744C354.051 163.149 354.239 163.691 354.239 164.371V167.711H352.84V164.468C352.84 164.143 352.761 163.89 352.602 163.709C352.442 163.528 352.218 163.438 351.929 163.438C351.611 163.438 351.361 163.543 351.181 163.752C351.007 163.962 350.92 164.266 350.92 164.663V167.711H349.521V164.468C349.521 164.143 349.442 163.89 349.282 163.709C349.123 163.528 348.899 163.438 348.61 163.438C348.299 163.438 348.05 163.543 347.861 163.752C347.681 163.962 347.59 164.266 347.59 164.663V167.711H346.191V162.288H347.59V162.863C347.916 162.378 348.418 162.136 349.098 162.136C349.763 162.136 350.255 162.397 350.573 162.917C350.935 162.397 351.473 162.136 352.189 162.136ZM356.61 165.575C356.798 166.254 357.308 166.594 358.139 166.594C358.675 166.594 359.08 166.413 359.354 166.052L360.482 166.703C359.947 167.476 359.159 167.863 358.118 167.863C357.221 167.863 356.502 167.592 355.959 167.05C355.417 166.507 355.146 165.824 355.146 165C355.146 164.183 355.413 163.503 355.948 162.961C356.484 162.411 357.171 162.136 358.009 162.136C358.805 162.136 359.459 162.411 359.973 162.961C360.493 163.51 360.754 164.19 360.754 165C360.754 165.181 360.735 165.372 360.699 165.575H356.61ZM356.588 164.49H359.354C359.275 164.121 359.108 163.846 358.855 163.666C358.61 163.485 358.327 163.394 358.009 163.394C357.633 163.394 357.322 163.492 357.076 163.687C356.831 163.875 356.668 164.143 356.588 164.49ZM364.746 162.136C365.339 162.136 365.827 162.335 366.21 162.733C366.601 163.13 366.796 163.68 366.796 164.381V167.711H365.397V164.555C365.397 164.193 365.299 163.919 365.104 163.731C364.908 163.535 364.648 163.438 364.323 163.438C363.961 163.438 363.672 163.55 363.455 163.774C363.238 163.998 363.13 164.334 363.13 164.783V167.711H361.73V162.288H363.13V162.895C363.469 162.389 364.008 162.136 364.746 162.136ZM371.093 163.633H369.867V165.889C369.867 166.077 369.914 166.215 370.008 166.301C370.102 166.388 370.239 166.439 370.42 166.453C370.601 166.46 370.825 166.457 371.093 166.442V167.711C370.131 167.82 369.451 167.73 369.054 167.44C368.663 167.151 368.468 166.634 368.468 165.889V163.633H367.524V162.288H368.468V161.193L369.867 160.769V162.288H371.093V163.633Z" fill="#424242"/>
<path d="M47.4302 217.795C46.3128 217.795 45.4071 218.701 45.4071 219.819C45.4071 220.936 46.3128 221.842 47.4302 221.842C48.5475 221.842 49.4533 220.936 49.4533 219.819C49.4533 218.701 48.5475 217.795 47.4302 217.795ZM47.0508 186.058L47.0508 219.819L47.8095 219.819L47.8095 186.058L47.0508 186.058Z" fill="#8FA486"/>
<path d="M197.646 217.795C196.528 217.795 195.622 218.701 195.622 219.819C195.622 220.936 196.528 221.842 197.646 221.842C198.763 221.842 199.669 220.936 199.669 219.819C199.669 218.701 198.763 217.795 197.646 217.795ZM197.266 186.058L197.266 219.819L198.025 219.819L198.025 186.058L197.266 186.058Z" fill="#8FA486"/>
<path d="M347.861 217.795C346.744 217.795 345.838 218.701 345.838 219.819C345.838 220.936 346.744 221.842 347.861 221.842C348.978 221.842 349.884 220.936 349.884 219.819C349.884 218.701 348.978 217.795 347.861 217.795ZM347.482 186.058L347.482 219.819L348.24 219.819L348.24 186.058L347.482 186.058Z" fill="#8FA486"/>
<path d="M122.538 144.457C121.42 144.457 120.514 143.551 120.514 142.434C120.514 141.317 121.42 140.411 122.538 140.411C123.655 140.411 124.561 141.317 124.561 142.434C124.561 143.551 123.655 144.457 122.538 144.457ZM122.158 176.194L122.158 142.434L122.917 142.434L122.917 176.194L122.158 176.194Z" fill="#8FA486"/>
<path d="M272.753 144.457C271.636 144.457 270.73 143.551 270.73 142.434C270.73 141.317 271.636 140.411 272.753 140.411C273.87 140.411 274.776 141.317 274.776 142.434C274.776 143.551 273.87 144.457 272.753 144.457ZM272.374 176.194L272.374 142.434L273.132 142.434L273.132 176.194L272.374 176.194Z" fill="#8FA486"/>
<path d="M31.874 309V300.012H28.934V299.2H35.794V300.012H32.854V309H31.874ZM37.3586 309V301.944H38.3246V309H37.3586ZM37.8486 300.278C37.6526 300.278 37.4846 300.213 37.3446 300.082C37.2046 299.942 37.1346 299.769 37.1346 299.564C37.1346 299.349 37.1999 299.181 37.3306 299.06C37.4706 298.929 37.6386 298.864 37.8346 298.864C38.0306 298.864 38.1986 298.929 38.3386 299.06C38.4786 299.181 38.5486 299.349 38.5486 299.564C38.5486 299.769 38.4786 299.942 38.3386 300.082C38.2079 300.213 38.0446 300.278 37.8486 300.278ZM40.4588 309V301.944H41.3548L41.4248 303.008C41.6395 302.616 41.9382 302.313 42.3208 302.098C42.7035 301.883 43.1282 301.776 43.5948 301.776C43.9402 301.776 44.2622 301.827 44.5608 301.93C44.8595 302.033 45.1208 302.187 45.3448 302.392C45.5782 302.597 45.7602 302.863 45.8908 303.19C46.1242 302.751 46.4508 302.406 46.8708 302.154C47.3002 301.902 47.7575 301.776 48.2428 301.776C48.7842 301.776 49.2508 301.883 49.6428 302.098C50.0442 302.313 50.3568 302.639 50.5808 303.078C50.8048 303.517 50.9168 304.072 50.9168 304.744V309H49.9368V304.856C49.9368 304.109 49.7828 303.554 49.4748 303.19C49.1668 302.817 48.7375 302.63 48.1868 302.63C47.8135 302.63 47.4728 302.733 47.1648 302.938C46.8568 303.134 46.6142 303.423 46.4368 303.806C46.2595 304.179 46.1708 304.646 46.1708 305.206V309H45.1908V304.856C45.1908 304.109 45.0368 303.554 44.7288 303.19C44.4302 302.817 44.0055 302.63 43.4548 302.63C43.0722 302.63 42.7268 302.733 42.4188 302.938C42.1202 303.134 41.8822 303.428 41.7048 303.82C41.5275 304.203 41.4388 304.679 41.4388 305.248V309H40.4588ZM55.7875 309.168C55.1342 309.168 54.5555 309.014 54.0515 308.706C53.5569 308.398 53.1649 307.969 52.8755 307.418C52.5955 306.858 52.4555 306.205 52.4555 305.458C52.4555 304.711 52.5955 304.063 52.8755 303.512C53.1555 302.961 53.5475 302.537 54.0515 302.238C54.5649 301.93 55.1529 301.776 55.8155 301.776C56.4969 301.776 57.0709 301.93 57.5375 302.238C58.0135 302.546 58.3729 302.947 58.6155 303.442C58.8675 303.937 58.9935 304.478 58.9935 305.066C58.9935 305.159 58.9935 305.257 58.9935 305.36C58.9935 305.453 58.9889 305.565 58.9795 305.696H53.1975V304.87H58.0415C58.0229 304.151 57.7989 303.596 57.3695 303.204C56.9495 302.812 56.4175 302.616 55.7735 302.616C55.3535 302.616 54.9615 302.714 54.5975 302.91C54.2429 303.097 53.9535 303.377 53.7295 303.75C53.5149 304.114 53.4075 304.576 53.4075 305.136V305.5C53.4075 306.135 53.5195 306.662 53.7435 307.082C53.9675 307.502 54.2615 307.815 54.6255 308.02C54.9989 308.225 55.3862 308.328 55.7875 308.328C56.3195 308.328 56.7582 308.211 57.1035 307.978C57.4489 307.735 57.6962 307.404 57.8455 306.984H58.8115C58.6902 307.395 58.4942 307.768 58.2235 308.104C57.9622 308.44 57.6262 308.701 57.2155 308.888C56.8049 309.075 56.3289 309.168 55.7875 309.168ZM67.127 309C66.7257 309 66.3803 308.939 66.091 308.818C65.8017 308.687 65.5777 308.477 65.419 308.188C65.2697 307.889 65.195 307.483 65.195 306.97V302.784H63.963V301.944H65.195L65.335 300.306H66.175V301.958H68.289V302.784H66.175V306.97C66.175 307.437 66.2683 307.754 66.455 307.922C66.6417 308.081 66.973 308.16 67.449 308.16H68.177V309H67.127ZM72.729 309.168C72.085 309.168 71.5016 309.019 70.979 308.72C70.4656 308.412 70.0596 307.983 69.761 307.432C69.4623 306.872 69.313 306.223 69.313 305.486C69.313 304.721 69.4623 304.063 69.761 303.512C70.069 302.961 70.4843 302.537 71.007 302.238C71.5296 301.93 72.113 301.776 72.757 301.776C73.429 301.776 74.0216 301.93 74.535 302.238C75.0483 302.537 75.4543 302.961 75.753 303.512C76.0516 304.063 76.201 304.721 76.201 305.486C76.201 306.223 76.047 306.872 75.739 307.432C75.4403 307.983 75.0296 308.412 74.507 308.72C73.9936 309.019 73.401 309.168 72.729 309.168ZM72.743 308.328C73.1816 308.328 73.583 308.221 73.947 308.006C74.3203 307.791 74.619 307.474 74.843 307.054C75.0763 306.625 75.193 306.097 75.193 305.472C75.193 304.837 75.081 304.31 74.857 303.89C74.633 303.47 74.3343 303.157 73.961 302.952C73.597 302.737 73.1956 302.63 72.757 302.63C72.337 302.63 71.9403 302.737 71.567 302.952C71.1936 303.167 70.8903 303.484 70.657 303.904C70.433 304.315 70.321 304.837 70.321 305.472C70.321 306.097 70.433 306.625 70.657 307.054C70.881 307.474 71.175 307.791 71.539 308.006C71.9123 308.221 72.3136 308.328 72.743 308.328ZM84.3242 309.168C83.7642 309.168 83.2696 309.075 82.8402 308.888C82.4202 308.701 82.0796 308.435 81.8182 308.09C81.5662 307.735 81.4122 307.315 81.3562 306.83H82.3642C82.4202 307.101 82.5276 307.348 82.6862 307.572C82.8542 307.796 83.0782 307.978 83.3582 308.118C83.6382 308.249 83.9696 308.314 84.3522 308.314C84.7069 308.314 84.9962 308.263 85.2202 308.16C85.4536 308.048 85.6262 307.903 85.7382 307.726C85.8596 307.539 85.9202 307.334 85.9202 307.11C85.9202 306.802 85.8456 306.564 85.6962 306.396C85.5562 306.219 85.3509 306.088 85.0802 306.004C84.8096 305.92 84.4829 305.841 84.1002 305.766C83.7829 305.71 83.4796 305.635 83.1902 305.542C82.9009 305.449 82.6396 305.327 82.4062 305.178C82.1822 305.029 82.0049 304.842 81.8742 304.618C81.7436 304.385 81.6782 304.114 81.6782 303.806C81.6782 303.405 81.7762 303.055 81.9722 302.756C82.1776 302.448 82.4669 302.21 82.8402 302.042C83.2136 301.865 83.6522 301.776 84.1562 301.776C84.8749 301.776 85.4629 301.958 85.9202 302.322C86.3776 302.677 86.6436 303.199 86.7182 303.89H85.7382C85.7009 303.507 85.5422 303.204 85.2622 302.98C84.9822 302.756 84.6042 302.644 84.1282 302.644C83.6616 302.644 83.3022 302.742 83.0502 302.938C82.8076 303.125 82.6862 303.381 82.6862 303.708C82.6862 303.913 82.7516 304.091 82.8822 304.24C83.0129 304.389 83.2042 304.52 83.4562 304.632C83.7176 304.735 84.0349 304.823 84.4082 304.898C84.8562 304.982 85.2669 305.094 85.6402 305.234C86.0229 305.365 86.3309 305.57 86.5642 305.85C86.8069 306.121 86.9282 306.508 86.9282 307.012C86.9376 307.432 86.8349 307.805 86.6202 308.132C86.4056 308.459 86.1022 308.715 85.7102 308.902C85.3182 309.079 84.8562 309.168 84.3242 309.168ZM91.2139 309.168C90.6819 309.168 90.2105 309.065 89.7999 308.86C89.3985 308.645 89.0859 308.323 88.8619 307.894C88.6379 307.455 88.5259 306.895 88.5259 306.214V301.944H89.5059V306.102C89.5059 306.849 89.6692 307.404 89.9959 307.768C90.3319 308.132 90.7939 308.314 91.3819 308.314C91.8019 308.314 92.1752 308.216 92.5019 308.02C92.8379 307.824 93.0992 307.535 93.2859 307.152C93.4819 306.76 93.5799 306.284 93.5799 305.724V301.944H94.5599V309H93.6639L93.6079 307.74C93.3839 308.197 93.0572 308.552 92.6279 308.804C92.2079 309.047 91.7365 309.168 91.2139 309.168ZM100.153 309.168C99.7419 309.168 99.3639 309.107 99.0185 308.986C98.6825 308.855 98.3885 308.683 98.1365 308.468C97.8845 308.244 97.6839 307.992 97.5345 307.712L97.4505 309H96.5545V298.92H97.5345V303.218C97.7679 302.817 98.1039 302.476 98.5425 302.196C98.9812 301.916 99.5179 301.776 100.153 301.776C100.843 301.776 101.445 301.939 101.959 302.266C102.472 302.583 102.864 303.022 103.135 303.582C103.415 304.133 103.555 304.763 103.555 305.472C103.555 306.181 103.415 306.816 103.135 307.376C102.855 307.936 102.458 308.375 101.945 308.692C101.441 309.009 100.843 309.168 100.153 309.168ZM100.083 308.314C100.577 308.314 101.007 308.197 101.371 307.964C101.735 307.731 102.024 307.399 102.239 306.97C102.453 306.541 102.561 306.041 102.561 305.472C102.561 304.893 102.453 304.394 102.239 303.974C102.024 303.545 101.73 303.213 101.357 302.98C100.993 302.747 100.568 302.63 100.083 302.63C99.5972 302.63 99.1632 302.747 98.7805 302.98C98.4072 303.213 98.1132 303.545 97.8985 303.974C97.6932 304.403 97.5905 304.903 97.5905 305.472C97.5905 306.051 97.6932 306.555 97.8985 306.984C98.1132 307.404 98.4072 307.731 98.7805 307.964C99.1632 308.197 99.5972 308.314 100.083 308.314ZM105.236 309V301.944H106.132L106.202 303.008C106.417 302.616 106.716 302.313 107.098 302.098C107.481 301.883 107.906 301.776 108.372 301.776C108.718 301.776 109.04 301.827 109.338 301.93C109.637 302.033 109.898 302.187 110.122 302.392C110.356 302.597 110.538 302.863 110.668 303.19C110.902 302.751 111.228 302.406 111.648 302.154C112.078 301.902 112.535 301.776 113.02 301.776C113.562 301.776 114.028 301.883 114.42 302.098C114.822 302.313 115.134 302.639 115.358 303.078C115.582 303.517 115.694 304.072 115.694 304.744V309H114.714V304.856C114.714 304.109 114.56 303.554 114.252 303.19C113.944 302.817 113.515 302.63 112.964 302.63C112.591 302.63 112.25 302.733 111.942 302.938C111.634 303.134 111.392 303.423 111.214 303.806C111.037 304.179 110.948 304.646 110.948 305.206V309H109.968V304.856C109.968 304.109 109.814 303.554 109.506 303.19C109.208 302.817 108.783 302.63 108.232 302.63C107.85 302.63 107.504 302.733 107.196 302.938C106.898 303.134 106.66 303.428 106.482 303.82C106.305 304.203 106.216 304.679 106.216 305.248V309H105.236ZM117.681 309V301.944H118.647V309H117.681ZM118.171 300.278C117.975 300.278 117.807 300.213 117.667 300.082C117.527 299.942 117.457 299.769 117.457 299.564C117.457 299.349 117.522 299.181 117.653 299.06C117.793 298.929 117.961 298.864 118.157 298.864C118.353 298.864 118.521 298.929 118.661 299.06C118.801 299.181 118.871 299.349 118.871 299.564C118.871 299.769 118.801 299.942 118.661 300.082C118.53 300.213 118.367 300.278 118.171 300.278ZM123.455 309C123.054 309 122.708 308.939 122.419 308.818C122.13 308.687 121.906 308.477 121.747 308.188C121.598 307.889 121.523 307.483 121.523 306.97V302.784H120.291V301.944H121.523L121.663 300.306H122.503V301.958H124.617V302.784H122.503V306.97C122.503 307.437 122.596 307.754 122.783 307.922C122.97 308.081 123.301 308.16 123.777 308.16H124.505V309H123.455ZM133.104 309.168C132.451 309.168 131.867 309.014 131.354 308.706C130.841 308.398 130.435 307.969 130.136 307.418C129.837 306.858 129.688 306.214 129.688 305.486C129.688 304.73 129.837 304.081 130.136 303.54C130.435 302.989 130.841 302.56 131.354 302.252C131.877 301.935 132.46 301.776 133.104 301.776C133.925 301.776 134.607 301.991 135.148 302.42C135.699 302.84 136.049 303.4 136.198 304.1H135.218C135.115 303.633 134.868 303.274 134.476 303.022C134.093 302.761 133.631 302.63 133.09 302.63C132.67 302.63 132.278 302.737 131.914 302.952C131.55 303.157 131.256 303.47 131.032 303.89C130.808 304.31 130.696 304.842 130.696 305.486C130.696 305.962 130.761 306.377 130.892 306.732C131.023 307.087 131.2 307.385 131.424 307.628C131.648 307.861 131.905 308.039 132.194 308.16C132.483 308.281 132.782 308.342 133.09 308.342C133.445 308.342 133.767 308.286 134.056 308.174C134.355 308.053 134.607 307.88 134.812 307.656C135.017 307.432 135.153 307.161 135.218 306.844H136.198C136.058 307.525 135.713 308.085 135.162 308.524C134.611 308.953 133.925 309.168 133.104 309.168ZM137.885 309V298.92H138.865V309H137.885ZM143.105 309.168C142.536 309.168 142.06 309.065 141.677 308.86C141.304 308.655 141.024 308.389 140.837 308.062C140.66 307.735 140.571 307.376 140.571 306.984C140.571 306.499 140.693 306.088 140.935 305.752C141.187 305.416 141.537 305.164 141.985 304.996C142.433 304.828 142.956 304.744 143.553 304.744H145.457C145.457 304.287 145.387 303.899 145.247 303.582C145.107 303.265 144.902 303.027 144.631 302.868C144.361 302.7 144.02 302.616 143.609 302.616C143.133 302.616 142.723 302.737 142.377 302.98C142.032 303.223 141.817 303.577 141.733 304.044H140.711C140.767 303.549 140.935 303.134 141.215 302.798C141.505 302.462 141.859 302.21 142.279 302.042C142.699 301.865 143.143 301.776 143.609 301.776C144.263 301.776 144.795 301.902 145.205 302.154C145.616 302.397 145.924 302.733 146.129 303.162C146.335 303.591 146.437 304.086 146.437 304.646V309H145.541L145.485 307.712C145.401 307.908 145.285 308.095 145.135 308.272C144.995 308.449 144.827 308.603 144.631 308.734C144.445 308.865 144.225 308.967 143.973 309.042C143.721 309.126 143.432 309.168 143.105 309.168ZM143.217 308.314C143.563 308.314 143.871 308.244 144.141 308.104C144.421 307.955 144.659 307.763 144.855 307.53C145.051 307.297 145.201 307.035 145.303 306.746C145.406 306.447 145.457 306.139 145.457 305.822V305.57H143.623C143.129 305.57 142.732 305.631 142.433 305.752C142.135 305.873 141.92 306.037 141.789 306.242C141.659 306.447 141.593 306.685 141.593 306.956C141.593 307.227 141.654 307.465 141.775 307.67C141.897 307.866 142.079 308.025 142.321 308.146C142.573 308.258 142.872 308.314 143.217 308.314ZM148.429 309V301.944H149.395V309H148.429ZM148.919 300.278C148.723 300.278 148.555 300.213 148.415 300.082C148.275 299.942 148.205 299.769 148.205 299.564C148.205 299.349 148.27 299.181 148.401 299.06C148.541 298.929 148.709 298.864 148.905 298.864C149.101 298.864 149.269 298.929 149.409 299.06C149.549 299.181 149.619 299.349 149.619 299.564C149.619 299.769 149.549 299.942 149.409 300.082C149.278 300.213 149.115 300.278 148.919 300.278ZM151.529 309V301.944H152.425L152.495 303.008C152.71 302.616 153.008 302.313 153.391 302.098C153.774 301.883 154.198 301.776 154.665 301.776C155.01 301.776 155.332 301.827 155.631 301.93C155.93 302.033 156.191 302.187 156.415 302.392C156.648 302.597 156.83 302.863 156.961 303.19C157.194 302.751 157.521 302.406 157.941 302.154C158.37 301.902 158.828 301.776 159.313 301.776C159.854 301.776 160.321 301.883 160.713 302.098C161.114 302.313 161.427 302.639 161.651 303.078C161.875 303.517 161.987 304.072 161.987 304.744V309H161.007V304.856C161.007 304.109 160.853 303.554 160.545 303.19C160.237 302.817 159.808 302.63 159.257 302.63C158.884 302.63 158.543 302.733 158.235 302.938C157.927 303.134 157.684 303.423 157.507 303.806C157.33 304.179 157.241 304.646 157.241 305.206V309H156.261V304.856C156.261 304.109 156.107 303.554 155.799 303.19C155.5 302.817 155.076 302.63 154.525 302.63C154.142 302.63 153.797 302.733 153.489 302.938C153.19 303.134 152.952 303.428 152.775 303.82C152.598 304.203 152.509 304.679 152.509 305.248V309H151.529Z" fill="black"/>
<path d="M31.116 353L28.548 336.2H30.588L32.292 349.16L34.668 336.2H36.732L39.108 349.16L40.812 336.2H42.852L40.284 353H37.98L35.7 340.088L33.42 353H31.116ZM49.2506 353.288C48.1306 353.288 47.1386 353.032 46.2746 352.52C45.4266 351.992 44.7546 351.264 44.2586 350.336C43.7626 349.392 43.5146 348.296 43.5146 347.048C43.5146 345.8 43.7546 344.712 44.2346 343.784C44.7306 342.84 45.4106 342.112 46.2746 341.6C47.1386 341.072 48.1466 340.808 49.2986 340.808C50.4506 340.808 51.4346 341.072 52.2506 341.6C53.0666 342.112 53.6906 342.792 54.1226 343.64C54.5546 344.488 54.7706 345.4 54.7706 346.376C54.7706 346.552 54.7626 346.728 54.7466 346.904C54.7466 347.08 54.7466 347.28 54.7466 347.504H45.5066C45.5546 348.384 45.7546 349.12 46.1066 349.712C46.4746 350.288 46.9306 350.72 47.4746 351.008C48.0346 351.296 48.6266 351.44 49.2506 351.44C50.1306 351.44 50.8186 351.256 51.3146 350.888C51.8106 350.52 52.1866 350.008 52.4426 349.352H54.4346C54.1626 350.456 53.5946 351.392 52.7306 352.16C51.8666 352.912 50.7066 353.288 49.2506 353.288ZM49.2506 342.608C48.3226 342.608 47.5066 342.888 46.8026 343.448C46.1146 344.008 45.6906 344.792 45.5306 345.8H52.7786C52.7146 344.808 52.3546 344.032 51.6986 343.472C51.0586 342.896 50.2426 342.608 49.2506 342.608ZM62.6813 353.288C61.5613 353.288 60.5693 353.032 59.7053 352.52C58.8573 351.992 58.1853 351.264 57.6892 350.336C57.1932 349.392 56.9452 348.296 56.9452 347.048C56.9452 345.8 57.1852 344.712 57.6652 343.784C58.1612 342.84 58.8413 342.112 59.7053 341.6C60.5693 341.072 61.5773 340.808 62.7293 340.808C63.8813 340.808 64.8653 341.072 65.6813 341.6C66.4973 342.112 67.1213 342.792 67.5533 343.64C67.9853 344.488 68.2013 345.4 68.2013 346.376C68.2013 346.552 68.1933 346.728 68.1773 346.904C68.1773 347.08 68.1773 347.28 68.1773 347.504H58.9373C58.9853 348.384 59.1853 349.12 59.5373 349.712C59.9053 350.288 60.3613 350.72 60.9053 351.008C61.4653 351.296 62.0573 351.44 62.6813 351.44C63.5613 351.44 64.2493 351.256 64.7453 350.888C65.2413 350.52 65.6173 350.008 65.8733 349.352H67.8653C67.5933 350.456 67.0253 351.392 66.1613 352.16C65.2973 352.912 64.1373 353.288 62.6813 353.288ZM62.6813 342.608C61.7533 342.608 60.9373 342.888 60.2333 343.448C59.5453 344.008 59.1213 344.792 58.9613 345.8H66.2093C66.1453 344.808 65.7853 344.032 65.1293 343.472C64.4893 342.896 63.6733 342.608 62.6813 342.608ZM71.4559 353V335.72H73.4719V346.136L78.4399 341.096H81.0079L75.7039 346.4V346.544L81.6559 353H79.1599L73.4719 346.808V353H71.4559ZM89.5425 353.288C88.0225 353.288 86.7905 352.936 85.8465 352.232C84.9185 351.512 84.3985 350.528 84.2865 349.28H86.3745C86.4705 349.936 86.7905 350.472 87.3345 350.888C87.8945 351.304 88.6465 351.512 89.5905 351.512C90.4865 351.512 91.1505 351.32 91.5825 350.936C92.0305 350.552 92.2545 350.112 92.2545 349.616C92.2545 348.944 91.9905 348.488 91.4625 348.248C90.9345 347.992 90.1425 347.8 89.0865 347.672C87.8225 347.528 86.7745 347.184 85.9425 346.64C85.1105 346.096 84.6945 345.28 84.6945 344.192C84.6945 343.216 85.1025 342.408 85.9185 341.768C86.7345 341.128 87.8465 340.808 89.2545 340.808C90.6465 340.808 91.7425 341.128 92.5425 341.768C93.3425 342.392 93.7985 343.288 93.9105 344.456H91.9185C91.8705 343.88 91.5905 343.424 91.0785 343.088C90.5825 342.736 89.9585 342.56 89.2065 342.56C88.4225 342.56 87.8145 342.712 87.3825 343.016C86.9505 343.304 86.7345 343.688 86.7345 344.168C86.7345 344.648 86.9745 345.048 87.4545 345.368C87.9505 345.672 88.7265 345.872 89.7825 345.968C90.6145 346.064 91.3745 346.224 92.0625 346.448C92.7505 346.672 93.2945 347.024 93.6945 347.504C94.1105 347.984 94.3185 348.656 94.3185 349.52C94.3345 350.24 94.1345 350.888 93.7185 351.464C93.3185 352.024 92.7585 352.472 92.0385 352.808C91.3185 353.128 90.4865 353.288 89.5425 353.288Z" fill="black"/>
<path d="M254.874 309V300.012H251.934V299.2H258.794V300.012H255.854V309H254.874ZM260.359 309V301.944H261.325V309H260.359ZM260.849 300.278C260.653 300.278 260.485 300.213 260.345 300.082C260.205 299.942 260.135 299.769 260.135 299.564C260.135 299.349 260.2 299.181 260.331 299.06C260.471 298.929 260.639 298.864 260.835 298.864C261.031 298.864 261.199 298.929 261.339 299.06C261.479 299.181 261.549 299.349 261.549 299.564C261.549 299.769 261.479 299.942 261.339 300.082C261.208 300.213 261.045 300.278 260.849 300.278ZM263.459 309V301.944H264.355L264.425 303.008C264.64 302.616 264.938 302.313 265.321 302.098C265.704 301.883 266.128 301.776 266.595 301.776C266.94 301.776 267.262 301.827 267.561 301.93C267.86 302.033 268.121 302.187 268.345 302.392C268.578 302.597 268.76 302.863 268.891 303.19C269.124 302.751 269.451 302.406 269.871 302.154C270.3 301.902 270.758 301.776 271.243 301.776C271.784 301.776 272.251 301.883 272.643 302.098C273.044 302.313 273.357 302.639 273.581 303.078C273.805 303.517 273.917 304.072 273.917 304.744V309H272.937V304.856C272.937 304.109 272.783 303.554 272.475 303.19C272.167 302.817 271.738 302.63 271.187 302.63C270.814 302.63 270.473 302.733 270.165 302.938C269.857 303.134 269.614 303.423 269.437 303.806C269.26 304.179 269.171 304.646 269.171 305.206V309H268.191V304.856C268.191 304.109 268.037 303.554 267.729 303.19C267.43 302.817 267.006 302.63 266.455 302.63C266.072 302.63 265.727 302.733 265.419 302.938C265.12 303.134 264.882 303.428 264.705 303.82C264.528 304.203 264.439 304.679 264.439 305.248V309H263.459ZM278.788 309.168C278.134 309.168 277.556 309.014 277.052 308.706C276.557 308.398 276.165 307.969 275.876 307.418C275.596 306.858 275.456 306.205 275.456 305.458C275.456 304.711 275.596 304.063 275.876 303.512C276.156 302.961 276.548 302.537 277.052 302.238C277.565 301.93 278.153 301.776 278.816 301.776C279.497 301.776 280.071 301.93 280.538 302.238C281.014 302.546 281.373 302.947 281.616 303.442C281.868 303.937 281.994 304.478 281.994 305.066C281.994 305.159 281.994 305.257 281.994 305.36C281.994 305.453 281.989 305.565 281.98 305.696H276.198V304.87H281.042C281.023 304.151 280.799 303.596 280.37 303.204C279.95 302.812 279.418 302.616 278.774 302.616C278.354 302.616 277.962 302.714 277.598 302.91C277.243 303.097 276.954 303.377 276.73 303.75C276.515 304.114 276.408 304.576 276.408 305.136V305.5C276.408 306.135 276.52 306.662 276.744 307.082C276.968 307.502 277.262 307.815 277.626 308.02C277.999 308.225 278.386 308.328 278.788 308.328C279.32 308.328 279.758 308.211 280.104 307.978C280.449 307.735 280.696 307.404 280.846 306.984H281.812C281.69 307.395 281.494 307.768 281.224 308.104C280.962 308.44 280.626 308.701 280.216 308.888C279.805 309.075 279.329 309.168 278.788 309.168ZM290.127 309C289.726 309 289.38 308.939 289.091 308.818C288.802 308.687 288.578 308.477 288.419 308.188C288.27 307.889 288.195 307.483 288.195 306.97V302.784H286.963V301.944H288.195L288.335 300.306H289.175V301.958H291.289V302.784H289.175V306.97C289.175 307.437 289.268 307.754 289.455 307.922C289.642 308.081 289.973 308.16 290.449 308.16H291.177V309H290.127ZM295.729 309.168C295.085 309.168 294.502 309.019 293.979 308.72C293.466 308.412 293.06 307.983 292.761 307.432C292.462 306.872 292.313 306.223 292.313 305.486C292.313 304.721 292.462 304.063 292.761 303.512C293.069 302.961 293.484 302.537 294.007 302.238C294.53 301.93 295.113 301.776 295.757 301.776C296.429 301.776 297.022 301.93 297.535 302.238C298.048 302.537 298.454 302.961 298.753 303.512C299.052 304.063 299.201 304.721 299.201 305.486C299.201 306.223 299.047 306.872 298.739 307.432C298.44 307.983 298.03 308.412 297.507 308.72C296.994 309.019 296.401 309.168 295.729 309.168ZM295.743 308.328C296.182 308.328 296.583 308.221 296.947 308.006C297.32 307.791 297.619 307.474 297.843 307.054C298.076 306.625 298.193 306.097 298.193 305.472C298.193 304.837 298.081 304.31 297.857 303.89C297.633 303.47 297.334 303.157 296.961 302.952C296.597 302.737 296.196 302.63 295.757 302.63C295.337 302.63 294.94 302.737 294.567 302.952C294.194 303.167 293.89 303.484 293.657 303.904C293.433 304.315 293.321 304.837 293.321 305.472C293.321 306.097 293.433 306.625 293.657 307.054C293.881 307.474 294.175 307.791 294.539 308.006C294.912 308.221 295.314 308.328 295.743 308.328ZM307.464 312.248C306.839 312.248 306.284 312.164 305.798 311.996C305.322 311.828 304.944 311.576 304.664 311.24C304.394 310.904 304.258 310.489 304.258 309.994C304.258 309.798 304.291 309.583 304.356 309.35C304.431 309.126 304.571 308.897 304.776 308.664C304.982 308.431 305.271 308.221 305.644 308.034L306.442 308.384C305.948 308.617 305.626 308.869 305.476 309.14C305.327 309.42 305.252 309.672 305.252 309.896C305.252 310.232 305.346 310.512 305.532 310.736C305.728 310.96 305.99 311.128 306.316 311.24C306.652 311.361 307.035 311.422 307.464 311.422C307.894 311.422 308.262 311.357 308.57 311.226C308.888 311.105 309.13 310.927 309.298 310.694C309.466 310.47 309.55 310.209 309.55 309.91C309.55 309.565 309.415 309.271 309.144 309.028C308.883 308.795 308.393 308.659 307.674 308.622C307.105 308.585 306.634 308.538 306.26 308.482C305.896 308.417 305.593 308.342 305.35 308.258C305.117 308.165 304.921 308.067 304.762 307.964C304.613 307.861 304.468 307.749 304.328 307.628V307.306L305.672 306.032L306.568 306.354L305.252 307.53L305.336 307.152C305.439 307.227 305.537 307.297 305.63 307.362C305.733 307.427 305.864 307.483 306.022 307.53C306.19 307.567 306.419 307.609 306.708 307.656C307.007 307.693 307.408 307.731 307.912 307.768C308.556 307.815 309.07 307.927 309.452 308.104C309.835 308.281 310.115 308.519 310.292 308.818C310.47 309.117 310.558 309.467 310.558 309.868C310.558 310.269 310.446 310.652 310.222 311.016C310.008 311.38 309.672 311.674 309.214 311.898C308.766 312.131 308.183 312.248 307.464 312.248ZM307.45 306.76C306.853 306.76 306.349 306.648 305.938 306.424C305.537 306.2 305.229 305.901 305.014 305.528C304.8 305.145 304.692 304.725 304.692 304.268C304.692 303.801 304.8 303.381 305.014 303.008C305.229 302.635 305.542 302.336 305.952 302.112C306.363 301.888 306.862 301.776 307.45 301.776C308.048 301.776 308.547 301.888 308.948 302.112C309.359 302.336 309.667 302.635 309.872 303.008C310.087 303.381 310.194 303.801 310.194 304.268C310.194 304.725 310.087 305.145 309.872 305.528C309.667 305.901 309.359 306.2 308.948 306.424C308.547 306.648 308.048 306.76 307.45 306.76ZM307.45 305.92C307.992 305.92 308.416 305.78 308.724 305.5C309.042 305.211 309.2 304.8 309.2 304.268C309.2 303.727 309.042 303.316 308.724 303.036C308.416 302.756 307.992 302.616 307.45 302.616C306.909 302.616 306.475 302.756 306.148 303.036C305.831 303.316 305.672 303.727 305.672 304.268C305.672 304.8 305.831 305.211 306.148 305.5C306.466 305.78 306.9 305.92 307.45 305.92ZM308.598 302.826L308.248 301.944H311.104V302.742L308.598 302.826ZM315.209 309.168C314.556 309.168 313.977 309.014 313.473 308.706C312.979 308.398 312.587 307.969 312.297 307.418C312.017 306.858 311.877 306.205 311.877 305.458C311.877 304.711 312.017 304.063 312.297 303.512C312.577 302.961 312.969 302.537 313.473 302.238C313.987 301.93 314.575 301.776 315.237 301.776C315.919 301.776 316.493 301.93 316.959 302.238C317.435 302.546 317.795 302.947 318.037 303.442C318.289 303.937 318.415 304.478 318.415 305.066C318.415 305.159 318.415 305.257 318.415 305.36C318.415 305.453 318.411 305.565 318.401 305.696H312.619V304.87H317.463C317.445 304.151 317.221 303.596 316.791 303.204C316.371 302.812 315.839 302.616 315.195 302.616C314.775 302.616 314.383 302.714 314.019 302.91C313.665 303.097 313.375 303.377 313.151 303.75C312.937 304.114 312.829 304.576 312.829 305.136V305.5C312.829 306.135 312.941 306.662 313.165 307.082C313.389 307.502 313.683 307.815 314.047 308.02C314.421 308.225 314.808 308.328 315.209 308.328C315.741 308.328 316.18 308.211 316.525 307.978C316.871 307.735 317.118 307.404 317.267 306.984H318.233C318.112 307.395 317.916 307.768 317.645 308.104C317.384 308.44 317.048 308.701 316.637 308.888C316.227 309.075 315.751 309.168 315.209 309.168ZM322.42 309C322.019 309 321.673 308.939 321.384 308.818C321.095 308.687 320.871 308.477 320.712 308.188C320.563 307.889 320.488 307.483 320.488 306.97V302.784H319.256V301.944H320.488L320.628 300.306H321.468V301.958H323.582V302.784H321.468V306.97C321.468 307.437 321.561 307.754 321.748 307.922C321.935 308.081 322.266 308.16 322.742 308.16H323.47V309H322.42ZM328.961 312.08V301.944H329.857L329.941 303.218C330.09 302.966 330.286 302.733 330.529 302.518C330.771 302.294 331.061 302.117 331.397 301.986C331.742 301.846 332.134 301.776 332.573 301.776C333.254 301.776 333.847 301.939 334.351 302.266C334.864 302.593 335.261 303.036 335.541 303.596C335.821 304.147 335.961 304.777 335.961 305.486C335.961 306.195 335.816 306.83 335.527 307.39C335.247 307.941 334.855 308.375 334.351 308.692C333.847 309.009 333.249 309.168 332.559 309.168C331.961 309.168 331.434 309.042 330.977 308.79C330.529 308.529 330.183 308.165 329.941 307.698V312.08H328.961ZM332.489 308.314C332.974 308.314 333.399 308.197 333.763 307.964C334.136 307.731 334.43 307.404 334.645 306.984C334.859 306.555 334.967 306.051 334.967 305.472C334.967 304.903 334.859 304.403 334.645 303.974C334.43 303.545 334.136 303.213 333.763 302.98C333.399 302.747 332.974 302.63 332.489 302.63C332.003 302.63 331.569 302.747 331.187 302.98C330.813 303.213 330.519 303.545 330.305 303.974C330.099 304.394 329.997 304.893 329.997 305.472C329.997 306.041 330.099 306.541 330.305 306.97C330.519 307.399 330.813 307.731 331.187 307.964C331.569 308.197 332.003 308.314 332.489 308.314ZM339.896 309.168C339.327 309.168 338.851 309.065 338.468 308.86C338.095 308.655 337.815 308.389 337.628 308.062C337.451 307.735 337.362 307.376 337.362 306.984C337.362 306.499 337.484 306.088 337.726 305.752C337.978 305.416 338.328 305.164 338.776 304.996C339.224 304.828 339.747 304.744 340.344 304.744H342.248C342.248 304.287 342.178 303.899 342.038 303.582C341.898 303.265 341.693 303.027 341.422 302.868C341.152 302.7 340.811 302.616 340.4 302.616C339.924 302.616 339.514 302.737 339.168 302.98C338.823 303.223 338.608 303.577 338.524 304.044H337.502C337.558 303.549 337.726 303.134 338.006 302.798C338.296 302.462 338.65 302.21 339.07 302.042C339.49 301.865 339.934 301.776 340.4 301.776C341.054 301.776 341.586 301.902 341.996 302.154C342.407 302.397 342.715 302.733 342.92 303.162C343.126 303.591 343.228 304.086 343.228 304.646V309H342.332L342.276 307.712C342.192 307.908 342.076 308.095 341.926 308.272C341.786 308.449 341.618 308.603 341.422 308.734C341.236 308.865 341.016 308.967 340.764 309.042C340.512 309.126 340.223 309.168 339.896 309.168ZM340.008 308.314C340.354 308.314 340.662 308.244 340.932 308.104C341.212 307.955 341.45 307.763 341.646 307.53C341.842 307.297 341.992 307.035 342.094 306.746C342.197 306.447 342.248 306.139 342.248 305.822V305.57H340.414C339.92 305.57 339.523 305.631 339.224 305.752C338.926 305.873 338.711 306.037 338.58 306.242C338.45 306.447 338.384 306.685 338.384 306.956C338.384 307.227 338.445 307.465 338.566 307.67C338.688 307.866 338.87 308.025 339.112 308.146C339.364 308.258 339.663 308.314 340.008 308.314ZM345.22 309V301.944H346.186V309H345.22ZM345.71 300.278C345.514 300.278 345.346 300.213 345.206 300.082C345.066 299.942 344.996 299.769 344.996 299.564C344.996 299.349 345.061 299.181 345.192 299.06C345.332 298.929 345.5 298.864 345.696 298.864C345.892 298.864 346.06 298.929 346.2 299.06C346.34 299.181 346.41 299.349 346.41 299.564C346.41 299.769 346.34 299.942 346.2 300.082C346.069 300.213 345.906 300.278 345.71 300.278ZM351.4 309.168C350.719 309.168 350.122 309.009 349.608 308.692C349.104 308.365 348.712 307.922 348.432 307.362C348.152 306.802 348.012 306.167 348.012 305.458C348.012 304.749 348.152 304.119 348.432 303.568C348.712 303.008 349.109 302.569 349.622 302.252C350.136 301.935 350.733 301.776 351.414 301.776C352.012 301.776 352.534 301.907 352.982 302.168C353.44 302.42 353.79 302.779 354.032 303.246V298.92H355.012V309H354.116L354.032 307.726C353.883 307.969 353.687 308.202 353.444 308.426C353.211 308.65 352.922 308.832 352.576 308.972C352.24 309.103 351.848 309.168 351.4 309.168ZM351.484 308.314C351.979 308.314 352.408 308.197 352.772 307.964C353.146 307.731 353.435 307.399 353.64 306.97C353.855 306.541 353.962 306.041 353.962 305.472C353.962 304.903 353.855 304.403 353.64 303.974C353.435 303.545 353.146 303.213 352.772 302.98C352.408 302.747 351.979 302.63 351.484 302.63C350.999 302.63 350.57 302.747 350.196 302.98C349.823 303.213 349.529 303.545 349.314 303.974C349.109 304.394 349.006 304.893 349.006 305.472C349.006 306.051 349.114 306.555 349.328 306.984C349.543 307.404 349.837 307.731 350.21 307.964C350.584 308.197 351.008 308.314 351.484 308.314Z" fill="black"/>
<path d="M260.788 347C260.324 347 259.9 346.92 259.516 346.76C259.132 346.6 258.772 346.416 258.436 346.208C258.116 346 257.796 345.824 257.476 345.68C257.172 345.52 256.86 345.44 256.54 345.44C256.14 345.44 255.812 345.584 255.556 345.872C255.3 346.144 255.148 346.52 255.1 347H253.396C253.492 345.864 253.82 345.024 254.38 344.48C254.956 343.92 255.7 343.64 256.612 343.64C257.076 343.64 257.5 343.72 257.884 343.88C258.268 344.024 258.62 344.2 258.94 344.408C259.276 344.616 259.596 344.8 259.9 344.96C260.22 345.12 260.54 345.2 260.86 345.2C261.26 345.2 261.588 345.056 261.844 344.768C262.1 344.48 262.252 344.104 262.3 343.64H264.004C263.908 344.776 263.572 345.624 262.996 346.184C262.436 346.728 261.7 347 260.788 347ZM266.131 353V336.2H268.291L272.131 344.192L275.971 336.2H278.131V353H276.163V340.088L272.899 346.88H271.363L268.099 340.112V353H266.131ZM285.561 353.288C284.441 353.288 283.449 353.032 282.585 352.52C281.721 352.008 281.041 351.288 280.545 350.36C280.049 349.416 279.801 348.312 279.801 347.048C279.801 345.784 280.049 344.688 280.545 343.76C281.041 342.816 281.721 342.088 282.585 341.576C283.449 341.064 284.441 340.808 285.561 340.808C286.681 340.808 287.673 341.064 288.537 341.576C289.401 342.088 290.081 342.816 290.577 343.76C291.073 344.688 291.321 345.784 291.321 347.048C291.321 348.312 291.073 349.416 290.577 350.36C290.081 351.288 289.401 352.008 288.537 352.52C287.673 353.032 286.681 353.288 285.561 353.288ZM285.561 351.368C286.249 351.368 286.873 351.216 287.433 350.912C287.993 350.608 288.433 350.136 288.753 349.496C289.089 348.856 289.257 348.04 289.257 347.048C289.257 346.056 289.089 345.24 288.753 344.6C288.433 343.96 287.993 343.488 287.433 343.184C286.873 342.88 286.249 342.728 285.561 342.728C284.889 342.728 284.273 342.88 283.713 343.184C283.153 343.488 282.705 343.96 282.369 344.6C282.033 345.24 281.865 346.056 281.865 347.048C281.865 348.536 282.225 349.632 282.945 350.336C283.665 351.024 284.537 351.368 285.561 351.368ZM293.904 353V341.096H295.584L295.8 342.896H295.92C296.24 342.32 296.744 341.832 297.432 341.432C298.12 341.016 298.912 340.808 299.808 340.808C301.264 340.808 302.352 341.24 303.072 342.104C303.808 342.968 304.176 344.216 304.176 345.848V353H302.16V346.088C302.16 345.032 301.928 344.208 301.464 343.616C301 343.008 300.28 342.704 299.304 342.704C298.36 342.704 297.56 343.032 296.904 343.688C296.248 344.328 295.92 345.256 295.92 346.472V353H293.904ZM313.671 353C312.583 353 311.727 352.736 311.102 352.208C310.479 351.68 310.167 350.728 310.167 349.352V342.824H307.142V341.096H308.942C309.759 341.096 310.231 340.696 310.359 339.896L310.695 338.048H312.183V341.096H316.935V342.824H312.183V349.352C312.183 350.024 312.335 350.496 312.639 350.768C312.959 351.04 313.503 351.176 314.27 351.176H316.935V353H313.671ZM320.645 353V335.72H322.661V342.896C322.981 342.288 323.509 341.792 324.245 341.408C324.981 341.008 325.789 340.808 326.669 340.808C328.125 340.808 329.229 341.248 329.981 342.128C330.749 343.008 331.133 344.24 331.133 345.824V353H329.117V346.088C329.117 345.016 328.853 344.184 328.325 343.592C327.813 343 327.093 342.704 326.165 342.704C325.525 342.704 324.941 342.848 324.413 343.136C323.885 343.424 323.461 343.848 323.141 344.408C322.821 344.968 322.661 345.656 322.661 346.472V353H320.645ZM339.404 353.288C337.884 353.288 336.652 352.936 335.708 352.232C334.78 351.512 334.26 350.528 334.148 349.28H336.236C336.332 349.936 336.652 350.472 337.196 350.888C337.756 351.304 338.508 351.512 339.452 351.512C340.348 351.512 341.012 351.32 341.444 350.936C341.892 350.552 342.116 350.112 342.116 349.616C342.116 348.944 341.852 348.488 341.324 348.248C340.796 347.992 340.004 347.8 338.948 347.672C337.684 347.528 336.636 347.184 335.804 346.64C334.972 346.096 334.556 345.28 334.556 344.192C334.556 343.216 334.964 342.408 335.78 341.768C336.596 341.128 337.708 340.808 339.116 340.808C340.508 340.808 341.604 341.128 342.404 341.768C343.204 342.392 343.66 343.288 343.772 344.456H341.78C341.732 343.88 341.452 343.424 340.94 343.088C340.444 342.736 339.82 342.56 339.068 342.56C338.284 342.56 337.676 342.712 337.244 343.016C336.812 343.304 336.596 343.688 336.596 344.168C336.596 344.648 336.836 345.048 337.316 345.368C337.812 345.672 338.588 345.872 339.644 345.968C340.476 346.064 341.236 346.224 341.924 346.448C342.612 346.672 343.156 347.024 343.556 347.504C343.972 347.984 344.18 348.656 344.18 349.52C344.196 350.24 343.996 350.888 343.58 351.464C343.18 352.024 342.62 352.472 341.9 352.808C341.18 353.128 340.348 353.288 339.404 353.288Z" fill="black"/>
<path d="M72.7571 74L70.4531 57.2H72.9251L74.3171 69.416L76.3811 57.2H78.8771L80.9411 69.416L82.3331 57.2H84.8051L82.5011 74H79.5491L77.6291 62.12L75.7091 74H72.7571ZM90.8197 60.272C90.2597 60.272 89.7877 60.096 89.4037 59.744C89.0357 59.376 88.8517 58.928 88.8517 58.4C88.8517 57.872 89.0357 57.432 89.4037 57.08C89.7877 56.728 90.2597 56.552 90.8197 56.552C91.3957 56.552 91.8677 56.728 92.2357 57.08C92.6197 57.432 92.8117 57.872 92.8117 58.4C92.8117 58.928 92.6197 59.376 92.2357 59.744C91.8677 60.096 91.3957 60.272 90.8197 60.272ZM86.0437 74V71.792H89.7877V65.096C89.7877 64.568 89.5317 64.304 89.0197 64.304H86.3797V62.096H89.4757C90.4677 62.096 91.1877 62.328 91.6357 62.792C92.0997 63.24 92.3317 63.96 92.3317 64.952V71.792H96.0757V74H86.0437ZM105.786 74C104.618 74 103.69 73.72 103.002 73.16C102.314 72.584 101.97 71.568 101.97 70.112V64.256H98.9703V62.096H100.746C101.562 62.096 102.042 61.696 102.186 60.896L102.546 58.976H104.514V62.096H109.218V64.256H104.514V70.064C104.514 70.688 104.65 71.128 104.922 71.384C105.21 71.624 105.698 71.744 106.386 71.744H109.17V74H105.786ZM112.473 74V56.72H115.017V63.872C115.337 63.28 115.849 62.792 116.553 62.408C117.257 62.008 118.049 61.808 118.929 61.808C120.401 61.808 121.521 62.256 122.289 63.152C123.057 64.032 123.441 65.304 123.441 66.968V74H120.897V67.328C120.897 66.336 120.657 65.568 120.177 65.024C119.697 64.48 119.033 64.208 118.185 64.208C117.305 64.208 116.553 64.504 115.929 65.096C115.321 65.688 115.017 66.544 115.017 67.664V74H112.473ZM131.352 74.288C130.216 74.288 129.2 74.032 128.304 73.52C127.408 73.008 126.704 72.288 126.192 71.36C125.68 70.416 125.424 69.312 125.424 68.048C125.424 66.784 125.68 65.688 126.192 64.76C126.704 63.816 127.408 63.088 128.304 62.576C129.2 62.064 130.224 61.808 131.376 61.808C132.528 61.808 133.544 62.064 134.424 62.576C135.32 63.088 136.016 63.816 136.512 64.76C137.024 65.688 137.28 66.784 137.28 68.048C137.28 69.312 137.024 70.416 136.512 71.36C136 72.288 135.296 73.008 134.4 73.52C133.52 74.032 132.504 74.288 131.352 74.288ZM131.352 71.864C131.96 71.864 132.52 71.728 133.032 71.456C133.544 71.184 133.952 70.768 134.256 70.208C134.576 69.632 134.736 68.912 134.736 68.048C134.736 67.168 134.576 66.448 134.256 65.888C133.952 65.328 133.544 64.912 133.032 64.64C132.536 64.368 131.984 64.232 131.376 64.232C130.768 64.232 130.208 64.368 129.696 64.64C129.184 64.912 128.768 65.328 128.448 65.888C128.144 66.448 127.992 67.168 127.992 68.048C127.992 69.36 128.32 70.328 128.976 70.952C129.648 71.56 130.44 71.864 131.352 71.864ZM143.726 74.288C142.286 74.288 141.19 73.848 140.438 72.968C139.702 72.072 139.334 70.776 139.334 69.08V62.096H141.878V68.768C141.878 69.744 142.086 70.512 142.502 71.072C142.934 71.616 143.59 71.888 144.47 71.888C145.35 71.888 146.086 71.592 146.678 71C147.27 70.408 147.566 69.552 147.566 68.432V62.096H150.11V74H147.902L147.686 72.224H147.566C147.246 72.8 146.75 73.288 146.078 73.688C145.406 74.088 144.622 74.288 143.726 74.288ZM159.509 74C158.341 74 157.413 73.72 156.725 73.16C156.037 72.584 155.693 71.568 155.693 70.112V64.256H152.693V62.096H154.469C155.285 62.096 155.765 61.696 155.909 60.896L156.269 58.976H158.237V62.096H162.941V64.256H158.237V70.064C158.237 70.688 158.373 71.128 158.645 71.384C158.933 71.624 159.421 71.744 160.109 71.744H162.893V74H159.509ZM179.578 74V57.2H185.266C186.546 57.2 187.602 57.424 188.434 57.872C189.266 58.304 189.882 58.904 190.282 59.672C190.682 60.44 190.882 61.32 190.882 62.312C190.882 63.304 190.682 64.184 190.282 64.952C189.882 65.72 189.266 66.328 188.434 66.776C187.602 67.208 186.546 67.424 185.266 67.424H182.122V74H179.578ZM182.122 65.144H185.146C186.234 65.144 187.026 64.888 187.522 64.376C188.034 63.864 188.29 63.176 188.29 62.312C188.29 61.464 188.034 60.784 187.522 60.272C187.026 59.744 186.234 59.48 185.146 59.48H182.122V65.144ZM193.153 74V71.792H196.057V65.096C196.057 64.568 195.801 64.304 195.289 64.304H193.393V62.096H196.249C196.905 62.096 197.441 62.288 197.857 62.672C198.273 63.04 198.481 63.56 198.481 64.232V64.52H198.601C198.777 63.624 199.153 62.952 199.729 62.504C200.321 62.04 201.177 61.808 202.297 61.808H204.145V64.496H201.553C200.609 64.496 199.881 64.824 199.369 65.48C198.857 66.136 198.601 66.92 198.601 67.832V71.792H202.297V74H193.153ZM210.855 74.288C209.911 74.288 209.119 74.128 208.479 73.808C207.839 73.472 207.359 73.032 207.039 72.488C206.719 71.928 206.559 71.32 206.559 70.664C206.559 69.496 206.983 68.584 207.831 67.928C208.695 67.272 209.911 66.944 211.479 66.944H214.551V66.68C214.551 64.888 213.719 63.992 212.055 63.992C211.367 63.992 210.783 64.144 210.303 64.448C209.839 64.736 209.527 65.208 209.367 65.864H206.823C206.951 64.616 207.487 63.632 208.431 62.912C209.391 62.176 210.599 61.808 212.055 61.808C213.815 61.808 215.095 62.24 215.895 63.104C216.695 63.968 217.095 65.16 217.095 66.68V74H214.935L214.719 72.248H214.551C214.199 72.808 213.759 73.288 213.231 73.688C212.703 74.088 211.911 74.288 210.855 74.288ZM211.335 72.152C212.375 72.152 213.151 71.84 213.663 71.216C214.191 70.576 214.479 69.768 214.527 68.792H211.743C210.831 68.792 210.183 68.944 209.799 69.248C209.431 69.536 209.247 69.944 209.247 70.472C209.247 71 209.431 71.416 209.799 71.72C210.183 72.008 210.695 72.152 211.335 72.152ZM225.534 74.288C224.43 74.288 223.438 74.032 222.558 73.52C221.694 73.008 221.014 72.288 220.518 71.36C220.022 70.416 219.774 69.312 219.774 68.048C219.774 66.784 220.022 65.688 220.518 64.76C221.03 63.832 221.718 63.112 222.582 62.6C223.446 62.072 224.43 61.808 225.534 61.808C227.054 61.808 228.278 62.192 229.206 62.96C230.15 63.712 230.75 64.752 231.006 66.08H228.342C228.182 65.504 227.854 65.048 227.358 64.712C226.878 64.376 226.262 64.208 225.51 64.208C224.966 64.208 224.446 64.352 223.95 64.64C223.47 64.928 223.078 65.36 222.774 65.936C222.486 66.496 222.342 67.2 222.342 68.048C222.342 68.88 222.486 69.584 222.774 70.16C223.078 70.736 223.47 71.176 223.95 71.48C224.446 71.768 224.966 71.912 225.51 71.912C226.278 71.912 226.894 71.744 227.358 71.408C227.822 71.072 228.15 70.608 228.342 70.016H231.006C230.686 71.328 230.062 72.368 229.134 73.136C228.206 73.904 227.006 74.288 225.534 74.288ZM240.093 74C238.925 74 237.997 73.72 237.309 73.16C236.621 72.584 236.277 71.568 236.277 70.112V64.256H233.277V62.096H235.053C235.869 62.096 236.349 61.696 236.493 60.896L236.853 58.976H238.821V62.096H243.525V64.256H238.821V70.064C238.821 70.688 238.957 71.128 239.229 71.384C239.517 71.624 240.005 71.744 240.693 71.744H243.477V74H240.093ZM251.987 60.272C251.427 60.272 250.955 60.096 250.571 59.744C250.203 59.376 250.019 58.928 250.019 58.4C250.019 57.872 250.203 57.432 250.571 57.08C250.955 56.728 251.427 56.552 251.987 56.552C252.563 56.552 253.035 56.728 253.403 57.08C253.787 57.432 253.979 57.872 253.979 58.4C253.979 58.928 253.787 59.376 253.403 59.744C253.035 60.096 252.563 60.272 251.987 60.272ZM247.211 74V71.792H250.955V65.096C250.955 64.568 250.699 64.304 250.187 64.304H247.547V62.096H250.643C251.635 62.096 252.355 62.328 252.803 62.792C253.267 63.24 253.499 63.96 253.499 64.952V71.792H257.243V74H247.211ZM265.826 74.288C264.722 74.288 263.73 74.032 262.85 73.52C261.986 73.008 261.306 72.288 260.81 71.36C260.314 70.416 260.066 69.312 260.066 68.048C260.066 66.784 260.314 65.688 260.81 64.76C261.322 63.832 262.01 63.112 262.874 62.6C263.738 62.072 264.722 61.808 265.826 61.808C267.346 61.808 268.57 62.192 269.498 62.96C270.442 63.712 271.042 64.752 271.298 66.08H268.634C268.474 65.504 268.146 65.048 267.65 64.712C267.17 64.376 266.554 64.208 265.802 64.208C265.258 64.208 264.738 64.352 264.242 64.64C263.762 64.928 263.37 65.36 263.066 65.936C262.778 66.496 262.634 67.2 262.634 68.048C262.634 68.88 262.778 69.584 263.066 70.16C263.37 70.736 263.762 71.176 264.242 71.48C264.738 71.768 265.258 71.912 265.802 71.912C266.57 71.912 267.186 71.744 267.65 71.408C268.114 71.072 268.442 70.608 268.634 70.016H271.298C270.978 71.328 270.354 72.368 269.426 73.136C268.498 73.904 267.298 74.288 265.826 74.288ZM279.232 74.288C278.08 74.288 277.064 74.032 276.184 73.52C275.304 72.992 274.616 72.264 274.12 71.336C273.624 70.408 273.376 69.328 273.376 68.096C273.376 66.848 273.616 65.752 274.096 64.808C274.592 63.864 275.28 63.128 276.16 62.6C277.056 62.072 278.088 61.808 279.256 61.808C280.408 61.808 281.4 62.072 282.232 62.6C283.064 63.112 283.704 63.8 284.152 64.664C284.616 65.528 284.848 66.48 284.848 67.52C284.848 67.68 284.848 67.856 284.848 68.048C284.848 68.224 284.84 68.424 284.824 68.648H275.872C275.952 69.752 276.312 70.592 276.952 71.168C277.592 71.728 278.344 72.008 279.208 72.008C279.96 72.008 280.552 71.856 280.984 71.552C281.432 71.232 281.76 70.8 281.968 70.256H284.536C284.248 71.392 283.648 72.352 282.736 73.136C281.824 73.904 280.656 74.288 279.232 74.288ZM279.232 64.016C278.448 64.016 277.752 64.256 277.144 64.736C276.536 65.2 276.144 65.856 275.968 66.704H282.304C282.24 65.904 281.928 65.256 281.368 64.76C280.808 64.264 280.096 64.016 279.232 64.016ZM299.422 74L304.438 57.2H307.462L312.478 74H309.718L308.59 69.968H303.31L302.182 74H299.422ZM305.878 60.8L303.886 67.928H308.014L306.022 60.8H305.878ZM314.46 74V71.744H318.108V59.456H314.508V57.2H324.252V59.456H320.652V71.744H324.3V74H314.46Z" fill="black"/>
<defs>
<linearGradient id="paint0_linear_1988_23883" x1="44.0007" y1="183.154" x2="356.156" y2="182.704" gradientUnits="userSpaceOnUse">
<stop stop-color="#4A6F3E" stop-opacity="0"/>
<stop offset="0.19888" stop-color="#4A6F3E" stop-opacity="0.451946"/>
<stop offset="0.517495" stop-color="#4A6F3E"/>
<stop offset="0.77388" stop-color="#4A6F3E" stop-opacity="0.406462"/>
<stop offset="1" stop-color="#4A6F3E" stop-opacity="0"/>
</linearGradient>
</defs>
</svg>
